<?xml version="1.0" encoding="UTF-8" standalone="no"?>
<!DOCTYPE svg PUBLIC "-//W3C//DTD SVG 1.1//EN"
 "http://www.w3.org/Graphics/SVG/1.1/DTD/svg11.dtd">
<!-- Generated by graphviz version 2.43.0 (0)
 -->
<!-- Title: G Pages: 1 -->
<svg width="1784pt" height="426pt"
 viewBox="0.00 0.00 1784.00 425.50" xmlns="http://www.w3.org/2000/svg" xmlns:xlink="http://www.w3.org/1999/xlink">
<g id="graph0" class="graph" transform="scale(1 1) rotate(0) translate(4 421.5)">
<title>G</title>
<polygon fill="white" stroke="transparent" points="-4,4 -4,-421.5 1780,-421.5 1780,4 -4,4"/>
<!-- head -->
<g id="node1" class="node">
<title>head</title>
<path fill="#fffeb6" stroke="black" d="M101,-255.5C101,-255.5 35,-255.5 35,-255.5 29,-255.5 23,-249.5 23,-243.5 23,-243.5 23,-231.5 23,-231.5 23,-225.5 29,-219.5 35,-219.5 35,-219.5 101,-219.5 101,-219.5 107,-219.5 113,-225.5 113,-231.5 113,-231.5 113,-243.5 113,-243.5 113,-249.5 107,-255.5 101,-255.5"/>
<text text-anchor="middle" x="68" y="-233.8" font-family="Times,serif" font-size="14.00">HEAD = 1</text>
</g>
<!-- node1 -->
<g id="node8" class="node">
<title>node1</title>
<path fill="#faa76c" stroke="black" d="M184,-0.5C184,-0.5 288,-0.5 288,-0.5 294,-0.5 300,-6.5 300,-12.5 300,-12.5 300,-80.5 300,-80.5 300,-86.5 294,-92.5 288,-92.5 288,-92.5 184,-92.5 184,-92.5 178,-92.5 172,-86.5 172,-80.5 172,-80.5 172,-12.5 172,-12.5 172,-6.5 178,-0.5 184,-0.5"/>
<text text-anchor="middle" x="236" y="-77.3" font-family="Times,serif" font-size="14.00">Node 1</text>
<polyline fill="none" stroke="black" points="172,-69.5 300,-69.5 "/>
<text text-anchor="middle" x="236" y="-54.3" font-family="Times,serif" font-size="14.00">Val. 0</text>
<polyline fill="none" stroke="black" points="172,-46.5 300,-46.5 "/>
<text text-anchor="middle" x="236" y="-31.3" font-family="Times,serif" font-size="14.00">Next 2</text>
<polyline fill="none" stroke="black" points="172,-23.5 300,-23.5 "/>
<text text-anchor="middle" x="236" y="-8.3" font-family="Times,serif" font-size="14.00">Prev. Free node</text>
</g>
<!-- head&#45;&gt;node1 -->
<g id="edge20" class="edge">
<title>head&#45;&gt;node1</title>
<path fill="none" stroke="black" stroke-width="2" d="M113.13,-224.47C121.28,-220.79 129.32,-216.19 136,-210.5 170.29,-181.31 196,-137.12 212.61,-101.96"/>
<polygon fill="black" stroke="black" stroke-width="2" points="215.84,-103.31 216.85,-92.77 209.49,-100.38 215.84,-103.31"/>
</g>
<!-- tail -->
<g id="node2" class="node">
<title>tail</title>
<path fill="#fffeb6" stroke="black" d="M95.5,-201.5C95.5,-201.5 40.5,-201.5 40.5,-201.5 34.5,-201.5 28.5,-195.5 28.5,-189.5 28.5,-189.5 28.5,-177.5 28.5,-177.5 28.5,-171.5 34.5,-165.5 40.5,-165.5 40.5,-165.5 95.5,-165.5 95.5,-165.5 101.5,-165.5 107.5,-171.5 107.5,-177.5 107.5,-177.5 107.5,-189.5 107.5,-189.5 107.5,-195.5 101.5,-201.5 95.5,-201.5"/>
<text text-anchor="middle" x="68" y="-179.8" font-family="Times,serif" font-size="14.00">TAIL = 1</text>
</g>
<!-- tail&#45;&gt;node1 -->
<g id="edge21" class="edge">
<title>tail&#45;&gt;node1</title>
<path fill="none" stroke="black" stroke-width="2" d="M107.75,-171.35C117.43,-167.4 127.47,-162.47 136,-156.5 158.02,-141.09 178.58,-119.91 195.19,-100.24"/>
<polygon fill="black" stroke="black" stroke-width="2" points="197.91,-102.44 201.59,-92.51 192.52,-97.98 197.91,-102.44"/>
</g>
<!-- freeHead -->
<g id="node3" class="node">
<title>freeHead</title>
<path fill="#fffeb6" stroke="black" d="M124,-147.5C124,-147.5 12,-147.5 12,-147.5 6,-147.5 0,-141.5 0,-135.5 0,-135.5 0,-123.5 0,-123.5 0,-117.5 6,-111.5 12,-111.5 12,-111.5 124,-111.5 124,-111.5 130,-111.5 136,-117.5 136,-123.5 136,-123.5 136,-135.5 136,-135.5 136,-141.5 130,-147.5 124,-147.5"/>
<text text-anchor="middle" x="68" y="-125.8" font-family="Times,serif" font-size="14.00">FREE HEAD = 1</text>
</g>
<!-- freeHead&#45;&gt;node1 -->
<g id="edge22" class="edge">
<title>freeHead&#45;&gt;node1</title>
<path fill="none" stroke="black" stroke-width="2" d="M114.36,-111.35C121.65,-108.2 129.08,-104.86 136,-101.5 144.82,-97.22 153.97,-92.52 162.97,-87.73"/>
<polygon fill="black" stroke="black" stroke-width="2" points="164.76,-90.74 171.91,-82.92 161.45,-84.58 164.76,-90.74"/>
</g>
<!-- capacity -->
<g id="node4" class="node">
<title>capacity</title>
<path fill="#fffeb6" stroke="black" d="M120,-309.5C120,-309.5 16,-309.5 16,-309.5 10,-309.5 4,-303.5 4,-297.5 4,-297.5 4,-285.5 4,-285.5 4,-279.5 10,-273.5 16,-273.5 16,-273.5 120,-273.5 120,-273.5 126,-273.5 132,-279.5 132,-285.5 132,-285.5 132,-297.5 132,-297.5 132,-303.5 126,-309.5 120,-309.5"/>
<text text-anchor="middle" x="68" y="-287.8" font-family="Times,serif" font-size="14.00">CAPACITY = 10</text>
</g>
<!-- size -->
<g id="node5" class="node">
<title>size</title>
<path fill="#fffeb6" stroke="black" d="M97,-363.5C97,-363.5 39,-363.5 39,-363.5 33,-363.5 27,-357.5 27,-351.5 27,-351.5 27,-339.5 27,-339.5 27,-333.5 33,-327.5 39,-327.5 39,-327.5 97,-327.5 97,-327.5 103,-327.5 109,-333.5 109,-339.5 109,-339.5 109,-351.5 109,-351.5 109,-357.5 103,-363.5 97,-363.5"/>
<text text-anchor="middle" x="68" y="-341.8" font-family="Times,serif" font-size="14.00">SIZE = 0</text>
</g>
<!-- isSorted -->
<g id="node6" class="node">
<title>isSorted</title>
<path fill="#fffeb6" stroke="black" d="M120.5,-417.5C120.5,-417.5 15.5,-417.5 15.5,-417.5 9.5,-417.5 3.5,-411.5 3.5,-405.5 3.5,-405.5 3.5,-393.5 3.5,-393.5 3.5,-387.5 9.5,-381.5 15.5,-381.5 15.5,-381.5 120.5,-381.5 120.5,-381.5 126.5,-381.5 132.5,-387.5 132.5,-393.5 132.5,-393.5 132.5,-405.5 132.5,-405.5 132.5,-411.5 126.5,-417.5 120.5,-417.5"/>
<text text-anchor="middle" x="68" y="-395.8" font-family="Times,serif" font-size="14.00">SORTED = YES</text>
</g>
<!-- node0 -->
<g id="node7" class="node">
<title>node0</title>
<path fill="#c0c0c0" stroke="black" d="M46,-0.5C46,-0.5 90,-0.5 90,-0.5 96,-0.5 102,-6.5 102,-12.5 102,-12.5 102,-80.5 102,-80.5 102,-86.5 96,-92.5 90,-92.5 90,-92.5 46,-92.5 46,-92.5 40,-92.5 34,-86.5 34,-80.5 34,-80.5 34,-12.5 34,-12.5 34,-6.5 40,-0.5 46,-0.5"/>
<text text-anchor="middle" x="68" y="-77.3" font-family="Times,serif" font-size="14.00">Node 0</text>
<polyline fill="none" stroke="black" points="34,-69.5 102,-69.5 "/>
<text text-anchor="middle" x="68" y="-54.3" font-family="Times,serif" font-size="14.00">Val. 0</text>
<polyline fill="none" stroke="black" points="34,-46.5 102,-46.5 "/>
<text text-anchor="middle" x="68" y="-31.3" font-family="Times,serif" font-size="14.00">Next 0</text>
<polyline fill="none" stroke="black" points="34,-23.5 102,-23.5 "/>
<text text-anchor="middle" x="68" y="-8.3" font-family="Times,serif" font-size="14.00">Prev. 0</text>
</g>
<!-- node0&#45;&gt;node1 -->
<!-- node2 -->
<g id="node9" class="node">
<title>node2</title>
<path fill="#98ff98" stroke="black" d="M348,-0.5C348,-0.5 452,-0.5 452,-0.5 458,-0.5 464,-6.5 464,-12.5 464,-12.5 464,-80.5 464,-80.5 464,-86.5 458,-92.5 452,-92.5 452,-92.5 348,-92.5 348,-92.5 342,-92.5 336,-86.5 336,-80.5 336,-80.5 336,-12.5 336,-12.5 336,-6.5 342,-0.5 348,-0.5"/>
<text text-anchor="middle" x="400" y="-77.3" font-family="Times,serif" font-size="14.00">Node 2</text>
<polyline fill="none" stroke="black" points="336,-69.5 464,-69.5 "/>
<text text-anchor="middle" x="400" y="-54.3" font-family="Times,serif" font-size="14.00">Val. 0</text>
<polyline fill="none" stroke="black" points="336,-46.5 464,-46.5 "/>
<text text-anchor="middle" x="400" y="-31.3" font-family="Times,serif" font-size="14.00">Next 3</text>
<polyline fill="none" stroke="black" points="336,-23.5 464,-23.5 "/>
<text text-anchor="middle" x="400" y="-8.3" font-family="Times,serif" font-size="14.00">Prev. Free node</text>
</g>
<!-- node1&#45;&gt;node2 -->
<!-- node1&#45;&gt;node2 -->
<g id="edge11" class="edge">
<title>node1:n&#45;&gt;node2</title>
<path fill="none" stroke="black" d="M300,-34.5C308.34,-34.5 317.04,-34.92 325.68,-35.61"/>
<polygon fill="black" stroke="black" points="325.48,-39.11 335.76,-36.54 326.12,-32.14 325.48,-39.11"/>
</g>
<!-- node3 -->
<g id="node10" class="node">
<title>node3</title>
<path fill="#98ff98" stroke="black" d="M512,-0.5C512,-0.5 616,-0.5 616,-0.5 622,-0.5 628,-6.5 628,-12.5 628,-12.5 628,-80.5 628,-80.5 628,-86.5 622,-92.5 616,-92.5 616,-92.5 512,-92.5 512,-92.5 506,-92.5 500,-86.5 500,-80.5 500,-80.5 500,-12.5 500,-12.5 500,-6.5 506,-0.5 512,-0.5"/>
<text text-anchor="middle" x="564" y="-77.3" font-family="Times,serif" font-size="14.00">Node 3</text>
<polyline fill="none" stroke="black" points="500,-69.5 628,-69.5 "/>
<text text-anchor="middle" x="564" y="-54.3" font-family="Times,serif" font-size="14.00">Val. 0</text>
<polyline fill="none" stroke="black" points="500,-46.5 628,-46.5 "/>
<text text-anchor="middle" x="564" y="-31.3" font-family="Times,serif" font-size="14.00">Next 4</text>
<polyline fill="none" stroke="black" points="500,-23.5 628,-23.5 "/>
<text text-anchor="middle" x="564" y="-8.3" font-family="Times,serif" font-size="14.00">Prev. Free node</text>
</g>
<!-- node2&#45;&gt;node3 -->
<!-- node2&#45;&gt;node3 -->
<g id="edge12" class="edge">
<title>node2:n&#45;&gt;node3</title>
<path fill="none" stroke="black" d="M464,-34.5C472.34,-34.5 481.04,-34.92 489.68,-35.61"/>
<polygon fill="black" stroke="black" points="489.48,-39.11 499.76,-36.54 490.12,-32.14 489.48,-39.11"/>
</g>
<!-- node4 -->
<g id="node11" class="node">
<title>node4</title>
<path fill="#98ff98" stroke="black" d="M676,-0.5C676,-0.5 780,-0.5 780,-0.5 786,-0.5 792,-6.5 792,-12.5 792,-12.5 792,-80.5 792,-80.5 792,-86.5 786,-92.5 780,-92.5 780,-92.5 676,-92.5 676,-92.5 670,-92.5 664,-86.5 664,-80.5 664,-80.5 664,-12.5 664,-12.5 664,-6.5 670,-0.5 676,-0.5"/>
<text text-anchor="middle" x="728" y="-77.3" font-family="Times,serif" font-size="14.00">Node 4</text>
<polyline fill="none" stroke="black" points="664,-69.5 792,-69.5 "/>
<text text-anchor="middle" x="728" y="-54.3" font-family="Times,serif" font-size="14.00">Val. 0</text>
<polyline fill="none" stroke="black" points="664,-46.5 792,-46.5 "/>
<text text-anchor="middle" x="728" y="-31.3" font-family="Times,serif" font-size="14.00">Next 5</text>
<polyline fill="none" stroke="black" points="664,-23.5 792,-23.5 "/>
<text text-anchor="middle" x="728" y="-8.3" font-family="Times,serif" font-size="14.00">Prev. Free node</text>
</g>
<!-- node3&#45;&gt;node4 -->
<!-- node3&#45;&gt;node4 -->
<g id="edge13" class="edge">
<title>node3:n&#45;&gt;node4</title>
<path fill="none" stroke="black" d="M628,-34.5C636.34,-34.5 645.04,-34.92 653.68,-35.61"/>
<polygon fill="black" stroke="black" points="653.48,-39.11 663.76,-36.54 654.12,-32.14 653.48,-39.11"/>
</g>
<!-- node5 -->
<g id="node12" class="node">
<title>node5</title>
<path fill="#98ff98" stroke="black" d="M840,-0.5C840,-0.5 944,-0.5 944,-0.5 950,-0.5 956,-6.5 956,-12.5 956,-12.5 956,-80.5 956,-80.5 956,-86.5 950,-92.5 944,-92.5 944,-92.5 840,-92.5 840,-92.5 834,-92.5 828,-86.5 828,-80.5 828,-80.5 828,-12.5 828,-12.5 828,-6.5 834,-0.5 840,-0.5"/>
<text text-anchor="middle" x="892" y="-77.3" font-family="Times,serif" font-size="14.00">Node 5</text>
<polyline fill="none" stroke="black" points="828,-69.5 956,-69.5 "/>
<text text-anchor="middle" x="892" y="-54.3" font-family="Times,serif" font-size="14.00">Val. 0</text>
<polyline fill="none" stroke="black" points="828,-46.5 956,-46.5 "/>
<text text-anchor="middle" x="892" y="-31.3" font-family="Times,serif" font-size="14.00">Next 6</text>
<polyline fill="none" stroke="black" points="828,-23.5 956,-23.5 "/>
<text text-anchor="middle" x="892" y="-8.3" font-family="Times,serif" font-size="14.00">Prev. Free node</text>
</g>
<!-- node4&#45;&gt;node5 -->
<!-- node4&#45;&gt;node5 -->
<g id="edge14" class="edge">
<title>node4:n&#45;&gt;node5</title>
<path fill="none" stroke="black" d="M792,-34.5C800.34,-34.5 809.04,-34.92 817.68,-35.61"/>
<polygon fill="black" stroke="black" points="817.48,-39.11 827.76,-36.54 818.12,-32.14 817.48,-39.11"/>
</g>
<!-- node6 -->
<g id="node13" class="node">
<title>node6</title>
<path fill="#98ff98" stroke="black" d="M1004,-0.5C1004,-0.5 1108,-0.5 1108,-0.5 1114,-0.5 1120,-6.5 1120,-12.5 1120,-12.5 1120,-80.5 1120,-80.5 1120,-86.5 1114,-92.5 1108,-92.5 1108,-92.5 1004,-92.5 1004,-92.5 998,-92.5 992,-86.5 992,-80.5 992,-80.5 992,-12.5 992,-12.5 992,-6.5 998,-0.5 1004,-0.5"/>
<text text-anchor="middle" x="1056" y="-77.3" font-family="Times,serif" font-size="14.00">Node 6</text>
<polyline fill="none" stroke="black" points="992,-69.5 1120,-69.5 "/>
<text text-anchor="middle" x="1056" y="-54.3" font-family="Times,serif" font-size="14.00">Val. 0</text>
<polyline fill="none" stroke="black" points="992,-46.5 1120,-46.5 "/>
<text text-anchor="middle" x="1056" y="-31.3" font-family="Times,serif" font-size="14.00">Next 7</text>
<polyline fill="none" stroke="black" points="992,-23.5 1120,-23.5 "/>
<text text-anchor="middle" x="1056" y="-8.3" font-family="Times,serif" font-size="14.00">Prev. Free node</text>
</g>
<!-- node5&#45;&gt;node6 -->
<!-- node5&#45;&gt;node6 -->
<g id="edge15" class="edge">
<title>node5:n&#45;&gt;node6</title>
<path fill="none" stroke="black" d="M956,-34.5C964.34,-34.5 973.04,-34.92 981.68,-35.61"/>
<polygon fill="black" stroke="black" points="981.48,-39.11 991.76,-36.54 982.12,-32.14 981.48,-39.11"/>
</g>
<!-- node7 -->
<g id="node14" class="node">
<title>node7</title>
<path fill="#98ff98" stroke="black" d="M1168,-0.5C1168,-0.5 1272,-0.5 1272,-0.5 1278,-0.5 1284,-6.5 1284,-12.5 1284,-12.5 1284,-80.5 1284,-80.5 1284,-86.5 1278,-92.5 1272,-92.5 1272,-92.5 1168,-92.5 1168,-92.5 1162,-92.5 1156,-86.5 1156,-80.5 1156,-80.5 1156,-12.5 1156,-12.5 1156,-6.5 1162,-0.5 1168,-0.5"/>
<text text-anchor="middle" x="1220" y="-77.3" font-family="Times,serif" font-size="14.00">Node 7</text>
<polyline fill="none" stroke="black" points="1156,-69.5 1284,-69.5 "/>
<text text-anchor="middle" x="1220" y="-54.3" font-family="Times,serif" font-size="14.00">Val. 0</text>
<polyline fill="none" stroke="black" points="1156,-46.5 1284,-46.5 "/>
<text text-anchor="middle" x="1220" y="-31.3" font-family="Times,serif" font-size="14.00">Next 8</text>
<polyline fill="none" stroke="black" points="1156,-23.5 1284,-23.5 "/>
<text text-anchor="middle" x="1220" y="-8.3" font-family="Times,serif" font-size="14.00">Prev. Free node</text>
</g>
<!-- node6&#45;&gt;node7 -->
<!-- node6&#45;&gt;node7 -->
<g id="edge16" class="edge">
<title>node6:n&#45;&gt;node7</title>
<path fill="none" stroke="black" d="M1120,-34.5C1128.34,-34.5 1137.04,-34.92 1145.68,-35.61"/>
<polygon fill="black" stroke="black" points="1145.48,-39.11 1155.76,-36.54 1146.12,-32.14 1145.48,-39.11"/>
</g>
<!-- node8 -->
<g id="node15" class="node">
<title>node8</title>
<path fill="#98ff98" stroke="black" d="M1332,-0.5C1332,-0.5 1436,-0.5 1436,-0.5 1442,-0.5 1448,-6.5 1448,-12.5 1448,-12.5 1448,-80.5 1448,-80.5 1448,-86.5 1442,-92.5 1436,-92.5 1436,-92.5 1332,-92.5 1332,-92.5 1326,-92.5 1320,-86.5 1320,-80.5 1320,-80.5 1320,-12.5 1320,-12.5 1320,-6.5 1326,-0.5 1332,-0.5"/>
<text text-anchor="middle" x="1384" y="-77.3" font-family="Times,serif" font-size="14.00">Node 8</text>
<polyline fill="none" stroke="black" points="1320,-69.5 1448,-69.5 "/>
<text text-anchor="middle" x="1384" y="-54.3" font-family="Times,serif" font-size="14.00">Val. 0</text>
<polyline fill="none" stroke="black" points="1320,-46.5 1448,-46.5 "/>
<text text-anchor="middle" x="1384" y="-31.3" font-family="Times,serif" font-size="14.00">Next 9</text>
<polyline fill="none" stroke="black" points="1320,-23.5 1448,-23.5 "/>
<text text-anchor="middle" x="1384" y="-8.3" font-family="Times,serif" font-size="14.00">Prev. Free node</text>
</g>
<!-- node7&#45;&gt;node8 -->
<!-- node7&#45;&gt;node8 -->
<g id="edge17" class="edge">
<title>node7:n&#45;&gt;node8</title>
<path fill="none" stroke="black" d="M1284,-34.5C1292.34,-34.5 1301.04,-34.92 1309.68,-35.61"/>
<polygon fill="black" stroke="black" points="1309.48,-39.11 1319.76,-36.54 1310.12,-32.14 1309.48,-39.11"/>
</g>
<!-- node9 -->
<g id="node16" class="node">
<title>node9</title>
<path fill="#98ff98" stroke="black" d="M1496,-0.5C1496,-0.5 1600,-0.5 1600,-0.5 1606,-0.5 1612,-6.5 1612,-12.5 1612,-12.5 1612,-80.5 1612,-80.5 1612,-86.5 1606,-92.5 1600,-92.5 1600,-92.5 1496,-92.5 1496,-92.5 1490,-92.5 1484,-86.5 1484,-80.5 1484,-80.5 1484,-12.5 1484,-12.5 1484,-6.5 1490,-0.5 1496,-0.5"/>
<text text-anchor="middle" x="1548" y="-77.3" font-family="Times,serif" font-size="14.00">Node 9</text>
<polyline fill="none" stroke="black" points="1484,-69.5 1612,-69.5 "/>
<text text-anchor="middle" x="1548" y="-54.3" font-family="Times,serif" font-size="14.00">Val. 0</text>
<polyline fill="none" stroke="black" points="1484,-46.5 1612,-46.5 "/>
<text text-anchor="middle" x="1548" y="-31.3" font-family="Times,serif" font-size="14.00">Next 10</text>
<polyline fill="none" stroke="black" points="1484,-23.5 1612,-23.5 "/>
<text text-anchor="middle" x="1548" y="-8.3" font-family="Times,serif" font-size="14.00">Prev. Free node</text>
</g>
<!-- node8&#45;&gt;node9 -->
<!-- node8&#45;&gt;node9 -->
<g id="edge18" class="edge">
<title>node8:n&#45;&gt;node9</title>
<path fill="none" stroke="black" d="M1448,-34.5C1456.34,-34.5 1465.04,-34.92 1473.68,-35.61"/>
<polygon fill="black" stroke="black" points="1473.48,-39.11 1483.76,-36.54 1474.12,-32.14 1473.48,-39.11"/>
</g>
<!-- node10 -->
<g id="node17" class="node">
<title>node10</title>
<path fill="#98ff98" stroke="black" d="M1660,-0.5C1660,-0.5 1764,-0.5 1764,-0.5 1770,-0.5 1776,-6.5 1776,-12.5 1776,-12.5 1776,-80.5 1776,-80.5 1776,-86.5 1770,-92.5 1764,-92.5 1764,-92.5 1660,-92.5 1660,-92.5 1654,-92.5 1648,-86.5 1648,-80.5 1648,-80.5 1648,-12.5 1648,-12.5 1648,-6.5 1654,-0.5 1660,-0.5"/>
<text text-anchor="middle" x="1712" y="-77.3" font-family="Times,serif" font-size="14.00">Node 10</text>
<polyline fill="none" stroke="black" points="1648,-69.5 1776,-69.5 "/>
<text text-anchor="middle" x="1712" y="-54.3" font-family="Times,serif" font-size="14.00">Val. 0</text>
<polyline fill="none" stroke="black" points="1648,-46.5 1776,-46.5 "/>
<text text-anchor="middle" x="1712" y="-31.3" font-family="Times,serif" font-size="14.00">Next 0</text>
<polyline fill="none" stroke="black" points="1648,-23.5 1776,-23.5 "/>
<text text-anchor="middle" x="1712" y="-8.3" font-family="Times,serif" font-size="14.00">Prev. Free node</text>
</g>
<!-- node9&#45;&gt;node10 -->
<!-- node9&#45;&gt;node10 -->
<g id="edge19" class="edge">
<title>node9:n&#45;&gt;node10</title>
<path fill="none" stroke="black" d="M1612,-34.5C1620.34,-34.5 1629.04,-34.92 1637.68,-35.61"/>
<polygon fill="black" stroke="black" points="1637.48,-39.11 1647.76,-36.54 1638.12,-32.14 1637.48,-39.11"/>
</g>
</g>
</svg>
