<?xml version="1.0" encoding="UTF-8" standalone="no"?>
<!DOCTYPE svg PUBLIC "-//W3C//DTD SVG 1.1//EN"
 "http://www.w3.org/Graphics/SVG/1.1/DTD/svg11.dtd">
<!-- Generated by graphviz version 2.43.0 (0)
 -->
<!-- Title: G Pages: 1 -->
<svg width="2548pt" height="551pt"
 viewBox="0.00 0.00 2548.00 550.81" xmlns="http://www.w3.org/2000/svg" xmlns:xlink="http://www.w3.org/1999/xlink">
<g id="graph0" class="graph" transform="scale(1 1) rotate(0) translate(4 546.81)">
<title>G</title>
<polygon fill="white" stroke="transparent" points="-4,4 -4,-546.81 2544,-546.81 2544,4 -4,4"/>
<!-- head -->
<g id="node1" class="node">
<title>head</title>
<path fill="#fffeb6" stroke="black" d="M105.5,-380.81C105.5,-380.81 30.5,-380.81 30.5,-380.81 24.5,-380.81 18.5,-374.81 18.5,-368.81 18.5,-368.81 18.5,-356.81 18.5,-356.81 18.5,-350.81 24.5,-344.81 30.5,-344.81 30.5,-344.81 105.5,-344.81 105.5,-344.81 111.5,-344.81 117.5,-350.81 117.5,-356.81 117.5,-356.81 117.5,-368.81 117.5,-368.81 117.5,-374.81 111.5,-380.81 105.5,-380.81"/>
<text text-anchor="middle" x="68" y="-359.11" font-family="Times,serif" font-size="14.00">HEAD = 17</text>
</g>
<!-- node17 -->
<g id="node24" class="node">
<title>node17</title>
<path fill="#faa76c" stroke="black" d="M1983,-179.81C1983,-179.81 2036,-179.81 2036,-179.81 2042,-179.81 2048,-185.81 2048,-191.81 2048,-191.81 2048,-259.81 2048,-259.81 2048,-265.81 2042,-271.81 2036,-271.81 2036,-271.81 1983,-271.81 1983,-271.81 1977,-271.81 1971,-265.81 1971,-259.81 1971,-259.81 1971,-191.81 1971,-191.81 1971,-185.81 1977,-179.81 1983,-179.81"/>
<text text-anchor="middle" x="2009.5" y="-256.61" font-family="Times,serif" font-size="14.00">Node 17</text>
<polyline fill="none" stroke="black" points="1971,-248.81 2048,-248.81 "/>
<text text-anchor="middle" x="2009.5" y="-233.61" font-family="Times,serif" font-size="14.00">Val. 666</text>
<polyline fill="none" stroke="black" points="1971,-225.81 2048,-225.81 "/>
<text text-anchor="middle" x="2009.5" y="-210.61" font-family="Times,serif" font-size="14.00">Next 1</text>
<polyline fill="none" stroke="black" points="1971,-202.81 2048,-202.81 "/>
<text text-anchor="middle" x="2009.5" y="-187.61" font-family="Times,serif" font-size="14.00">Prev. 0</text>
</g>
<!-- head&#45;&gt;node17 -->
<g id="edge54" class="edge">
<title>head&#45;&gt;node17</title>
<path fill="none" stroke="black" stroke-width="2" d="M117.68,-360.09C185.27,-356.55 311.38,-350.81 419,-350.81 419,-350.81 419,-350.81 525,-350.81 783.23,-350.81 847.77,-345.81 1106,-345.81 1106,-345.81 1106,-345.81 1332.5,-345.81 1550.85,-345.81 1606.66,-339.99 1822,-303.81 1872.46,-295.33 1888.32,-302.75 1935,-281.81 1944.54,-277.53 1953.98,-271.8 1962.77,-265.64"/>
<polygon fill="black" stroke="black" stroke-width="2" points="1964.97,-268.36 1970.96,-259.63 1960.83,-262.72 1964.97,-268.36"/>
</g>
<!-- tail -->
<g id="node2" class="node">
<title>tail</title>
<path fill="#fffeb6" stroke="black" d="M100,-326.81C100,-326.81 36,-326.81 36,-326.81 30,-326.81 24,-320.81 24,-314.81 24,-314.81 24,-302.81 24,-302.81 24,-296.81 30,-290.81 36,-290.81 36,-290.81 100,-290.81 100,-290.81 106,-290.81 112,-296.81 112,-302.81 112,-302.81 112,-314.81 112,-314.81 112,-320.81 106,-326.81 100,-326.81"/>
<text text-anchor="middle" x="68" y="-305.11" font-family="Times,serif" font-size="14.00">TAIL = 16</text>
</g>
<!-- node16 -->
<g id="node23" class="node">
<title>node16</title>
<path fill="#c1aed1" stroke="black" d="M1870,-179.81C1870,-179.81 1923,-179.81 1923,-179.81 1929,-179.81 1935,-185.81 1935,-191.81 1935,-191.81 1935,-259.81 1935,-259.81 1935,-265.81 1929,-271.81 1923,-271.81 1923,-271.81 1870,-271.81 1870,-271.81 1864,-271.81 1858,-265.81 1858,-259.81 1858,-259.81 1858,-191.81 1858,-191.81 1858,-185.81 1864,-179.81 1870,-179.81"/>
<text text-anchor="middle" x="1896.5" y="-256.61" font-family="Times,serif" font-size="14.00">Node 16</text>
<polyline fill="none" stroke="black" points="1858,-248.81 1935,-248.81 "/>
<text text-anchor="middle" x="1896.5" y="-233.61" font-family="Times,serif" font-size="14.00">Val. 15</text>
<polyline fill="none" stroke="black" points="1858,-225.81 1935,-225.81 "/>
<text text-anchor="middle" x="1896.5" y="-210.61" font-family="Times,serif" font-size="14.00">Next 0</text>
<polyline fill="none" stroke="black" points="1858,-202.81 1935,-202.81 "/>
<text text-anchor="middle" x="1896.5" y="-187.61" font-family="Times,serif" font-size="14.00">Prev. 15</text>
</g>
<!-- tail&#45;&gt;node16 -->
<g id="edge55" class="edge">
<title>tail&#45;&gt;node16</title>
<path fill="none" stroke="black" stroke-width="2" d="M112.1,-309.62C178.16,-310.79 308.4,-312.81 419,-312.81 419,-312.81 419,-312.81 525,-312.81 689.46,-312.81 730.54,-307.81 895,-307.81 895,-307.81 895,-307.81 1219.5,-307.81 1353.51,-307.81 1695.98,-327.4 1822,-281.81 1831.5,-278.37 1840.78,-273.23 1849.37,-267.44"/>
<polygon fill="black" stroke="black" stroke-width="2" points="1851.61,-270.14 1857.71,-261.47 1847.54,-264.45 1851.61,-270.14"/>
</g>
<!-- freeHead -->
<g id="node3" class="node">
<title>freeHead</title>
<path fill="#fffeb6" stroke="black" d="M124,-126.81C124,-126.81 12,-126.81 12,-126.81 6,-126.81 0,-120.81 0,-114.81 0,-114.81 0,-102.81 0,-102.81 0,-96.81 6,-90.81 12,-90.81 12,-90.81 124,-90.81 124,-90.81 130,-90.81 136,-96.81 136,-102.81 136,-102.81 136,-114.81 136,-114.81 136,-120.81 130,-126.81 124,-126.81"/>
<text text-anchor="middle" x="68" y="-105.11" font-family="Times,serif" font-size="14.00">FREE HEAD = 5</text>
</g>
<!-- node5 -->
<g id="node12" class="node">
<title>node5</title>
<path fill="#98ff98" stroke="black" d="M606,-179.81C606,-179.81 710,-179.81 710,-179.81 716,-179.81 722,-185.81 722,-191.81 722,-191.81 722,-259.81 722,-259.81 722,-265.81 716,-271.81 710,-271.81 710,-271.81 606,-271.81 606,-271.81 600,-271.81 594,-265.81 594,-259.81 594,-259.81 594,-191.81 594,-191.81 594,-185.81 600,-179.81 606,-179.81"/>
<text text-anchor="middle" x="658" y="-256.61" font-family="Times,serif" font-size="14.00">Node 5</text>
<polyline fill="none" stroke="black" points="594,-248.81 722,-248.81 "/>
<text text-anchor="middle" x="658" y="-233.61" font-family="Times,serif" font-size="14.00">Val. 0</text>
<polyline fill="none" stroke="black" points="594,-225.81 722,-225.81 "/>
<text text-anchor="middle" x="658" y="-210.61" font-family="Times,serif" font-size="14.00">Next 18</text>
<polyline fill="none" stroke="black" points="594,-202.81 722,-202.81 "/>
<text text-anchor="middle" x="658" y="-187.61" font-family="Times,serif" font-size="14.00">Prev. Free node</text>
</g>
<!-- freeHead&#45;&gt;node5 -->
<g id="edge56" class="edge">
<title>freeHead&#45;&gt;node5</title>
<path fill="none" stroke="black" stroke-width="2" d="M136.02,-91.73C193.32,-79.72 277.74,-68.15 350,-82.81 435.54,-100.16 525.11,-145.47 585.27,-180.49"/>
<polygon fill="black" stroke="black" stroke-width="2" points="583.53,-183.52 593.92,-185.57 587.08,-177.49 583.53,-183.52"/>
</g>
<!-- capacity -->
<g id="node4" class="node">
<title>capacity</title>
<path fill="#fffeb6" stroke="black" d="M120,-434.81C120,-434.81 16,-434.81 16,-434.81 10,-434.81 4,-428.81 4,-422.81 4,-422.81 4,-410.81 4,-410.81 4,-404.81 10,-398.81 16,-398.81 16,-398.81 120,-398.81 120,-398.81 126,-398.81 132,-404.81 132,-410.81 132,-410.81 132,-422.81 132,-422.81 132,-428.81 126,-434.81 120,-434.81"/>
<text text-anchor="middle" x="68" y="-413.11" font-family="Times,serif" font-size="14.00">CAPACITY = 20</text>
</g>
<!-- size -->
<g id="node5" class="node">
<title>size</title>
<path fill="#fffeb6" stroke="black" d="M101.5,-488.81C101.5,-488.81 34.5,-488.81 34.5,-488.81 28.5,-488.81 22.5,-482.81 22.5,-476.81 22.5,-476.81 22.5,-464.81 22.5,-464.81 22.5,-458.81 28.5,-452.81 34.5,-452.81 34.5,-452.81 101.5,-452.81 101.5,-452.81 107.5,-452.81 113.5,-458.81 113.5,-464.81 113.5,-464.81 113.5,-476.81 113.5,-476.81 113.5,-482.81 107.5,-488.81 101.5,-488.81"/>
<text text-anchor="middle" x="68" y="-467.11" font-family="Times,serif" font-size="14.00">SIZE = 16</text>
</g>
<!-- isSorted -->
<g id="node6" class="node">
<title>isSorted</title>
<path fill="#fffeb6" stroke="black" d="M117.5,-542.81C117.5,-542.81 18.5,-542.81 18.5,-542.81 12.5,-542.81 6.5,-536.81 6.5,-530.81 6.5,-530.81 6.5,-518.81 6.5,-518.81 6.5,-512.81 12.5,-506.81 18.5,-506.81 18.5,-506.81 117.5,-506.81 117.5,-506.81 123.5,-506.81 129.5,-512.81 129.5,-518.81 129.5,-518.81 129.5,-530.81 129.5,-530.81 129.5,-536.81 123.5,-542.81 117.5,-542.81"/>
<text text-anchor="middle" x="68" y="-521.11" font-family="Times,serif" font-size="14.00">SORTED = NO</text>
</g>
<!-- node0 -->
<g id="node7" class="node">
<title>node0</title>
<path fill="#c0c0c0" stroke="black" d="M46,-179.81C46,-179.81 90,-179.81 90,-179.81 96,-179.81 102,-185.81 102,-191.81 102,-191.81 102,-259.81 102,-259.81 102,-265.81 96,-271.81 90,-271.81 90,-271.81 46,-271.81 46,-271.81 40,-271.81 34,-265.81 34,-259.81 34,-259.81 34,-191.81 34,-191.81 34,-185.81 40,-179.81 46,-179.81"/>
<text text-anchor="middle" x="68" y="-256.61" font-family="Times,serif" font-size="14.00">Node 0</text>
<polyline fill="none" stroke="black" points="34,-248.81 102,-248.81 "/>
<text text-anchor="middle" x="68" y="-233.61" font-family="Times,serif" font-size="14.00">Val. 0</text>
<polyline fill="none" stroke="black" points="34,-225.81 102,-225.81 "/>
<text text-anchor="middle" x="68" y="-210.61" font-family="Times,serif" font-size="14.00">Next 0</text>
<polyline fill="none" stroke="black" points="34,-202.81 102,-202.81 "/>
<text text-anchor="middle" x="68" y="-187.61" font-family="Times,serif" font-size="14.00">Prev. 0</text>
</g>
<!-- node1 -->
<g id="node8" class="node">
<title>node1</title>
<path fill="#ffb2d0" stroke="black" d="M184,-179.81C184,-179.81 234,-179.81 234,-179.81 240,-179.81 246,-185.81 246,-191.81 246,-191.81 246,-259.81 246,-259.81 246,-265.81 240,-271.81 234,-271.81 234,-271.81 184,-271.81 184,-271.81 178,-271.81 172,-265.81 172,-259.81 172,-259.81 172,-191.81 172,-191.81 172,-185.81 178,-179.81 184,-179.81"/>
<text text-anchor="middle" x="209" y="-256.61" font-family="Times,serif" font-size="14.00">Node 1</text>
<polyline fill="none" stroke="black" points="172,-248.81 246,-248.81 "/>
<text text-anchor="middle" x="209" y="-233.61" font-family="Times,serif" font-size="14.00">Val. 0</text>
<polyline fill="none" stroke="black" points="172,-225.81 246,-225.81 "/>
<text text-anchor="middle" x="209" y="-210.61" font-family="Times,serif" font-size="14.00">Next 2</text>
<polyline fill="none" stroke="black" points="172,-202.81 246,-202.81 "/>
<text text-anchor="middle" x="209" y="-187.61" font-family="Times,serif" font-size="14.00">Prev. 17</text>
</g>
<!-- node0&#45;&gt;node1 -->
<!-- node2 -->
<g id="node9" class="node">
<title>node2</title>
<path fill="#ffb2d0" stroke="black" d="M294,-179.81C294,-179.81 338,-179.81 338,-179.81 344,-179.81 350,-185.81 350,-191.81 350,-191.81 350,-259.81 350,-259.81 350,-265.81 344,-271.81 338,-271.81 338,-271.81 294,-271.81 294,-271.81 288,-271.81 282,-265.81 282,-259.81 282,-259.81 282,-191.81 282,-191.81 282,-185.81 288,-179.81 294,-179.81"/>
<text text-anchor="middle" x="316" y="-256.61" font-family="Times,serif" font-size="14.00">Node 2</text>
<polyline fill="none" stroke="black" points="282,-248.81 350,-248.81 "/>
<text text-anchor="middle" x="316" y="-233.61" font-family="Times,serif" font-size="14.00">Val. 1</text>
<polyline fill="none" stroke="black" points="282,-225.81 350,-225.81 "/>
<text text-anchor="middle" x="316" y="-210.61" font-family="Times,serif" font-size="14.00">Next 3</text>
<polyline fill="none" stroke="black" points="282,-202.81 350,-202.81 "/>
<text text-anchor="middle" x="316" y="-187.61" font-family="Times,serif" font-size="14.00">Prev. 1</text>
</g>
<!-- node1&#45;&gt;node2 -->
<!-- node1&#45;&gt;node2 -->
<g id="edge21" class="edge">
<title>node1:n&#45;&gt;node2</title>
<path fill="none" stroke="black" d="M246,-213.81C254.38,-213.81 263.26,-214.68 271.75,-215.95"/>
<polygon fill="black" stroke="black" points="271.42,-219.45 281.86,-217.67 272.59,-212.55 271.42,-219.45"/>
</g>
<!-- node1&#45;&gt;node17 -->
<g id="edge22" class="edge">
<title>node1:p&#45;&gt;node17</title>
<path fill="none" stroke="black" d="M246,-190.81C264.3,-190.81 264.63,-176.58 282,-170.81 414.79,-126.74 454.69,-141.8 594,-128.81 1087.43,-82.79 1215.58,-90.7 1709,-136.81 1810.13,-146.26 1841.28,-131.64 1935,-170.81 1944.37,-174.73 1953.64,-180.11 1962.26,-185.97"/>
<polygon fill="black" stroke="black" points="1960.49,-189 1970.66,-191.97 1964.55,-183.31 1960.49,-189"/>
</g>
<!-- node2&#45;&gt;node1 -->
<g id="edge24" class="edge">
<title>node2:p&#45;&gt;node1</title>
<path fill="none" stroke="black" d="M282,-190.81C273.01,-190.81 263.97,-193.04 255.48,-196.38"/>
<polygon fill="black" stroke="black" points="253.85,-193.28 246.15,-200.56 256.71,-199.66 253.85,-193.28"/>
</g>
<!-- node3 -->
<g id="node10" class="node">
<title>node3</title>
<path fill="#ffb2d0" stroke="black" d="M398,-179.81C398,-179.81 442,-179.81 442,-179.81 448,-179.81 454,-185.81 454,-191.81 454,-191.81 454,-259.81 454,-259.81 454,-265.81 448,-271.81 442,-271.81 442,-271.81 398,-271.81 398,-271.81 392,-271.81 386,-265.81 386,-259.81 386,-259.81 386,-191.81 386,-191.81 386,-185.81 392,-179.81 398,-179.81"/>
<text text-anchor="middle" x="420" y="-256.61" font-family="Times,serif" font-size="14.00">Node 3</text>
<polyline fill="none" stroke="black" points="386,-248.81 454,-248.81 "/>
<text text-anchor="middle" x="420" y="-233.61" font-family="Times,serif" font-size="14.00">Val. 2</text>
<polyline fill="none" stroke="black" points="386,-225.81 454,-225.81 "/>
<text text-anchor="middle" x="420" y="-210.61" font-family="Times,serif" font-size="14.00">Next 4</text>
<polyline fill="none" stroke="black" points="386,-202.81 454,-202.81 "/>
<text text-anchor="middle" x="420" y="-187.61" font-family="Times,serif" font-size="14.00">Prev. 2</text>
</g>
<!-- node2&#45;&gt;node3 -->
<!-- node2&#45;&gt;node3 -->
<g id="edge23" class="edge">
<title>node2:n&#45;&gt;node3</title>
<path fill="none" stroke="black" d="M350,-213.81C358.38,-213.81 367.26,-214.68 375.75,-215.95"/>
<polygon fill="black" stroke="black" points="375.42,-219.45 385.86,-217.67 376.59,-212.55 375.42,-219.45"/>
</g>
<!-- node3&#45;&gt;node2 -->
<g id="edge26" class="edge">
<title>node3:p&#45;&gt;node2</title>
<path fill="none" stroke="black" d="M386,-190.81C376.92,-190.81 367.83,-193.25 359.36,-196.84"/>
<polygon fill="black" stroke="black" points="357.59,-193.81 350.1,-201.31 360.63,-200.11 357.59,-193.81"/>
</g>
<!-- node4 -->
<g id="node11" class="node">
<title>node4</title>
<path fill="#ffb2d0" stroke="black" d="M502,-179.81C502,-179.81 546,-179.81 546,-179.81 552,-179.81 558,-185.81 558,-191.81 558,-191.81 558,-259.81 558,-259.81 558,-265.81 552,-271.81 546,-271.81 546,-271.81 502,-271.81 502,-271.81 496,-271.81 490,-265.81 490,-259.81 490,-259.81 490,-191.81 490,-191.81 490,-185.81 496,-179.81 502,-179.81"/>
<text text-anchor="middle" x="524" y="-256.61" font-family="Times,serif" font-size="14.00">Node 4</text>
<polyline fill="none" stroke="black" points="490,-248.81 558,-248.81 "/>
<text text-anchor="middle" x="524" y="-233.61" font-family="Times,serif" font-size="14.00">Val. 3</text>
<polyline fill="none" stroke="black" points="490,-225.81 558,-225.81 "/>
<text text-anchor="middle" x="524" y="-210.61" font-family="Times,serif" font-size="14.00">Next 6</text>
<polyline fill="none" stroke="black" points="490,-202.81 558,-202.81 "/>
<text text-anchor="middle" x="524" y="-187.61" font-family="Times,serif" font-size="14.00">Prev. 3</text>
</g>
<!-- node3&#45;&gt;node4 -->
<!-- node3&#45;&gt;node4 -->
<g id="edge25" class="edge">
<title>node3:n&#45;&gt;node4</title>
<path fill="none" stroke="black" d="M454,-213.81C462.38,-213.81 471.26,-214.68 479.75,-215.95"/>
<polygon fill="black" stroke="black" points="479.42,-219.45 489.86,-217.67 480.59,-212.55 479.42,-219.45"/>
</g>
<!-- node4&#45;&gt;node3 -->
<g id="edge28" class="edge">
<title>node4:p&#45;&gt;node3</title>
<path fill="none" stroke="black" d="M490,-190.81C480.92,-190.81 471.83,-193.25 463.36,-196.84"/>
<polygon fill="black" stroke="black" points="461.59,-193.81 454.1,-201.31 464.63,-200.11 461.59,-193.81"/>
</g>
<!-- node4&#45;&gt;node5 -->
<!-- node6 -->
<g id="node13" class="node">
<title>node6</title>
<path fill="#ffb2d0" stroke="black" d="M770,-179.81C770,-179.81 814,-179.81 814,-179.81 820,-179.81 826,-185.81 826,-191.81 826,-191.81 826,-259.81 826,-259.81 826,-265.81 820,-271.81 814,-271.81 814,-271.81 770,-271.81 770,-271.81 764,-271.81 758,-265.81 758,-259.81 758,-259.81 758,-191.81 758,-191.81 758,-185.81 764,-179.81 770,-179.81"/>
<text text-anchor="middle" x="792" y="-256.61" font-family="Times,serif" font-size="14.00">Node 6</text>
<polyline fill="none" stroke="black" points="758,-248.81 826,-248.81 "/>
<text text-anchor="middle" x="792" y="-233.61" font-family="Times,serif" font-size="14.00">Val. 5</text>
<polyline fill="none" stroke="black" points="758,-225.81 826,-225.81 "/>
<text text-anchor="middle" x="792" y="-210.61" font-family="Times,serif" font-size="14.00">Next 7</text>
<polyline fill="none" stroke="black" points="758,-202.81 826,-202.81 "/>
<text text-anchor="middle" x="792" y="-187.61" font-family="Times,serif" font-size="14.00">Prev. 4</text>
</g>
<!-- node4&#45;&gt;node6 -->
<g id="edge27" class="edge">
<title>node4:n&#45;&gt;node6</title>
<path fill="none" stroke="black" d="M558,-213.81C582.92,-213.81 571.42,-181.36 594,-170.81 645.55,-146.74 668.3,-152.03 722,-170.81 731.65,-174.19 740.96,-179.54 749.45,-185.61"/>
<polygon fill="black" stroke="black" points="747.58,-188.59 757.65,-191.88 751.83,-183.03 747.58,-188.59"/>
</g>
<!-- node5&#45;&gt;node6 -->
<!-- node18 -->
<g id="node25" class="node">
<title>node18</title>
<path fill="#98ff98" stroke="black" d="M2096,-179.81C2096,-179.81 2200,-179.81 2200,-179.81 2206,-179.81 2212,-185.81 2212,-191.81 2212,-191.81 2212,-259.81 2212,-259.81 2212,-265.81 2206,-271.81 2200,-271.81 2200,-271.81 2096,-271.81 2096,-271.81 2090,-271.81 2084,-265.81 2084,-259.81 2084,-259.81 2084,-191.81 2084,-191.81 2084,-185.81 2090,-179.81 2096,-179.81"/>
<text text-anchor="middle" x="2148" y="-256.61" font-family="Times,serif" font-size="14.00">Node 18</text>
<polyline fill="none" stroke="black" points="2084,-248.81 2212,-248.81 "/>
<text text-anchor="middle" x="2148" y="-233.61" font-family="Times,serif" font-size="14.00">Val. 0</text>
<polyline fill="none" stroke="black" points="2084,-225.81 2212,-225.81 "/>
<text text-anchor="middle" x="2148" y="-210.61" font-family="Times,serif" font-size="14.00">Next 19</text>
<polyline fill="none" stroke="black" points="2084,-202.81 2212,-202.81 "/>
<text text-anchor="middle" x="2148" y="-187.61" font-family="Times,serif" font-size="14.00">Prev. Free node</text>
</g>
<!-- node5&#45;&gt;node18 -->
<g id="edge29" class="edge">
<title>node5:n&#45;&gt;node18</title>
<path fill="none" stroke="black" d="M722,-213.81C746.92,-213.81 735.6,-181.75 758,-170.81 986.77,-59.07 1075.9,-150.81 1330.5,-150.81 1330.5,-150.81 1330.5,-150.81 1897.5,-150.81 1964.98,-150.81 1983.94,-149.61 2048,-170.81 2056.94,-173.77 2065.99,-177.54 2074.81,-181.72"/>
<polygon fill="black" stroke="black" points="2073.38,-184.92 2083.9,-186.21 2076.48,-178.65 2073.38,-184.92"/>
</g>
<!-- node6&#45;&gt;node4 -->
<g id="edge31" class="edge">
<title>node6:p&#45;&gt;node4</title>
<path fill="none" stroke="black" d="M758,-190.81C733.75,-190.81 744.09,-159.81 722,-149.81 670.17,-126.35 646.02,-126.78 594,-149.81 582.43,-154.93 571.97,-163.06 562.89,-172.14"/>
<polygon fill="black" stroke="black" points="560.2,-169.89 555.91,-179.58 565.31,-174.68 560.2,-169.89"/>
</g>
<!-- node7 -->
<g id="node14" class="node">
<title>node7</title>
<path fill="#ffb2d0" stroke="black" d="M874,-179.81C874,-179.81 918,-179.81 918,-179.81 924,-179.81 930,-185.81 930,-191.81 930,-191.81 930,-259.81 930,-259.81 930,-265.81 924,-271.81 918,-271.81 918,-271.81 874,-271.81 874,-271.81 868,-271.81 862,-265.81 862,-259.81 862,-259.81 862,-191.81 862,-191.81 862,-185.81 868,-179.81 874,-179.81"/>
<text text-anchor="middle" x="896" y="-256.61" font-family="Times,serif" font-size="14.00">Node 7</text>
<polyline fill="none" stroke="black" points="862,-248.81 930,-248.81 "/>
<text text-anchor="middle" x="896" y="-233.61" font-family="Times,serif" font-size="14.00">Val. 6</text>
<polyline fill="none" stroke="black" points="862,-225.81 930,-225.81 "/>
<text text-anchor="middle" x="896" y="-210.61" font-family="Times,serif" font-size="14.00">Next 8</text>
<polyline fill="none" stroke="black" points="862,-202.81 930,-202.81 "/>
<text text-anchor="middle" x="896" y="-187.61" font-family="Times,serif" font-size="14.00">Prev. 6</text>
</g>
<!-- node6&#45;&gt;node7 -->
<!-- node6&#45;&gt;node7 -->
<g id="edge30" class="edge">
<title>node6:n&#45;&gt;node7</title>
<path fill="none" stroke="black" d="M826,-213.81C834.38,-213.81 843.26,-214.68 851.75,-215.95"/>
<polygon fill="black" stroke="black" points="851.42,-219.45 861.86,-217.67 852.59,-212.55 851.42,-219.45"/>
</g>
<!-- node7&#45;&gt;node6 -->
<g id="edge33" class="edge">
<title>node7:p&#45;&gt;node6</title>
<path fill="none" stroke="black" d="M862,-190.81C852.92,-190.81 843.83,-193.25 835.36,-196.84"/>
<polygon fill="black" stroke="black" points="833.59,-193.81 826.1,-201.31 836.63,-200.11 833.59,-193.81"/>
</g>
<!-- node8 -->
<g id="node15" class="node">
<title>node8</title>
<path fill="#ffb2d0" stroke="black" d="M978,-179.81C978,-179.81 1022,-179.81 1022,-179.81 1028,-179.81 1034,-185.81 1034,-191.81 1034,-191.81 1034,-259.81 1034,-259.81 1034,-265.81 1028,-271.81 1022,-271.81 1022,-271.81 978,-271.81 978,-271.81 972,-271.81 966,-265.81 966,-259.81 966,-259.81 966,-191.81 966,-191.81 966,-185.81 972,-179.81 978,-179.81"/>
<text text-anchor="middle" x="1000" y="-256.61" font-family="Times,serif" font-size="14.00">Node 8</text>
<polyline fill="none" stroke="black" points="966,-248.81 1034,-248.81 "/>
<text text-anchor="middle" x="1000" y="-233.61" font-family="Times,serif" font-size="14.00">Val. 7</text>
<polyline fill="none" stroke="black" points="966,-225.81 1034,-225.81 "/>
<text text-anchor="middle" x="1000" y="-210.61" font-family="Times,serif" font-size="14.00">Next 9</text>
<polyline fill="none" stroke="black" points="966,-202.81 1034,-202.81 "/>
<text text-anchor="middle" x="1000" y="-187.61" font-family="Times,serif" font-size="14.00">Prev. 7</text>
</g>
<!-- node7&#45;&gt;node8 -->
<!-- node7&#45;&gt;node8 -->
<g id="edge32" class="edge">
<title>node7:n&#45;&gt;node8</title>
<path fill="none" stroke="black" d="M930,-213.81C938.38,-213.81 947.26,-214.68 955.75,-215.95"/>
<polygon fill="black" stroke="black" points="955.42,-219.45 965.86,-217.67 956.59,-212.55 955.42,-219.45"/>
</g>
<!-- node8&#45;&gt;node7 -->
<g id="edge35" class="edge">
<title>node8:p&#45;&gt;node7</title>
<path fill="none" stroke="black" d="M966,-190.81C956.92,-190.81 947.83,-193.25 939.36,-196.84"/>
<polygon fill="black" stroke="black" points="937.59,-193.81 930.1,-201.31 940.63,-200.11 937.59,-193.81"/>
</g>
<!-- node9 -->
<g id="node16" class="node">
<title>node9</title>
<path fill="#ffb2d0" stroke="black" d="M1082,-179.81C1082,-179.81 1132,-179.81 1132,-179.81 1138,-179.81 1144,-185.81 1144,-191.81 1144,-191.81 1144,-259.81 1144,-259.81 1144,-265.81 1138,-271.81 1132,-271.81 1132,-271.81 1082,-271.81 1082,-271.81 1076,-271.81 1070,-265.81 1070,-259.81 1070,-259.81 1070,-191.81 1070,-191.81 1070,-185.81 1076,-179.81 1082,-179.81"/>
<text text-anchor="middle" x="1107" y="-256.61" font-family="Times,serif" font-size="14.00">Node 9</text>
<polyline fill="none" stroke="black" points="1070,-248.81 1144,-248.81 "/>
<text text-anchor="middle" x="1107" y="-233.61" font-family="Times,serif" font-size="14.00">Val. 8</text>
<polyline fill="none" stroke="black" points="1070,-225.81 1144,-225.81 "/>
<text text-anchor="middle" x="1107" y="-210.61" font-family="Times,serif" font-size="14.00">Next 10</text>
<polyline fill="none" stroke="black" points="1070,-202.81 1144,-202.81 "/>
<text text-anchor="middle" x="1107" y="-187.61" font-family="Times,serif" font-size="14.00">Prev. 8</text>
</g>
<!-- node8&#45;&gt;node9 -->
<!-- node8&#45;&gt;node9 -->
<g id="edge34" class="edge">
<title>node8:n&#45;&gt;node9</title>
<path fill="none" stroke="black" d="M1034,-213.81C1042.47,-213.81 1051.43,-214.63 1060.04,-215.84"/>
<polygon fill="black" stroke="black" points="1059.51,-219.3 1069.94,-217.41 1060.61,-212.38 1059.51,-219.3"/>
</g>
<!-- node9&#45;&gt;node8 -->
<g id="edge37" class="edge">
<title>node9:p&#45;&gt;node8</title>
<path fill="none" stroke="black" d="M1070,-190.81C1060.92,-190.81 1051.83,-193.25 1043.36,-196.84"/>
<polygon fill="black" stroke="black" points="1041.59,-193.81 1034.1,-201.31 1044.63,-200.11 1041.59,-193.81"/>
</g>
<!-- node10 -->
<g id="node17" class="node">
<title>node10</title>
<path fill="#ffb2d0" stroke="black" d="M1192,-179.81C1192,-179.81 1245,-179.81 1245,-179.81 1251,-179.81 1257,-185.81 1257,-191.81 1257,-191.81 1257,-259.81 1257,-259.81 1257,-265.81 1251,-271.81 1245,-271.81 1245,-271.81 1192,-271.81 1192,-271.81 1186,-271.81 1180,-265.81 1180,-259.81 1180,-259.81 1180,-191.81 1180,-191.81 1180,-185.81 1186,-179.81 1192,-179.81"/>
<text text-anchor="middle" x="1218.5" y="-256.61" font-family="Times,serif" font-size="14.00">Node 10</text>
<polyline fill="none" stroke="black" points="1180,-248.81 1257,-248.81 "/>
<text text-anchor="middle" x="1218.5" y="-233.61" font-family="Times,serif" font-size="14.00">Val. 9</text>
<polyline fill="none" stroke="black" points="1180,-225.81 1257,-225.81 "/>
<text text-anchor="middle" x="1218.5" y="-210.61" font-family="Times,serif" font-size="14.00">Next 11</text>
<polyline fill="none" stroke="black" points="1180,-202.81 1257,-202.81 "/>
<text text-anchor="middle" x="1218.5" y="-187.61" font-family="Times,serif" font-size="14.00">Prev. 9</text>
</g>
<!-- node9&#45;&gt;node10 -->
<!-- node9&#45;&gt;node10 -->
<g id="edge36" class="edge">
<title>node9:n&#45;&gt;node10</title>
<path fill="none" stroke="black" d="M1144,-213.81C1152.46,-213.81 1161.39,-214.59 1170,-215.76"/>
<polygon fill="black" stroke="black" points="1169.51,-219.22 1179.92,-217.28 1170.57,-212.31 1169.51,-219.22"/>
</g>
<!-- node10&#45;&gt;node9 -->
<g id="edge39" class="edge">
<title>node10:p&#45;&gt;node9</title>
<path fill="none" stroke="black" d="M1180,-190.81C1171.01,-190.81 1161.97,-193.04 1153.48,-196.38"/>
<polygon fill="black" stroke="black" points="1151.85,-193.28 1144.15,-200.56 1154.71,-199.66 1151.85,-193.28"/>
</g>
<!-- node11 -->
<g id="node18" class="node">
<title>node11</title>
<path fill="#ffb2d0" stroke="black" d="M1305,-179.81C1305,-179.81 1358,-179.81 1358,-179.81 1364,-179.81 1370,-185.81 1370,-191.81 1370,-191.81 1370,-259.81 1370,-259.81 1370,-265.81 1364,-271.81 1358,-271.81 1358,-271.81 1305,-271.81 1305,-271.81 1299,-271.81 1293,-265.81 1293,-259.81 1293,-259.81 1293,-191.81 1293,-191.81 1293,-185.81 1299,-179.81 1305,-179.81"/>
<text text-anchor="middle" x="1331.5" y="-256.61" font-family="Times,serif" font-size="14.00">Node 11</text>
<polyline fill="none" stroke="black" points="1293,-248.81 1370,-248.81 "/>
<text text-anchor="middle" x="1331.5" y="-233.61" font-family="Times,serif" font-size="14.00">Val. 10</text>
<polyline fill="none" stroke="black" points="1293,-225.81 1370,-225.81 "/>
<text text-anchor="middle" x="1331.5" y="-210.61" font-family="Times,serif" font-size="14.00">Next 12</text>
<polyline fill="none" stroke="black" points="1293,-202.81 1370,-202.81 "/>
<text text-anchor="middle" x="1331.5" y="-187.61" font-family="Times,serif" font-size="14.00">Prev. 10</text>
</g>
<!-- node10&#45;&gt;node11 -->
<!-- node10&#45;&gt;node11 -->
<g id="edge38" class="edge">
<title>node10:n&#45;&gt;node11</title>
<path fill="none" stroke="black" d="M1257,-213.81C1265.46,-213.81 1274.39,-214.59 1283,-215.76"/>
<polygon fill="black" stroke="black" points="1282.51,-219.22 1292.92,-217.28 1283.57,-212.31 1282.51,-219.22"/>
</g>
<!-- node11&#45;&gt;node10 -->
<g id="edge41" class="edge">
<title>node11:p&#45;&gt;node10</title>
<path fill="none" stroke="black" d="M1293,-190.81C1284.07,-190.81 1275.06,-192.94 1266.57,-196.16"/>
<polygon fill="black" stroke="black" points="1265.02,-193.01 1257.23,-200.19 1267.8,-199.44 1265.02,-193.01"/>
</g>
<!-- node12 -->
<g id="node19" class="node">
<title>node12</title>
<path fill="#ffb2d0" stroke="black" d="M1418,-179.81C1418,-179.81 1471,-179.81 1471,-179.81 1477,-179.81 1483,-185.81 1483,-191.81 1483,-191.81 1483,-259.81 1483,-259.81 1483,-265.81 1477,-271.81 1471,-271.81 1471,-271.81 1418,-271.81 1418,-271.81 1412,-271.81 1406,-265.81 1406,-259.81 1406,-259.81 1406,-191.81 1406,-191.81 1406,-185.81 1412,-179.81 1418,-179.81"/>
<text text-anchor="middle" x="1444.5" y="-256.61" font-family="Times,serif" font-size="14.00">Node 12</text>
<polyline fill="none" stroke="black" points="1406,-248.81 1483,-248.81 "/>
<text text-anchor="middle" x="1444.5" y="-233.61" font-family="Times,serif" font-size="14.00">Val. 11</text>
<polyline fill="none" stroke="black" points="1406,-225.81 1483,-225.81 "/>
<text text-anchor="middle" x="1444.5" y="-210.61" font-family="Times,serif" font-size="14.00">Next 13</text>
<polyline fill="none" stroke="black" points="1406,-202.81 1483,-202.81 "/>
<text text-anchor="middle" x="1444.5" y="-187.61" font-family="Times,serif" font-size="14.00">Prev. 11</text>
</g>
<!-- node11&#45;&gt;node12 -->
<!-- node11&#45;&gt;node12 -->
<g id="edge40" class="edge">
<title>node11:n&#45;&gt;node12</title>
<path fill="none" stroke="black" d="M1370,-213.81C1378.46,-213.81 1387.39,-214.59 1396,-215.76"/>
<polygon fill="black" stroke="black" points="1395.51,-219.22 1405.92,-217.28 1396.57,-212.31 1395.51,-219.22"/>
</g>
<!-- node12&#45;&gt;node11 -->
<g id="edge43" class="edge">
<title>node12:p&#45;&gt;node11</title>
<path fill="none" stroke="black" d="M1406,-190.81C1397.07,-190.81 1388.06,-192.94 1379.57,-196.16"/>
<polygon fill="black" stroke="black" points="1378.02,-193.01 1370.23,-200.19 1380.8,-199.44 1378.02,-193.01"/>
</g>
<!-- node13 -->
<g id="node20" class="node">
<title>node13</title>
<path fill="#ffb2d0" stroke="black" d="M1531,-179.81C1531,-179.81 1584,-179.81 1584,-179.81 1590,-179.81 1596,-185.81 1596,-191.81 1596,-191.81 1596,-259.81 1596,-259.81 1596,-265.81 1590,-271.81 1584,-271.81 1584,-271.81 1531,-271.81 1531,-271.81 1525,-271.81 1519,-265.81 1519,-259.81 1519,-259.81 1519,-191.81 1519,-191.81 1519,-185.81 1525,-179.81 1531,-179.81"/>
<text text-anchor="middle" x="1557.5" y="-256.61" font-family="Times,serif" font-size="14.00">Node 13</text>
<polyline fill="none" stroke="black" points="1519,-248.81 1596,-248.81 "/>
<text text-anchor="middle" x="1557.5" y="-233.61" font-family="Times,serif" font-size="14.00">Val. 12</text>
<polyline fill="none" stroke="black" points="1519,-225.81 1596,-225.81 "/>
<text text-anchor="middle" x="1557.5" y="-210.61" font-family="Times,serif" font-size="14.00">Next 14</text>
<polyline fill="none" stroke="black" points="1519,-202.81 1596,-202.81 "/>
<text text-anchor="middle" x="1557.5" y="-187.61" font-family="Times,serif" font-size="14.00">Prev. 12</text>
</g>
<!-- node12&#45;&gt;node13 -->
<!-- node12&#45;&gt;node13 -->
<g id="edge42" class="edge">
<title>node12:n&#45;&gt;node13</title>
<path fill="none" stroke="black" d="M1483,-213.81C1491.46,-213.81 1500.39,-214.59 1509,-215.76"/>
<polygon fill="black" stroke="black" points="1508.51,-219.22 1518.92,-217.28 1509.57,-212.31 1508.51,-219.22"/>
</g>
<!-- node13&#45;&gt;node12 -->
<g id="edge45" class="edge">
<title>node13:p&#45;&gt;node12</title>
<path fill="none" stroke="black" d="M1519,-190.81C1510.07,-190.81 1501.06,-192.94 1492.57,-196.16"/>
<polygon fill="black" stroke="black" points="1491.02,-193.01 1483.23,-200.19 1493.8,-199.44 1491.02,-193.01"/>
</g>
<!-- node14 -->
<g id="node21" class="node">
<title>node14</title>
<path fill="#ffb2d0" stroke="black" d="M1644,-179.81C1644,-179.81 1697,-179.81 1697,-179.81 1703,-179.81 1709,-185.81 1709,-191.81 1709,-191.81 1709,-259.81 1709,-259.81 1709,-265.81 1703,-271.81 1697,-271.81 1697,-271.81 1644,-271.81 1644,-271.81 1638,-271.81 1632,-265.81 1632,-259.81 1632,-259.81 1632,-191.81 1632,-191.81 1632,-185.81 1638,-179.81 1644,-179.81"/>
<text text-anchor="middle" x="1670.5" y="-256.61" font-family="Times,serif" font-size="14.00">Node 14</text>
<polyline fill="none" stroke="black" points="1632,-248.81 1709,-248.81 "/>
<text text-anchor="middle" x="1670.5" y="-233.61" font-family="Times,serif" font-size="14.00">Val. 13</text>
<polyline fill="none" stroke="black" points="1632,-225.81 1709,-225.81 "/>
<text text-anchor="middle" x="1670.5" y="-210.61" font-family="Times,serif" font-size="14.00">Next 15</text>
<polyline fill="none" stroke="black" points="1632,-202.81 1709,-202.81 "/>
<text text-anchor="middle" x="1670.5" y="-187.61" font-family="Times,serif" font-size="14.00">Prev. 13</text>
</g>
<!-- node13&#45;&gt;node14 -->
<!-- node13&#45;&gt;node14 -->
<g id="edge44" class="edge">
<title>node13:n&#45;&gt;node14</title>
<path fill="none" stroke="black" d="M1596,-213.81C1604.46,-213.81 1613.39,-214.59 1622,-215.76"/>
<polygon fill="black" stroke="black" points="1621.51,-219.22 1631.92,-217.28 1622.57,-212.31 1621.51,-219.22"/>
</g>
<!-- node14&#45;&gt;node13 -->
<g id="edge47" class="edge">
<title>node14:p&#45;&gt;node13</title>
<path fill="none" stroke="black" d="M1632,-190.81C1623.07,-190.81 1614.06,-192.94 1605.57,-196.16"/>
<polygon fill="black" stroke="black" points="1604.02,-193.01 1596.23,-200.19 1606.8,-199.44 1604.02,-193.01"/>
</g>
<!-- node15 -->
<g id="node22" class="node">
<title>node15</title>
<path fill="#ffb2d0" stroke="black" d="M1757,-179.81C1757,-179.81 1810,-179.81 1810,-179.81 1816,-179.81 1822,-185.81 1822,-191.81 1822,-191.81 1822,-259.81 1822,-259.81 1822,-265.81 1816,-271.81 1810,-271.81 1810,-271.81 1757,-271.81 1757,-271.81 1751,-271.81 1745,-265.81 1745,-259.81 1745,-259.81 1745,-191.81 1745,-191.81 1745,-185.81 1751,-179.81 1757,-179.81"/>
<text text-anchor="middle" x="1783.5" y="-256.61" font-family="Times,serif" font-size="14.00">Node 15</text>
<polyline fill="none" stroke="black" points="1745,-248.81 1822,-248.81 "/>
<text text-anchor="middle" x="1783.5" y="-233.61" font-family="Times,serif" font-size="14.00">Val. 14</text>
<polyline fill="none" stroke="black" points="1745,-225.81 1822,-225.81 "/>
<text text-anchor="middle" x="1783.5" y="-210.61" font-family="Times,serif" font-size="14.00">Next 16</text>
<polyline fill="none" stroke="black" points="1745,-202.81 1822,-202.81 "/>
<text text-anchor="middle" x="1783.5" y="-187.61" font-family="Times,serif" font-size="14.00">Prev. 14</text>
</g>
<!-- node14&#45;&gt;node15 -->
<!-- node14&#45;&gt;node15 -->
<g id="edge46" class="edge">
<title>node14:n&#45;&gt;node15</title>
<path fill="none" stroke="black" d="M1709,-213.81C1717.46,-213.81 1726.39,-214.59 1735,-215.76"/>
<polygon fill="black" stroke="black" points="1734.51,-219.22 1744.92,-217.28 1735.57,-212.31 1734.51,-219.22"/>
</g>
<!-- node15&#45;&gt;node14 -->
<g id="edge49" class="edge">
<title>node15:p&#45;&gt;node14</title>
<path fill="none" stroke="black" d="M1745,-190.81C1736.07,-190.81 1727.06,-192.94 1718.57,-196.16"/>
<polygon fill="black" stroke="black" points="1717.02,-193.01 1709.23,-200.19 1719.8,-199.44 1717.02,-193.01"/>
</g>
<!-- node15&#45;&gt;node16 -->
<!-- node15&#45;&gt;node16 -->
<g id="edge48" class="edge">
<title>node15:n&#45;&gt;node16</title>
<path fill="none" stroke="black" d="M1822,-213.81C1830.46,-213.81 1839.39,-214.59 1848,-215.76"/>
<polygon fill="black" stroke="black" points="1847.51,-219.22 1857.92,-217.28 1848.57,-212.31 1847.51,-219.22"/>
</g>
<!-- node16&#45;&gt;node15 -->
<g id="edge50" class="edge">
<title>node16:p&#45;&gt;node15</title>
<path fill="none" stroke="black" d="M1858,-190.81C1849.07,-190.81 1840.06,-192.94 1831.57,-196.16"/>
<polygon fill="black" stroke="black" points="1830.02,-193.01 1822.23,-200.19 1832.8,-199.44 1830.02,-193.01"/>
</g>
<!-- node16&#45;&gt;node17 -->
<!-- node17&#45;&gt;node1 -->
<g id="edge51" class="edge">
<title>node17:n&#45;&gt;node1</title>
<path fill="none" stroke="black" d="M1971,-213.81C1935.62,-213.81 1964.05,-163 1935,-142.81 1591.92,95.58 1418.78,-36.81 1001,-36.81 791,-36.81 791,-36.81 791,-36.81 559.56,-36.81 482.59,-31.35 282,-146.81 270.47,-153.45 259.74,-162.57 250.28,-172.26"/>
<polygon fill="black" stroke="black" points="247.56,-170.05 243.3,-179.75 252.68,-174.82 247.56,-170.05"/>
</g>
<!-- node17&#45;&gt;node18 -->
<!-- node19 -->
<g id="node26" class="node">
<title>node19</title>
<path fill="#98ff98" stroke="black" d="M2260,-179.81C2260,-179.81 2364,-179.81 2364,-179.81 2370,-179.81 2376,-185.81 2376,-191.81 2376,-191.81 2376,-259.81 2376,-259.81 2376,-265.81 2370,-271.81 2364,-271.81 2364,-271.81 2260,-271.81 2260,-271.81 2254,-271.81 2248,-265.81 2248,-259.81 2248,-259.81 2248,-191.81 2248,-191.81 2248,-185.81 2254,-179.81 2260,-179.81"/>
<text text-anchor="middle" x="2312" y="-256.61" font-family="Times,serif" font-size="14.00">Node 19</text>
<polyline fill="none" stroke="black" points="2248,-248.81 2376,-248.81 "/>
<text text-anchor="middle" x="2312" y="-233.61" font-family="Times,serif" font-size="14.00">Val. 0</text>
<polyline fill="none" stroke="black" points="2248,-225.81 2376,-225.81 "/>
<text text-anchor="middle" x="2312" y="-210.61" font-family="Times,serif" font-size="14.00">Next 20</text>
<polyline fill="none" stroke="black" points="2248,-202.81 2376,-202.81 "/>
<text text-anchor="middle" x="2312" y="-187.61" font-family="Times,serif" font-size="14.00">Prev. Free node</text>
</g>
<!-- node18&#45;&gt;node19 -->
<!-- node18&#45;&gt;node19 -->
<g id="edge52" class="edge">
<title>node18:n&#45;&gt;node19</title>
<path fill="none" stroke="black" d="M2212,-213.81C2220.34,-213.81 2229.04,-214.23 2237.68,-214.92"/>
<polygon fill="black" stroke="black" points="2237.48,-218.42 2247.76,-215.85 2238.12,-211.45 2237.48,-218.42"/>
</g>
<!-- node20 -->
<g id="node27" class="node">
<title>node20</title>
<path fill="#98ff98" stroke="black" d="M2424,-179.81C2424,-179.81 2528,-179.81 2528,-179.81 2534,-179.81 2540,-185.81 2540,-191.81 2540,-191.81 2540,-259.81 2540,-259.81 2540,-265.81 2534,-271.81 2528,-271.81 2528,-271.81 2424,-271.81 2424,-271.81 2418,-271.81 2412,-265.81 2412,-259.81 2412,-259.81 2412,-191.81 2412,-191.81 2412,-185.81 2418,-179.81 2424,-179.81"/>
<text text-anchor="middle" x="2476" y="-256.61" font-family="Times,serif" font-size="14.00">Node 20</text>
<polyline fill="none" stroke="black" points="2412,-248.81 2540,-248.81 "/>
<text text-anchor="middle" x="2476" y="-233.61" font-family="Times,serif" font-size="14.00">Val. 0</text>
<polyline fill="none" stroke="black" points="2412,-225.81 2540,-225.81 "/>
<text text-anchor="middle" x="2476" y="-210.61" font-family="Times,serif" font-size="14.00">Next 0</text>
<polyline fill="none" stroke="black" points="2412,-202.81 2540,-202.81 "/>
<text text-anchor="middle" x="2476" y="-187.61" font-family="Times,serif" font-size="14.00">Prev. Free node</text>
</g>
<!-- node19&#45;&gt;node20 -->
<!-- node19&#45;&gt;node20 -->
<g id="edge53" class="edge">
<title>node19:n&#45;&gt;node20</title>
<path fill="none" stroke="black" d="M2376,-213.81C2384.34,-213.81 2393.04,-214.23 2401.68,-214.92"/>
<polygon fill="black" stroke="black" points="2401.48,-218.42 2411.76,-215.85 2402.12,-211.45 2401.48,-218.42"/>
</g>
</g>
</svg>
