<?xml version="1.0" encoding="UTF-8" standalone="no"?>
<!DOCTYPE svg PUBLIC "-//W3C//DTD SVG 1.1//EN"
 "http://www.w3.org/Graphics/SVG/1.1/DTD/svg11.dtd">
<!-- Generated by graphviz version 2.43.0 (0)
 -->
<!-- Title: G Pages: 1 -->
<svg width="2497pt" height="493pt"
 viewBox="0.00 0.00 2497.00 492.58" xmlns="http://www.w3.org/2000/svg" xmlns:xlink="http://www.w3.org/1999/xlink">
<g id="graph0" class="graph" transform="scale(1 1) rotate(0) translate(4 488.58)">
<title>G</title>
<polygon fill="white" stroke="transparent" points="-4,4 -4,-488.58 2493,-488.58 2493,4 -4,4"/>
<!-- head -->
<g id="node1" class="node">
<title>head</title>
<path fill="#fffeb6" stroke="black" d="M110,-322.58C110,-322.58 35,-322.58 35,-322.58 29,-322.58 23,-316.58 23,-310.58 23,-310.58 23,-298.58 23,-298.58 23,-292.58 29,-286.58 35,-286.58 35,-286.58 110,-286.58 110,-286.58 116,-286.58 122,-292.58 122,-298.58 122,-298.58 122,-310.58 122,-310.58 122,-316.58 116,-322.58 110,-322.58"/>
<text text-anchor="middle" x="72.5" y="-300.88" font-family="Times,serif" font-size="14.00">HEAD = 17</text>
</g>
<!-- node17 -->
<g id="node24" class="node">
<title>node17</title>
<path fill="#faa76c" stroke="black" d="M1932,-67.58C1932,-67.58 1985,-67.58 1985,-67.58 1991,-67.58 1997,-73.58 1997,-79.58 1997,-79.58 1997,-147.58 1997,-147.58 1997,-153.58 1991,-159.58 1985,-159.58 1985,-159.58 1932,-159.58 1932,-159.58 1926,-159.58 1920,-153.58 1920,-147.58 1920,-147.58 1920,-79.58 1920,-79.58 1920,-73.58 1926,-67.58 1932,-67.58"/>
<text text-anchor="middle" x="1958.5" y="-144.38" font-family="Times,serif" font-size="14.00">Node 17</text>
<polyline fill="none" stroke="black" points="1920,-136.58 1997,-136.58 "/>
<text text-anchor="middle" x="1958.5" y="-121.38" font-family="Times,serif" font-size="14.00">Val. 666</text>
<polyline fill="none" stroke="black" points="1920,-113.58 1997,-113.58 "/>
<text text-anchor="middle" x="1958.5" y="-98.38" font-family="Times,serif" font-size="14.00">Next 1</text>
<polyline fill="none" stroke="black" points="1920,-90.58 1997,-90.58 "/>
<text text-anchor="middle" x="1958.5" y="-75.38" font-family="Times,serif" font-size="14.00">Prev. 0</text>
</g>
<!-- head&#45;&gt;node17 -->
<g id="edge55" class="edge">
<title>head&#45;&gt;node17</title>
<path fill="none" stroke="black" stroke-width="2" d="M122.45,-302.09C172.93,-299.74 253.95,-296.58 324,-296.58 324,-296.58 324,-296.58 1620.5,-296.58 1740.14,-296.58 1789.39,-314.8 1884,-241.58 1907.91,-223.07 1925.4,-194.43 1937.3,-168.92"/>
<polygon fill="black" stroke="black" stroke-width="2" points="1940.54,-170.25 1941.43,-159.69 1934.15,-167.39 1940.54,-170.25"/>
</g>
<!-- tail -->
<g id="node2" class="node">
<title>tail</title>
<path fill="#fffeb6" stroke="black" d="M104.5,-214.58C104.5,-214.58 40.5,-214.58 40.5,-214.58 34.5,-214.58 28.5,-208.58 28.5,-202.58 28.5,-202.58 28.5,-190.58 28.5,-190.58 28.5,-184.58 34.5,-178.58 40.5,-178.58 40.5,-178.58 104.5,-178.58 104.5,-178.58 110.5,-178.58 116.5,-184.58 116.5,-190.58 116.5,-190.58 116.5,-202.58 116.5,-202.58 116.5,-208.58 110.5,-214.58 104.5,-214.58"/>
<text text-anchor="middle" x="72.5" y="-192.88" font-family="Times,serif" font-size="14.00">TAIL = 16</text>
</g>
<!-- node16 -->
<g id="node23" class="node">
<title>node16</title>
<path fill="#c1aed1" stroke="black" d="M1819,-67.58C1819,-67.58 1872,-67.58 1872,-67.58 1878,-67.58 1884,-73.58 1884,-79.58 1884,-79.58 1884,-147.58 1884,-147.58 1884,-153.58 1878,-159.58 1872,-159.58 1872,-159.58 1819,-159.58 1819,-159.58 1813,-159.58 1807,-153.58 1807,-147.58 1807,-147.58 1807,-79.58 1807,-79.58 1807,-73.58 1813,-67.58 1819,-67.58"/>
<text text-anchor="middle" x="1845.5" y="-144.38" font-family="Times,serif" font-size="14.00">Node 16</text>
<polyline fill="none" stroke="black" points="1807,-136.58 1884,-136.58 "/>
<text text-anchor="middle" x="1845.5" y="-121.38" font-family="Times,serif" font-size="14.00">Val. 15</text>
<polyline fill="none" stroke="black" points="1807,-113.58 1884,-113.58 "/>
<text text-anchor="middle" x="1845.5" y="-98.38" font-family="Times,serif" font-size="14.00">Next 0</text>
<polyline fill="none" stroke="black" points="1807,-90.58 1884,-90.58 "/>
<text text-anchor="middle" x="1845.5" y="-75.38" font-family="Times,serif" font-size="14.00">Prev. 15</text>
</g>
<!-- tail&#45;&gt;node16 -->
<g id="edge56" class="edge">
<title>tail&#45;&gt;node16</title>
<path fill="none" stroke="black" stroke-width="2" d="M116.82,-203.26C166.67,-210.36 251.04,-220.58 324,-220.58 324,-220.58 324,-220.58 1620.5,-220.58 1687.17,-220.58 1755.05,-181.51 1798.34,-150.59"/>
<polygon fill="black" stroke="black" stroke-width="2" points="1800.64,-153.24 1806.67,-144.53 1796.52,-147.58 1800.64,-153.24"/>
</g>
<!-- freeHead -->
<g id="node3" class="node">
<title>freeHead</title>
<path fill="#fffeb6" stroke="black" d="M133,-268.58C133,-268.58 12,-268.58 12,-268.58 6,-268.58 0,-262.58 0,-256.58 0,-256.58 0,-244.58 0,-244.58 0,-238.58 6,-232.58 12,-232.58 12,-232.58 133,-232.58 133,-232.58 139,-232.58 145,-238.58 145,-244.58 145,-244.58 145,-256.58 145,-256.58 145,-262.58 139,-268.58 133,-268.58"/>
<text text-anchor="middle" x="72.5" y="-246.88" font-family="Times,serif" font-size="14.00">FREE HEAD = 18</text>
</g>
<!-- node18 -->
<g id="node25" class="node">
<title>node18</title>
<path fill="#98ff98" stroke="black" d="M2045,-67.58C2045,-67.58 2149,-67.58 2149,-67.58 2155,-67.58 2161,-73.58 2161,-79.58 2161,-79.58 2161,-147.58 2161,-147.58 2161,-153.58 2155,-159.58 2149,-159.58 2149,-159.58 2045,-159.58 2045,-159.58 2039,-159.58 2033,-153.58 2033,-147.58 2033,-147.58 2033,-79.58 2033,-79.58 2033,-73.58 2039,-67.58 2045,-67.58"/>
<text text-anchor="middle" x="2097" y="-144.38" font-family="Times,serif" font-size="14.00">Node 18</text>
<polyline fill="none" stroke="black" points="2033,-136.58 2161,-136.58 "/>
<text text-anchor="middle" x="2097" y="-121.38" font-family="Times,serif" font-size="14.00">Val. 0</text>
<polyline fill="none" stroke="black" points="2033,-113.58 2161,-113.58 "/>
<text text-anchor="middle" x="2097" y="-98.38" font-family="Times,serif" font-size="14.00">Next 19</text>
<polyline fill="none" stroke="black" points="2033,-90.58 2161,-90.58 "/>
<text text-anchor="middle" x="2097" y="-75.38" font-family="Times,serif" font-size="14.00">Prev. Free node</text>
</g>
<!-- freeHead&#45;&gt;node18 -->
<g id="edge57" class="edge">
<title>freeHead&#45;&gt;node18</title>
<path fill="none" stroke="black" stroke-width="2" d="M145.02,-254.08C195.11,-256.23 263.63,-258.58 324,-258.58 324,-258.58 324,-258.58 1620.5,-258.58 1744.25,-258.58 1797.17,-256.76 1884,-168.58 1920.39,-131.62 1878.05,-88.07 1920,-57.58 1950.47,-35.42 1990.05,-45.4 2023.96,-62.69"/>
<polygon fill="black" stroke="black" stroke-width="2" points="2022.43,-65.84 2032.9,-67.48 2025.74,-59.67 2022.43,-65.84"/>
</g>
<!-- capacity -->
<g id="node4" class="node">
<title>capacity</title>
<path fill="#fffeb6" stroke="black" d="M124.5,-376.58C124.5,-376.58 20.5,-376.58 20.5,-376.58 14.5,-376.58 8.5,-370.58 8.5,-364.58 8.5,-364.58 8.5,-352.58 8.5,-352.58 8.5,-346.58 14.5,-340.58 20.5,-340.58 20.5,-340.58 124.5,-340.58 124.5,-340.58 130.5,-340.58 136.5,-346.58 136.5,-352.58 136.5,-352.58 136.5,-364.58 136.5,-364.58 136.5,-370.58 130.5,-376.58 124.5,-376.58"/>
<text text-anchor="middle" x="72.5" y="-354.88" font-family="Times,serif" font-size="14.00">CAPACITY = 20</text>
</g>
<!-- size -->
<g id="node5" class="node">
<title>size</title>
<path fill="#fffeb6" stroke="black" d="M106,-430.58C106,-430.58 39,-430.58 39,-430.58 33,-430.58 27,-424.58 27,-418.58 27,-418.58 27,-406.58 27,-406.58 27,-400.58 33,-394.58 39,-394.58 39,-394.58 106,-394.58 106,-394.58 112,-394.58 118,-400.58 118,-406.58 118,-406.58 118,-418.58 118,-418.58 118,-424.58 112,-430.58 106,-430.58"/>
<text text-anchor="middle" x="72.5" y="-408.88" font-family="Times,serif" font-size="14.00">SIZE = 17</text>
</g>
<!-- isSorted -->
<g id="node6" class="node">
<title>isSorted</title>
<path fill="#fffeb6" stroke="black" d="M122,-484.58C122,-484.58 23,-484.58 23,-484.58 17,-484.58 11,-478.58 11,-472.58 11,-472.58 11,-460.58 11,-460.58 11,-454.58 17,-448.58 23,-448.58 23,-448.58 122,-448.58 122,-448.58 128,-448.58 134,-454.58 134,-460.58 134,-460.58 134,-472.58 134,-472.58 134,-478.58 128,-484.58 122,-484.58"/>
<text text-anchor="middle" x="72.5" y="-462.88" font-family="Times,serif" font-size="14.00">SORTED = NO</text>
</g>
<!-- node0 -->
<g id="node7" class="node">
<title>node0</title>
<path fill="#c0c0c0" stroke="black" d="M50.5,-67.58C50.5,-67.58 94.5,-67.58 94.5,-67.58 100.5,-67.58 106.5,-73.58 106.5,-79.58 106.5,-79.58 106.5,-147.58 106.5,-147.58 106.5,-153.58 100.5,-159.58 94.5,-159.58 94.5,-159.58 50.5,-159.58 50.5,-159.58 44.5,-159.58 38.5,-153.58 38.5,-147.58 38.5,-147.58 38.5,-79.58 38.5,-79.58 38.5,-73.58 44.5,-67.58 50.5,-67.58"/>
<text text-anchor="middle" x="72.5" y="-144.38" font-family="Times,serif" font-size="14.00">Node 0</text>
<polyline fill="none" stroke="black" points="38.5,-136.58 106.5,-136.58 "/>
<text text-anchor="middle" x="72.5" y="-121.38" font-family="Times,serif" font-size="14.00">Val. 0</text>
<polyline fill="none" stroke="black" points="38.5,-113.58 106.5,-113.58 "/>
<text text-anchor="middle" x="72.5" y="-98.38" font-family="Times,serif" font-size="14.00">Next 0</text>
<polyline fill="none" stroke="black" points="38.5,-90.58 106.5,-90.58 "/>
<text text-anchor="middle" x="72.5" y="-75.38" font-family="Times,serif" font-size="14.00">Prev. 0</text>
</g>
<!-- node1 -->
<g id="node8" class="node">
<title>node1</title>
<path fill="#ffb2d0" stroke="black" d="M193,-67.58C193,-67.58 243,-67.58 243,-67.58 249,-67.58 255,-73.58 255,-79.58 255,-79.58 255,-147.58 255,-147.58 255,-153.58 249,-159.58 243,-159.58 243,-159.58 193,-159.58 193,-159.58 187,-159.58 181,-153.58 181,-147.58 181,-147.58 181,-79.58 181,-79.58 181,-73.58 187,-67.58 193,-67.58"/>
<text text-anchor="middle" x="218" y="-144.38" font-family="Times,serif" font-size="14.00">Node 1</text>
<polyline fill="none" stroke="black" points="181,-136.58 255,-136.58 "/>
<text text-anchor="middle" x="218" y="-121.38" font-family="Times,serif" font-size="14.00">Val. 0</text>
<polyline fill="none" stroke="black" points="181,-113.58 255,-113.58 "/>
<text text-anchor="middle" x="218" y="-98.38" font-family="Times,serif" font-size="14.00">Next 2</text>
<polyline fill="none" stroke="black" points="181,-90.58 255,-90.58 "/>
<text text-anchor="middle" x="218" y="-75.38" font-family="Times,serif" font-size="14.00">Prev. 17</text>
</g>
<!-- node0&#45;&gt;node1 -->
<!-- node2 -->
<g id="node9" class="node">
<title>node2</title>
<path fill="#ffb2d0" stroke="black" d="M303,-67.58C303,-67.58 347,-67.58 347,-67.58 353,-67.58 359,-73.58 359,-79.58 359,-79.58 359,-147.58 359,-147.58 359,-153.58 353,-159.58 347,-159.58 347,-159.58 303,-159.58 303,-159.58 297,-159.58 291,-153.58 291,-147.58 291,-147.58 291,-79.58 291,-79.58 291,-73.58 297,-67.58 303,-67.58"/>
<text text-anchor="middle" x="325" y="-144.38" font-family="Times,serif" font-size="14.00">Node 2</text>
<polyline fill="none" stroke="black" points="291,-136.58 359,-136.58 "/>
<text text-anchor="middle" x="325" y="-121.38" font-family="Times,serif" font-size="14.00">Val. 1</text>
<polyline fill="none" stroke="black" points="291,-113.58 359,-113.58 "/>
<text text-anchor="middle" x="325" y="-98.38" font-family="Times,serif" font-size="14.00">Next 3</text>
<polyline fill="none" stroke="black" points="291,-90.58 359,-90.58 "/>
<text text-anchor="middle" x="325" y="-75.38" font-family="Times,serif" font-size="14.00">Prev. 1</text>
</g>
<!-- node1&#45;&gt;node2 -->
<!-- node1&#45;&gt;node2 -->
<g id="edge21" class="edge">
<title>node1:n&#45;&gt;node2</title>
<path fill="none" stroke="black" d="M255,-101.58C263.38,-101.58 272.26,-102.45 280.75,-103.72"/>
<polygon fill="black" stroke="black" points="280.42,-107.21 290.86,-105.44 281.59,-100.31 280.42,-107.21"/>
</g>
<!-- node1&#45;&gt;node17 -->
<g id="edge22" class="edge">
<title>node1:p&#45;&gt;node17</title>
<path fill="none" stroke="black" d="M255,-78.58C273.52,-78.58 273.49,-63.63 291,-57.58 349.1,-37.49 366.53,-38.58 428,-38.58 428,-38.58 428,-38.58 1733.5,-38.58 1800.92,-38.58 1821.6,-32.05 1884,-57.58 1893.56,-61.49 1902.97,-66.98 1911.69,-73"/>
<polygon fill="black" stroke="black" points="1909.67,-75.87 1919.82,-78.91 1913.79,-70.2 1909.67,-75.87"/>
</g>
<!-- node2&#45;&gt;node1 -->
<g id="edge24" class="edge">
<title>node2:p&#45;&gt;node1</title>
<path fill="none" stroke="black" d="M291,-78.58C282.01,-78.58 272.97,-80.81 264.48,-84.15"/>
<polygon fill="black" stroke="black" points="262.85,-81.04 255.15,-88.33 265.71,-87.43 262.85,-81.04"/>
</g>
<!-- node3 -->
<g id="node10" class="node">
<title>node3</title>
<path fill="#ffb2d0" stroke="black" d="M407,-67.58C407,-67.58 451,-67.58 451,-67.58 457,-67.58 463,-73.58 463,-79.58 463,-79.58 463,-147.58 463,-147.58 463,-153.58 457,-159.58 451,-159.58 451,-159.58 407,-159.58 407,-159.58 401,-159.58 395,-153.58 395,-147.58 395,-147.58 395,-79.58 395,-79.58 395,-73.58 401,-67.58 407,-67.58"/>
<text text-anchor="middle" x="429" y="-144.38" font-family="Times,serif" font-size="14.00">Node 3</text>
<polyline fill="none" stroke="black" points="395,-136.58 463,-136.58 "/>
<text text-anchor="middle" x="429" y="-121.38" font-family="Times,serif" font-size="14.00">Val. 2</text>
<polyline fill="none" stroke="black" points="395,-113.58 463,-113.58 "/>
<text text-anchor="middle" x="429" y="-98.38" font-family="Times,serif" font-size="14.00">Next 4</text>
<polyline fill="none" stroke="black" points="395,-90.58 463,-90.58 "/>
<text text-anchor="middle" x="429" y="-75.38" font-family="Times,serif" font-size="14.00">Prev. 2</text>
</g>
<!-- node2&#45;&gt;node3 -->
<!-- node2&#45;&gt;node3 -->
<g id="edge23" class="edge">
<title>node2:n&#45;&gt;node3</title>
<path fill="none" stroke="black" d="M359,-101.58C367.38,-101.58 376.26,-102.45 384.75,-103.72"/>
<polygon fill="black" stroke="black" points="384.42,-107.21 394.86,-105.44 385.59,-100.31 384.42,-107.21"/>
</g>
<!-- node3&#45;&gt;node2 -->
<g id="edge26" class="edge">
<title>node3:p&#45;&gt;node2</title>
<path fill="none" stroke="black" d="M395,-78.58C385.92,-78.58 376.83,-81.02 368.36,-84.61"/>
<polygon fill="black" stroke="black" points="366.59,-81.58 359.1,-89.08 369.63,-87.88 366.59,-81.58"/>
</g>
<!-- node4 -->
<g id="node11" class="node">
<title>node4</title>
<path fill="#ffb2d0" stroke="black" d="M511,-67.58C511,-67.58 555,-67.58 555,-67.58 561,-67.58 567,-73.58 567,-79.58 567,-79.58 567,-147.58 567,-147.58 567,-153.58 561,-159.58 555,-159.58 555,-159.58 511,-159.58 511,-159.58 505,-159.58 499,-153.58 499,-147.58 499,-147.58 499,-79.58 499,-79.58 499,-73.58 505,-67.58 511,-67.58"/>
<text text-anchor="middle" x="533" y="-144.38" font-family="Times,serif" font-size="14.00">Node 4</text>
<polyline fill="none" stroke="black" points="499,-136.58 567,-136.58 "/>
<text text-anchor="middle" x="533" y="-121.38" font-family="Times,serif" font-size="14.00">Val. 3</text>
<polyline fill="none" stroke="black" points="499,-113.58 567,-113.58 "/>
<text text-anchor="middle" x="533" y="-98.38" font-family="Times,serif" font-size="14.00">Next 5</text>
<polyline fill="none" stroke="black" points="499,-90.58 567,-90.58 "/>
<text text-anchor="middle" x="533" y="-75.38" font-family="Times,serif" font-size="14.00">Prev. 3</text>
</g>
<!-- node3&#45;&gt;node4 -->
<!-- node3&#45;&gt;node4 -->
<g id="edge25" class="edge">
<title>node3:n&#45;&gt;node4</title>
<path fill="none" stroke="black" d="M463,-101.58C471.38,-101.58 480.26,-102.45 488.75,-103.72"/>
<polygon fill="black" stroke="black" points="488.42,-107.21 498.86,-105.44 489.59,-100.31 488.42,-107.21"/>
</g>
<!-- node4&#45;&gt;node3 -->
<g id="edge28" class="edge">
<title>node4:p&#45;&gt;node3</title>
<path fill="none" stroke="black" d="M499,-78.58C489.92,-78.58 480.83,-81.02 472.36,-84.61"/>
<polygon fill="black" stroke="black" points="470.59,-81.58 463.1,-89.08 473.63,-87.88 470.59,-81.58"/>
</g>
<!-- node5 -->
<g id="node12" class="node">
<title>node5</title>
<path fill="#ffb2d0" stroke="black" d="M615,-67.58C615,-67.58 659,-67.58 659,-67.58 665,-67.58 671,-73.58 671,-79.58 671,-79.58 671,-147.58 671,-147.58 671,-153.58 665,-159.58 659,-159.58 659,-159.58 615,-159.58 615,-159.58 609,-159.58 603,-153.58 603,-147.58 603,-147.58 603,-79.58 603,-79.58 603,-73.58 609,-67.58 615,-67.58"/>
<text text-anchor="middle" x="637" y="-144.38" font-family="Times,serif" font-size="14.00">Node 5</text>
<polyline fill="none" stroke="black" points="603,-136.58 671,-136.58 "/>
<text text-anchor="middle" x="637" y="-121.38" font-family="Times,serif" font-size="14.00">Val. 4</text>
<polyline fill="none" stroke="black" points="603,-113.58 671,-113.58 "/>
<text text-anchor="middle" x="637" y="-98.38" font-family="Times,serif" font-size="14.00">Next 6</text>
<polyline fill="none" stroke="black" points="603,-90.58 671,-90.58 "/>
<text text-anchor="middle" x="637" y="-75.38" font-family="Times,serif" font-size="14.00">Prev. 4</text>
</g>
<!-- node4&#45;&gt;node5 -->
<!-- node4&#45;&gt;node5 -->
<g id="edge27" class="edge">
<title>node4:n&#45;&gt;node5</title>
<path fill="none" stroke="black" d="M567,-101.58C575.38,-101.58 584.26,-102.45 592.75,-103.72"/>
<polygon fill="black" stroke="black" points="592.42,-107.21 602.86,-105.44 593.59,-100.31 592.42,-107.21"/>
</g>
<!-- node5&#45;&gt;node4 -->
<g id="edge30" class="edge">
<title>node5:p&#45;&gt;node4</title>
<path fill="none" stroke="black" d="M603,-78.58C593.92,-78.58 584.83,-81.02 576.36,-84.61"/>
<polygon fill="black" stroke="black" points="574.59,-81.58 567.1,-89.08 577.63,-87.88 574.59,-81.58"/>
</g>
<!-- node6 -->
<g id="node13" class="node">
<title>node6</title>
<path fill="#ffb2d0" stroke="black" d="M719,-67.58C719,-67.58 763,-67.58 763,-67.58 769,-67.58 775,-73.58 775,-79.58 775,-79.58 775,-147.58 775,-147.58 775,-153.58 769,-159.58 763,-159.58 763,-159.58 719,-159.58 719,-159.58 713,-159.58 707,-153.58 707,-147.58 707,-147.58 707,-79.58 707,-79.58 707,-73.58 713,-67.58 719,-67.58"/>
<text text-anchor="middle" x="741" y="-144.38" font-family="Times,serif" font-size="14.00">Node 6</text>
<polyline fill="none" stroke="black" points="707,-136.58 775,-136.58 "/>
<text text-anchor="middle" x="741" y="-121.38" font-family="Times,serif" font-size="14.00">Val. 5</text>
<polyline fill="none" stroke="black" points="707,-113.58 775,-113.58 "/>
<text text-anchor="middle" x="741" y="-98.38" font-family="Times,serif" font-size="14.00">Next 7</text>
<polyline fill="none" stroke="black" points="707,-90.58 775,-90.58 "/>
<text text-anchor="middle" x="741" y="-75.38" font-family="Times,serif" font-size="14.00">Prev. 5</text>
</g>
<!-- node5&#45;&gt;node6 -->
<!-- node5&#45;&gt;node6 -->
<g id="edge29" class="edge">
<title>node5:n&#45;&gt;node6</title>
<path fill="none" stroke="black" d="M671,-101.58C679.38,-101.58 688.26,-102.45 696.75,-103.72"/>
<polygon fill="black" stroke="black" points="696.42,-107.21 706.86,-105.44 697.59,-100.31 696.42,-107.21"/>
</g>
<!-- node6&#45;&gt;node5 -->
<g id="edge32" class="edge">
<title>node6:p&#45;&gt;node5</title>
<path fill="none" stroke="black" d="M707,-78.58C697.92,-78.58 688.83,-81.02 680.36,-84.61"/>
<polygon fill="black" stroke="black" points="678.59,-81.58 671.1,-89.08 681.63,-87.88 678.59,-81.58"/>
</g>
<!-- node7 -->
<g id="node14" class="node">
<title>node7</title>
<path fill="#ffb2d0" stroke="black" d="M823,-67.58C823,-67.58 867,-67.58 867,-67.58 873,-67.58 879,-73.58 879,-79.58 879,-79.58 879,-147.58 879,-147.58 879,-153.58 873,-159.58 867,-159.58 867,-159.58 823,-159.58 823,-159.58 817,-159.58 811,-153.58 811,-147.58 811,-147.58 811,-79.58 811,-79.58 811,-73.58 817,-67.58 823,-67.58"/>
<text text-anchor="middle" x="845" y="-144.38" font-family="Times,serif" font-size="14.00">Node 7</text>
<polyline fill="none" stroke="black" points="811,-136.58 879,-136.58 "/>
<text text-anchor="middle" x="845" y="-121.38" font-family="Times,serif" font-size="14.00">Val. 6</text>
<polyline fill="none" stroke="black" points="811,-113.58 879,-113.58 "/>
<text text-anchor="middle" x="845" y="-98.38" font-family="Times,serif" font-size="14.00">Next 8</text>
<polyline fill="none" stroke="black" points="811,-90.58 879,-90.58 "/>
<text text-anchor="middle" x="845" y="-75.38" font-family="Times,serif" font-size="14.00">Prev. 6</text>
</g>
<!-- node6&#45;&gt;node7 -->
<!-- node6&#45;&gt;node7 -->
<g id="edge31" class="edge">
<title>node6:n&#45;&gt;node7</title>
<path fill="none" stroke="black" d="M775,-101.58C783.38,-101.58 792.26,-102.45 800.75,-103.72"/>
<polygon fill="black" stroke="black" points="800.42,-107.21 810.86,-105.44 801.59,-100.31 800.42,-107.21"/>
</g>
<!-- node7&#45;&gt;node6 -->
<g id="edge34" class="edge">
<title>node7:p&#45;&gt;node6</title>
<path fill="none" stroke="black" d="M811,-78.58C801.92,-78.58 792.83,-81.02 784.36,-84.61"/>
<polygon fill="black" stroke="black" points="782.59,-81.58 775.1,-89.08 785.63,-87.88 782.59,-81.58"/>
</g>
<!-- node8 -->
<g id="node15" class="node">
<title>node8</title>
<path fill="#ffb2d0" stroke="black" d="M927,-67.58C927,-67.58 971,-67.58 971,-67.58 977,-67.58 983,-73.58 983,-79.58 983,-79.58 983,-147.58 983,-147.58 983,-153.58 977,-159.58 971,-159.58 971,-159.58 927,-159.58 927,-159.58 921,-159.58 915,-153.58 915,-147.58 915,-147.58 915,-79.58 915,-79.58 915,-73.58 921,-67.58 927,-67.58"/>
<text text-anchor="middle" x="949" y="-144.38" font-family="Times,serif" font-size="14.00">Node 8</text>
<polyline fill="none" stroke="black" points="915,-136.58 983,-136.58 "/>
<text text-anchor="middle" x="949" y="-121.38" font-family="Times,serif" font-size="14.00">Val. 7</text>
<polyline fill="none" stroke="black" points="915,-113.58 983,-113.58 "/>
<text text-anchor="middle" x="949" y="-98.38" font-family="Times,serif" font-size="14.00">Next 9</text>
<polyline fill="none" stroke="black" points="915,-90.58 983,-90.58 "/>
<text text-anchor="middle" x="949" y="-75.38" font-family="Times,serif" font-size="14.00">Prev. 7</text>
</g>
<!-- node7&#45;&gt;node8 -->
<!-- node7&#45;&gt;node8 -->
<g id="edge33" class="edge">
<title>node7:n&#45;&gt;node8</title>
<path fill="none" stroke="black" d="M879,-101.58C887.38,-101.58 896.26,-102.45 904.75,-103.72"/>
<polygon fill="black" stroke="black" points="904.42,-107.21 914.86,-105.44 905.59,-100.31 904.42,-107.21"/>
</g>
<!-- node8&#45;&gt;node7 -->
<g id="edge36" class="edge">
<title>node8:p&#45;&gt;node7</title>
<path fill="none" stroke="black" d="M915,-78.58C905.92,-78.58 896.83,-81.02 888.36,-84.61"/>
<polygon fill="black" stroke="black" points="886.59,-81.58 879.1,-89.08 889.63,-87.88 886.59,-81.58"/>
</g>
<!-- node9 -->
<g id="node16" class="node">
<title>node9</title>
<path fill="#ffb2d0" stroke="black" d="M1031,-67.58C1031,-67.58 1081,-67.58 1081,-67.58 1087,-67.58 1093,-73.58 1093,-79.58 1093,-79.58 1093,-147.58 1093,-147.58 1093,-153.58 1087,-159.58 1081,-159.58 1081,-159.58 1031,-159.58 1031,-159.58 1025,-159.58 1019,-153.58 1019,-147.58 1019,-147.58 1019,-79.58 1019,-79.58 1019,-73.58 1025,-67.58 1031,-67.58"/>
<text text-anchor="middle" x="1056" y="-144.38" font-family="Times,serif" font-size="14.00">Node 9</text>
<polyline fill="none" stroke="black" points="1019,-136.58 1093,-136.58 "/>
<text text-anchor="middle" x="1056" y="-121.38" font-family="Times,serif" font-size="14.00">Val. 8</text>
<polyline fill="none" stroke="black" points="1019,-113.58 1093,-113.58 "/>
<text text-anchor="middle" x="1056" y="-98.38" font-family="Times,serif" font-size="14.00">Next 10</text>
<polyline fill="none" stroke="black" points="1019,-90.58 1093,-90.58 "/>
<text text-anchor="middle" x="1056" y="-75.38" font-family="Times,serif" font-size="14.00">Prev. 8</text>
</g>
<!-- node8&#45;&gt;node9 -->
<!-- node8&#45;&gt;node9 -->
<g id="edge35" class="edge">
<title>node8:n&#45;&gt;node9</title>
<path fill="none" stroke="black" d="M983,-101.58C991.47,-101.58 1000.43,-102.4 1009.04,-103.6"/>
<polygon fill="black" stroke="black" points="1008.51,-107.07 1018.94,-105.18 1009.61,-100.15 1008.51,-107.07"/>
</g>
<!-- node9&#45;&gt;node8 -->
<g id="edge38" class="edge">
<title>node9:p&#45;&gt;node8</title>
<path fill="none" stroke="black" d="M1019,-78.58C1009.92,-78.58 1000.83,-81.02 992.36,-84.61"/>
<polygon fill="black" stroke="black" points="990.59,-81.58 983.1,-89.08 993.63,-87.88 990.59,-81.58"/>
</g>
<!-- node10 -->
<g id="node17" class="node">
<title>node10</title>
<path fill="#ffb2d0" stroke="black" d="M1141,-67.58C1141,-67.58 1194,-67.58 1194,-67.58 1200,-67.58 1206,-73.58 1206,-79.58 1206,-79.58 1206,-147.58 1206,-147.58 1206,-153.58 1200,-159.58 1194,-159.58 1194,-159.58 1141,-159.58 1141,-159.58 1135,-159.58 1129,-153.58 1129,-147.58 1129,-147.58 1129,-79.58 1129,-79.58 1129,-73.58 1135,-67.58 1141,-67.58"/>
<text text-anchor="middle" x="1167.5" y="-144.38" font-family="Times,serif" font-size="14.00">Node 10</text>
<polyline fill="none" stroke="black" points="1129,-136.58 1206,-136.58 "/>
<text text-anchor="middle" x="1167.5" y="-121.38" font-family="Times,serif" font-size="14.00">Val. 9</text>
<polyline fill="none" stroke="black" points="1129,-113.58 1206,-113.58 "/>
<text text-anchor="middle" x="1167.5" y="-98.38" font-family="Times,serif" font-size="14.00">Next 11</text>
<polyline fill="none" stroke="black" points="1129,-90.58 1206,-90.58 "/>
<text text-anchor="middle" x="1167.5" y="-75.38" font-family="Times,serif" font-size="14.00">Prev. 9</text>
</g>
<!-- node9&#45;&gt;node10 -->
<!-- node9&#45;&gt;node10 -->
<g id="edge37" class="edge">
<title>node9:n&#45;&gt;node10</title>
<path fill="none" stroke="black" d="M1093,-101.58C1101.46,-101.58 1110.39,-102.36 1119,-103.53"/>
<polygon fill="black" stroke="black" points="1118.51,-106.99 1128.92,-105.05 1119.57,-100.07 1118.51,-106.99"/>
</g>
<!-- node10&#45;&gt;node9 -->
<g id="edge40" class="edge">
<title>node10:p&#45;&gt;node9</title>
<path fill="none" stroke="black" d="M1129,-78.58C1120.01,-78.58 1110.97,-80.81 1102.48,-84.15"/>
<polygon fill="black" stroke="black" points="1100.85,-81.04 1093.15,-88.33 1103.71,-87.43 1100.85,-81.04"/>
</g>
<!-- node11 -->
<g id="node18" class="node">
<title>node11</title>
<path fill="#ffb2d0" stroke="black" d="M1254,-67.58C1254,-67.58 1307,-67.58 1307,-67.58 1313,-67.58 1319,-73.58 1319,-79.58 1319,-79.58 1319,-147.58 1319,-147.58 1319,-153.58 1313,-159.58 1307,-159.58 1307,-159.58 1254,-159.58 1254,-159.58 1248,-159.58 1242,-153.58 1242,-147.58 1242,-147.58 1242,-79.58 1242,-79.58 1242,-73.58 1248,-67.58 1254,-67.58"/>
<text text-anchor="middle" x="1280.5" y="-144.38" font-family="Times,serif" font-size="14.00">Node 11</text>
<polyline fill="none" stroke="black" points="1242,-136.58 1319,-136.58 "/>
<text text-anchor="middle" x="1280.5" y="-121.38" font-family="Times,serif" font-size="14.00">Val. 10</text>
<polyline fill="none" stroke="black" points="1242,-113.58 1319,-113.58 "/>
<text text-anchor="middle" x="1280.5" y="-98.38" font-family="Times,serif" font-size="14.00">Next 12</text>
<polyline fill="none" stroke="black" points="1242,-90.58 1319,-90.58 "/>
<text text-anchor="middle" x="1280.5" y="-75.38" font-family="Times,serif" font-size="14.00">Prev. 10</text>
</g>
<!-- node10&#45;&gt;node11 -->
<!-- node10&#45;&gt;node11 -->
<g id="edge39" class="edge">
<title>node10:n&#45;&gt;node11</title>
<path fill="none" stroke="black" d="M1206,-101.58C1214.46,-101.58 1223.39,-102.36 1232,-103.53"/>
<polygon fill="black" stroke="black" points="1231.51,-106.99 1241.92,-105.05 1232.57,-100.07 1231.51,-106.99"/>
</g>
<!-- node11&#45;&gt;node10 -->
<g id="edge42" class="edge">
<title>node11:p&#45;&gt;node10</title>
<path fill="none" stroke="black" d="M1242,-78.58C1233.07,-78.58 1224.06,-80.71 1215.57,-83.93"/>
<polygon fill="black" stroke="black" points="1214.02,-80.78 1206.23,-87.96 1216.8,-87.21 1214.02,-80.78"/>
</g>
<!-- node12 -->
<g id="node19" class="node">
<title>node12</title>
<path fill="#ffb2d0" stroke="black" d="M1367,-67.58C1367,-67.58 1420,-67.58 1420,-67.58 1426,-67.58 1432,-73.58 1432,-79.58 1432,-79.58 1432,-147.58 1432,-147.58 1432,-153.58 1426,-159.58 1420,-159.58 1420,-159.58 1367,-159.58 1367,-159.58 1361,-159.58 1355,-153.58 1355,-147.58 1355,-147.58 1355,-79.58 1355,-79.58 1355,-73.58 1361,-67.58 1367,-67.58"/>
<text text-anchor="middle" x="1393.5" y="-144.38" font-family="Times,serif" font-size="14.00">Node 12</text>
<polyline fill="none" stroke="black" points="1355,-136.58 1432,-136.58 "/>
<text text-anchor="middle" x="1393.5" y="-121.38" font-family="Times,serif" font-size="14.00">Val. 11</text>
<polyline fill="none" stroke="black" points="1355,-113.58 1432,-113.58 "/>
<text text-anchor="middle" x="1393.5" y="-98.38" font-family="Times,serif" font-size="14.00">Next 13</text>
<polyline fill="none" stroke="black" points="1355,-90.58 1432,-90.58 "/>
<text text-anchor="middle" x="1393.5" y="-75.38" font-family="Times,serif" font-size="14.00">Prev. 11</text>
</g>
<!-- node11&#45;&gt;node12 -->
<!-- node11&#45;&gt;node12 -->
<g id="edge41" class="edge">
<title>node11:n&#45;&gt;node12</title>
<path fill="none" stroke="black" d="M1319,-101.58C1327.46,-101.58 1336.39,-102.36 1345,-103.53"/>
<polygon fill="black" stroke="black" points="1344.51,-106.99 1354.92,-105.05 1345.57,-100.07 1344.51,-106.99"/>
</g>
<!-- node12&#45;&gt;node11 -->
<g id="edge44" class="edge">
<title>node12:p&#45;&gt;node11</title>
<path fill="none" stroke="black" d="M1355,-78.58C1346.07,-78.58 1337.06,-80.71 1328.57,-83.93"/>
<polygon fill="black" stroke="black" points="1327.02,-80.78 1319.23,-87.96 1329.8,-87.21 1327.02,-80.78"/>
</g>
<!-- node13 -->
<g id="node20" class="node">
<title>node13</title>
<path fill="#ffb2d0" stroke="black" d="M1480,-67.58C1480,-67.58 1533,-67.58 1533,-67.58 1539,-67.58 1545,-73.58 1545,-79.58 1545,-79.58 1545,-147.58 1545,-147.58 1545,-153.58 1539,-159.58 1533,-159.58 1533,-159.58 1480,-159.58 1480,-159.58 1474,-159.58 1468,-153.58 1468,-147.58 1468,-147.58 1468,-79.58 1468,-79.58 1468,-73.58 1474,-67.58 1480,-67.58"/>
<text text-anchor="middle" x="1506.5" y="-144.38" font-family="Times,serif" font-size="14.00">Node 13</text>
<polyline fill="none" stroke="black" points="1468,-136.58 1545,-136.58 "/>
<text text-anchor="middle" x="1506.5" y="-121.38" font-family="Times,serif" font-size="14.00">Val. 12</text>
<polyline fill="none" stroke="black" points="1468,-113.58 1545,-113.58 "/>
<text text-anchor="middle" x="1506.5" y="-98.38" font-family="Times,serif" font-size="14.00">Next 14</text>
<polyline fill="none" stroke="black" points="1468,-90.58 1545,-90.58 "/>
<text text-anchor="middle" x="1506.5" y="-75.38" font-family="Times,serif" font-size="14.00">Prev. 12</text>
</g>
<!-- node12&#45;&gt;node13 -->
<!-- node12&#45;&gt;node13 -->
<g id="edge43" class="edge">
<title>node12:n&#45;&gt;node13</title>
<path fill="none" stroke="black" d="M1432,-101.58C1440.46,-101.58 1449.39,-102.36 1458,-103.53"/>
<polygon fill="black" stroke="black" points="1457.51,-106.99 1467.92,-105.05 1458.57,-100.07 1457.51,-106.99"/>
</g>
<!-- node13&#45;&gt;node12 -->
<g id="edge46" class="edge">
<title>node13:p&#45;&gt;node12</title>
<path fill="none" stroke="black" d="M1468,-78.58C1459.07,-78.58 1450.06,-80.71 1441.57,-83.93"/>
<polygon fill="black" stroke="black" points="1440.02,-80.78 1432.23,-87.96 1442.8,-87.21 1440.02,-80.78"/>
</g>
<!-- node14 -->
<g id="node21" class="node">
<title>node14</title>
<path fill="#ffb2d0" stroke="black" d="M1593,-67.58C1593,-67.58 1646,-67.58 1646,-67.58 1652,-67.58 1658,-73.58 1658,-79.58 1658,-79.58 1658,-147.58 1658,-147.58 1658,-153.58 1652,-159.58 1646,-159.58 1646,-159.58 1593,-159.58 1593,-159.58 1587,-159.58 1581,-153.58 1581,-147.58 1581,-147.58 1581,-79.58 1581,-79.58 1581,-73.58 1587,-67.58 1593,-67.58"/>
<text text-anchor="middle" x="1619.5" y="-144.38" font-family="Times,serif" font-size="14.00">Node 14</text>
<polyline fill="none" stroke="black" points="1581,-136.58 1658,-136.58 "/>
<text text-anchor="middle" x="1619.5" y="-121.38" font-family="Times,serif" font-size="14.00">Val. 13</text>
<polyline fill="none" stroke="black" points="1581,-113.58 1658,-113.58 "/>
<text text-anchor="middle" x="1619.5" y="-98.38" font-family="Times,serif" font-size="14.00">Next 15</text>
<polyline fill="none" stroke="black" points="1581,-90.58 1658,-90.58 "/>
<text text-anchor="middle" x="1619.5" y="-75.38" font-family="Times,serif" font-size="14.00">Prev. 13</text>
</g>
<!-- node13&#45;&gt;node14 -->
<!-- node13&#45;&gt;node14 -->
<g id="edge45" class="edge">
<title>node13:n&#45;&gt;node14</title>
<path fill="none" stroke="black" d="M1545,-101.58C1553.46,-101.58 1562.39,-102.36 1571,-103.53"/>
<polygon fill="black" stroke="black" points="1570.51,-106.99 1580.92,-105.05 1571.57,-100.07 1570.51,-106.99"/>
</g>
<!-- node14&#45;&gt;node13 -->
<g id="edge48" class="edge">
<title>node14:p&#45;&gt;node13</title>
<path fill="none" stroke="black" d="M1581,-78.58C1572.07,-78.58 1563.06,-80.71 1554.57,-83.93"/>
<polygon fill="black" stroke="black" points="1553.02,-80.78 1545.23,-87.96 1555.8,-87.21 1553.02,-80.78"/>
</g>
<!-- node15 -->
<g id="node22" class="node">
<title>node15</title>
<path fill="#ffb2d0" stroke="black" d="M1706,-67.58C1706,-67.58 1759,-67.58 1759,-67.58 1765,-67.58 1771,-73.58 1771,-79.58 1771,-79.58 1771,-147.58 1771,-147.58 1771,-153.58 1765,-159.58 1759,-159.58 1759,-159.58 1706,-159.58 1706,-159.58 1700,-159.58 1694,-153.58 1694,-147.58 1694,-147.58 1694,-79.58 1694,-79.58 1694,-73.58 1700,-67.58 1706,-67.58"/>
<text text-anchor="middle" x="1732.5" y="-144.38" font-family="Times,serif" font-size="14.00">Node 15</text>
<polyline fill="none" stroke="black" points="1694,-136.58 1771,-136.58 "/>
<text text-anchor="middle" x="1732.5" y="-121.38" font-family="Times,serif" font-size="14.00">Val. 14</text>
<polyline fill="none" stroke="black" points="1694,-113.58 1771,-113.58 "/>
<text text-anchor="middle" x="1732.5" y="-98.38" font-family="Times,serif" font-size="14.00">Next 16</text>
<polyline fill="none" stroke="black" points="1694,-90.58 1771,-90.58 "/>
<text text-anchor="middle" x="1732.5" y="-75.38" font-family="Times,serif" font-size="14.00">Prev. 14</text>
</g>
<!-- node14&#45;&gt;node15 -->
<!-- node14&#45;&gt;node15 -->
<g id="edge47" class="edge">
<title>node14:n&#45;&gt;node15</title>
<path fill="none" stroke="black" d="M1658,-101.58C1666.46,-101.58 1675.39,-102.36 1684,-103.53"/>
<polygon fill="black" stroke="black" points="1683.51,-106.99 1693.92,-105.05 1684.57,-100.07 1683.51,-106.99"/>
</g>
<!-- node15&#45;&gt;node14 -->
<g id="edge50" class="edge">
<title>node15:p&#45;&gt;node14</title>
<path fill="none" stroke="black" d="M1694,-78.58C1685.07,-78.58 1676.06,-80.71 1667.57,-83.93"/>
<polygon fill="black" stroke="black" points="1666.02,-80.78 1658.23,-87.96 1668.8,-87.21 1666.02,-80.78"/>
</g>
<!-- node15&#45;&gt;node16 -->
<!-- node15&#45;&gt;node16 -->
<g id="edge49" class="edge">
<title>node15:n&#45;&gt;node16</title>
<path fill="none" stroke="black" d="M1771,-101.58C1779.46,-101.58 1788.39,-102.36 1797,-103.53"/>
<polygon fill="black" stroke="black" points="1796.51,-106.99 1806.92,-105.05 1797.57,-100.07 1796.51,-106.99"/>
</g>
<!-- node16&#45;&gt;node15 -->
<g id="edge51" class="edge">
<title>node16:p&#45;&gt;node15</title>
<path fill="none" stroke="black" d="M1807,-78.58C1798.07,-78.58 1789.06,-80.71 1780.57,-83.93"/>
<polygon fill="black" stroke="black" points="1779.02,-80.78 1771.23,-87.96 1781.8,-87.21 1779.02,-80.78"/>
</g>
<!-- node16&#45;&gt;node17 -->
<!-- node17&#45;&gt;node1 -->
<g id="edge52" class="edge">
<title>node17:n&#45;&gt;node1</title>
<path fill="none" stroke="black" d="M1920,-101.58C1886.2,-101.58 1910.91,-55.03 1884,-34.58 1829.41,6.92 1802.07,-0.58 1733.5,-0.58 428,-0.58 428,-0.58 428,-0.58 365.04,-0.58 345.06,-4.32 291,-36.58 280.33,-42.94 270.26,-51.34 261.22,-60.25"/>
<polygon fill="black" stroke="black" points="258.66,-57.87 254.2,-67.48 263.68,-62.75 258.66,-57.87"/>
</g>
<!-- node17&#45;&gt;node18 -->
<!-- node19 -->
<g id="node26" class="node">
<title>node19</title>
<path fill="#98ff98" stroke="black" d="M2209,-67.58C2209,-67.58 2313,-67.58 2313,-67.58 2319,-67.58 2325,-73.58 2325,-79.58 2325,-79.58 2325,-147.58 2325,-147.58 2325,-153.58 2319,-159.58 2313,-159.58 2313,-159.58 2209,-159.58 2209,-159.58 2203,-159.58 2197,-153.58 2197,-147.58 2197,-147.58 2197,-79.58 2197,-79.58 2197,-73.58 2203,-67.58 2209,-67.58"/>
<text text-anchor="middle" x="2261" y="-144.38" font-family="Times,serif" font-size="14.00">Node 19</text>
<polyline fill="none" stroke="black" points="2197,-136.58 2325,-136.58 "/>
<text text-anchor="middle" x="2261" y="-121.38" font-family="Times,serif" font-size="14.00">Val. 0</text>
<polyline fill="none" stroke="black" points="2197,-113.58 2325,-113.58 "/>
<text text-anchor="middle" x="2261" y="-98.38" font-family="Times,serif" font-size="14.00">Next 20</text>
<polyline fill="none" stroke="black" points="2197,-90.58 2325,-90.58 "/>
<text text-anchor="middle" x="2261" y="-75.38" font-family="Times,serif" font-size="14.00">Prev. Free node</text>
</g>
<!-- node18&#45;&gt;node19 -->
<!-- node18&#45;&gt;node19 -->
<g id="edge53" class="edge">
<title>node18:n&#45;&gt;node19</title>
<path fill="none" stroke="black" d="M2161,-101.58C2169.34,-101.58 2178.04,-102 2186.68,-102.69"/>
<polygon fill="black" stroke="black" points="2186.48,-106.19 2196.76,-103.61 2187.12,-99.22 2186.48,-106.19"/>
</g>
<!-- node20 -->
<g id="node27" class="node">
<title>node20</title>
<path fill="#98ff98" stroke="black" d="M2373,-67.58C2373,-67.58 2477,-67.58 2477,-67.58 2483,-67.58 2489,-73.58 2489,-79.58 2489,-79.58 2489,-147.58 2489,-147.58 2489,-153.58 2483,-159.58 2477,-159.58 2477,-159.58 2373,-159.58 2373,-159.58 2367,-159.58 2361,-153.58 2361,-147.58 2361,-147.58 2361,-79.58 2361,-79.58 2361,-73.58 2367,-67.58 2373,-67.58"/>
<text text-anchor="middle" x="2425" y="-144.38" font-family="Times,serif" font-size="14.00">Node 20</text>
<polyline fill="none" stroke="black" points="2361,-136.58 2489,-136.58 "/>
<text text-anchor="middle" x="2425" y="-121.38" font-family="Times,serif" font-size="14.00">Val. 0</text>
<polyline fill="none" stroke="black" points="2361,-113.58 2489,-113.58 "/>
<text text-anchor="middle" x="2425" y="-98.38" font-family="Times,serif" font-size="14.00">Next 0</text>
<polyline fill="none" stroke="black" points="2361,-90.58 2489,-90.58 "/>
<text text-anchor="middle" x="2425" y="-75.38" font-family="Times,serif" font-size="14.00">Prev. Free node</text>
</g>
<!-- node19&#45;&gt;node20 -->
<!-- node19&#45;&gt;node20 -->
<g id="edge54" class="edge">
<title>node19:n&#45;&gt;node20</title>
<path fill="none" stroke="black" d="M2325,-101.58C2333.34,-101.58 2342.04,-102 2350.68,-102.69"/>
<polygon fill="black" stroke="black" points="2350.48,-106.19 2360.76,-103.61 2351.12,-99.22 2350.48,-106.19"/>
</g>
</g>
</svg>
