<?xml version="1.0" encoding="UTF-8" standalone="no"?>
<!DOCTYPE svg PUBLIC "-//W3C//DTD SVG 1.1//EN"
 "http://www.w3.org/Graphics/SVG/1.1/DTD/svg11.dtd">
<!-- Generated by graphviz version 2.43.0 (0)
 -->
<!-- Title: G Pages: 1 -->
<svg width="1508pt" height="156pt"
 viewBox="0.00 0.00 1508.00 155.50" xmlns="http://www.w3.org/2000/svg" xmlns:xlink="http://www.w3.org/1999/xlink">
<g id="graph0" class="graph" transform="scale(1 1) rotate(0) translate(4 151.5)">
<title>G</title>
<polygon fill="white" stroke="transparent" points="-4,4 -4,-151.5 1504,-151.5 1504,4 -4,4"/>
<!-- size -->
<g id="node1" class="node">
<title>size</title>
<path fill="#fffeb6" stroke="black" d="M79,-36C79,-36 12,-36 12,-36 6,-36 0,-30 0,-24 0,-24 0,-12 0,-12 0,-6 6,0 12,0 12,0 79,0 79,0 85,0 91,-6 91,-12 91,-12 91,-24 91,-24 91,-30 85,-36 79,-36"/>
<text text-anchor="middle" x="45.5" y="-14.3" font-family="Times,serif" font-size="14.00">SIZE = 14</text>
</g>
<!-- node1 -->
<g id="node2" class="node">
<title>node1</title>
<path fill="#faa76c" stroke="black" d="M20.5,-55C20.5,-55 70.5,-55 70.5,-55 76.5,-55 82.5,-61 82.5,-67 82.5,-67 82.5,-135 82.5,-135 82.5,-141 76.5,-147 70.5,-147 70.5,-147 20.5,-147 20.5,-147 14.5,-147 8.5,-141 8.5,-135 8.5,-135 8.5,-67 8.5,-67 8.5,-61 14.5,-55 20.5,-55"/>
<text text-anchor="middle" x="45.5" y="-131.8" font-family="Times,serif" font-size="14.00">Node 1</text>
<polyline fill="none" stroke="black" points="8.5,-124 82.5,-124 "/>
<text text-anchor="middle" x="45.5" y="-108.8" font-family="Times,serif" font-size="14.00">Val. 666</text>
<polyline fill="none" stroke="black" points="8.5,-101 82.5,-101 "/>
<text text-anchor="middle" x="45.5" y="-85.8" font-family="Times,serif" font-size="14.00">Next 2</text>
<polyline fill="none" stroke="black" points="8.5,-78 82.5,-78 "/>
<text text-anchor="middle" x="45.5" y="-62.8" font-family="Times,serif" font-size="14.00">Prev. 0</text>
</g>
<!-- node2 -->
<g id="node3" class="node">
<title>node2</title>
<path fill="#ffb2d0" stroke="black" d="M139,-55C139,-55 183,-55 183,-55 189,-55 195,-61 195,-67 195,-67 195,-135 195,-135 195,-141 189,-147 183,-147 183,-147 139,-147 139,-147 133,-147 127,-141 127,-135 127,-135 127,-67 127,-67 127,-61 133,-55 139,-55"/>
<text text-anchor="middle" x="161" y="-131.8" font-family="Times,serif" font-size="14.00">Node 2</text>
<polyline fill="none" stroke="black" points="127,-124 195,-124 "/>
<text text-anchor="middle" x="161" y="-108.8" font-family="Times,serif" font-size="14.00">Val. 10</text>
<polyline fill="none" stroke="black" points="127,-101 195,-101 "/>
<text text-anchor="middle" x="161" y="-85.8" font-family="Times,serif" font-size="14.00">Next 3</text>
<polyline fill="none" stroke="black" points="127,-78 195,-78 "/>
<text text-anchor="middle" x="161" y="-62.8" font-family="Times,serif" font-size="14.00">Prev. 1</text>
</g>
<!-- node1&#45;&gt;node2 -->
<!-- node1&#45;&gt;node2 -->
<g id="edge14" class="edge">
<title>node1:n&#45;&gt;node2</title>
<path fill="none" stroke="black" d="M83.5,-89C94.3,-89 105.85,-90.18 116.63,-91.8"/>
<polygon fill="black" stroke="black" points="116.23,-95.28 126.66,-93.47 117.37,-88.38 116.23,-95.28"/>
</g>
<!-- node2&#45;&gt;node1 -->
<g id="edge16" class="edge">
<title>node2:p&#45;&gt;node1</title>
<path fill="none" stroke="black" d="M127,-66C115.21,-66 103.2,-69.19 92.17,-73.65"/>
<polygon fill="black" stroke="black" points="90.48,-70.58 82.77,-77.85 93.33,-76.97 90.48,-70.58"/>
</g>
<!-- node3 -->
<g id="node4" class="node">
<title>node3</title>
<path fill="#ffb2d0" stroke="black" d="M243,-55C243,-55 287,-55 287,-55 293,-55 299,-61 299,-67 299,-67 299,-135 299,-135 299,-141 293,-147 287,-147 287,-147 243,-147 243,-147 237,-147 231,-141 231,-135 231,-135 231,-67 231,-67 231,-61 237,-55 243,-55"/>
<text text-anchor="middle" x="265" y="-131.8" font-family="Times,serif" font-size="14.00">Node 3</text>
<polyline fill="none" stroke="black" points="231,-124 299,-124 "/>
<text text-anchor="middle" x="265" y="-108.8" font-family="Times,serif" font-size="14.00">Val. 9</text>
<polyline fill="none" stroke="black" points="231,-101 299,-101 "/>
<text text-anchor="middle" x="265" y="-85.8" font-family="Times,serif" font-size="14.00">Next 4</text>
<polyline fill="none" stroke="black" points="231,-78 299,-78 "/>
<text text-anchor="middle" x="265" y="-62.8" font-family="Times,serif" font-size="14.00">Prev. 2</text>
</g>
<!-- node2&#45;&gt;node3 -->
<!-- node2&#45;&gt;node3 -->
<g id="edge15" class="edge">
<title>node2:n&#45;&gt;node3</title>
<path fill="none" stroke="black" d="M195,-89C203.38,-89 212.26,-89.87 220.75,-91.14"/>
<polygon fill="black" stroke="black" points="220.42,-94.64 230.86,-92.86 221.59,-87.74 220.42,-94.64"/>
</g>
<!-- node3&#45;&gt;node2 -->
<g id="edge18" class="edge">
<title>node3:p&#45;&gt;node2</title>
<path fill="none" stroke="black" d="M231,-66C221.92,-66 212.83,-68.44 204.36,-72.03"/>
<polygon fill="black" stroke="black" points="202.59,-69 195.1,-76.5 205.63,-75.3 202.59,-69"/>
</g>
<!-- node4 -->
<g id="node5" class="node">
<title>node4</title>
<path fill="#ffb2d0" stroke="black" d="M347,-55C347,-55 391,-55 391,-55 397,-55 403,-61 403,-67 403,-67 403,-135 403,-135 403,-141 397,-147 391,-147 391,-147 347,-147 347,-147 341,-147 335,-141 335,-135 335,-135 335,-67 335,-67 335,-61 341,-55 347,-55"/>
<text text-anchor="middle" x="369" y="-131.8" font-family="Times,serif" font-size="14.00">Node 4</text>
<polyline fill="none" stroke="black" points="335,-124 403,-124 "/>
<text text-anchor="middle" x="369" y="-108.8" font-family="Times,serif" font-size="14.00">Val. 8</text>
<polyline fill="none" stroke="black" points="335,-101 403,-101 "/>
<text text-anchor="middle" x="369" y="-85.8" font-family="Times,serif" font-size="14.00">Next 5</text>
<polyline fill="none" stroke="black" points="335,-78 403,-78 "/>
<text text-anchor="middle" x="369" y="-62.8" font-family="Times,serif" font-size="14.00">Prev. 3</text>
</g>
<!-- node3&#45;&gt;node4 -->
<!-- node3&#45;&gt;node4 -->
<g id="edge17" class="edge">
<title>node3:n&#45;&gt;node4</title>
<path fill="none" stroke="black" d="M299,-89C307.38,-89 316.26,-89.87 324.75,-91.14"/>
<polygon fill="black" stroke="black" points="324.42,-94.64 334.86,-92.86 325.59,-87.74 324.42,-94.64"/>
</g>
<!-- node4&#45;&gt;node3 -->
<g id="edge20" class="edge">
<title>node4:p&#45;&gt;node3</title>
<path fill="none" stroke="black" d="M335,-66C325.92,-66 316.83,-68.44 308.36,-72.03"/>
<polygon fill="black" stroke="black" points="306.59,-69 299.1,-76.5 309.63,-75.3 306.59,-69"/>
</g>
<!-- node5 -->
<g id="node6" class="node">
<title>node5</title>
<path fill="#ffb2d0" stroke="black" d="M451,-55C451,-55 495,-55 495,-55 501,-55 507,-61 507,-67 507,-67 507,-135 507,-135 507,-141 501,-147 495,-147 495,-147 451,-147 451,-147 445,-147 439,-141 439,-135 439,-135 439,-67 439,-67 439,-61 445,-55 451,-55"/>
<text text-anchor="middle" x="473" y="-131.8" font-family="Times,serif" font-size="14.00">Node 5</text>
<polyline fill="none" stroke="black" points="439,-124 507,-124 "/>
<text text-anchor="middle" x="473" y="-108.8" font-family="Times,serif" font-size="14.00">Val. 7</text>
<polyline fill="none" stroke="black" points="439,-101 507,-101 "/>
<text text-anchor="middle" x="473" y="-85.8" font-family="Times,serif" font-size="14.00">Next 6</text>
<polyline fill="none" stroke="black" points="439,-78 507,-78 "/>
<text text-anchor="middle" x="473" y="-62.8" font-family="Times,serif" font-size="14.00">Prev. 4</text>
</g>
<!-- node4&#45;&gt;node5 -->
<!-- node4&#45;&gt;node5 -->
<g id="edge19" class="edge">
<title>node4:n&#45;&gt;node5</title>
<path fill="none" stroke="black" d="M403,-89C411.38,-89 420.26,-89.87 428.75,-91.14"/>
<polygon fill="black" stroke="black" points="428.42,-94.64 438.86,-92.86 429.59,-87.74 428.42,-94.64"/>
</g>
<!-- node5&#45;&gt;node4 -->
<g id="edge22" class="edge">
<title>node5:p&#45;&gt;node4</title>
<path fill="none" stroke="black" d="M439,-66C429.92,-66 420.83,-68.44 412.36,-72.03"/>
<polygon fill="black" stroke="black" points="410.59,-69 403.1,-76.5 413.63,-75.3 410.59,-69"/>
</g>
<!-- node6 -->
<g id="node7" class="node">
<title>node6</title>
<path fill="#ffb2d0" stroke="black" d="M555,-55C555,-55 605,-55 605,-55 611,-55 617,-61 617,-67 617,-67 617,-135 617,-135 617,-141 611,-147 605,-147 605,-147 555,-147 555,-147 549,-147 543,-141 543,-135 543,-135 543,-67 543,-67 543,-61 549,-55 555,-55"/>
<text text-anchor="middle" x="580" y="-131.8" font-family="Times,serif" font-size="14.00">Node 6</text>
<polyline fill="none" stroke="black" points="543,-124 617,-124 "/>
<text text-anchor="middle" x="580" y="-108.8" font-family="Times,serif" font-size="14.00">Val. 333</text>
<polyline fill="none" stroke="black" points="543,-101 617,-101 "/>
<text text-anchor="middle" x="580" y="-85.8" font-family="Times,serif" font-size="14.00">Next 7</text>
<polyline fill="none" stroke="black" points="543,-78 617,-78 "/>
<text text-anchor="middle" x="580" y="-62.8" font-family="Times,serif" font-size="14.00">Prev. 5</text>
</g>
<!-- node5&#45;&gt;node6 -->
<!-- node5&#45;&gt;node6 -->
<g id="edge21" class="edge">
<title>node5:n&#45;&gt;node6</title>
<path fill="none" stroke="black" d="M507,-89C515.47,-89 524.43,-89.82 533.04,-91.03"/>
<polygon fill="black" stroke="black" points="532.51,-94.49 542.94,-92.6 533.61,-87.57 532.51,-94.49"/>
</g>
<!-- node6&#45;&gt;node5 -->
<g id="edge24" class="edge">
<title>node6:p&#45;&gt;node5</title>
<path fill="none" stroke="black" d="M543,-66C533.92,-66 524.83,-68.44 516.36,-72.03"/>
<polygon fill="black" stroke="black" points="514.59,-69 507.1,-76.5 517.63,-75.3 514.59,-69"/>
</g>
<!-- node7 -->
<g id="node8" class="node">
<title>node7</title>
<path fill="#ffb2d0" stroke="black" d="M665,-55C665,-55 709,-55 709,-55 715,-55 721,-61 721,-67 721,-67 721,-135 721,-135 721,-141 715,-147 709,-147 709,-147 665,-147 665,-147 659,-147 653,-141 653,-135 653,-135 653,-67 653,-67 653,-61 659,-55 665,-55"/>
<text text-anchor="middle" x="687" y="-131.8" font-family="Times,serif" font-size="14.00">Node 7</text>
<polyline fill="none" stroke="black" points="653,-124 721,-124 "/>
<text text-anchor="middle" x="687" y="-108.8" font-family="Times,serif" font-size="14.00">Val. 6</text>
<polyline fill="none" stroke="black" points="653,-101 721,-101 "/>
<text text-anchor="middle" x="687" y="-85.8" font-family="Times,serif" font-size="14.00">Next 8</text>
<polyline fill="none" stroke="black" points="653,-78 721,-78 "/>
<text text-anchor="middle" x="687" y="-62.8" font-family="Times,serif" font-size="14.00">Prev. 6</text>
</g>
<!-- node6&#45;&gt;node7 -->
<!-- node6&#45;&gt;node7 -->
<g id="edge23" class="edge">
<title>node6:n&#45;&gt;node7</title>
<path fill="none" stroke="black" d="M617,-89C625.38,-89 634.26,-89.87 642.75,-91.14"/>
<polygon fill="black" stroke="black" points="642.42,-94.64 652.86,-92.86 643.59,-87.74 642.42,-94.64"/>
</g>
<!-- node7&#45;&gt;node6 -->
<g id="edge26" class="edge">
<title>node7:p&#45;&gt;node6</title>
<path fill="none" stroke="black" d="M653,-66C644.01,-66 634.97,-68.23 626.48,-71.57"/>
<polygon fill="black" stroke="black" points="624.85,-68.47 617.15,-75.75 627.71,-74.85 624.85,-68.47"/>
</g>
<!-- node8 -->
<g id="node9" class="node">
<title>node8</title>
<path fill="#ffb2d0" stroke="black" d="M769,-55C769,-55 813,-55 813,-55 819,-55 825,-61 825,-67 825,-67 825,-135 825,-135 825,-141 819,-147 813,-147 813,-147 769,-147 769,-147 763,-147 757,-141 757,-135 757,-135 757,-67 757,-67 757,-61 763,-55 769,-55"/>
<text text-anchor="middle" x="791" y="-131.8" font-family="Times,serif" font-size="14.00">Node 8</text>
<polyline fill="none" stroke="black" points="757,-124 825,-124 "/>
<text text-anchor="middle" x="791" y="-108.8" font-family="Times,serif" font-size="14.00">Val. 5</text>
<polyline fill="none" stroke="black" points="757,-101 825,-101 "/>
<text text-anchor="middle" x="791" y="-85.8" font-family="Times,serif" font-size="14.00">Next 9</text>
<polyline fill="none" stroke="black" points="757,-78 825,-78 "/>
<text text-anchor="middle" x="791" y="-62.8" font-family="Times,serif" font-size="14.00">Prev. 7</text>
</g>
<!-- node7&#45;&gt;node8 -->
<!-- node7&#45;&gt;node8 -->
<g id="edge25" class="edge">
<title>node7:n&#45;&gt;node8</title>
<path fill="none" stroke="black" d="M721,-89C729.38,-89 738.26,-89.87 746.75,-91.14"/>
<polygon fill="black" stroke="black" points="746.42,-94.64 756.86,-92.86 747.59,-87.74 746.42,-94.64"/>
</g>
<!-- node8&#45;&gt;node7 -->
<g id="edge28" class="edge">
<title>node8:p&#45;&gt;node7</title>
<path fill="none" stroke="black" d="M757,-66C747.92,-66 738.83,-68.44 730.36,-72.03"/>
<polygon fill="black" stroke="black" points="728.59,-69 721.1,-76.5 731.63,-75.3 728.59,-69"/>
</g>
<!-- node9 -->
<g id="node10" class="node">
<title>node9</title>
<path fill="#ffb2d0" stroke="black" d="M873,-55C873,-55 923,-55 923,-55 929,-55 935,-61 935,-67 935,-67 935,-135 935,-135 935,-141 929,-147 923,-147 923,-147 873,-147 873,-147 867,-147 861,-141 861,-135 861,-135 861,-67 861,-67 861,-61 867,-55 873,-55"/>
<text text-anchor="middle" x="898" y="-131.8" font-family="Times,serif" font-size="14.00">Node 9</text>
<polyline fill="none" stroke="black" points="861,-124 935,-124 "/>
<text text-anchor="middle" x="898" y="-108.8" font-family="Times,serif" font-size="14.00">Val. 4</text>
<polyline fill="none" stroke="black" points="861,-101 935,-101 "/>
<text text-anchor="middle" x="898" y="-85.8" font-family="Times,serif" font-size="14.00">Next 10</text>
<polyline fill="none" stroke="black" points="861,-78 935,-78 "/>
<text text-anchor="middle" x="898" y="-62.8" font-family="Times,serif" font-size="14.00">Prev. 8</text>
</g>
<!-- node8&#45;&gt;node9 -->
<!-- node8&#45;&gt;node9 -->
<g id="edge27" class="edge">
<title>node8:n&#45;&gt;node9</title>
<path fill="none" stroke="black" d="M825,-89C833.47,-89 842.43,-89.82 851.04,-91.03"/>
<polygon fill="black" stroke="black" points="850.51,-94.49 860.94,-92.6 851.61,-87.57 850.51,-94.49"/>
</g>
<!-- node9&#45;&gt;node8 -->
<g id="edge30" class="edge">
<title>node9:p&#45;&gt;node8</title>
<path fill="none" stroke="black" d="M861,-66C851.92,-66 842.83,-68.44 834.36,-72.03"/>
<polygon fill="black" stroke="black" points="832.59,-69 825.1,-76.5 835.63,-75.3 832.59,-69"/>
</g>
<!-- node10 -->
<g id="node11" class="node">
<title>node10</title>
<path fill="#ffb2d0" stroke="black" d="M983,-55C983,-55 1036,-55 1036,-55 1042,-55 1048,-61 1048,-67 1048,-67 1048,-135 1048,-135 1048,-141 1042,-147 1036,-147 1036,-147 983,-147 983,-147 977,-147 971,-141 971,-135 971,-135 971,-67 971,-67 971,-61 977,-55 983,-55"/>
<text text-anchor="middle" x="1009.5" y="-131.8" font-family="Times,serif" font-size="14.00">Node 10</text>
<polyline fill="none" stroke="black" points="971,-124 1048,-124 "/>
<text text-anchor="middle" x="1009.5" y="-108.8" font-family="Times,serif" font-size="14.00">Val. 3</text>
<polyline fill="none" stroke="black" points="971,-101 1048,-101 "/>
<text text-anchor="middle" x="1009.5" y="-85.8" font-family="Times,serif" font-size="14.00">Next 11</text>
<polyline fill="none" stroke="black" points="971,-78 1048,-78 "/>
<text text-anchor="middle" x="1009.5" y="-62.8" font-family="Times,serif" font-size="14.00">Prev. 9</text>
</g>
<!-- node9&#45;&gt;node10 -->
<!-- node9&#45;&gt;node10 -->
<g id="edge29" class="edge">
<title>node9:n&#45;&gt;node10</title>
<path fill="none" stroke="black" d="M935,-89C943.46,-89 952.39,-89.78 961,-90.95"/>
<polygon fill="black" stroke="black" points="960.51,-94.41 970.92,-92.47 961.57,-87.5 960.51,-94.41"/>
</g>
<!-- node10&#45;&gt;node9 -->
<g id="edge32" class="edge">
<title>node10:p&#45;&gt;node9</title>
<path fill="none" stroke="black" d="M971,-66C962.01,-66 952.97,-68.23 944.48,-71.57"/>
<polygon fill="black" stroke="black" points="942.85,-68.47 935.15,-75.75 945.71,-74.85 942.85,-68.47"/>
</g>
<!-- node11 -->
<g id="node12" class="node">
<title>node11</title>
<path fill="#ffb2d0" stroke="black" d="M1096,-55C1096,-55 1149,-55 1149,-55 1155,-55 1161,-61 1161,-67 1161,-67 1161,-135 1161,-135 1161,-141 1155,-147 1149,-147 1149,-147 1096,-147 1096,-147 1090,-147 1084,-141 1084,-135 1084,-135 1084,-67 1084,-67 1084,-61 1090,-55 1096,-55"/>
<text text-anchor="middle" x="1122.5" y="-131.8" font-family="Times,serif" font-size="14.00">Node 11</text>
<polyline fill="none" stroke="black" points="1084,-124 1161,-124 "/>
<text text-anchor="middle" x="1122.5" y="-108.8" font-family="Times,serif" font-size="14.00">Val. 2</text>
<polyline fill="none" stroke="black" points="1084,-101 1161,-101 "/>
<text text-anchor="middle" x="1122.5" y="-85.8" font-family="Times,serif" font-size="14.00">Next 12</text>
<polyline fill="none" stroke="black" points="1084,-78 1161,-78 "/>
<text text-anchor="middle" x="1122.5" y="-62.8" font-family="Times,serif" font-size="14.00">Prev. 10</text>
</g>
<!-- node10&#45;&gt;node11 -->
<!-- node10&#45;&gt;node11 -->
<g id="edge31" class="edge">
<title>node10:n&#45;&gt;node11</title>
<path fill="none" stroke="black" d="M1048,-89C1056.46,-89 1065.39,-89.78 1074,-90.95"/>
<polygon fill="black" stroke="black" points="1073.51,-94.41 1083.92,-92.47 1074.57,-87.5 1073.51,-94.41"/>
</g>
<!-- node11&#45;&gt;node10 -->
<g id="edge34" class="edge">
<title>node11:p&#45;&gt;node10</title>
<path fill="none" stroke="black" d="M1084,-66C1075.07,-66 1066.06,-68.13 1057.57,-71.35"/>
<polygon fill="black" stroke="black" points="1056.02,-68.2 1048.23,-75.38 1058.8,-74.63 1056.02,-68.2"/>
</g>
<!-- node12 -->
<g id="node13" class="node">
<title>node12</title>
<path fill="#ffb2d0" stroke="black" d="M1209,-55C1209,-55 1262,-55 1262,-55 1268,-55 1274,-61 1274,-67 1274,-67 1274,-135 1274,-135 1274,-141 1268,-147 1262,-147 1262,-147 1209,-147 1209,-147 1203,-147 1197,-141 1197,-135 1197,-135 1197,-67 1197,-67 1197,-61 1203,-55 1209,-55"/>
<text text-anchor="middle" x="1235.5" y="-131.8" font-family="Times,serif" font-size="14.00">Node 12</text>
<polyline fill="none" stroke="black" points="1197,-124 1274,-124 "/>
<text text-anchor="middle" x="1235.5" y="-108.8" font-family="Times,serif" font-size="14.00">Val. 1</text>
<polyline fill="none" stroke="black" points="1197,-101 1274,-101 "/>
<text text-anchor="middle" x="1235.5" y="-85.8" font-family="Times,serif" font-size="14.00">Next 13</text>
<polyline fill="none" stroke="black" points="1197,-78 1274,-78 "/>
<text text-anchor="middle" x="1235.5" y="-62.8" font-family="Times,serif" font-size="14.00">Prev. 11</text>
</g>
<!-- node11&#45;&gt;node12 -->
<!-- node11&#45;&gt;node12 -->
<g id="edge33" class="edge">
<title>node11:n&#45;&gt;node12</title>
<path fill="none" stroke="black" d="M1161,-89C1169.46,-89 1178.39,-89.78 1187,-90.95"/>
<polygon fill="black" stroke="black" points="1186.51,-94.41 1196.92,-92.47 1187.57,-87.5 1186.51,-94.41"/>
</g>
<!-- node12&#45;&gt;node11 -->
<g id="edge36" class="edge">
<title>node12:p&#45;&gt;node11</title>
<path fill="none" stroke="black" d="M1197,-66C1188.07,-66 1179.06,-68.13 1170.57,-71.35"/>
<polygon fill="black" stroke="black" points="1169.02,-68.2 1161.23,-75.38 1171.8,-74.63 1169.02,-68.2"/>
</g>
<!-- node13 -->
<g id="node14" class="node">
<title>node13</title>
<path fill="#ffb2d0" stroke="black" d="M1322,-55C1322,-55 1375,-55 1375,-55 1381,-55 1387,-61 1387,-67 1387,-67 1387,-135 1387,-135 1387,-141 1381,-147 1375,-147 1375,-147 1322,-147 1322,-147 1316,-147 1310,-141 1310,-135 1310,-135 1310,-67 1310,-67 1310,-61 1316,-55 1322,-55"/>
<text text-anchor="middle" x="1348.5" y="-131.8" font-family="Times,serif" font-size="14.00">Node 13</text>
<polyline fill="none" stroke="black" points="1310,-124 1387,-124 "/>
<text text-anchor="middle" x="1348.5" y="-108.8" font-family="Times,serif" font-size="14.00">Val. 0</text>
<polyline fill="none" stroke="black" points="1310,-101 1387,-101 "/>
<text text-anchor="middle" x="1348.5" y="-85.8" font-family="Times,serif" font-size="14.00">Next 14</text>
<polyline fill="none" stroke="black" points="1310,-78 1387,-78 "/>
<text text-anchor="middle" x="1348.5" y="-62.8" font-family="Times,serif" font-size="14.00">Prev. 12</text>
</g>
<!-- node12&#45;&gt;node13 -->
<!-- node12&#45;&gt;node13 -->
<g id="edge35" class="edge">
<title>node12:n&#45;&gt;node13</title>
<path fill="none" stroke="black" d="M1274,-89C1282.46,-89 1291.39,-89.78 1300,-90.95"/>
<polygon fill="black" stroke="black" points="1299.51,-94.41 1309.92,-92.47 1300.57,-87.5 1299.51,-94.41"/>
</g>
<!-- node13&#45;&gt;node12 -->
<g id="edge38" class="edge">
<title>node13:p&#45;&gt;node12</title>
<path fill="none" stroke="black" d="M1310,-66C1301.07,-66 1292.06,-68.13 1283.57,-71.35"/>
<polygon fill="black" stroke="black" points="1282.02,-68.2 1274.23,-75.38 1284.8,-74.63 1282.02,-68.2"/>
</g>
<!-- node14 -->
<g id="node15" class="node">
<title>node14</title>
<path fill="#c1aed1" stroke="black" d="M1435,-55C1435,-55 1488,-55 1488,-55 1494,-55 1500,-61 1500,-67 1500,-67 1500,-135 1500,-135 1500,-141 1494,-147 1488,-147 1488,-147 1435,-147 1435,-147 1429,-147 1423,-141 1423,-135 1423,-135 1423,-67 1423,-67 1423,-61 1429,-55 1435,-55"/>
<text text-anchor="middle" x="1461.5" y="-131.8" font-family="Times,serif" font-size="14.00">Node 14</text>
<polyline fill="none" stroke="black" points="1423,-124 1500,-124 "/>
<text text-anchor="middle" x="1461.5" y="-108.8" font-family="Times,serif" font-size="14.00">Val. 666</text>
<polyline fill="none" stroke="black" points="1423,-101 1500,-101 "/>
<text text-anchor="middle" x="1461.5" y="-85.8" font-family="Times,serif" font-size="14.00">Next 0</text>
<polyline fill="none" stroke="black" points="1423,-78 1500,-78 "/>
<text text-anchor="middle" x="1461.5" y="-62.8" font-family="Times,serif" font-size="14.00">Prev. 13</text>
</g>
<!-- node13&#45;&gt;node14 -->
<!-- node13&#45;&gt;node14 -->
<g id="edge37" class="edge">
<title>node13:n&#45;&gt;node14</title>
<path fill="none" stroke="black" d="M1387,-89C1395.46,-89 1404.39,-89.78 1413,-90.95"/>
<polygon fill="black" stroke="black" points="1412.51,-94.41 1422.92,-92.47 1413.57,-87.5 1412.51,-94.41"/>
</g>
<!-- node14&#45;&gt;node13 -->
<g id="edge39" class="edge">
<title>node14:p&#45;&gt;node13</title>
<path fill="none" stroke="black" d="M1423,-66C1414.07,-66 1405.06,-68.13 1396.57,-71.35"/>
<polygon fill="black" stroke="black" points="1395.02,-68.2 1387.23,-75.38 1397.8,-74.63 1395.02,-68.2"/>
</g>
</g>
</svg>
