<?xml version="1.0" encoding="UTF-8" standalone="no"?>
<!DOCTYPE svg PUBLIC "-//W3C//DTD SVG 1.1//EN"
 "http://www.w3.org/Graphics/SVG/1.1/DTD/svg11.dtd">
<!-- Generated by graphviz version 2.43.0 (0)
 -->
<!-- Title: G Pages: 1 -->
<svg width="1276pt" height="156pt"
 viewBox="0.00 0.00 1276.00 155.50" xmlns="http://www.w3.org/2000/svg" xmlns:xlink="http://www.w3.org/1999/xlink">
<g id="graph0" class="graph" transform="scale(1 1) rotate(0) translate(4 151.5)">
<title>G</title>
<polygon fill="white" stroke="transparent" points="-4,4 -4,-151.5 1272,-151.5 1272,4 -4,4"/>
<!-- size -->
<g id="node1" class="node">
<title>size</title>
<path fill="#fffeb6" stroke="black" d="M79,-36C79,-36 12,-36 12,-36 6,-36 0,-30 0,-24 0,-24 0,-12 0,-12 0,-6 6,0 12,0 12,0 79,0 79,0 85,0 91,-6 91,-12 91,-12 91,-24 91,-24 91,-30 85,-36 79,-36"/>
<text text-anchor="middle" x="45.5" y="-14.3" font-family="Times,serif" font-size="14.00">SIZE = 12</text>
</g>
<!-- node1 -->
<g id="node2" class="node">
<title>node1</title>
<path fill="#faa76c" stroke="black" d="M20.5,-55C20.5,-55 70.5,-55 70.5,-55 76.5,-55 82.5,-61 82.5,-67 82.5,-67 82.5,-135 82.5,-135 82.5,-141 76.5,-147 70.5,-147 70.5,-147 20.5,-147 20.5,-147 14.5,-147 8.5,-141 8.5,-135 8.5,-135 8.5,-67 8.5,-67 8.5,-61 14.5,-55 20.5,-55"/>
<text text-anchor="middle" x="45.5" y="-131.8" font-family="Times,serif" font-size="14.00">Node 1</text>
<polyline fill="none" stroke="black" points="8.5,-124 82.5,-124 "/>
<text text-anchor="middle" x="45.5" y="-108.8" font-family="Times,serif" font-size="14.00">Val. 666</text>
<polyline fill="none" stroke="black" points="8.5,-101 82.5,-101 "/>
<text text-anchor="middle" x="45.5" y="-85.8" font-family="Times,serif" font-size="14.00">Next 2</text>
<polyline fill="none" stroke="black" points="8.5,-78 82.5,-78 "/>
<text text-anchor="middle" x="45.5" y="-62.8" font-family="Times,serif" font-size="14.00">Prev. 0</text>
</g>
<!-- node2 -->
<g id="node3" class="node">
<title>node2</title>
<path fill="#ffb2d0" stroke="black" d="M139,-55C139,-55 183,-55 183,-55 189,-55 195,-61 195,-67 195,-67 195,-135 195,-135 195,-141 189,-147 183,-147 183,-147 139,-147 139,-147 133,-147 127,-141 127,-135 127,-135 127,-67 127,-67 127,-61 133,-55 139,-55"/>
<text text-anchor="middle" x="161" y="-131.8" font-family="Times,serif" font-size="14.00">Node 2</text>
<polyline fill="none" stroke="black" points="127,-124 195,-124 "/>
<text text-anchor="middle" x="161" y="-108.8" font-family="Times,serif" font-size="14.00">Val. 9</text>
<polyline fill="none" stroke="black" points="127,-101 195,-101 "/>
<text text-anchor="middle" x="161" y="-85.8" font-family="Times,serif" font-size="14.00">Next 3</text>
<polyline fill="none" stroke="black" points="127,-78 195,-78 "/>
<text text-anchor="middle" x="161" y="-62.8" font-family="Times,serif" font-size="14.00">Prev. 1</text>
</g>
<!-- node1&#45;&gt;node2 -->
<!-- node1&#45;&gt;node2 -->
<g id="edge12" class="edge">
<title>node1:n&#45;&gt;node2</title>
<path fill="none" stroke="black" d="M83.5,-89C94.3,-89 105.85,-90.18 116.63,-91.8"/>
<polygon fill="black" stroke="black" points="116.23,-95.28 126.66,-93.47 117.37,-88.38 116.23,-95.28"/>
</g>
<!-- node2&#45;&gt;node1 -->
<g id="edge14" class="edge">
<title>node2:p&#45;&gt;node1</title>
<path fill="none" stroke="black" d="M127,-66C115.21,-66 103.2,-69.19 92.17,-73.65"/>
<polygon fill="black" stroke="black" points="90.48,-70.58 82.77,-77.85 93.33,-76.97 90.48,-70.58"/>
</g>
<!-- node3 -->
<g id="node4" class="node">
<title>node3</title>
<path fill="#ffb2d0" stroke="black" d="M243,-55C243,-55 287,-55 287,-55 293,-55 299,-61 299,-67 299,-67 299,-135 299,-135 299,-141 293,-147 287,-147 287,-147 243,-147 243,-147 237,-147 231,-141 231,-135 231,-135 231,-67 231,-67 231,-61 237,-55 243,-55"/>
<text text-anchor="middle" x="265" y="-131.8" font-family="Times,serif" font-size="14.00">Node 3</text>
<polyline fill="none" stroke="black" points="231,-124 299,-124 "/>
<text text-anchor="middle" x="265" y="-108.8" font-family="Times,serif" font-size="14.00">Val. 8</text>
<polyline fill="none" stroke="black" points="231,-101 299,-101 "/>
<text text-anchor="middle" x="265" y="-85.8" font-family="Times,serif" font-size="14.00">Next 4</text>
<polyline fill="none" stroke="black" points="231,-78 299,-78 "/>
<text text-anchor="middle" x="265" y="-62.8" font-family="Times,serif" font-size="14.00">Prev. 2</text>
</g>
<!-- node2&#45;&gt;node3 -->
<!-- node2&#45;&gt;node3 -->
<g id="edge13" class="edge">
<title>node2:n&#45;&gt;node3</title>
<path fill="none" stroke="black" d="M195,-89C203.38,-89 212.26,-89.87 220.75,-91.14"/>
<polygon fill="black" stroke="black" points="220.42,-94.64 230.86,-92.86 221.59,-87.74 220.42,-94.64"/>
</g>
<!-- node3&#45;&gt;node2 -->
<g id="edge16" class="edge">
<title>node3:p&#45;&gt;node2</title>
<path fill="none" stroke="black" d="M231,-66C221.92,-66 212.83,-68.44 204.36,-72.03"/>
<polygon fill="black" stroke="black" points="202.59,-69 195.1,-76.5 205.63,-75.3 202.59,-69"/>
</g>
<!-- node4 -->
<g id="node5" class="node">
<title>node4</title>
<path fill="#ffb2d0" stroke="black" d="M347,-55C347,-55 391,-55 391,-55 397,-55 403,-61 403,-67 403,-67 403,-135 403,-135 403,-141 397,-147 391,-147 391,-147 347,-147 347,-147 341,-147 335,-141 335,-135 335,-135 335,-67 335,-67 335,-61 341,-55 347,-55"/>
<text text-anchor="middle" x="369" y="-131.8" font-family="Times,serif" font-size="14.00">Node 4</text>
<polyline fill="none" stroke="black" points="335,-124 403,-124 "/>
<text text-anchor="middle" x="369" y="-108.8" font-family="Times,serif" font-size="14.00">Val. 7</text>
<polyline fill="none" stroke="black" points="335,-101 403,-101 "/>
<text text-anchor="middle" x="369" y="-85.8" font-family="Times,serif" font-size="14.00">Next 5</text>
<polyline fill="none" stroke="black" points="335,-78 403,-78 "/>
<text text-anchor="middle" x="369" y="-62.8" font-family="Times,serif" font-size="14.00">Prev. 3</text>
</g>
<!-- node3&#45;&gt;node4 -->
<!-- node3&#45;&gt;node4 -->
<g id="edge15" class="edge">
<title>node3:n&#45;&gt;node4</title>
<path fill="none" stroke="black" d="M299,-89C307.38,-89 316.26,-89.87 324.75,-91.14"/>
<polygon fill="black" stroke="black" points="324.42,-94.64 334.86,-92.86 325.59,-87.74 324.42,-94.64"/>
</g>
<!-- node4&#45;&gt;node3 -->
<g id="edge18" class="edge">
<title>node4:p&#45;&gt;node3</title>
<path fill="none" stroke="black" d="M335,-66C325.92,-66 316.83,-68.44 308.36,-72.03"/>
<polygon fill="black" stroke="black" points="306.59,-69 299.1,-76.5 309.63,-75.3 306.59,-69"/>
</g>
<!-- node5 -->
<g id="node6" class="node">
<title>node5</title>
<path fill="#ffb2d0" stroke="black" d="M451,-55C451,-55 495,-55 495,-55 501,-55 507,-61 507,-67 507,-67 507,-135 507,-135 507,-141 501,-147 495,-147 495,-147 451,-147 451,-147 445,-147 439,-141 439,-135 439,-135 439,-67 439,-67 439,-61 445,-55 451,-55"/>
<text text-anchor="middle" x="473" y="-131.8" font-family="Times,serif" font-size="14.00">Node 5</text>
<polyline fill="none" stroke="black" points="439,-124 507,-124 "/>
<text text-anchor="middle" x="473" y="-108.8" font-family="Times,serif" font-size="14.00">Val. 6</text>
<polyline fill="none" stroke="black" points="439,-101 507,-101 "/>
<text text-anchor="middle" x="473" y="-85.8" font-family="Times,serif" font-size="14.00">Next 6</text>
<polyline fill="none" stroke="black" points="439,-78 507,-78 "/>
<text text-anchor="middle" x="473" y="-62.8" font-family="Times,serif" font-size="14.00">Prev. 4</text>
</g>
<!-- node4&#45;&gt;node5 -->
<!-- node4&#45;&gt;node5 -->
<g id="edge17" class="edge">
<title>node4:n&#45;&gt;node5</title>
<path fill="none" stroke="black" d="M403,-89C411.38,-89 420.26,-89.87 428.75,-91.14"/>
<polygon fill="black" stroke="black" points="428.42,-94.64 438.86,-92.86 429.59,-87.74 428.42,-94.64"/>
</g>
<!-- node5&#45;&gt;node4 -->
<g id="edge20" class="edge">
<title>node5:p&#45;&gt;node4</title>
<path fill="none" stroke="black" d="M439,-66C429.92,-66 420.83,-68.44 412.36,-72.03"/>
<polygon fill="black" stroke="black" points="410.59,-69 403.1,-76.5 413.63,-75.3 410.59,-69"/>
</g>
<!-- node6 -->
<g id="node7" class="node">
<title>node6</title>
<path fill="#ffb2d0" stroke="black" d="M555,-55C555,-55 599,-55 599,-55 605,-55 611,-61 611,-67 611,-67 611,-135 611,-135 611,-141 605,-147 599,-147 599,-147 555,-147 555,-147 549,-147 543,-141 543,-135 543,-135 543,-67 543,-67 543,-61 549,-55 555,-55"/>
<text text-anchor="middle" x="577" y="-131.8" font-family="Times,serif" font-size="14.00">Node 6</text>
<polyline fill="none" stroke="black" points="543,-124 611,-124 "/>
<text text-anchor="middle" x="577" y="-108.8" font-family="Times,serif" font-size="14.00">Val. 5</text>
<polyline fill="none" stroke="black" points="543,-101 611,-101 "/>
<text text-anchor="middle" x="577" y="-85.8" font-family="Times,serif" font-size="14.00">Next 7</text>
<polyline fill="none" stroke="black" points="543,-78 611,-78 "/>
<text text-anchor="middle" x="577" y="-62.8" font-family="Times,serif" font-size="14.00">Prev. 5</text>
</g>
<!-- node5&#45;&gt;node6 -->
<!-- node5&#45;&gt;node6 -->
<g id="edge19" class="edge">
<title>node5:n&#45;&gt;node6</title>
<path fill="none" stroke="black" d="M507,-89C515.38,-89 524.26,-89.87 532.75,-91.14"/>
<polygon fill="black" stroke="black" points="532.42,-94.64 542.86,-92.86 533.59,-87.74 532.42,-94.64"/>
</g>
<!-- node6&#45;&gt;node5 -->
<g id="edge22" class="edge">
<title>node6:p&#45;&gt;node5</title>
<path fill="none" stroke="black" d="M543,-66C533.92,-66 524.83,-68.44 516.36,-72.03"/>
<polygon fill="black" stroke="black" points="514.59,-69 507.1,-76.5 517.63,-75.3 514.59,-69"/>
</g>
<!-- node7 -->
<g id="node8" class="node">
<title>node7</title>
<path fill="#ffb2d0" stroke="black" d="M659,-55C659,-55 703,-55 703,-55 709,-55 715,-61 715,-67 715,-67 715,-135 715,-135 715,-141 709,-147 703,-147 703,-147 659,-147 659,-147 653,-147 647,-141 647,-135 647,-135 647,-67 647,-67 647,-61 653,-55 659,-55"/>
<text text-anchor="middle" x="681" y="-131.8" font-family="Times,serif" font-size="14.00">Node 7</text>
<polyline fill="none" stroke="black" points="647,-124 715,-124 "/>
<text text-anchor="middle" x="681" y="-108.8" font-family="Times,serif" font-size="14.00">Val. 4</text>
<polyline fill="none" stroke="black" points="647,-101 715,-101 "/>
<text text-anchor="middle" x="681" y="-85.8" font-family="Times,serif" font-size="14.00">Next 8</text>
<polyline fill="none" stroke="black" points="647,-78 715,-78 "/>
<text text-anchor="middle" x="681" y="-62.8" font-family="Times,serif" font-size="14.00">Prev. 6</text>
</g>
<!-- node6&#45;&gt;node7 -->
<!-- node6&#45;&gt;node7 -->
<g id="edge21" class="edge">
<title>node6:n&#45;&gt;node7</title>
<path fill="none" stroke="black" d="M611,-89C619.38,-89 628.26,-89.87 636.75,-91.14"/>
<polygon fill="black" stroke="black" points="636.42,-94.64 646.86,-92.86 637.59,-87.74 636.42,-94.64"/>
</g>
<!-- node7&#45;&gt;node6 -->
<g id="edge24" class="edge">
<title>node7:p&#45;&gt;node6</title>
<path fill="none" stroke="black" d="M647,-66C637.92,-66 628.83,-68.44 620.36,-72.03"/>
<polygon fill="black" stroke="black" points="618.59,-69 611.1,-76.5 621.63,-75.3 618.59,-69"/>
</g>
<!-- node8 -->
<g id="node9" class="node">
<title>node8</title>
<path fill="#ffb2d0" stroke="black" d="M763,-55C763,-55 807,-55 807,-55 813,-55 819,-61 819,-67 819,-67 819,-135 819,-135 819,-141 813,-147 807,-147 807,-147 763,-147 763,-147 757,-147 751,-141 751,-135 751,-135 751,-67 751,-67 751,-61 757,-55 763,-55"/>
<text text-anchor="middle" x="785" y="-131.8" font-family="Times,serif" font-size="14.00">Node 8</text>
<polyline fill="none" stroke="black" points="751,-124 819,-124 "/>
<text text-anchor="middle" x="785" y="-108.8" font-family="Times,serif" font-size="14.00">Val. 3</text>
<polyline fill="none" stroke="black" points="751,-101 819,-101 "/>
<text text-anchor="middle" x="785" y="-85.8" font-family="Times,serif" font-size="14.00">Next 9</text>
<polyline fill="none" stroke="black" points="751,-78 819,-78 "/>
<text text-anchor="middle" x="785" y="-62.8" font-family="Times,serif" font-size="14.00">Prev. 7</text>
</g>
<!-- node7&#45;&gt;node8 -->
<!-- node7&#45;&gt;node8 -->
<g id="edge23" class="edge">
<title>node7:n&#45;&gt;node8</title>
<path fill="none" stroke="black" d="M715,-89C723.38,-89 732.26,-89.87 740.75,-91.14"/>
<polygon fill="black" stroke="black" points="740.42,-94.64 750.86,-92.86 741.59,-87.74 740.42,-94.64"/>
</g>
<!-- node8&#45;&gt;node7 -->
<g id="edge26" class="edge">
<title>node8:p&#45;&gt;node7</title>
<path fill="none" stroke="black" d="M751,-66C741.92,-66 732.83,-68.44 724.36,-72.03"/>
<polygon fill="black" stroke="black" points="722.59,-69 715.1,-76.5 725.63,-75.3 722.59,-69"/>
</g>
<!-- node9 -->
<g id="node10" class="node">
<title>node9</title>
<path fill="#ffb2d0" stroke="black" d="M867,-55C867,-55 917,-55 917,-55 923,-55 929,-61 929,-67 929,-67 929,-135 929,-135 929,-141 923,-147 917,-147 917,-147 867,-147 867,-147 861,-147 855,-141 855,-135 855,-135 855,-67 855,-67 855,-61 861,-55 867,-55"/>
<text text-anchor="middle" x="892" y="-131.8" font-family="Times,serif" font-size="14.00">Node 9</text>
<polyline fill="none" stroke="black" points="855,-124 929,-124 "/>
<text text-anchor="middle" x="892" y="-108.8" font-family="Times,serif" font-size="14.00">Val. 2</text>
<polyline fill="none" stroke="black" points="855,-101 929,-101 "/>
<text text-anchor="middle" x="892" y="-85.8" font-family="Times,serif" font-size="14.00">Next 10</text>
<polyline fill="none" stroke="black" points="855,-78 929,-78 "/>
<text text-anchor="middle" x="892" y="-62.8" font-family="Times,serif" font-size="14.00">Prev. 8</text>
</g>
<!-- node8&#45;&gt;node9 -->
<!-- node8&#45;&gt;node9 -->
<g id="edge25" class="edge">
<title>node8:n&#45;&gt;node9</title>
<path fill="none" stroke="black" d="M819,-89C827.47,-89 836.43,-89.82 845.04,-91.03"/>
<polygon fill="black" stroke="black" points="844.51,-94.49 854.94,-92.6 845.61,-87.57 844.51,-94.49"/>
</g>
<!-- node9&#45;&gt;node8 -->
<g id="edge28" class="edge">
<title>node9:p&#45;&gt;node8</title>
<path fill="none" stroke="black" d="M855,-66C845.92,-66 836.83,-68.44 828.36,-72.03"/>
<polygon fill="black" stroke="black" points="826.59,-69 819.1,-76.5 829.63,-75.3 826.59,-69"/>
</g>
<!-- node10 -->
<g id="node11" class="node">
<title>node10</title>
<path fill="#ffb2d0" stroke="black" d="M977,-55C977,-55 1030,-55 1030,-55 1036,-55 1042,-61 1042,-67 1042,-67 1042,-135 1042,-135 1042,-141 1036,-147 1030,-147 1030,-147 977,-147 977,-147 971,-147 965,-141 965,-135 965,-135 965,-67 965,-67 965,-61 971,-55 977,-55"/>
<text text-anchor="middle" x="1003.5" y="-131.8" font-family="Times,serif" font-size="14.00">Node 10</text>
<polyline fill="none" stroke="black" points="965,-124 1042,-124 "/>
<text text-anchor="middle" x="1003.5" y="-108.8" font-family="Times,serif" font-size="14.00">Val. 1</text>
<polyline fill="none" stroke="black" points="965,-101 1042,-101 "/>
<text text-anchor="middle" x="1003.5" y="-85.8" font-family="Times,serif" font-size="14.00">Next 11</text>
<polyline fill="none" stroke="black" points="965,-78 1042,-78 "/>
<text text-anchor="middle" x="1003.5" y="-62.8" font-family="Times,serif" font-size="14.00">Prev. 9</text>
</g>
<!-- node9&#45;&gt;node10 -->
<!-- node9&#45;&gt;node10 -->
<g id="edge27" class="edge">
<title>node9:n&#45;&gt;node10</title>
<path fill="none" stroke="black" d="M929,-89C937.46,-89 946.39,-89.78 955,-90.95"/>
<polygon fill="black" stroke="black" points="954.51,-94.41 964.92,-92.47 955.57,-87.5 954.51,-94.41"/>
</g>
<!-- node10&#45;&gt;node9 -->
<g id="edge30" class="edge">
<title>node10:p&#45;&gt;node9</title>
<path fill="none" stroke="black" d="M965,-66C956.01,-66 946.97,-68.23 938.48,-71.57"/>
<polygon fill="black" stroke="black" points="936.85,-68.47 929.15,-75.75 939.71,-74.85 936.85,-68.47"/>
</g>
<!-- node11 -->
<g id="node12" class="node">
<title>node11</title>
<path fill="#ffb2d0" stroke="black" d="M1090,-55C1090,-55 1143,-55 1143,-55 1149,-55 1155,-61 1155,-67 1155,-67 1155,-135 1155,-135 1155,-141 1149,-147 1143,-147 1143,-147 1090,-147 1090,-147 1084,-147 1078,-141 1078,-135 1078,-135 1078,-67 1078,-67 1078,-61 1084,-55 1090,-55"/>
<text text-anchor="middle" x="1116.5" y="-131.8" font-family="Times,serif" font-size="14.00">Node 11</text>
<polyline fill="none" stroke="black" points="1078,-124 1155,-124 "/>
<text text-anchor="middle" x="1116.5" y="-108.8" font-family="Times,serif" font-size="14.00">Val. 0</text>
<polyline fill="none" stroke="black" points="1078,-101 1155,-101 "/>
<text text-anchor="middle" x="1116.5" y="-85.8" font-family="Times,serif" font-size="14.00">Next 12</text>
<polyline fill="none" stroke="black" points="1078,-78 1155,-78 "/>
<text text-anchor="middle" x="1116.5" y="-62.8" font-family="Times,serif" font-size="14.00">Prev. 10</text>
</g>
<!-- node10&#45;&gt;node11 -->
<!-- node10&#45;&gt;node11 -->
<g id="edge29" class="edge">
<title>node10:n&#45;&gt;node11</title>
<path fill="none" stroke="black" d="M1042,-89C1050.46,-89 1059.39,-89.78 1068,-90.95"/>
<polygon fill="black" stroke="black" points="1067.51,-94.41 1077.92,-92.47 1068.57,-87.5 1067.51,-94.41"/>
</g>
<!-- node11&#45;&gt;node10 -->
<g id="edge32" class="edge">
<title>node11:p&#45;&gt;node10</title>
<path fill="none" stroke="black" d="M1078,-66C1069.07,-66 1060.06,-68.13 1051.57,-71.35"/>
<polygon fill="black" stroke="black" points="1050.02,-68.2 1042.23,-75.38 1052.8,-74.63 1050.02,-68.2"/>
</g>
<!-- node12 -->
<g id="node13" class="node">
<title>node12</title>
<path fill="#c1aed1" stroke="black" d="M1203,-55C1203,-55 1256,-55 1256,-55 1262,-55 1268,-61 1268,-67 1268,-67 1268,-135 1268,-135 1268,-141 1262,-147 1256,-147 1256,-147 1203,-147 1203,-147 1197,-147 1191,-141 1191,-135 1191,-135 1191,-67 1191,-67 1191,-61 1197,-55 1203,-55"/>
<text text-anchor="middle" x="1229.5" y="-131.8" font-family="Times,serif" font-size="14.00">Node 12</text>
<polyline fill="none" stroke="black" points="1191,-124 1268,-124 "/>
<text text-anchor="middle" x="1229.5" y="-108.8" font-family="Times,serif" font-size="14.00">Val. 666</text>
<polyline fill="none" stroke="black" points="1191,-101 1268,-101 "/>
<text text-anchor="middle" x="1229.5" y="-85.8" font-family="Times,serif" font-size="14.00">Next 0</text>
<polyline fill="none" stroke="black" points="1191,-78 1268,-78 "/>
<text text-anchor="middle" x="1229.5" y="-62.8" font-family="Times,serif" font-size="14.00">Prev. 11</text>
</g>
<!-- node11&#45;&gt;node12 -->
<!-- node11&#45;&gt;node12 -->
<g id="edge31" class="edge">
<title>node11:n&#45;&gt;node12</title>
<path fill="none" stroke="black" d="M1155,-89C1163.46,-89 1172.39,-89.78 1181,-90.95"/>
<polygon fill="black" stroke="black" points="1180.51,-94.41 1190.92,-92.47 1181.57,-87.5 1180.51,-94.41"/>
</g>
<!-- node12&#45;&gt;node11 -->
<g id="edge33" class="edge">
<title>node12:p&#45;&gt;node11</title>
<path fill="none" stroke="black" d="M1191,-66C1182.07,-66 1173.06,-68.13 1164.57,-71.35"/>
<polygon fill="black" stroke="black" points="1163.02,-68.2 1155.23,-75.38 1165.8,-74.63 1163.02,-68.2"/>
</g>
</g>
</svg>
