<?xml version="1.0" encoding="UTF-8" standalone="no"?>
<!DOCTYPE svg PUBLIC "-//W3C//DTD SVG 1.1//EN"
 "http://www.w3.org/Graphics/SVG/1.1/DTD/svg11.dtd">
<!-- Generated by graphviz version 2.43.0 (0)
 -->
<!-- Title: G Pages: 1 -->
<svg width="448pt" height="178pt"
 viewBox="0.00 0.00 448.00 178.00" xmlns="http://www.w3.org/2000/svg" xmlns:xlink="http://www.w3.org/1999/xlink">
<g id="graph0" class="graph" transform="scale(1 1) rotate(0) translate(4 174)">
<title>G</title>
<polygon fill="white" stroke="transparent" points="-4,4 -4,-174 444,-174 444,4 -4,4"/>
<!-- size -->
<g id="node1" class="node">
<title>size</title>
<path fill="#fffeb6" stroke="black" d="M129,-36C129,-36 71,-36 71,-36 65,-36 59,-30 59,-24 59,-24 59,-12 59,-12 59,-6 65,0 71,0 71,0 129,0 129,0 135,0 141,-6 141,-12 141,-12 141,-24 141,-24 141,-30 135,-36 129,-36"/>
<text text-anchor="middle" x="100" y="-14.3" font-family="Times,serif" font-size="14.00">SIZE = 2</text>
</g>
<!-- node1 -->
<g id="node2" class="node">
<title>node1</title>
<path fill="#faa76c" stroke="black" d="M12,-54.5C12,-54.5 188,-54.5 188,-54.5 194,-54.5 200,-60.5 200,-66.5 200,-66.5 200,-157.5 200,-157.5 200,-163.5 194,-169.5 188,-169.5 188,-169.5 12,-169.5 12,-169.5 6,-169.5 0,-163.5 0,-157.5 0,-157.5 0,-66.5 0,-66.5 0,-60.5 6,-54.5 12,-54.5"/>
<text text-anchor="middle" x="100" y="-154.3" font-family="Times,serif" font-size="14.00">Node 1</text>
<polyline fill="none" stroke="black" points="0,-146.5 200,-146.5 "/>
<text text-anchor="middle" x="100" y="-131.3" font-family="Times,serif" font-size="14.00">Address 0x6030000001f0</text>
<polyline fill="none" stroke="black" points="0,-123.5 200,-123.5 "/>
<text text-anchor="middle" x="100" y="-108.3" font-family="Times,serif" font-size="14.00">Val. 1</text>
<polyline fill="none" stroke="black" points="0,-100.5 200,-100.5 "/>
<text text-anchor="middle" x="100" y="-85.3" font-family="Times,serif" font-size="14.00">Next 0x603000000220</text>
<polyline fill="none" stroke="black" points="0,-77.5 200,-77.5 "/>
<text text-anchor="middle" x="100" y="-62.3" font-family="Times,serif" font-size="14.00">Prev. (nil)</text>
</g>
<!-- node2 -->
<g id="node3" class="node">
<title>node2</title>
<path fill="#c1aed1" stroke="black" d="M248,-54.5C248,-54.5 428,-54.5 428,-54.5 434,-54.5 440,-60.5 440,-66.5 440,-66.5 440,-157.5 440,-157.5 440,-163.5 434,-169.5 428,-169.5 428,-169.5 248,-169.5 248,-169.5 242,-169.5 236,-163.5 236,-157.5 236,-157.5 236,-66.5 236,-66.5 236,-60.5 242,-54.5 248,-54.5"/>
<text text-anchor="middle" x="338" y="-154.3" font-family="Times,serif" font-size="14.00">Node 2</text>
<polyline fill="none" stroke="black" points="236,-146.5 440,-146.5 "/>
<text text-anchor="middle" x="338" y="-131.3" font-family="Times,serif" font-size="14.00">Address 0x603000000220</text>
<polyline fill="none" stroke="black" points="236,-123.5 440,-123.5 "/>
<text text-anchor="middle" x="338" y="-108.3" font-family="Times,serif" font-size="14.00">Val. 2</text>
<polyline fill="none" stroke="black" points="236,-100.5 440,-100.5 "/>
<text text-anchor="middle" x="338" y="-85.3" font-family="Times,serif" font-size="14.00">Next (nil)</text>
<polyline fill="none" stroke="black" points="236,-77.5 440,-77.5 "/>
<text text-anchor="middle" x="338" y="-62.3" font-family="Times,serif" font-size="14.00">Prev. 0x6030000001f0</text>
</g>
<!-- node1&#45;&gt;node2 -->
<!-- node1&#45;&gt;node2 -->
<g id="edge2" class="edge">
<title>node1:n&#45;&gt;node2</title>
<path fill="none" stroke="black" d="M200,-89C208.41,-89 217.07,-89.43 225.75,-90.16"/>
<polygon fill="black" stroke="black" points="225.65,-93.67 235.94,-91.16 226.33,-86.7 225.65,-93.67"/>
</g>
<!-- node2&#45;&gt;node1 -->
<g id="edge3" class="edge">
<title>node2:p&#45;&gt;node1</title>
<path fill="none" stroke="black" d="M236,-66C227.36,-66 218.58,-66.85 209.84,-68.33"/>
<polygon fill="black" stroke="black" points="209.15,-64.9 200,-70.25 210.49,-71.77 209.15,-64.9"/>
</g>
</g>
</svg>
