<?xml version="1.0" encoding="UTF-8" standalone="no"?>
<!DOCTYPE svg PUBLIC "-//W3C//DTD SVG 1.1//EN"
 "http://www.w3.org/Graphics/SVG/1.1/DTD/svg11.dtd">
<!-- Generated by graphviz version 2.43.0 (0)
 -->
<!-- Title: G Pages: 1 -->
<svg width="2126pt" height="178pt"
 viewBox="0.00 0.00 2126.00 178.00" xmlns="http://www.w3.org/2000/svg" xmlns:xlink="http://www.w3.org/1999/xlink">
<g id="graph0" class="graph" transform="scale(1 1) rotate(0) translate(4 174)">
<title>G</title>
<polygon fill="white" stroke="transparent" points="-4,4 -4,-174 2122,-174 2122,4 -4,4"/>
<!-- size -->
<g id="node1" class="node">
<title>size</title>
<path fill="#fffeb6" stroke="black" d="M129,-36C129,-36 71,-36 71,-36 65,-36 59,-30 59,-24 59,-24 59,-12 59,-12 59,-6 65,0 71,0 71,0 129,0 129,0 135,0 141,-6 141,-12 141,-12 141,-24 141,-24 141,-30 135,-36 129,-36"/>
<text text-anchor="middle" x="100" y="-14.3" font-family="Times,serif" font-size="14.00">SIZE = 9</text>
</g>
<!-- node1 -->
<g id="node2" class="node">
<title>node1</title>
<path fill="#faa76c" stroke="black" d="M12,-54.5C12,-54.5 188,-54.5 188,-54.5 194,-54.5 200,-60.5 200,-66.5 200,-66.5 200,-157.5 200,-157.5 200,-163.5 194,-169.5 188,-169.5 188,-169.5 12,-169.5 12,-169.5 6,-169.5 0,-163.5 0,-157.5 0,-157.5 0,-66.5 0,-66.5 0,-60.5 6,-54.5 12,-54.5"/>
<text text-anchor="middle" x="100" y="-154.3" font-family="Times,serif" font-size="14.00">Node 1</text>
<polyline fill="none" stroke="black" points="0,-146.5 200,-146.5 "/>
<text text-anchor="middle" x="100" y="-131.3" font-family="Times,serif" font-size="14.00">Address 0x6030000001f0</text>
<polyline fill="none" stroke="black" points="0,-123.5 200,-123.5 "/>
<text text-anchor="middle" x="100" y="-108.3" font-family="Times,serif" font-size="14.00">Val. 1</text>
<polyline fill="none" stroke="black" points="0,-100.5 200,-100.5 "/>
<text text-anchor="middle" x="100" y="-85.3" font-family="Times,serif" font-size="14.00">Next 0x603000000220</text>
<polyline fill="none" stroke="black" points="0,-77.5 200,-77.5 "/>
<text text-anchor="middle" x="100" y="-62.3" font-family="Times,serif" font-size="14.00">Prev. (nil)</text>
</g>
<!-- node2 -->
<g id="node3" class="node">
<title>node2</title>
<path fill="#ffb2d0" stroke="black" d="M248,-54.5C248,-54.5 428,-54.5 428,-54.5 434,-54.5 440,-60.5 440,-66.5 440,-66.5 440,-157.5 440,-157.5 440,-163.5 434,-169.5 428,-169.5 428,-169.5 248,-169.5 248,-169.5 242,-169.5 236,-163.5 236,-157.5 236,-157.5 236,-66.5 236,-66.5 236,-60.5 242,-54.5 248,-54.5"/>
<text text-anchor="middle" x="338" y="-154.3" font-family="Times,serif" font-size="14.00">Node 2</text>
<polyline fill="none" stroke="black" points="236,-146.5 440,-146.5 "/>
<text text-anchor="middle" x="338" y="-131.3" font-family="Times,serif" font-size="14.00">Address 0x603000000220</text>
<polyline fill="none" stroke="black" points="236,-123.5 440,-123.5 "/>
<text text-anchor="middle" x="338" y="-108.3" font-family="Times,serif" font-size="14.00">Val. 2</text>
<polyline fill="none" stroke="black" points="236,-100.5 440,-100.5 "/>
<text text-anchor="middle" x="338" y="-85.3" font-family="Times,serif" font-size="14.00">Next 0x603000000250</text>
<polyline fill="none" stroke="black" points="236,-77.5 440,-77.5 "/>
<text text-anchor="middle" x="338" y="-62.3" font-family="Times,serif" font-size="14.00">Prev. 0x6030000001f0</text>
</g>
<!-- node1&#45;&gt;node2 -->
<!-- node1&#45;&gt;node2 -->
<g id="edge9" class="edge">
<title>node1:n&#45;&gt;node2</title>
<path fill="none" stroke="black" d="M200,-89C208.41,-89 217.07,-89.43 225.75,-90.16"/>
<polygon fill="black" stroke="black" points="225.65,-93.67 235.94,-91.16 226.33,-86.7 225.65,-93.67"/>
</g>
<!-- node2&#45;&gt;node1 -->
<g id="edge11" class="edge">
<title>node2:p&#45;&gt;node1</title>
<path fill="none" stroke="black" d="M236,-66C227.36,-66 218.58,-66.85 209.84,-68.33"/>
<polygon fill="black" stroke="black" points="209.15,-64.9 200,-70.25 210.49,-71.77 209.15,-64.9"/>
</g>
<!-- node3 -->
<g id="node4" class="node">
<title>node3</title>
<path fill="#ffb2d0" stroke="black" d="M488,-54.5C488,-54.5 668,-54.5 668,-54.5 674,-54.5 680,-60.5 680,-66.5 680,-66.5 680,-157.5 680,-157.5 680,-163.5 674,-169.5 668,-169.5 668,-169.5 488,-169.5 488,-169.5 482,-169.5 476,-163.5 476,-157.5 476,-157.5 476,-66.5 476,-66.5 476,-60.5 482,-54.5 488,-54.5"/>
<text text-anchor="middle" x="578" y="-154.3" font-family="Times,serif" font-size="14.00">Node 3</text>
<polyline fill="none" stroke="black" points="476,-146.5 680,-146.5 "/>
<text text-anchor="middle" x="578" y="-131.3" font-family="Times,serif" font-size="14.00">Address 0x603000000250</text>
<polyline fill="none" stroke="black" points="476,-123.5 680,-123.5 "/>
<text text-anchor="middle" x="578" y="-108.3" font-family="Times,serif" font-size="14.00">Val. 3</text>
<polyline fill="none" stroke="black" points="476,-100.5 680,-100.5 "/>
<text text-anchor="middle" x="578" y="-85.3" font-family="Times,serif" font-size="14.00">Next 0x603000000280</text>
<polyline fill="none" stroke="black" points="476,-77.5 680,-77.5 "/>
<text text-anchor="middle" x="578" y="-62.3" font-family="Times,serif" font-size="14.00">Prev. 0x603000000220</text>
</g>
<!-- node2&#45;&gt;node3 -->
<!-- node2&#45;&gt;node3 -->
<g id="edge10" class="edge">
<title>node2:n&#45;&gt;node3</title>
<path fill="none" stroke="black" d="M440,-89C448.41,-89 457.07,-89.43 465.75,-90.16"/>
<polygon fill="black" stroke="black" points="465.65,-93.67 475.94,-91.16 466.33,-86.7 465.65,-93.67"/>
</g>
<!-- node3&#45;&gt;node2 -->
<g id="edge13" class="edge">
<title>node3:p&#45;&gt;node2</title>
<path fill="none" stroke="black" d="M476,-66C467.52,-66 458.9,-66.8 450.31,-68.19"/>
<polygon fill="black" stroke="black" points="449.44,-64.79 440.26,-70.08 450.74,-71.67 449.44,-64.79"/>
</g>
<!-- node4 -->
<g id="node5" class="node">
<title>node4</title>
<path fill="#ffb2d0" stroke="black" d="M728,-54.5C728,-54.5 908,-54.5 908,-54.5 914,-54.5 920,-60.5 920,-66.5 920,-66.5 920,-157.5 920,-157.5 920,-163.5 914,-169.5 908,-169.5 908,-169.5 728,-169.5 728,-169.5 722,-169.5 716,-163.5 716,-157.5 716,-157.5 716,-66.5 716,-66.5 716,-60.5 722,-54.5 728,-54.5"/>
<text text-anchor="middle" x="818" y="-154.3" font-family="Times,serif" font-size="14.00">Node 4</text>
<polyline fill="none" stroke="black" points="716,-146.5 920,-146.5 "/>
<text text-anchor="middle" x="818" y="-131.3" font-family="Times,serif" font-size="14.00">Address 0x603000000280</text>
<polyline fill="none" stroke="black" points="716,-123.5 920,-123.5 "/>
<text text-anchor="middle" x="818" y="-108.3" font-family="Times,serif" font-size="14.00">Val. 4</text>
<polyline fill="none" stroke="black" points="716,-100.5 920,-100.5 "/>
<text text-anchor="middle" x="818" y="-85.3" font-family="Times,serif" font-size="14.00">Next 0x6030000002e0</text>
<polyline fill="none" stroke="black" points="716,-77.5 920,-77.5 "/>
<text text-anchor="middle" x="818" y="-62.3" font-family="Times,serif" font-size="14.00">Prev. 0x603000000250</text>
</g>
<!-- node3&#45;&gt;node4 -->
<!-- node3&#45;&gt;node4 -->
<g id="edge12" class="edge">
<title>node3:n&#45;&gt;node4</title>
<path fill="none" stroke="black" d="M680,-89C688.41,-89 697.07,-89.43 705.75,-90.16"/>
<polygon fill="black" stroke="black" points="705.65,-93.67 715.94,-91.16 706.33,-86.7 705.65,-93.67"/>
</g>
<!-- node4&#45;&gt;node3 -->
<g id="edge15" class="edge">
<title>node4:p&#45;&gt;node3</title>
<path fill="none" stroke="black" d="M716,-66C707.52,-66 698.9,-66.8 690.31,-68.19"/>
<polygon fill="black" stroke="black" points="689.44,-64.79 680.26,-70.08 690.74,-71.67 689.44,-64.79"/>
</g>
<!-- node5 -->
<g id="node6" class="node">
<title>node5</title>
<path fill="#ffb2d0" stroke="black" d="M968,-54.5C968,-54.5 1147,-54.5 1147,-54.5 1153,-54.5 1159,-60.5 1159,-66.5 1159,-66.5 1159,-157.5 1159,-157.5 1159,-163.5 1153,-169.5 1147,-169.5 1147,-169.5 968,-169.5 968,-169.5 962,-169.5 956,-163.5 956,-157.5 956,-157.5 956,-66.5 956,-66.5 956,-60.5 962,-54.5 968,-54.5"/>
<text text-anchor="middle" x="1057.5" y="-154.3" font-family="Times,serif" font-size="14.00">Node 5</text>
<polyline fill="none" stroke="black" points="956,-146.5 1159,-146.5 "/>
<text text-anchor="middle" x="1057.5" y="-131.3" font-family="Times,serif" font-size="14.00">Address 0x6030000002e0</text>
<polyline fill="none" stroke="black" points="956,-123.5 1159,-123.5 "/>
<text text-anchor="middle" x="1057.5" y="-108.3" font-family="Times,serif" font-size="14.00">Val. 6</text>
<polyline fill="none" stroke="black" points="956,-100.5 1159,-100.5 "/>
<text text-anchor="middle" x="1057.5" y="-85.3" font-family="Times,serif" font-size="14.00">Next 0x603000000310</text>
<polyline fill="none" stroke="black" points="956,-77.5 1159,-77.5 "/>
<text text-anchor="middle" x="1057.5" y="-62.3" font-family="Times,serif" font-size="14.00">Prev. 0x603000000280</text>
</g>
<!-- node4&#45;&gt;node5 -->
<!-- node4&#45;&gt;node5 -->
<g id="edge14" class="edge">
<title>node4:n&#45;&gt;node5</title>
<path fill="none" stroke="black" d="M920,-89C928.38,-89 937,-89.43 945.66,-90.16"/>
<polygon fill="black" stroke="black" points="945.52,-93.67 955.81,-91.16 946.21,-86.7 945.52,-93.67"/>
</g>
<!-- node5&#45;&gt;node4 -->
<g id="edge17" class="edge">
<title>node5:p&#45;&gt;node4</title>
<path fill="none" stroke="black" d="M956,-66C947.52,-66 938.9,-66.8 930.31,-68.19"/>
<polygon fill="black" stroke="black" points="929.44,-64.79 920.26,-70.08 930.74,-71.67 929.44,-64.79"/>
</g>
<!-- node6 -->
<g id="node7" class="node">
<title>node6</title>
<path fill="#ffb2d0" stroke="black" d="M1207,-54.5C1207,-54.5 1387,-54.5 1387,-54.5 1393,-54.5 1399,-60.5 1399,-66.5 1399,-66.5 1399,-157.5 1399,-157.5 1399,-163.5 1393,-169.5 1387,-169.5 1387,-169.5 1207,-169.5 1207,-169.5 1201,-169.5 1195,-163.5 1195,-157.5 1195,-157.5 1195,-66.5 1195,-66.5 1195,-60.5 1201,-54.5 1207,-54.5"/>
<text text-anchor="middle" x="1297" y="-154.3" font-family="Times,serif" font-size="14.00">Node 6</text>
<polyline fill="none" stroke="black" points="1195,-146.5 1399,-146.5 "/>
<text text-anchor="middle" x="1297" y="-131.3" font-family="Times,serif" font-size="14.00">Address 0x603000000310</text>
<polyline fill="none" stroke="black" points="1195,-123.5 1399,-123.5 "/>
<text text-anchor="middle" x="1297" y="-108.3" font-family="Times,serif" font-size="14.00">Val. 7</text>
<polyline fill="none" stroke="black" points="1195,-100.5 1399,-100.5 "/>
<text text-anchor="middle" x="1297" y="-85.3" font-family="Times,serif" font-size="14.00">Next 0x603000000340</text>
<polyline fill="none" stroke="black" points="1195,-77.5 1399,-77.5 "/>
<text text-anchor="middle" x="1297" y="-62.3" font-family="Times,serif" font-size="14.00">Prev. 0x6030000002e0</text>
</g>
<!-- node5&#45;&gt;node6 -->
<!-- node5&#45;&gt;node6 -->
<g id="edge16" class="edge">
<title>node5:n&#45;&gt;node6</title>
<path fill="none" stroke="black" d="M1159,-89C1167.41,-89 1176.07,-89.43 1184.75,-90.16"/>
<polygon fill="black" stroke="black" points="1184.65,-93.67 1194.94,-91.16 1185.33,-86.7 1184.65,-93.67"/>
</g>
<!-- node6&#45;&gt;node5 -->
<g id="edge19" class="edge">
<title>node6:p&#45;&gt;node5</title>
<path fill="none" stroke="black" d="M1195,-66C1186.37,-66 1177.59,-66.84 1168.85,-68.28"/>
<polygon fill="black" stroke="black" points="1168.17,-64.85 1159.01,-70.16 1169.49,-71.72 1168.17,-64.85"/>
</g>
<!-- node7 -->
<g id="node8" class="node">
<title>node7</title>
<path fill="#ffb2d0" stroke="black" d="M1447,-54.5C1447,-54.5 1627,-54.5 1627,-54.5 1633,-54.5 1639,-60.5 1639,-66.5 1639,-66.5 1639,-157.5 1639,-157.5 1639,-163.5 1633,-169.5 1627,-169.5 1627,-169.5 1447,-169.5 1447,-169.5 1441,-169.5 1435,-163.5 1435,-157.5 1435,-157.5 1435,-66.5 1435,-66.5 1435,-60.5 1441,-54.5 1447,-54.5"/>
<text text-anchor="middle" x="1537" y="-154.3" font-family="Times,serif" font-size="14.00">Node 7</text>
<polyline fill="none" stroke="black" points="1435,-146.5 1639,-146.5 "/>
<text text-anchor="middle" x="1537" y="-131.3" font-family="Times,serif" font-size="14.00">Address 0x603000000340</text>
<polyline fill="none" stroke="black" points="1435,-123.5 1639,-123.5 "/>
<text text-anchor="middle" x="1537" y="-108.3" font-family="Times,serif" font-size="14.00">Val. 8</text>
<polyline fill="none" stroke="black" points="1435,-100.5 1639,-100.5 "/>
<text text-anchor="middle" x="1537" y="-85.3" font-family="Times,serif" font-size="14.00">Next 0x603000000370</text>
<polyline fill="none" stroke="black" points="1435,-77.5 1639,-77.5 "/>
<text text-anchor="middle" x="1537" y="-62.3" font-family="Times,serif" font-size="14.00">Prev. 0x603000000310</text>
</g>
<!-- node6&#45;&gt;node7 -->
<!-- node6&#45;&gt;node7 -->
<g id="edge18" class="edge">
<title>node6:n&#45;&gt;node7</title>
<path fill="none" stroke="black" d="M1399,-89C1407.41,-89 1416.07,-89.43 1424.75,-90.16"/>
<polygon fill="black" stroke="black" points="1424.65,-93.67 1434.94,-91.16 1425.33,-86.7 1424.65,-93.67"/>
</g>
<!-- node7&#45;&gt;node6 -->
<g id="edge21" class="edge">
<title>node7:p&#45;&gt;node6</title>
<path fill="none" stroke="black" d="M1435,-66C1426.52,-66 1417.9,-66.8 1409.31,-68.19"/>
<polygon fill="black" stroke="black" points="1408.44,-64.79 1399.26,-70.08 1409.74,-71.67 1408.44,-64.79"/>
</g>
<!-- node8 -->
<g id="node9" class="node">
<title>node8</title>
<path fill="#ffb2d0" stroke="black" d="M1687,-54.5C1687,-54.5 1867,-54.5 1867,-54.5 1873,-54.5 1879,-60.5 1879,-66.5 1879,-66.5 1879,-157.5 1879,-157.5 1879,-163.5 1873,-169.5 1867,-169.5 1867,-169.5 1687,-169.5 1687,-169.5 1681,-169.5 1675,-163.5 1675,-157.5 1675,-157.5 1675,-66.5 1675,-66.5 1675,-60.5 1681,-54.5 1687,-54.5"/>
<text text-anchor="middle" x="1777" y="-154.3" font-family="Times,serif" font-size="14.00">Node 8</text>
<polyline fill="none" stroke="black" points="1675,-146.5 1879,-146.5 "/>
<text text-anchor="middle" x="1777" y="-131.3" font-family="Times,serif" font-size="14.00">Address 0x603000000370</text>
<polyline fill="none" stroke="black" points="1675,-123.5 1879,-123.5 "/>
<text text-anchor="middle" x="1777" y="-108.3" font-family="Times,serif" font-size="14.00">Val. 9</text>
<polyline fill="none" stroke="black" points="1675,-100.5 1879,-100.5 "/>
<text text-anchor="middle" x="1777" y="-85.3" font-family="Times,serif" font-size="14.00">Next 0x6030000003a0</text>
<polyline fill="none" stroke="black" points="1675,-77.5 1879,-77.5 "/>
<text text-anchor="middle" x="1777" y="-62.3" font-family="Times,serif" font-size="14.00">Prev. 0x603000000340</text>
</g>
<!-- node7&#45;&gt;node8 -->
<!-- node7&#45;&gt;node8 -->
<g id="edge20" class="edge">
<title>node7:n&#45;&gt;node8</title>
<path fill="none" stroke="black" d="M1639,-89C1647.41,-89 1656.07,-89.43 1664.75,-90.16"/>
<polygon fill="black" stroke="black" points="1664.65,-93.67 1674.94,-91.16 1665.33,-86.7 1664.65,-93.67"/>
</g>
<!-- node8&#45;&gt;node7 -->
<g id="edge23" class="edge">
<title>node8:p&#45;&gt;node7</title>
<path fill="none" stroke="black" d="M1675,-66C1666.52,-66 1657.9,-66.8 1649.31,-68.19"/>
<polygon fill="black" stroke="black" points="1648.44,-64.79 1639.26,-70.08 1649.74,-71.67 1648.44,-64.79"/>
</g>
<!-- node9 -->
<g id="node10" class="node">
<title>node9</title>
<path fill="#c1aed1" stroke="black" d="M1927,-54.5C1927,-54.5 2106,-54.5 2106,-54.5 2112,-54.5 2118,-60.5 2118,-66.5 2118,-66.5 2118,-157.5 2118,-157.5 2118,-163.5 2112,-169.5 2106,-169.5 2106,-169.5 1927,-169.5 1927,-169.5 1921,-169.5 1915,-163.5 1915,-157.5 1915,-157.5 1915,-66.5 1915,-66.5 1915,-60.5 1921,-54.5 1927,-54.5"/>
<text text-anchor="middle" x="2016.5" y="-154.3" font-family="Times,serif" font-size="14.00">Node 9</text>
<polyline fill="none" stroke="black" points="1915,-146.5 2118,-146.5 "/>
<text text-anchor="middle" x="2016.5" y="-131.3" font-family="Times,serif" font-size="14.00">Address 0x6030000003a0</text>
<polyline fill="none" stroke="black" points="1915,-123.5 2118,-123.5 "/>
<text text-anchor="middle" x="2016.5" y="-108.3" font-family="Times,serif" font-size="14.00">Val. 10</text>
<polyline fill="none" stroke="black" points="1915,-100.5 2118,-100.5 "/>
<text text-anchor="middle" x="2016.5" y="-85.3" font-family="Times,serif" font-size="14.00">Next (nil)</text>
<polyline fill="none" stroke="black" points="1915,-77.5 2118,-77.5 "/>
<text text-anchor="middle" x="2016.5" y="-62.3" font-family="Times,serif" font-size="14.00">Prev. 0x603000000370</text>
</g>
<!-- node8&#45;&gt;node9 -->
<!-- node8&#45;&gt;node9 -->
<g id="edge22" class="edge">
<title>node8:n&#45;&gt;node9</title>
<path fill="none" stroke="black" d="M1879,-89C1887.38,-89 1896,-89.43 1904.66,-90.16"/>
<polygon fill="black" stroke="black" points="1904.52,-93.67 1914.81,-91.16 1905.21,-86.7 1904.52,-93.67"/>
</g>
<!-- node9&#45;&gt;node8 -->
<g id="edge24" class="edge">
<title>node9:p&#45;&gt;node8</title>
<path fill="none" stroke="black" d="M1915,-66C1906.52,-66 1897.9,-66.8 1889.31,-68.19"/>
<polygon fill="black" stroke="black" points="1888.44,-64.79 1879.26,-70.08 1889.74,-71.67 1888.44,-64.79"/>
</g>
</g>
</svg>
