<?xml version="1.0" encoding="UTF-8" standalone="no"?>
<!DOCTYPE svg PUBLIC "-//W3C//DTD SVG 1.1//EN"
 "http://www.w3.org/Graphics/SVG/1.1/DTD/svg11.dtd">
<!-- Generated by graphviz version 2.43.0 (0)
 -->
<!-- Title: G Pages: 1 -->
<svg width="3604pt" height="156pt"
 viewBox="0.00 0.00 3604.00 155.50" xmlns="http://www.w3.org/2000/svg" xmlns:xlink="http://www.w3.org/1999/xlink">
<g id="graph0" class="graph" transform="scale(1 1) rotate(0) translate(4 151.5)">
<title>G</title>
<polygon fill="white" stroke="transparent" points="-4,4 -4,-151.5 3600,-151.5 3600,4 -4,4"/>
<!-- size -->
<g id="node1" class="node">
<title>size</title>
<path fill="#fffeb6" stroke="black" d="M129,-36C129,-36 62,-36 62,-36 56,-36 50,-30 50,-24 50,-24 50,-12 50,-12 50,-6 56,0 62,0 62,0 129,0 129,0 135,0 141,-6 141,-12 141,-12 141,-24 141,-24 141,-30 135,-36 129,-36"/>
<text text-anchor="middle" x="95.5" y="-14.3" font-family="Times,serif" font-size="14.00">SIZE = 16</text>
</g>
<!-- node1 -->
<g id="node2" class="node">
<title>node1</title>
<path fill="#faa76c" stroke="black" d="M12,-55C12,-55 179,-55 179,-55 185,-55 191,-61 191,-67 191,-67 191,-135 191,-135 191,-141 185,-147 179,-147 179,-147 12,-147 12,-147 6,-147 0,-141 0,-135 0,-135 0,-67 0,-67 0,-61 6,-55 12,-55"/>
<text text-anchor="middle" x="95.5" y="-131.8" font-family="Times,serif" font-size="14.00">Node 1</text>
<polyline fill="none" stroke="black" points="0,-124 191,-124 "/>
<text text-anchor="middle" x="95.5" y="-108.8" font-family="Times,serif" font-size="14.00">Val. 0</text>
<polyline fill="none" stroke="black" points="0,-101 191,-101 "/>
<text text-anchor="middle" x="95.5" y="-85.8" font-family="Times,serif" font-size="14.00">Next 2</text>
<polyline fill="none" stroke="black" points="0,-78 191,-78 "/>
<text text-anchor="middle" x="95.5" y="-62.8" font-family="Times,serif" font-size="14.00">Prev. 140725408206743</text>
</g>
<!-- node2 -->
<g id="node3" class="node">
<title>node2</title>
<path fill="#ffb2d0" stroke="black" d="M239,-55C239,-55 406,-55 406,-55 412,-55 418,-61 418,-67 418,-67 418,-135 418,-135 418,-141 412,-147 406,-147 406,-147 239,-147 239,-147 233,-147 227,-141 227,-135 227,-135 227,-67 227,-67 227,-61 233,-55 239,-55"/>
<text text-anchor="middle" x="322.5" y="-131.8" font-family="Times,serif" font-size="14.00">Node 2</text>
<polyline fill="none" stroke="black" points="227,-124 418,-124 "/>
<text text-anchor="middle" x="322.5" y="-108.8" font-family="Times,serif" font-size="14.00">Val. 1</text>
<polyline fill="none" stroke="black" points="227,-101 418,-101 "/>
<text text-anchor="middle" x="322.5" y="-85.8" font-family="Times,serif" font-size="14.00">Next 3</text>
<polyline fill="none" stroke="black" points="227,-78 418,-78 "/>
<text text-anchor="middle" x="322.5" y="-62.8" font-family="Times,serif" font-size="14.00">Prev. 140725408206743</text>
</g>
<!-- node1&#45;&gt;node2 -->
<!-- node1&#45;&gt;node2 -->
<g id="edge16" class="edge">
<title>node1:n&#45;&gt;node2</title>
<path fill="none" stroke="black" d="M191,-89C199.34,-89 207.97,-89.25 216.63,-89.67"/>
<polygon fill="black" stroke="black" points="216.62,-93.17 226.8,-90.24 217.01,-86.18 216.62,-93.17"/>
</g>
<!-- node2&#45;&gt;node1 -->
<g id="edge18" class="edge">
<title>node2:p&#45;&gt;node1</title>
<path fill="none" stroke="black" d="M227,-66C218.57,-66 209.94,-66.69 201.32,-67.88"/>
<polygon fill="black" stroke="black" points="200.55,-64.45 191.23,-69.48 201.65,-71.37 200.55,-64.45"/>
</g>
<!-- node3 -->
<g id="node4" class="node">
<title>node3</title>
<path fill="#ffb2d0" stroke="black" d="M466,-55C466,-55 633,-55 633,-55 639,-55 645,-61 645,-67 645,-67 645,-135 645,-135 645,-141 639,-147 633,-147 633,-147 466,-147 466,-147 460,-147 454,-141 454,-135 454,-135 454,-67 454,-67 454,-61 460,-55 466,-55"/>
<text text-anchor="middle" x="549.5" y="-131.8" font-family="Times,serif" font-size="14.00">Node 3</text>
<polyline fill="none" stroke="black" points="454,-124 645,-124 "/>
<text text-anchor="middle" x="549.5" y="-108.8" font-family="Times,serif" font-size="14.00">Val. 15</text>
<polyline fill="none" stroke="black" points="454,-101 645,-101 "/>
<text text-anchor="middle" x="549.5" y="-85.8" font-family="Times,serif" font-size="14.00">Next 4</text>
<polyline fill="none" stroke="black" points="454,-78 645,-78 "/>
<text text-anchor="middle" x="549.5" y="-62.8" font-family="Times,serif" font-size="14.00">Prev. 140725408206743</text>
</g>
<!-- node2&#45;&gt;node3 -->
<!-- node2&#45;&gt;node3 -->
<g id="edge17" class="edge">
<title>node2:n&#45;&gt;node3</title>
<path fill="none" stroke="black" d="M418,-89C426.34,-89 434.97,-89.25 443.63,-89.67"/>
<polygon fill="black" stroke="black" points="443.62,-93.17 453.8,-90.24 444.01,-86.18 443.62,-93.17"/>
</g>
<!-- node3&#45;&gt;node2 -->
<g id="edge20" class="edge">
<title>node3:p&#45;&gt;node2</title>
<path fill="none" stroke="black" d="M454,-66C445.57,-66 436.94,-66.69 428.32,-67.88"/>
<polygon fill="black" stroke="black" points="427.55,-64.45 418.23,-69.48 428.65,-71.37 427.55,-64.45"/>
</g>
<!-- node4 -->
<g id="node5" class="node">
<title>node4</title>
<path fill="#ffb2d0" stroke="black" d="M693,-55C693,-55 860,-55 860,-55 866,-55 872,-61 872,-67 872,-67 872,-135 872,-135 872,-141 866,-147 860,-147 860,-147 693,-147 693,-147 687,-147 681,-141 681,-135 681,-135 681,-67 681,-67 681,-61 687,-55 693,-55"/>
<text text-anchor="middle" x="776.5" y="-131.8" font-family="Times,serif" font-size="14.00">Node 4</text>
<polyline fill="none" stroke="black" points="681,-124 872,-124 "/>
<text text-anchor="middle" x="776.5" y="-108.8" font-family="Times,serif" font-size="14.00">Val. 14</text>
<polyline fill="none" stroke="black" points="681,-101 872,-101 "/>
<text text-anchor="middle" x="776.5" y="-85.8" font-family="Times,serif" font-size="14.00">Next 5</text>
<polyline fill="none" stroke="black" points="681,-78 872,-78 "/>
<text text-anchor="middle" x="776.5" y="-62.8" font-family="Times,serif" font-size="14.00">Prev. 140725408206743</text>
</g>
<!-- node3&#45;&gt;node4 -->
<!-- node3&#45;&gt;node4 -->
<g id="edge19" class="edge">
<title>node3:n&#45;&gt;node4</title>
<path fill="none" stroke="black" d="M645,-89C653.34,-89 661.97,-89.25 670.63,-89.67"/>
<polygon fill="black" stroke="black" points="670.62,-93.17 680.8,-90.24 671.01,-86.18 670.62,-93.17"/>
</g>
<!-- node4&#45;&gt;node3 -->
<g id="edge22" class="edge">
<title>node4:p&#45;&gt;node3</title>
<path fill="none" stroke="black" d="M681,-66C672.57,-66 663.94,-66.69 655.32,-67.88"/>
<polygon fill="black" stroke="black" points="654.55,-64.45 645.23,-69.48 655.65,-71.37 654.55,-64.45"/>
</g>
<!-- node5 -->
<g id="node6" class="node">
<title>node5</title>
<path fill="#ffb2d0" stroke="black" d="M920,-55C920,-55 1087,-55 1087,-55 1093,-55 1099,-61 1099,-67 1099,-67 1099,-135 1099,-135 1099,-141 1093,-147 1087,-147 1087,-147 920,-147 920,-147 914,-147 908,-141 908,-135 908,-135 908,-67 908,-67 908,-61 914,-55 920,-55"/>
<text text-anchor="middle" x="1003.5" y="-131.8" font-family="Times,serif" font-size="14.00">Node 5</text>
<polyline fill="none" stroke="black" points="908,-124 1099,-124 "/>
<text text-anchor="middle" x="1003.5" y="-108.8" font-family="Times,serif" font-size="14.00">Val. 13</text>
<polyline fill="none" stroke="black" points="908,-101 1099,-101 "/>
<text text-anchor="middle" x="1003.5" y="-85.8" font-family="Times,serif" font-size="14.00">Next 6</text>
<polyline fill="none" stroke="black" points="908,-78 1099,-78 "/>
<text text-anchor="middle" x="1003.5" y="-62.8" font-family="Times,serif" font-size="14.00">Prev. 140725408206743</text>
</g>
<!-- node4&#45;&gt;node5 -->
<!-- node4&#45;&gt;node5 -->
<g id="edge21" class="edge">
<title>node4:n&#45;&gt;node5</title>
<path fill="none" stroke="black" d="M872,-89C880.34,-89 888.97,-89.25 897.63,-89.67"/>
<polygon fill="black" stroke="black" points="897.62,-93.17 907.8,-90.24 898.01,-86.18 897.62,-93.17"/>
</g>
<!-- node5&#45;&gt;node4 -->
<g id="edge24" class="edge">
<title>node5:p&#45;&gt;node4</title>
<path fill="none" stroke="black" d="M908,-66C899.57,-66 890.94,-66.69 882.32,-67.88"/>
<polygon fill="black" stroke="black" points="881.55,-64.45 872.23,-69.48 882.65,-71.37 881.55,-64.45"/>
</g>
<!-- node6 -->
<g id="node7" class="node">
<title>node6</title>
<path fill="#ffb2d0" stroke="black" d="M1147,-55C1147,-55 1314,-55 1314,-55 1320,-55 1326,-61 1326,-67 1326,-67 1326,-135 1326,-135 1326,-141 1320,-147 1314,-147 1314,-147 1147,-147 1147,-147 1141,-147 1135,-141 1135,-135 1135,-135 1135,-67 1135,-67 1135,-61 1141,-55 1147,-55"/>
<text text-anchor="middle" x="1230.5" y="-131.8" font-family="Times,serif" font-size="14.00">Node 6</text>
<polyline fill="none" stroke="black" points="1135,-124 1326,-124 "/>
<text text-anchor="middle" x="1230.5" y="-108.8" font-family="Times,serif" font-size="14.00">Val. 12</text>
<polyline fill="none" stroke="black" points="1135,-101 1326,-101 "/>
<text text-anchor="middle" x="1230.5" y="-85.8" font-family="Times,serif" font-size="14.00">Next 7</text>
<polyline fill="none" stroke="black" points="1135,-78 1326,-78 "/>
<text text-anchor="middle" x="1230.5" y="-62.8" font-family="Times,serif" font-size="14.00">Prev. 140725408206743</text>
</g>
<!-- node5&#45;&gt;node6 -->
<!-- node5&#45;&gt;node6 -->
<g id="edge23" class="edge">
<title>node5:n&#45;&gt;node6</title>
<path fill="none" stroke="black" d="M1099,-89C1107.34,-89 1115.97,-89.25 1124.63,-89.67"/>
<polygon fill="black" stroke="black" points="1124.62,-93.17 1134.8,-90.24 1125.01,-86.18 1124.62,-93.17"/>
</g>
<!-- node6&#45;&gt;node5 -->
<g id="edge26" class="edge">
<title>node6:p&#45;&gt;node5</title>
<path fill="none" stroke="black" d="M1135,-66C1126.57,-66 1117.94,-66.69 1109.32,-67.88"/>
<polygon fill="black" stroke="black" points="1108.55,-64.45 1099.23,-69.48 1109.65,-71.37 1108.55,-64.45"/>
</g>
<!-- node7 -->
<g id="node8" class="node">
<title>node7</title>
<path fill="#ffb2d0" stroke="black" d="M1374,-55C1374,-55 1541,-55 1541,-55 1547,-55 1553,-61 1553,-67 1553,-67 1553,-135 1553,-135 1553,-141 1547,-147 1541,-147 1541,-147 1374,-147 1374,-147 1368,-147 1362,-141 1362,-135 1362,-135 1362,-67 1362,-67 1362,-61 1368,-55 1374,-55"/>
<text text-anchor="middle" x="1457.5" y="-131.8" font-family="Times,serif" font-size="14.00">Node 7</text>
<polyline fill="none" stroke="black" points="1362,-124 1553,-124 "/>
<text text-anchor="middle" x="1457.5" y="-108.8" font-family="Times,serif" font-size="14.00">Val. 11</text>
<polyline fill="none" stroke="black" points="1362,-101 1553,-101 "/>
<text text-anchor="middle" x="1457.5" y="-85.8" font-family="Times,serif" font-size="14.00">Next 8</text>
<polyline fill="none" stroke="black" points="1362,-78 1553,-78 "/>
<text text-anchor="middle" x="1457.5" y="-62.8" font-family="Times,serif" font-size="14.00">Prev. 140725408206743</text>
</g>
<!-- node6&#45;&gt;node7 -->
<!-- node6&#45;&gt;node7 -->
<g id="edge25" class="edge">
<title>node6:n&#45;&gt;node7</title>
<path fill="none" stroke="black" d="M1326,-89C1334.34,-89 1342.97,-89.25 1351.63,-89.67"/>
<polygon fill="black" stroke="black" points="1351.62,-93.17 1361.8,-90.24 1352.01,-86.18 1351.62,-93.17"/>
</g>
<!-- node7&#45;&gt;node6 -->
<g id="edge28" class="edge">
<title>node7:p&#45;&gt;node6</title>
<path fill="none" stroke="black" d="M1362,-66C1353.57,-66 1344.94,-66.69 1336.32,-67.88"/>
<polygon fill="black" stroke="black" points="1335.55,-64.45 1326.23,-69.48 1336.65,-71.37 1335.55,-64.45"/>
</g>
<!-- node8 -->
<g id="node9" class="node">
<title>node8</title>
<path fill="#ffb2d0" stroke="black" d="M1601,-55C1601,-55 1768,-55 1768,-55 1774,-55 1780,-61 1780,-67 1780,-67 1780,-135 1780,-135 1780,-141 1774,-147 1768,-147 1768,-147 1601,-147 1601,-147 1595,-147 1589,-141 1589,-135 1589,-135 1589,-67 1589,-67 1589,-61 1595,-55 1601,-55"/>
<text text-anchor="middle" x="1684.5" y="-131.8" font-family="Times,serif" font-size="14.00">Node 8</text>
<polyline fill="none" stroke="black" points="1589,-124 1780,-124 "/>
<text text-anchor="middle" x="1684.5" y="-108.8" font-family="Times,serif" font-size="14.00">Val. 10</text>
<polyline fill="none" stroke="black" points="1589,-101 1780,-101 "/>
<text text-anchor="middle" x="1684.5" y="-85.8" font-family="Times,serif" font-size="14.00">Next 9</text>
<polyline fill="none" stroke="black" points="1589,-78 1780,-78 "/>
<text text-anchor="middle" x="1684.5" y="-62.8" font-family="Times,serif" font-size="14.00">Prev. 140725408206743</text>
</g>
<!-- node7&#45;&gt;node8 -->
<!-- node7&#45;&gt;node8 -->
<g id="edge27" class="edge">
<title>node7:n&#45;&gt;node8</title>
<path fill="none" stroke="black" d="M1553,-89C1561.34,-89 1569.97,-89.25 1578.63,-89.67"/>
<polygon fill="black" stroke="black" points="1578.62,-93.17 1588.8,-90.24 1579.01,-86.18 1578.62,-93.17"/>
</g>
<!-- node8&#45;&gt;node7 -->
<g id="edge30" class="edge">
<title>node8:p&#45;&gt;node7</title>
<path fill="none" stroke="black" d="M1589,-66C1580.57,-66 1571.94,-66.69 1563.32,-67.88"/>
<polygon fill="black" stroke="black" points="1562.55,-64.45 1553.23,-69.48 1563.65,-71.37 1562.55,-64.45"/>
</g>
<!-- node9 -->
<g id="node10" class="node">
<title>node9</title>
<path fill="#ffb2d0" stroke="black" d="M1828,-55C1828,-55 1995,-55 1995,-55 2001,-55 2007,-61 2007,-67 2007,-67 2007,-135 2007,-135 2007,-141 2001,-147 1995,-147 1995,-147 1828,-147 1828,-147 1822,-147 1816,-141 1816,-135 1816,-135 1816,-67 1816,-67 1816,-61 1822,-55 1828,-55"/>
<text text-anchor="middle" x="1911.5" y="-131.8" font-family="Times,serif" font-size="14.00">Node 9</text>
<polyline fill="none" stroke="black" points="1816,-124 2007,-124 "/>
<text text-anchor="middle" x="1911.5" y="-108.8" font-family="Times,serif" font-size="14.00">Val. 9</text>
<polyline fill="none" stroke="black" points="1816,-101 2007,-101 "/>
<text text-anchor="middle" x="1911.5" y="-85.8" font-family="Times,serif" font-size="14.00">Next 10</text>
<polyline fill="none" stroke="black" points="1816,-78 2007,-78 "/>
<text text-anchor="middle" x="1911.5" y="-62.8" font-family="Times,serif" font-size="14.00">Prev. 140725408206743</text>
</g>
<!-- node8&#45;&gt;node9 -->
<!-- node8&#45;&gt;node9 -->
<g id="edge29" class="edge">
<title>node8:n&#45;&gt;node9</title>
<path fill="none" stroke="black" d="M1780,-89C1788.34,-89 1796.97,-89.25 1805.63,-89.67"/>
<polygon fill="black" stroke="black" points="1805.62,-93.17 1815.8,-90.24 1806.01,-86.18 1805.62,-93.17"/>
</g>
<!-- node9&#45;&gt;node8 -->
<g id="edge32" class="edge">
<title>node9:p&#45;&gt;node8</title>
<path fill="none" stroke="black" d="M1816,-66C1807.57,-66 1798.94,-66.69 1790.32,-67.88"/>
<polygon fill="black" stroke="black" points="1789.55,-64.45 1780.23,-69.48 1790.65,-71.37 1789.55,-64.45"/>
</g>
<!-- node10 -->
<g id="node11" class="node">
<title>node10</title>
<path fill="#ffb2d0" stroke="black" d="M2055,-55C2055,-55 2222,-55 2222,-55 2228,-55 2234,-61 2234,-67 2234,-67 2234,-135 2234,-135 2234,-141 2228,-147 2222,-147 2222,-147 2055,-147 2055,-147 2049,-147 2043,-141 2043,-135 2043,-135 2043,-67 2043,-67 2043,-61 2049,-55 2055,-55"/>
<text text-anchor="middle" x="2138.5" y="-131.8" font-family="Times,serif" font-size="14.00">Node 10</text>
<polyline fill="none" stroke="black" points="2043,-124 2234,-124 "/>
<text text-anchor="middle" x="2138.5" y="-108.8" font-family="Times,serif" font-size="14.00">Val. 8</text>
<polyline fill="none" stroke="black" points="2043,-101 2234,-101 "/>
<text text-anchor="middle" x="2138.5" y="-85.8" font-family="Times,serif" font-size="14.00">Next 11</text>
<polyline fill="none" stroke="black" points="2043,-78 2234,-78 "/>
<text text-anchor="middle" x="2138.5" y="-62.8" font-family="Times,serif" font-size="14.00">Prev. 140725408206742</text>
</g>
<!-- node9&#45;&gt;node10 -->
<!-- node9&#45;&gt;node10 -->
<g id="edge31" class="edge">
<title>node9:n&#45;&gt;node10</title>
<path fill="none" stroke="black" d="M2007,-89C2015.34,-89 2023.97,-89.25 2032.63,-89.67"/>
<polygon fill="black" stroke="black" points="2032.62,-93.17 2042.8,-90.24 2033.01,-86.18 2032.62,-93.17"/>
</g>
<!-- node10&#45;&gt;node9 -->
<g id="edge34" class="edge">
<title>node10:p&#45;&gt;node9</title>
<path fill="none" stroke="black" d="M2043,-66C2034.57,-66 2025.94,-66.69 2017.32,-67.88"/>
<polygon fill="black" stroke="black" points="2016.55,-64.45 2007.23,-69.48 2017.65,-71.37 2016.55,-64.45"/>
</g>
<!-- node11 -->
<g id="node12" class="node">
<title>node11</title>
<path fill="#ffb2d0" stroke="black" d="M2282,-55C2282,-55 2449,-55 2449,-55 2455,-55 2461,-61 2461,-67 2461,-67 2461,-135 2461,-135 2461,-141 2455,-147 2449,-147 2449,-147 2282,-147 2282,-147 2276,-147 2270,-141 2270,-135 2270,-135 2270,-67 2270,-67 2270,-61 2276,-55 2282,-55"/>
<text text-anchor="middle" x="2365.5" y="-131.8" font-family="Times,serif" font-size="14.00">Node 11</text>
<polyline fill="none" stroke="black" points="2270,-124 2461,-124 "/>
<text text-anchor="middle" x="2365.5" y="-108.8" font-family="Times,serif" font-size="14.00">Val. 7</text>
<polyline fill="none" stroke="black" points="2270,-101 2461,-101 "/>
<text text-anchor="middle" x="2365.5" y="-85.8" font-family="Times,serif" font-size="14.00">Next 12</text>
<polyline fill="none" stroke="black" points="2270,-78 2461,-78 "/>
<text text-anchor="middle" x="2365.5" y="-62.8" font-family="Times,serif" font-size="14.00">Prev. 140725408206742</text>
</g>
<!-- node10&#45;&gt;node11 -->
<!-- node10&#45;&gt;node11 -->
<g id="edge33" class="edge">
<title>node10:n&#45;&gt;node11</title>
<path fill="none" stroke="black" d="M2234,-89C2242.34,-89 2250.97,-89.25 2259.63,-89.67"/>
<polygon fill="black" stroke="black" points="2259.62,-93.17 2269.8,-90.24 2260.01,-86.18 2259.62,-93.17"/>
</g>
<!-- node11&#45;&gt;node10 -->
<g id="edge36" class="edge">
<title>node11:p&#45;&gt;node10</title>
<path fill="none" stroke="black" d="M2270,-66C2261.57,-66 2252.94,-66.69 2244.32,-67.88"/>
<polygon fill="black" stroke="black" points="2243.55,-64.45 2234.23,-69.48 2244.65,-71.37 2243.55,-64.45"/>
</g>
<!-- node12 -->
<g id="node13" class="node">
<title>node12</title>
<path fill="#ffb2d0" stroke="black" d="M2509,-55C2509,-55 2676,-55 2676,-55 2682,-55 2688,-61 2688,-67 2688,-67 2688,-135 2688,-135 2688,-141 2682,-147 2676,-147 2676,-147 2509,-147 2509,-147 2503,-147 2497,-141 2497,-135 2497,-135 2497,-67 2497,-67 2497,-61 2503,-55 2509,-55"/>
<text text-anchor="middle" x="2592.5" y="-131.8" font-family="Times,serif" font-size="14.00">Node 12</text>
<polyline fill="none" stroke="black" points="2497,-124 2688,-124 "/>
<text text-anchor="middle" x="2592.5" y="-108.8" font-family="Times,serif" font-size="14.00">Val. 6</text>
<polyline fill="none" stroke="black" points="2497,-101 2688,-101 "/>
<text text-anchor="middle" x="2592.5" y="-85.8" font-family="Times,serif" font-size="14.00">Next 13</text>
<polyline fill="none" stroke="black" points="2497,-78 2688,-78 "/>
<text text-anchor="middle" x="2592.5" y="-62.8" font-family="Times,serif" font-size="14.00">Prev. 140725408206742</text>
</g>
<!-- node11&#45;&gt;node12 -->
<!-- node11&#45;&gt;node12 -->
<g id="edge35" class="edge">
<title>node11:n&#45;&gt;node12</title>
<path fill="none" stroke="black" d="M2461,-89C2469.34,-89 2477.97,-89.25 2486.63,-89.67"/>
<polygon fill="black" stroke="black" points="2486.62,-93.17 2496.8,-90.24 2487.01,-86.18 2486.62,-93.17"/>
</g>
<!-- node12&#45;&gt;node11 -->
<g id="edge38" class="edge">
<title>node12:p&#45;&gt;node11</title>
<path fill="none" stroke="black" d="M2497,-66C2488.57,-66 2479.94,-66.69 2471.32,-67.88"/>
<polygon fill="black" stroke="black" points="2470.55,-64.45 2461.23,-69.48 2471.65,-71.37 2470.55,-64.45"/>
</g>
<!-- node13 -->
<g id="node14" class="node">
<title>node13</title>
<path fill="#ffb2d0" stroke="black" d="M2736,-55C2736,-55 2903,-55 2903,-55 2909,-55 2915,-61 2915,-67 2915,-67 2915,-135 2915,-135 2915,-141 2909,-147 2903,-147 2903,-147 2736,-147 2736,-147 2730,-147 2724,-141 2724,-135 2724,-135 2724,-67 2724,-67 2724,-61 2730,-55 2736,-55"/>
<text text-anchor="middle" x="2819.5" y="-131.8" font-family="Times,serif" font-size="14.00">Node 13</text>
<polyline fill="none" stroke="black" points="2724,-124 2915,-124 "/>
<text text-anchor="middle" x="2819.5" y="-108.8" font-family="Times,serif" font-size="14.00">Val. 5</text>
<polyline fill="none" stroke="black" points="2724,-101 2915,-101 "/>
<text text-anchor="middle" x="2819.5" y="-85.8" font-family="Times,serif" font-size="14.00">Next 14</text>
<polyline fill="none" stroke="black" points="2724,-78 2915,-78 "/>
<text text-anchor="middle" x="2819.5" y="-62.8" font-family="Times,serif" font-size="14.00">Prev. 140725408206742</text>
</g>
<!-- node12&#45;&gt;node13 -->
<!-- node12&#45;&gt;node13 -->
<g id="edge37" class="edge">
<title>node12:n&#45;&gt;node13</title>
<path fill="none" stroke="black" d="M2688,-89C2696.34,-89 2704.97,-89.25 2713.63,-89.67"/>
<polygon fill="black" stroke="black" points="2713.62,-93.17 2723.8,-90.24 2714.01,-86.18 2713.62,-93.17"/>
</g>
<!-- node13&#45;&gt;node12 -->
<g id="edge40" class="edge">
<title>node13:p&#45;&gt;node12</title>
<path fill="none" stroke="black" d="M2724,-66C2715.57,-66 2706.94,-66.69 2698.32,-67.88"/>
<polygon fill="black" stroke="black" points="2697.55,-64.45 2688.23,-69.48 2698.65,-71.37 2697.55,-64.45"/>
</g>
<!-- node14 -->
<g id="node15" class="node">
<title>node14</title>
<path fill="#ffb2d0" stroke="black" d="M2963,-55C2963,-55 3130,-55 3130,-55 3136,-55 3142,-61 3142,-67 3142,-67 3142,-135 3142,-135 3142,-141 3136,-147 3130,-147 3130,-147 2963,-147 2963,-147 2957,-147 2951,-141 2951,-135 2951,-135 2951,-67 2951,-67 2951,-61 2957,-55 2963,-55"/>
<text text-anchor="middle" x="3046.5" y="-131.8" font-family="Times,serif" font-size="14.00">Node 14</text>
<polyline fill="none" stroke="black" points="2951,-124 3142,-124 "/>
<text text-anchor="middle" x="3046.5" y="-108.8" font-family="Times,serif" font-size="14.00">Val. 4</text>
<polyline fill="none" stroke="black" points="2951,-101 3142,-101 "/>
<text text-anchor="middle" x="3046.5" y="-85.8" font-family="Times,serif" font-size="14.00">Next 15</text>
<polyline fill="none" stroke="black" points="2951,-78 3142,-78 "/>
<text text-anchor="middle" x="3046.5" y="-62.8" font-family="Times,serif" font-size="14.00">Prev. 140725408206742</text>
</g>
<!-- node13&#45;&gt;node14 -->
<!-- node13&#45;&gt;node14 -->
<g id="edge39" class="edge">
<title>node13:n&#45;&gt;node14</title>
<path fill="none" stroke="black" d="M2915,-89C2923.34,-89 2931.97,-89.25 2940.63,-89.67"/>
<polygon fill="black" stroke="black" points="2940.62,-93.17 2950.8,-90.24 2941.01,-86.18 2940.62,-93.17"/>
</g>
<!-- node14&#45;&gt;node13 -->
<g id="edge42" class="edge">
<title>node14:p&#45;&gt;node13</title>
<path fill="none" stroke="black" d="M2951,-66C2942.57,-66 2933.94,-66.69 2925.32,-67.88"/>
<polygon fill="black" stroke="black" points="2924.55,-64.45 2915.23,-69.48 2925.65,-71.37 2924.55,-64.45"/>
</g>
<!-- node15 -->
<g id="node16" class="node">
<title>node15</title>
<path fill="#ffb2d0" stroke="black" d="M3190,-55C3190,-55 3357,-55 3357,-55 3363,-55 3369,-61 3369,-67 3369,-67 3369,-135 3369,-135 3369,-141 3363,-147 3357,-147 3357,-147 3190,-147 3190,-147 3184,-147 3178,-141 3178,-135 3178,-135 3178,-67 3178,-67 3178,-61 3184,-55 3190,-55"/>
<text text-anchor="middle" x="3273.5" y="-131.8" font-family="Times,serif" font-size="14.00">Node 15</text>
<polyline fill="none" stroke="black" points="3178,-124 3369,-124 "/>
<text text-anchor="middle" x="3273.5" y="-108.8" font-family="Times,serif" font-size="14.00">Val. 3</text>
<polyline fill="none" stroke="black" points="3178,-101 3369,-101 "/>
<text text-anchor="middle" x="3273.5" y="-85.8" font-family="Times,serif" font-size="14.00">Next 16</text>
<polyline fill="none" stroke="black" points="3178,-78 3369,-78 "/>
<text text-anchor="middle" x="3273.5" y="-62.8" font-family="Times,serif" font-size="14.00">Prev. 140725408206742</text>
</g>
<!-- node14&#45;&gt;node15 -->
<!-- node14&#45;&gt;node15 -->
<g id="edge41" class="edge">
<title>node14:n&#45;&gt;node15</title>
<path fill="none" stroke="black" d="M3142,-89C3150.34,-89 3158.97,-89.25 3167.63,-89.67"/>
<polygon fill="black" stroke="black" points="3167.62,-93.17 3177.8,-90.24 3168.01,-86.18 3167.62,-93.17"/>
</g>
<!-- node15&#45;&gt;node14 -->
<g id="edge44" class="edge">
<title>node15:p&#45;&gt;node14</title>
<path fill="none" stroke="black" d="M3178,-66C3169.57,-66 3160.94,-66.69 3152.32,-67.88"/>
<polygon fill="black" stroke="black" points="3151.55,-64.45 3142.23,-69.48 3152.65,-71.37 3151.55,-64.45"/>
</g>
<!-- node16 -->
<g id="node17" class="node">
<title>node16</title>
<path fill="#c1aed1" stroke="black" d="M3417,-55C3417,-55 3584,-55 3584,-55 3590,-55 3596,-61 3596,-67 3596,-67 3596,-135 3596,-135 3596,-141 3590,-147 3584,-147 3584,-147 3417,-147 3417,-147 3411,-147 3405,-141 3405,-135 3405,-135 3405,-67 3405,-67 3405,-61 3411,-55 3417,-55"/>
<text text-anchor="middle" x="3500.5" y="-131.8" font-family="Times,serif" font-size="14.00">Node 16</text>
<polyline fill="none" stroke="black" points="3405,-124 3596,-124 "/>
<text text-anchor="middle" x="3500.5" y="-108.8" font-family="Times,serif" font-size="14.00">Val. 2</text>
<polyline fill="none" stroke="black" points="3405,-101 3596,-101 "/>
<text text-anchor="middle" x="3500.5" y="-85.8" font-family="Times,serif" font-size="14.00">Next 0</text>
<polyline fill="none" stroke="black" points="3405,-78 3596,-78 "/>
<text text-anchor="middle" x="3500.5" y="-62.8" font-family="Times,serif" font-size="14.00">Prev. 140725408206742</text>
</g>
<!-- node15&#45;&gt;node16 -->
<!-- node15&#45;&gt;node16 -->
<g id="edge43" class="edge">
<title>node15:n&#45;&gt;node16</title>
<path fill="none" stroke="black" d="M3369,-89C3377.34,-89 3385.97,-89.25 3394.63,-89.67"/>
<polygon fill="black" stroke="black" points="3394.62,-93.17 3404.8,-90.24 3395.01,-86.18 3394.62,-93.17"/>
</g>
<!-- node16&#45;&gt;node15 -->
<g id="edge45" class="edge">
<title>node16:p&#45;&gt;node15</title>
<path fill="none" stroke="black" d="M3405,-66C3396.57,-66 3387.94,-66.69 3379.32,-67.88"/>
<polygon fill="black" stroke="black" points="3378.55,-64.45 3369.23,-69.48 3379.65,-71.37 3378.55,-64.45"/>
</g>
</g>
</svg>
