<?xml version="1.0" encoding="UTF-8" standalone="no"?>
<!DOCTYPE svg PUBLIC "-//W3C//DTD SVG 1.1//EN"
 "http://www.w3.org/Graphics/SVG/1.1/DTD/svg11.dtd">
<!-- Generated by graphviz version 2.43.0 (0)
 -->
<!-- Title: G Pages: 1 -->
<svg width="1407pt" height="178pt"
 viewBox="0.00 0.00 1407.00 178.00" xmlns="http://www.w3.org/2000/svg" xmlns:xlink="http://www.w3.org/1999/xlink">
<g id="graph0" class="graph" transform="scale(1 1) rotate(0) translate(4 174)">
<title>G</title>
<polygon fill="white" stroke="transparent" points="-4,4 -4,-174 1403,-174 1403,4 -4,4"/>
<!-- size -->
<g id="node1" class="node">
<title>size</title>
<path fill="#fffeb6" stroke="black" d="M129,-36C129,-36 71,-36 71,-36 65,-36 59,-30 59,-24 59,-24 59,-12 59,-12 59,-6 65,0 71,0 71,0 129,0 129,0 135,0 141,-6 141,-12 141,-12 141,-24 141,-24 141,-30 135,-36 129,-36"/>
<text text-anchor="middle" x="100" y="-14.3" font-family="Times,serif" font-size="14.00">SIZE = 6</text>
</g>
<!-- node1 -->
<g id="node2" class="node">
<title>node1</title>
<path fill="#faa76c" stroke="black" d="M12,-54.5C12,-54.5 188,-54.5 188,-54.5 194,-54.5 200,-60.5 200,-66.5 200,-66.5 200,-157.5 200,-157.5 200,-163.5 194,-169.5 188,-169.5 188,-169.5 12,-169.5 12,-169.5 6,-169.5 0,-163.5 0,-157.5 0,-157.5 0,-66.5 0,-66.5 0,-60.5 6,-54.5 12,-54.5"/>
<text text-anchor="middle" x="100" y="-154.3" font-family="Times,serif" font-size="14.00">Node 1</text>
<polyline fill="none" stroke="black" points="0,-146.5 200,-146.5 "/>
<text text-anchor="middle" x="100" y="-131.3" font-family="Times,serif" font-size="14.00">Address 0x6030000001f0</text>
<polyline fill="none" stroke="black" points="0,-123.5 200,-123.5 "/>
<text text-anchor="middle" x="100" y="-108.3" font-family="Times,serif" font-size="14.00">Val. 1</text>
<polyline fill="none" stroke="black" points="0,-100.5 200,-100.5 "/>
<text text-anchor="middle" x="100" y="-85.3" font-family="Times,serif" font-size="14.00">Next 0x603000000220</text>
<polyline fill="none" stroke="black" points="0,-77.5 200,-77.5 "/>
<text text-anchor="middle" x="100" y="-62.3" font-family="Times,serif" font-size="14.00">Prev. (nil)</text>
</g>
<!-- node2 -->
<g id="node3" class="node">
<title>node2</title>
<path fill="#ffb2d0" stroke="black" d="M248,-54.5C248,-54.5 428,-54.5 428,-54.5 434,-54.5 440,-60.5 440,-66.5 440,-66.5 440,-157.5 440,-157.5 440,-163.5 434,-169.5 428,-169.5 428,-169.5 248,-169.5 248,-169.5 242,-169.5 236,-163.5 236,-157.5 236,-157.5 236,-66.5 236,-66.5 236,-60.5 242,-54.5 248,-54.5"/>
<text text-anchor="middle" x="338" y="-154.3" font-family="Times,serif" font-size="14.00">Node 2</text>
<polyline fill="none" stroke="black" points="236,-146.5 440,-146.5 "/>
<text text-anchor="middle" x="338" y="-131.3" font-family="Times,serif" font-size="14.00">Address 0x603000000220</text>
<polyline fill="none" stroke="black" points="236,-123.5 440,-123.5 "/>
<text text-anchor="middle" x="338" y="-108.3" font-family="Times,serif" font-size="14.00">Val. 2</text>
<polyline fill="none" stroke="black" points="236,-100.5 440,-100.5 "/>
<text text-anchor="middle" x="338" y="-85.3" font-family="Times,serif" font-size="14.00">Next 0x603000000250</text>
<polyline fill="none" stroke="black" points="236,-77.5 440,-77.5 "/>
<text text-anchor="middle" x="338" y="-62.3" font-family="Times,serif" font-size="14.00">Prev. 0x6030000001f0</text>
</g>
<!-- node1&#45;&gt;node2 -->
<!-- node1&#45;&gt;node2 -->
<g id="edge6" class="edge">
<title>node1:n&#45;&gt;node2</title>
<path fill="none" stroke="black" d="M200,-89C208.41,-89 217.07,-89.43 225.75,-90.16"/>
<polygon fill="black" stroke="black" points="225.65,-93.67 235.94,-91.16 226.33,-86.7 225.65,-93.67"/>
</g>
<!-- node2&#45;&gt;node1 -->
<g id="edge8" class="edge">
<title>node2:p&#45;&gt;node1</title>
<path fill="none" stroke="black" d="M236,-66C227.36,-66 218.58,-66.85 209.84,-68.33"/>
<polygon fill="black" stroke="black" points="209.15,-64.9 200,-70.25 210.49,-71.77 209.15,-64.9"/>
</g>
<!-- node3 -->
<g id="node4" class="node">
<title>node3</title>
<path fill="#ffb2d0" stroke="black" d="M488,-54.5C488,-54.5 668,-54.5 668,-54.5 674,-54.5 680,-60.5 680,-66.5 680,-66.5 680,-157.5 680,-157.5 680,-163.5 674,-169.5 668,-169.5 668,-169.5 488,-169.5 488,-169.5 482,-169.5 476,-163.5 476,-157.5 476,-157.5 476,-66.5 476,-66.5 476,-60.5 482,-54.5 488,-54.5"/>
<text text-anchor="middle" x="578" y="-154.3" font-family="Times,serif" font-size="14.00">Node 3</text>
<polyline fill="none" stroke="black" points="476,-146.5 680,-146.5 "/>
<text text-anchor="middle" x="578" y="-131.3" font-family="Times,serif" font-size="14.00">Address 0x603000000250</text>
<polyline fill="none" stroke="black" points="476,-123.5 680,-123.5 "/>
<text text-anchor="middle" x="578" y="-108.3" font-family="Times,serif" font-size="14.00">Val. 3</text>
<polyline fill="none" stroke="black" points="476,-100.5 680,-100.5 "/>
<text text-anchor="middle" x="578" y="-85.3" font-family="Times,serif" font-size="14.00">Next 0x603000000280</text>
<polyline fill="none" stroke="black" points="476,-77.5 680,-77.5 "/>
<text text-anchor="middle" x="578" y="-62.3" font-family="Times,serif" font-size="14.00">Prev. 0x603000000220</text>
</g>
<!-- node2&#45;&gt;node3 -->
<!-- node2&#45;&gt;node3 -->
<g id="edge7" class="edge">
<title>node2:n&#45;&gt;node3</title>
<path fill="none" stroke="black" d="M440,-89C448.41,-89 457.07,-89.43 465.75,-90.16"/>
<polygon fill="black" stroke="black" points="465.65,-93.67 475.94,-91.16 466.33,-86.7 465.65,-93.67"/>
</g>
<!-- node3&#45;&gt;node2 -->
<g id="edge10" class="edge">
<title>node3:p&#45;&gt;node2</title>
<path fill="none" stroke="black" d="M476,-66C467.52,-66 458.9,-66.8 450.31,-68.19"/>
<polygon fill="black" stroke="black" points="449.44,-64.79 440.26,-70.08 450.74,-71.67 449.44,-64.79"/>
</g>
<!-- node4 -->
<g id="node5" class="node">
<title>node4</title>
<path fill="#ffb2d0" stroke="black" d="M728,-54.5C728,-54.5 908,-54.5 908,-54.5 914,-54.5 920,-60.5 920,-66.5 920,-66.5 920,-157.5 920,-157.5 920,-163.5 914,-169.5 908,-169.5 908,-169.5 728,-169.5 728,-169.5 722,-169.5 716,-163.5 716,-157.5 716,-157.5 716,-66.5 716,-66.5 716,-60.5 722,-54.5 728,-54.5"/>
<text text-anchor="middle" x="818" y="-154.3" font-family="Times,serif" font-size="14.00">Node 4</text>
<polyline fill="none" stroke="black" points="716,-146.5 920,-146.5 "/>
<text text-anchor="middle" x="818" y="-131.3" font-family="Times,serif" font-size="14.00">Address 0x603000000280</text>
<polyline fill="none" stroke="black" points="716,-123.5 920,-123.5 "/>
<text text-anchor="middle" x="818" y="-108.3" font-family="Times,serif" font-size="14.00">Val. 4</text>
<polyline fill="none" stroke="black" points="716,-100.5 920,-100.5 "/>
<text text-anchor="middle" x="818" y="-85.3" font-family="Times,serif" font-size="14.00">Next 0x6030000002b0</text>
<polyline fill="none" stroke="black" points="716,-77.5 920,-77.5 "/>
<text text-anchor="middle" x="818" y="-62.3" font-family="Times,serif" font-size="14.00">Prev. 0x603000000250</text>
</g>
<!-- node3&#45;&gt;node4 -->
<!-- node3&#45;&gt;node4 -->
<g id="edge9" class="edge">
<title>node3:n&#45;&gt;node4</title>
<path fill="none" stroke="black" d="M680,-89C688.41,-89 697.07,-89.43 705.75,-90.16"/>
<polygon fill="black" stroke="black" points="705.65,-93.67 715.94,-91.16 706.33,-86.7 705.65,-93.67"/>
</g>
<!-- node4&#45;&gt;node3 -->
<g id="edge12" class="edge">
<title>node4:p&#45;&gt;node3</title>
<path fill="none" stroke="black" d="M716,-66C707.52,-66 698.9,-66.8 690.31,-68.19"/>
<polygon fill="black" stroke="black" points="689.44,-64.79 680.26,-70.08 690.74,-71.67 689.44,-64.79"/>
</g>
<!-- node5 -->
<g id="node6" class="node">
<title>node5</title>
<path fill="#ffb2d0" stroke="black" d="M968,-54.5C968,-54.5 1148,-54.5 1148,-54.5 1154,-54.5 1160,-60.5 1160,-66.5 1160,-66.5 1160,-157.5 1160,-157.5 1160,-163.5 1154,-169.5 1148,-169.5 1148,-169.5 968,-169.5 968,-169.5 962,-169.5 956,-163.5 956,-157.5 956,-157.5 956,-66.5 956,-66.5 956,-60.5 962,-54.5 968,-54.5"/>
<text text-anchor="middle" x="1058" y="-154.3" font-family="Times,serif" font-size="14.00">Node 5</text>
<polyline fill="none" stroke="black" points="956,-146.5 1160,-146.5 "/>
<text text-anchor="middle" x="1058" y="-131.3" font-family="Times,serif" font-size="14.00">Address 0x6030000002b0</text>
<polyline fill="none" stroke="black" points="956,-123.5 1160,-123.5 "/>
<text text-anchor="middle" x="1058" y="-108.3" font-family="Times,serif" font-size="14.00">Val. 5</text>
<polyline fill="none" stroke="black" points="956,-100.5 1160,-100.5 "/>
<text text-anchor="middle" x="1058" y="-85.3" font-family="Times,serif" font-size="14.00">Next 0x6030000002e0</text>
<polyline fill="none" stroke="black" points="956,-77.5 1160,-77.5 "/>
<text text-anchor="middle" x="1058" y="-62.3" font-family="Times,serif" font-size="14.00">Prev. 0x603000000280</text>
</g>
<!-- node4&#45;&gt;node5 -->
<!-- node4&#45;&gt;node5 -->
<g id="edge11" class="edge">
<title>node4:n&#45;&gt;node5</title>
<path fill="none" stroke="black" d="M920,-89C928.41,-89 937.07,-89.43 945.75,-90.16"/>
<polygon fill="black" stroke="black" points="945.65,-93.67 955.94,-91.16 946.33,-86.7 945.65,-93.67"/>
</g>
<!-- node5&#45;&gt;node4 -->
<g id="edge14" class="edge">
<title>node5:p&#45;&gt;node4</title>
<path fill="none" stroke="black" d="M956,-66C947.52,-66 938.9,-66.8 930.31,-68.19"/>
<polygon fill="black" stroke="black" points="929.44,-64.79 920.26,-70.08 930.74,-71.67 929.44,-64.79"/>
</g>
<!-- node6 -->
<g id="node7" class="node">
<title>node6</title>
<path fill="#c1aed1" stroke="black" d="M1208,-54.5C1208,-54.5 1387,-54.5 1387,-54.5 1393,-54.5 1399,-60.5 1399,-66.5 1399,-66.5 1399,-157.5 1399,-157.5 1399,-163.5 1393,-169.5 1387,-169.5 1387,-169.5 1208,-169.5 1208,-169.5 1202,-169.5 1196,-163.5 1196,-157.5 1196,-157.5 1196,-66.5 1196,-66.5 1196,-60.5 1202,-54.5 1208,-54.5"/>
<text text-anchor="middle" x="1297.5" y="-154.3" font-family="Times,serif" font-size="14.00">Node 6</text>
<polyline fill="none" stroke="black" points="1196,-146.5 1399,-146.5 "/>
<text text-anchor="middle" x="1297.5" y="-131.3" font-family="Times,serif" font-size="14.00">Address 0x6030000002e0</text>
<polyline fill="none" stroke="black" points="1196,-123.5 1399,-123.5 "/>
<text text-anchor="middle" x="1297.5" y="-108.3" font-family="Times,serif" font-size="14.00">Val. 6</text>
<polyline fill="none" stroke="black" points="1196,-100.5 1399,-100.5 "/>
<text text-anchor="middle" x="1297.5" y="-85.3" font-family="Times,serif" font-size="14.00">Next (nil)</text>
<polyline fill="none" stroke="black" points="1196,-77.5 1399,-77.5 "/>
<text text-anchor="middle" x="1297.5" y="-62.3" font-family="Times,serif" font-size="14.00">Prev. 0x6030000002b0</text>
</g>
<!-- node5&#45;&gt;node6 -->
<!-- node5&#45;&gt;node6 -->
<g id="edge13" class="edge">
<title>node5:n&#45;&gt;node6</title>
<path fill="none" stroke="black" d="M1160,-89C1168.38,-89 1177,-89.43 1185.66,-90.16"/>
<polygon fill="black" stroke="black" points="1185.52,-93.67 1195.81,-91.16 1186.21,-86.7 1185.52,-93.67"/>
</g>
<!-- node6&#45;&gt;node5 -->
<g id="edge15" class="edge">
<title>node6:p&#45;&gt;node5</title>
<path fill="none" stroke="black" d="M1196,-66C1187.52,-66 1178.9,-66.8 1170.31,-68.19"/>
<polygon fill="black" stroke="black" points="1169.44,-64.79 1160.26,-70.08 1170.74,-71.67 1169.44,-64.79"/>
</g>
</g>
</svg>
