<?xml version="1.0" encoding="UTF-8" standalone="no"?>
<!DOCTYPE svg PUBLIC "-//W3C//DTD SVG 1.1//EN"
 "http://www.w3.org/Graphics/SVG/1.1/DTD/svg11.dtd">
<!-- Generated by graphviz version 2.43.0 (0)
 -->
<!-- Title: G Pages: 1 -->
<svg width="2395pt" height="591pt"
 viewBox="0.00 0.00 2395.00 591.23" xmlns="http://www.w3.org/2000/svg" xmlns:xlink="http://www.w3.org/1999/xlink">
<g id="graph0" class="graph" transform="scale(1 1) rotate(0) translate(4 587.23)">
<title>G</title>
<polygon fill="white" stroke="transparent" points="-4,4 -4,-587.23 2391,-587.23 2391,4 -4,4"/>
<!-- head -->
<g id="node1" class="node">
<title>head</title>
<path fill="#fffeb6" stroke="black" d="M105.5,-421.23C105.5,-421.23 39.5,-421.23 39.5,-421.23 33.5,-421.23 27.5,-415.23 27.5,-409.23 27.5,-409.23 27.5,-397.23 27.5,-397.23 27.5,-391.23 33.5,-385.23 39.5,-385.23 39.5,-385.23 105.5,-385.23 105.5,-385.23 111.5,-385.23 117.5,-391.23 117.5,-397.23 117.5,-397.23 117.5,-409.23 117.5,-409.23 117.5,-415.23 111.5,-421.23 105.5,-421.23"/>
<text text-anchor="middle" x="72.5" y="-399.53" font-family="Times,serif" font-size="14.00">HEAD = 1</text>
</g>
<!-- node1 -->
<g id="node8" class="node">
<title>node1</title>
<path fill="#faa76c" stroke="black" d="M193,-110.23C193,-110.23 243,-110.23 243,-110.23 249,-110.23 255,-116.23 255,-122.23 255,-122.23 255,-190.23 255,-190.23 255,-196.23 249,-202.23 243,-202.23 243,-202.23 193,-202.23 193,-202.23 187,-202.23 181,-196.23 181,-190.23 181,-190.23 181,-122.23 181,-122.23 181,-116.23 187,-110.23 193,-110.23"/>
<text text-anchor="middle" x="218" y="-187.03" font-family="Times,serif" font-size="14.00">Node 1</text>
<polyline fill="none" stroke="black" points="181,-179.23 255,-179.23 "/>
<text text-anchor="middle" x="218" y="-164.03" font-family="Times,serif" font-size="14.00">Val. 666</text>
<polyline fill="none" stroke="black" points="181,-156.23 255,-156.23 "/>
<text text-anchor="middle" x="218" y="-141.03" font-family="Times,serif" font-size="14.00">Next 2</text>
<polyline fill="none" stroke="black" points="181,-133.23 255,-133.23 "/>
<text text-anchor="middle" x="218" y="-118.03" font-family="Times,serif" font-size="14.00">Prev. 0</text>
</g>
<!-- head&#45;&gt;node1 -->
<g id="edge58" class="edge">
<title>head&#45;&gt;node1</title>
<path fill="none" stroke="black" stroke-width="2" d="M117.64,-393.51C127.69,-389.55 137.57,-383.99 145,-376.23 187.52,-331.75 204.94,-261.78 212.06,-212.72"/>
<polygon fill="black" stroke="black" stroke-width="2" points="215.56,-212.97 213.44,-202.59 208.63,-212.03 215.56,-212.97"/>
</g>
<!-- tail -->
<g id="node2" class="node">
<title>tail</title>
<path fill="#fffeb6" stroke="black" d="M104.5,-257.23C104.5,-257.23 40.5,-257.23 40.5,-257.23 34.5,-257.23 28.5,-251.23 28.5,-245.23 28.5,-245.23 28.5,-233.23 28.5,-233.23 28.5,-227.23 34.5,-221.23 40.5,-221.23 40.5,-221.23 104.5,-221.23 104.5,-221.23 110.5,-221.23 116.5,-227.23 116.5,-233.23 116.5,-233.23 116.5,-245.23 116.5,-245.23 116.5,-251.23 110.5,-257.23 104.5,-257.23"/>
<text text-anchor="middle" x="72.5" y="-235.53" font-family="Times,serif" font-size="14.00">TAIL = 16</text>
</g>
<!-- node16 -->
<g id="node23" class="node">
<title>node16</title>
<path fill="#c1aed1" stroke="black" d="M1819,-110.23C1819,-110.23 1872,-110.23 1872,-110.23 1878,-110.23 1884,-116.23 1884,-122.23 1884,-122.23 1884,-190.23 1884,-190.23 1884,-196.23 1878,-202.23 1872,-202.23 1872,-202.23 1819,-202.23 1819,-202.23 1813,-202.23 1807,-196.23 1807,-190.23 1807,-190.23 1807,-122.23 1807,-122.23 1807,-116.23 1813,-110.23 1819,-110.23"/>
<text text-anchor="middle" x="1845.5" y="-187.03" font-family="Times,serif" font-size="14.00">Node 16</text>
<polyline fill="none" stroke="black" points="1807,-179.23 1884,-179.23 "/>
<text text-anchor="middle" x="1845.5" y="-164.03" font-family="Times,serif" font-size="14.00">Val. 15</text>
<polyline fill="none" stroke="black" points="1807,-156.23 1884,-156.23 "/>
<text text-anchor="middle" x="1845.5" y="-141.03" font-family="Times,serif" font-size="14.00">Next 0</text>
<polyline fill="none" stroke="black" points="1807,-133.23 1884,-133.23 "/>
<text text-anchor="middle" x="1845.5" y="-118.03" font-family="Times,serif" font-size="14.00">Prev. 15</text>
</g>
<!-- tail&#45;&gt;node16 -->
<g id="edge59" class="edge">
<title>tail&#45;&gt;node16</title>
<path fill="none" stroke="black" stroke-width="2" d="M116.86,-230.07C127.41,-225.93 137.73,-219.92 145,-211.23 197.89,-147.97 121.86,-86.68 181,-29.23 227.23,15.68 259.56,-5.23 324,-5.23 324,-5.23 324,-5.23 1620.5,-5.23 1692.32,-5.23 1758.37,-59.26 1799.86,-102.68"/>
<polygon fill="black" stroke="black" stroke-width="2" points="1797.42,-105.2 1806.81,-110.1 1802.52,-100.41 1797.42,-105.2"/>
</g>
<!-- freeHead -->
<g id="node3" class="node">
<title>freeHead</title>
<path fill="#fffeb6" stroke="black" d="M133,-311.23C133,-311.23 12,-311.23 12,-311.23 6,-311.23 0,-305.23 0,-299.23 0,-299.23 0,-287.23 0,-287.23 0,-281.23 6,-275.23 12,-275.23 12,-275.23 133,-275.23 133,-275.23 139,-275.23 145,-281.23 145,-287.23 145,-287.23 145,-299.23 145,-299.23 145,-305.23 139,-311.23 133,-311.23"/>
<text text-anchor="middle" x="72.5" y="-289.53" font-family="Times,serif" font-size="14.00">FREE HEAD = 17</text>
</g>
<!-- node17 -->
<g id="node24" class="node">
<title>node17</title>
<path fill="#98ff98" stroke="black" d="M1932,-110.23C1932,-110.23 2036,-110.23 2036,-110.23 2042,-110.23 2048,-116.23 2048,-122.23 2048,-122.23 2048,-190.23 2048,-190.23 2048,-196.23 2042,-202.23 2036,-202.23 2036,-202.23 1932,-202.23 1932,-202.23 1926,-202.23 1920,-196.23 1920,-190.23 1920,-190.23 1920,-122.23 1920,-122.23 1920,-116.23 1926,-110.23 1932,-110.23"/>
<text text-anchor="middle" x="1984" y="-187.03" font-family="Times,serif" font-size="14.00">Node 17</text>
<polyline fill="none" stroke="black" points="1920,-179.23 2048,-179.23 "/>
<text text-anchor="middle" x="1984" y="-164.03" font-family="Times,serif" font-size="14.00">Val. 0</text>
<polyline fill="none" stroke="black" points="1920,-156.23 2048,-156.23 "/>
<text text-anchor="middle" x="1984" y="-141.03" font-family="Times,serif" font-size="14.00">Next 18</text>
<polyline fill="none" stroke="black" points="1920,-133.23 2048,-133.23 "/>
<text text-anchor="middle" x="1984" y="-118.03" font-family="Times,serif" font-size="14.00">Prev. Free node</text>
</g>
<!-- freeHead&#45;&gt;node17 -->
<g id="edge60" class="edge">
<title>freeHead&#45;&gt;node17</title>
<path fill="none" stroke="black" stroke-width="2" d="M135.36,-275.12C138.93,-272.54 142.2,-269.59 145,-266.23 202.51,-197.16 117.04,-130.38 181,-67.23 226.86,-21.95 259.56,-43.23 324,-43.23 324,-43.23 324,-43.23 1733.5,-43.23 1797.85,-43.23 1863.89,-74.8 1911.85,-104.57"/>
<polygon fill="black" stroke="black" stroke-width="2" points="1910.26,-107.71 1920.59,-110.1 1914.01,-101.8 1910.26,-107.71"/>
</g>
<!-- capacity -->
<g id="node4" class="node">
<title>capacity</title>
<path fill="#fffeb6" stroke="black" d="M124.5,-475.23C124.5,-475.23 20.5,-475.23 20.5,-475.23 14.5,-475.23 8.5,-469.23 8.5,-463.23 8.5,-463.23 8.5,-451.23 8.5,-451.23 8.5,-445.23 14.5,-439.23 20.5,-439.23 20.5,-439.23 124.5,-439.23 124.5,-439.23 130.5,-439.23 136.5,-445.23 136.5,-451.23 136.5,-451.23 136.5,-463.23 136.5,-463.23 136.5,-469.23 130.5,-475.23 124.5,-475.23"/>
<text text-anchor="middle" x="72.5" y="-453.53" font-family="Times,serif" font-size="14.00">CAPACITY = 20</text>
</g>
<!-- size -->
<g id="node5" class="node">
<title>size</title>
<path fill="#fffeb6" stroke="black" d="M106,-529.23C106,-529.23 39,-529.23 39,-529.23 33,-529.23 27,-523.23 27,-517.23 27,-517.23 27,-505.23 27,-505.23 27,-499.23 33,-493.23 39,-493.23 39,-493.23 106,-493.23 106,-493.23 112,-493.23 118,-499.23 118,-505.23 118,-505.23 118,-517.23 118,-517.23 118,-523.23 112,-529.23 106,-529.23"/>
<text text-anchor="middle" x="72.5" y="-507.53" font-family="Times,serif" font-size="14.00">SIZE = 16</text>
</g>
<!-- isSorted -->
<g id="node6" class="node">
<title>isSorted</title>
<path fill="#fffeb6" stroke="black" d="M125,-583.23C125,-583.23 20,-583.23 20,-583.23 14,-583.23 8,-577.23 8,-571.23 8,-571.23 8,-559.23 8,-559.23 8,-553.23 14,-547.23 20,-547.23 20,-547.23 125,-547.23 125,-547.23 131,-547.23 137,-553.23 137,-559.23 137,-559.23 137,-571.23 137,-571.23 137,-577.23 131,-583.23 125,-583.23"/>
<text text-anchor="middle" x="72.5" y="-561.53" font-family="Times,serif" font-size="14.00">SORTED = YES</text>
</g>
<!-- node0 -->
<g id="node7" class="node">
<title>node0</title>
<path fill="#c0c0c0" stroke="black" d="M47.5,-110.23C47.5,-110.23 97.5,-110.23 97.5,-110.23 103.5,-110.23 109.5,-116.23 109.5,-122.23 109.5,-122.23 109.5,-190.23 109.5,-190.23 109.5,-196.23 103.5,-202.23 97.5,-202.23 97.5,-202.23 47.5,-202.23 47.5,-202.23 41.5,-202.23 35.5,-196.23 35.5,-190.23 35.5,-190.23 35.5,-122.23 35.5,-122.23 35.5,-116.23 41.5,-110.23 47.5,-110.23"/>
<text text-anchor="middle" x="72.5" y="-187.03" font-family="Times,serif" font-size="14.00">Node 0</text>
<polyline fill="none" stroke="black" points="35.5,-179.23 109.5,-179.23 "/>
<text text-anchor="middle" x="72.5" y="-164.03" font-family="Times,serif" font-size="14.00">Val. 0</text>
<polyline fill="none" stroke="black" points="35.5,-156.23 109.5,-156.23 "/>
<text text-anchor="middle" x="72.5" y="-141.03" font-family="Times,serif" font-size="14.00">Next 1</text>
<polyline fill="none" stroke="black" points="35.5,-133.23 109.5,-133.23 "/>
<text text-anchor="middle" x="72.5" y="-118.03" font-family="Times,serif" font-size="14.00">Prev. 16</text>
</g>
<!-- node0&#45;&gt;node1 -->
<!-- node2 -->
<g id="node9" class="node">
<title>node2</title>
<path fill="#ffb2d0" stroke="black" d="M303,-110.23C303,-110.23 347,-110.23 347,-110.23 353,-110.23 359,-116.23 359,-122.23 359,-122.23 359,-190.23 359,-190.23 359,-196.23 353,-202.23 347,-202.23 347,-202.23 303,-202.23 303,-202.23 297,-202.23 291,-196.23 291,-190.23 291,-190.23 291,-122.23 291,-122.23 291,-116.23 297,-110.23 303,-110.23"/>
<text text-anchor="middle" x="325" y="-187.03" font-family="Times,serif" font-size="14.00">Node 2</text>
<polyline fill="none" stroke="black" points="291,-179.23 359,-179.23 "/>
<text text-anchor="middle" x="325" y="-164.03" font-family="Times,serif" font-size="14.00">Val. 0</text>
<polyline fill="none" stroke="black" points="291,-156.23 359,-156.23 "/>
<text text-anchor="middle" x="325" y="-141.03" font-family="Times,serif" font-size="14.00">Next 3</text>
<polyline fill="none" stroke="black" points="291,-133.23 359,-133.23 "/>
<text text-anchor="middle" x="325" y="-118.03" font-family="Times,serif" font-size="14.00">Prev. 1</text>
</g>
<!-- node1&#45;&gt;node2 -->
<!-- node1&#45;&gt;node2 -->
<g id="edge21" class="edge">
<title>node1:n&#45;&gt;node2</title>
<path fill="none" stroke="black" d="M255,-144.23C263.38,-144.23 272.26,-145.1 280.75,-146.37"/>
<polygon fill="black" stroke="black" points="280.42,-149.86 290.86,-148.09 281.59,-142.96 280.42,-149.86"/>
</g>
<!-- node2&#45;&gt;node1 -->
<g id="edge23" class="edge">
<title>node2:p&#45;&gt;node1</title>
<path fill="none" stroke="black" d="M291,-121.23C282.01,-121.23 272.97,-123.46 264.48,-126.8"/>
<polygon fill="black" stroke="black" points="262.85,-123.69 255.15,-130.98 265.71,-130.08 262.85,-123.69"/>
</g>
<!-- node3 -->
<g id="node10" class="node">
<title>node3</title>
<path fill="#ffb2d0" stroke="black" d="M407,-110.23C407,-110.23 451,-110.23 451,-110.23 457,-110.23 463,-116.23 463,-122.23 463,-122.23 463,-190.23 463,-190.23 463,-196.23 457,-202.23 451,-202.23 451,-202.23 407,-202.23 407,-202.23 401,-202.23 395,-196.23 395,-190.23 395,-190.23 395,-122.23 395,-122.23 395,-116.23 401,-110.23 407,-110.23"/>
<text text-anchor="middle" x="429" y="-187.03" font-family="Times,serif" font-size="14.00">Node 3</text>
<polyline fill="none" stroke="black" points="395,-179.23 463,-179.23 "/>
<text text-anchor="middle" x="429" y="-164.03" font-family="Times,serif" font-size="14.00">Val. 1</text>
<polyline fill="none" stroke="black" points="395,-156.23 463,-156.23 "/>
<text text-anchor="middle" x="429" y="-141.03" font-family="Times,serif" font-size="14.00">Next 4</text>
<polyline fill="none" stroke="black" points="395,-133.23 463,-133.23 "/>
<text text-anchor="middle" x="429" y="-118.03" font-family="Times,serif" font-size="14.00">Prev. 2</text>
</g>
<!-- node2&#45;&gt;node3 -->
<!-- node2&#45;&gt;node3 -->
<g id="edge22" class="edge">
<title>node2:n&#45;&gt;node3</title>
<path fill="none" stroke="black" d="M359,-144.23C367.38,-144.23 376.26,-145.1 384.75,-146.37"/>
<polygon fill="black" stroke="black" points="384.42,-149.86 394.86,-148.09 385.59,-142.96 384.42,-149.86"/>
</g>
<!-- node3&#45;&gt;node2 -->
<g id="edge25" class="edge">
<title>node3:p&#45;&gt;node2</title>
<path fill="none" stroke="black" d="M395,-121.23C385.92,-121.23 376.83,-123.66 368.36,-127.25"/>
<polygon fill="black" stroke="black" points="366.59,-124.23 359.1,-131.73 369.63,-130.53 366.59,-124.23"/>
</g>
<!-- node4 -->
<g id="node11" class="node">
<title>node4</title>
<path fill="#ffb2d0" stroke="black" d="M511,-110.23C511,-110.23 555,-110.23 555,-110.23 561,-110.23 567,-116.23 567,-122.23 567,-122.23 567,-190.23 567,-190.23 567,-196.23 561,-202.23 555,-202.23 555,-202.23 511,-202.23 511,-202.23 505,-202.23 499,-196.23 499,-190.23 499,-190.23 499,-122.23 499,-122.23 499,-116.23 505,-110.23 511,-110.23"/>
<text text-anchor="middle" x="533" y="-187.03" font-family="Times,serif" font-size="14.00">Node 4</text>
<polyline fill="none" stroke="black" points="499,-179.23 567,-179.23 "/>
<text text-anchor="middle" x="533" y="-164.03" font-family="Times,serif" font-size="14.00">Val. 2</text>
<polyline fill="none" stroke="black" points="499,-156.23 567,-156.23 "/>
<text text-anchor="middle" x="533" y="-141.03" font-family="Times,serif" font-size="14.00">Next 5</text>
<polyline fill="none" stroke="black" points="499,-133.23 567,-133.23 "/>
<text text-anchor="middle" x="533" y="-118.03" font-family="Times,serif" font-size="14.00">Prev. 3</text>
</g>
<!-- node3&#45;&gt;node4 -->
<!-- node3&#45;&gt;node4 -->
<g id="edge24" class="edge">
<title>node3:n&#45;&gt;node4</title>
<path fill="none" stroke="black" d="M463,-144.23C471.38,-144.23 480.26,-145.1 488.75,-146.37"/>
<polygon fill="black" stroke="black" points="488.42,-149.86 498.86,-148.09 489.59,-142.96 488.42,-149.86"/>
</g>
<!-- node4&#45;&gt;node3 -->
<g id="edge27" class="edge">
<title>node4:p&#45;&gt;node3</title>
<path fill="none" stroke="black" d="M499,-121.23C489.92,-121.23 480.83,-123.66 472.36,-127.25"/>
<polygon fill="black" stroke="black" points="470.59,-124.23 463.1,-131.73 473.63,-130.53 470.59,-124.23"/>
</g>
<!-- node5 -->
<g id="node12" class="node">
<title>node5</title>
<path fill="#ffb2d0" stroke="black" d="M615,-110.23C615,-110.23 659,-110.23 659,-110.23 665,-110.23 671,-116.23 671,-122.23 671,-122.23 671,-190.23 671,-190.23 671,-196.23 665,-202.23 659,-202.23 659,-202.23 615,-202.23 615,-202.23 609,-202.23 603,-196.23 603,-190.23 603,-190.23 603,-122.23 603,-122.23 603,-116.23 609,-110.23 615,-110.23"/>
<text text-anchor="middle" x="637" y="-187.03" font-family="Times,serif" font-size="14.00">Node 5</text>
<polyline fill="none" stroke="black" points="603,-179.23 671,-179.23 "/>
<text text-anchor="middle" x="637" y="-164.03" font-family="Times,serif" font-size="14.00">Val. 3</text>
<polyline fill="none" stroke="black" points="603,-156.23 671,-156.23 "/>
<text text-anchor="middle" x="637" y="-141.03" font-family="Times,serif" font-size="14.00">Next 6</text>
<polyline fill="none" stroke="black" points="603,-133.23 671,-133.23 "/>
<text text-anchor="middle" x="637" y="-118.03" font-family="Times,serif" font-size="14.00">Prev. 4</text>
</g>
<!-- node4&#45;&gt;node5 -->
<!-- node4&#45;&gt;node5 -->
<g id="edge26" class="edge">
<title>node4:n&#45;&gt;node5</title>
<path fill="none" stroke="black" d="M567,-144.23C575.38,-144.23 584.26,-145.1 592.75,-146.37"/>
<polygon fill="black" stroke="black" points="592.42,-149.86 602.86,-148.09 593.59,-142.96 592.42,-149.86"/>
</g>
<!-- node5&#45;&gt;node4 -->
<g id="edge29" class="edge">
<title>node5:p&#45;&gt;node4</title>
<path fill="none" stroke="black" d="M603,-121.23C593.92,-121.23 584.83,-123.66 576.36,-127.25"/>
<polygon fill="black" stroke="black" points="574.59,-124.23 567.1,-131.73 577.63,-130.53 574.59,-124.23"/>
</g>
<!-- node6 -->
<g id="node13" class="node">
<title>node6</title>
<path fill="#ffb2d0" stroke="black" d="M719,-110.23C719,-110.23 763,-110.23 763,-110.23 769,-110.23 775,-116.23 775,-122.23 775,-122.23 775,-190.23 775,-190.23 775,-196.23 769,-202.23 763,-202.23 763,-202.23 719,-202.23 719,-202.23 713,-202.23 707,-196.23 707,-190.23 707,-190.23 707,-122.23 707,-122.23 707,-116.23 713,-110.23 719,-110.23"/>
<text text-anchor="middle" x="741" y="-187.03" font-family="Times,serif" font-size="14.00">Node 6</text>
<polyline fill="none" stroke="black" points="707,-179.23 775,-179.23 "/>
<text text-anchor="middle" x="741" y="-164.03" font-family="Times,serif" font-size="14.00">Val. 5</text>
<polyline fill="none" stroke="black" points="707,-156.23 775,-156.23 "/>
<text text-anchor="middle" x="741" y="-141.03" font-family="Times,serif" font-size="14.00">Next 7</text>
<polyline fill="none" stroke="black" points="707,-133.23 775,-133.23 "/>
<text text-anchor="middle" x="741" y="-118.03" font-family="Times,serif" font-size="14.00">Prev. 5</text>
</g>
<!-- node5&#45;&gt;node6 -->
<!-- node5&#45;&gt;node6 -->
<g id="edge28" class="edge">
<title>node5:n&#45;&gt;node6</title>
<path fill="none" stroke="black" d="M671,-144.23C679.38,-144.23 688.26,-145.1 696.75,-146.37"/>
<polygon fill="black" stroke="black" points="696.42,-149.86 706.86,-148.09 697.59,-142.96 696.42,-149.86"/>
</g>
<!-- node6&#45;&gt;node5 -->
<g id="edge31" class="edge">
<title>node6:p&#45;&gt;node5</title>
<path fill="none" stroke="black" d="M707,-121.23C697.92,-121.23 688.83,-123.66 680.36,-127.25"/>
<polygon fill="black" stroke="black" points="678.59,-124.23 671.1,-131.73 681.63,-130.53 678.59,-124.23"/>
</g>
<!-- node7 -->
<g id="node14" class="node">
<title>node7</title>
<path fill="#ffb2d0" stroke="black" d="M823,-110.23C823,-110.23 867,-110.23 867,-110.23 873,-110.23 879,-116.23 879,-122.23 879,-122.23 879,-190.23 879,-190.23 879,-196.23 873,-202.23 867,-202.23 867,-202.23 823,-202.23 823,-202.23 817,-202.23 811,-196.23 811,-190.23 811,-190.23 811,-122.23 811,-122.23 811,-116.23 817,-110.23 823,-110.23"/>
<text text-anchor="middle" x="845" y="-187.03" font-family="Times,serif" font-size="14.00">Node 7</text>
<polyline fill="none" stroke="black" points="811,-179.23 879,-179.23 "/>
<text text-anchor="middle" x="845" y="-164.03" font-family="Times,serif" font-size="14.00">Val. 6</text>
<polyline fill="none" stroke="black" points="811,-156.23 879,-156.23 "/>
<text text-anchor="middle" x="845" y="-141.03" font-family="Times,serif" font-size="14.00">Next 8</text>
<polyline fill="none" stroke="black" points="811,-133.23 879,-133.23 "/>
<text text-anchor="middle" x="845" y="-118.03" font-family="Times,serif" font-size="14.00">Prev. 6</text>
</g>
<!-- node6&#45;&gt;node7 -->
<!-- node6&#45;&gt;node7 -->
<g id="edge30" class="edge">
<title>node6:n&#45;&gt;node7</title>
<path fill="none" stroke="black" d="M775,-144.23C783.38,-144.23 792.26,-145.1 800.75,-146.37"/>
<polygon fill="black" stroke="black" points="800.42,-149.86 810.86,-148.09 801.59,-142.96 800.42,-149.86"/>
</g>
<!-- node7&#45;&gt;node6 -->
<g id="edge33" class="edge">
<title>node7:p&#45;&gt;node6</title>
<path fill="none" stroke="black" d="M811,-121.23C801.92,-121.23 792.83,-123.66 784.36,-127.25"/>
<polygon fill="black" stroke="black" points="782.59,-124.23 775.1,-131.73 785.63,-130.53 782.59,-124.23"/>
</g>
<!-- node8 -->
<g id="node15" class="node">
<title>node8</title>
<path fill="#ffb2d0" stroke="black" d="M927,-110.23C927,-110.23 971,-110.23 971,-110.23 977,-110.23 983,-116.23 983,-122.23 983,-122.23 983,-190.23 983,-190.23 983,-196.23 977,-202.23 971,-202.23 971,-202.23 927,-202.23 927,-202.23 921,-202.23 915,-196.23 915,-190.23 915,-190.23 915,-122.23 915,-122.23 915,-116.23 921,-110.23 927,-110.23"/>
<text text-anchor="middle" x="949" y="-187.03" font-family="Times,serif" font-size="14.00">Node 8</text>
<polyline fill="none" stroke="black" points="915,-179.23 983,-179.23 "/>
<text text-anchor="middle" x="949" y="-164.03" font-family="Times,serif" font-size="14.00">Val. 7</text>
<polyline fill="none" stroke="black" points="915,-156.23 983,-156.23 "/>
<text text-anchor="middle" x="949" y="-141.03" font-family="Times,serif" font-size="14.00">Next 9</text>
<polyline fill="none" stroke="black" points="915,-133.23 983,-133.23 "/>
<text text-anchor="middle" x="949" y="-118.03" font-family="Times,serif" font-size="14.00">Prev. 7</text>
</g>
<!-- node7&#45;&gt;node8 -->
<!-- node7&#45;&gt;node8 -->
<g id="edge32" class="edge">
<title>node7:n&#45;&gt;node8</title>
<path fill="none" stroke="black" d="M879,-144.23C887.38,-144.23 896.26,-145.1 904.75,-146.37"/>
<polygon fill="black" stroke="black" points="904.42,-149.86 914.86,-148.09 905.59,-142.96 904.42,-149.86"/>
</g>
<!-- node8&#45;&gt;node7 -->
<g id="edge35" class="edge">
<title>node8:p&#45;&gt;node7</title>
<path fill="none" stroke="black" d="M915,-121.23C905.92,-121.23 896.83,-123.66 888.36,-127.25"/>
<polygon fill="black" stroke="black" points="886.59,-124.23 879.1,-131.73 889.63,-130.53 886.59,-124.23"/>
</g>
<!-- node9 -->
<g id="node16" class="node">
<title>node9</title>
<path fill="#ffb2d0" stroke="black" d="M1031,-110.23C1031,-110.23 1081,-110.23 1081,-110.23 1087,-110.23 1093,-116.23 1093,-122.23 1093,-122.23 1093,-190.23 1093,-190.23 1093,-196.23 1087,-202.23 1081,-202.23 1081,-202.23 1031,-202.23 1031,-202.23 1025,-202.23 1019,-196.23 1019,-190.23 1019,-190.23 1019,-122.23 1019,-122.23 1019,-116.23 1025,-110.23 1031,-110.23"/>
<text text-anchor="middle" x="1056" y="-187.03" font-family="Times,serif" font-size="14.00">Node 9</text>
<polyline fill="none" stroke="black" points="1019,-179.23 1093,-179.23 "/>
<text text-anchor="middle" x="1056" y="-164.03" font-family="Times,serif" font-size="14.00">Val. 8</text>
<polyline fill="none" stroke="black" points="1019,-156.23 1093,-156.23 "/>
<text text-anchor="middle" x="1056" y="-141.03" font-family="Times,serif" font-size="14.00">Next 10</text>
<polyline fill="none" stroke="black" points="1019,-133.23 1093,-133.23 "/>
<text text-anchor="middle" x="1056" y="-118.03" font-family="Times,serif" font-size="14.00">Prev. 8</text>
</g>
<!-- node8&#45;&gt;node9 -->
<!-- node8&#45;&gt;node9 -->
<g id="edge34" class="edge">
<title>node8:n&#45;&gt;node9</title>
<path fill="none" stroke="black" d="M983,-144.23C991.47,-144.23 1000.43,-145.04 1009.04,-146.25"/>
<polygon fill="black" stroke="black" points="1008.51,-149.71 1018.94,-147.83 1009.61,-142.8 1008.51,-149.71"/>
</g>
<!-- node9&#45;&gt;node8 -->
<g id="edge37" class="edge">
<title>node9:p&#45;&gt;node8</title>
<path fill="none" stroke="black" d="M1019,-121.23C1009.92,-121.23 1000.83,-123.66 992.36,-127.25"/>
<polygon fill="black" stroke="black" points="990.59,-124.23 983.1,-131.73 993.63,-130.53 990.59,-124.23"/>
</g>
<!-- node10 -->
<g id="node17" class="node">
<title>node10</title>
<path fill="#ffb2d0" stroke="black" d="M1141,-110.23C1141,-110.23 1194,-110.23 1194,-110.23 1200,-110.23 1206,-116.23 1206,-122.23 1206,-122.23 1206,-190.23 1206,-190.23 1206,-196.23 1200,-202.23 1194,-202.23 1194,-202.23 1141,-202.23 1141,-202.23 1135,-202.23 1129,-196.23 1129,-190.23 1129,-190.23 1129,-122.23 1129,-122.23 1129,-116.23 1135,-110.23 1141,-110.23"/>
<text text-anchor="middle" x="1167.5" y="-187.03" font-family="Times,serif" font-size="14.00">Node 10</text>
<polyline fill="none" stroke="black" points="1129,-179.23 1206,-179.23 "/>
<text text-anchor="middle" x="1167.5" y="-164.03" font-family="Times,serif" font-size="14.00">Val. 9</text>
<polyline fill="none" stroke="black" points="1129,-156.23 1206,-156.23 "/>
<text text-anchor="middle" x="1167.5" y="-141.03" font-family="Times,serif" font-size="14.00">Next 11</text>
<polyline fill="none" stroke="black" points="1129,-133.23 1206,-133.23 "/>
<text text-anchor="middle" x="1167.5" y="-118.03" font-family="Times,serif" font-size="14.00">Prev. 9</text>
</g>
<!-- node9&#45;&gt;node10 -->
<!-- node9&#45;&gt;node10 -->
<g id="edge36" class="edge">
<title>node9:n&#45;&gt;node10</title>
<path fill="none" stroke="black" d="M1093,-144.23C1101.46,-144.23 1110.39,-145.01 1119,-146.18"/>
<polygon fill="black" stroke="black" points="1118.51,-149.64 1128.92,-147.7 1119.57,-142.72 1118.51,-149.64"/>
</g>
<!-- node10&#45;&gt;node9 -->
<g id="edge39" class="edge">
<title>node10:p&#45;&gt;node9</title>
<path fill="none" stroke="black" d="M1129,-121.23C1120.01,-121.23 1110.97,-123.46 1102.48,-126.8"/>
<polygon fill="black" stroke="black" points="1100.85,-123.69 1093.15,-130.98 1103.71,-130.08 1100.85,-123.69"/>
</g>
<!-- node11 -->
<g id="node18" class="node">
<title>node11</title>
<path fill="#ffb2d0" stroke="black" d="M1254,-110.23C1254,-110.23 1307,-110.23 1307,-110.23 1313,-110.23 1319,-116.23 1319,-122.23 1319,-122.23 1319,-190.23 1319,-190.23 1319,-196.23 1313,-202.23 1307,-202.23 1307,-202.23 1254,-202.23 1254,-202.23 1248,-202.23 1242,-196.23 1242,-190.23 1242,-190.23 1242,-122.23 1242,-122.23 1242,-116.23 1248,-110.23 1254,-110.23"/>
<text text-anchor="middle" x="1280.5" y="-187.03" font-family="Times,serif" font-size="14.00">Node 11</text>
<polyline fill="none" stroke="black" points="1242,-179.23 1319,-179.23 "/>
<text text-anchor="middle" x="1280.5" y="-164.03" font-family="Times,serif" font-size="14.00">Val. 10</text>
<polyline fill="none" stroke="black" points="1242,-156.23 1319,-156.23 "/>
<text text-anchor="middle" x="1280.5" y="-141.03" font-family="Times,serif" font-size="14.00">Next 12</text>
<polyline fill="none" stroke="black" points="1242,-133.23 1319,-133.23 "/>
<text text-anchor="middle" x="1280.5" y="-118.03" font-family="Times,serif" font-size="14.00">Prev. 10</text>
</g>
<!-- node10&#45;&gt;node11 -->
<!-- node10&#45;&gt;node11 -->
<g id="edge38" class="edge">
<title>node10:n&#45;&gt;node11</title>
<path fill="none" stroke="black" d="M1206,-144.23C1214.46,-144.23 1223.39,-145.01 1232,-146.18"/>
<polygon fill="black" stroke="black" points="1231.51,-149.64 1241.92,-147.7 1232.57,-142.72 1231.51,-149.64"/>
</g>
<!-- node11&#45;&gt;node10 -->
<g id="edge41" class="edge">
<title>node11:p&#45;&gt;node10</title>
<path fill="none" stroke="black" d="M1242,-121.23C1233.07,-121.23 1224.06,-123.36 1215.57,-126.57"/>
<polygon fill="black" stroke="black" points="1214.02,-123.43 1206.23,-130.61 1216.8,-129.86 1214.02,-123.43"/>
</g>
<!-- node12 -->
<g id="node19" class="node">
<title>node12</title>
<path fill="#ffb2d0" stroke="black" d="M1367,-110.23C1367,-110.23 1420,-110.23 1420,-110.23 1426,-110.23 1432,-116.23 1432,-122.23 1432,-122.23 1432,-190.23 1432,-190.23 1432,-196.23 1426,-202.23 1420,-202.23 1420,-202.23 1367,-202.23 1367,-202.23 1361,-202.23 1355,-196.23 1355,-190.23 1355,-190.23 1355,-122.23 1355,-122.23 1355,-116.23 1361,-110.23 1367,-110.23"/>
<text text-anchor="middle" x="1393.5" y="-187.03" font-family="Times,serif" font-size="14.00">Node 12</text>
<polyline fill="none" stroke="black" points="1355,-179.23 1432,-179.23 "/>
<text text-anchor="middle" x="1393.5" y="-164.03" font-family="Times,serif" font-size="14.00">Val. 11</text>
<polyline fill="none" stroke="black" points="1355,-156.23 1432,-156.23 "/>
<text text-anchor="middle" x="1393.5" y="-141.03" font-family="Times,serif" font-size="14.00">Next 13</text>
<polyline fill="none" stroke="black" points="1355,-133.23 1432,-133.23 "/>
<text text-anchor="middle" x="1393.5" y="-118.03" font-family="Times,serif" font-size="14.00">Prev. 11</text>
</g>
<!-- node11&#45;&gt;node12 -->
<!-- node11&#45;&gt;node12 -->
<g id="edge40" class="edge">
<title>node11:n&#45;&gt;node12</title>
<path fill="none" stroke="black" d="M1319,-144.23C1327.46,-144.23 1336.39,-145.01 1345,-146.18"/>
<polygon fill="black" stroke="black" points="1344.51,-149.64 1354.92,-147.7 1345.57,-142.72 1344.51,-149.64"/>
</g>
<!-- node12&#45;&gt;node11 -->
<g id="edge43" class="edge">
<title>node12:p&#45;&gt;node11</title>
<path fill="none" stroke="black" d="M1355,-121.23C1346.07,-121.23 1337.06,-123.36 1328.57,-126.57"/>
<polygon fill="black" stroke="black" points="1327.02,-123.43 1319.23,-130.61 1329.8,-129.86 1327.02,-123.43"/>
</g>
<!-- node13 -->
<g id="node20" class="node">
<title>node13</title>
<path fill="#ffb2d0" stroke="black" d="M1480,-110.23C1480,-110.23 1533,-110.23 1533,-110.23 1539,-110.23 1545,-116.23 1545,-122.23 1545,-122.23 1545,-190.23 1545,-190.23 1545,-196.23 1539,-202.23 1533,-202.23 1533,-202.23 1480,-202.23 1480,-202.23 1474,-202.23 1468,-196.23 1468,-190.23 1468,-190.23 1468,-122.23 1468,-122.23 1468,-116.23 1474,-110.23 1480,-110.23"/>
<text text-anchor="middle" x="1506.5" y="-187.03" font-family="Times,serif" font-size="14.00">Node 13</text>
<polyline fill="none" stroke="black" points="1468,-179.23 1545,-179.23 "/>
<text text-anchor="middle" x="1506.5" y="-164.03" font-family="Times,serif" font-size="14.00">Val. 12</text>
<polyline fill="none" stroke="black" points="1468,-156.23 1545,-156.23 "/>
<text text-anchor="middle" x="1506.5" y="-141.03" font-family="Times,serif" font-size="14.00">Next 14</text>
<polyline fill="none" stroke="black" points="1468,-133.23 1545,-133.23 "/>
<text text-anchor="middle" x="1506.5" y="-118.03" font-family="Times,serif" font-size="14.00">Prev. 12</text>
</g>
<!-- node12&#45;&gt;node13 -->
<!-- node12&#45;&gt;node13 -->
<g id="edge42" class="edge">
<title>node12:n&#45;&gt;node13</title>
<path fill="none" stroke="black" d="M1432,-144.23C1440.46,-144.23 1449.39,-145.01 1458,-146.18"/>
<polygon fill="black" stroke="black" points="1457.51,-149.64 1467.92,-147.7 1458.57,-142.72 1457.51,-149.64"/>
</g>
<!-- node13&#45;&gt;node12 -->
<g id="edge45" class="edge">
<title>node13:p&#45;&gt;node12</title>
<path fill="none" stroke="black" d="M1468,-121.23C1459.07,-121.23 1450.06,-123.36 1441.57,-126.57"/>
<polygon fill="black" stroke="black" points="1440.02,-123.43 1432.23,-130.61 1442.8,-129.86 1440.02,-123.43"/>
</g>
<!-- node14 -->
<g id="node21" class="node">
<title>node14</title>
<path fill="#ffb2d0" stroke="black" d="M1593,-110.23C1593,-110.23 1646,-110.23 1646,-110.23 1652,-110.23 1658,-116.23 1658,-122.23 1658,-122.23 1658,-190.23 1658,-190.23 1658,-196.23 1652,-202.23 1646,-202.23 1646,-202.23 1593,-202.23 1593,-202.23 1587,-202.23 1581,-196.23 1581,-190.23 1581,-190.23 1581,-122.23 1581,-122.23 1581,-116.23 1587,-110.23 1593,-110.23"/>
<text text-anchor="middle" x="1619.5" y="-187.03" font-family="Times,serif" font-size="14.00">Node 14</text>
<polyline fill="none" stroke="black" points="1581,-179.23 1658,-179.23 "/>
<text text-anchor="middle" x="1619.5" y="-164.03" font-family="Times,serif" font-size="14.00">Val. 13</text>
<polyline fill="none" stroke="black" points="1581,-156.23 1658,-156.23 "/>
<text text-anchor="middle" x="1619.5" y="-141.03" font-family="Times,serif" font-size="14.00">Next 15</text>
<polyline fill="none" stroke="black" points="1581,-133.23 1658,-133.23 "/>
<text text-anchor="middle" x="1619.5" y="-118.03" font-family="Times,serif" font-size="14.00">Prev. 13</text>
</g>
<!-- node13&#45;&gt;node14 -->
<!-- node13&#45;&gt;node14 -->
<g id="edge44" class="edge">
<title>node13:n&#45;&gt;node14</title>
<path fill="none" stroke="black" d="M1545,-144.23C1553.46,-144.23 1562.39,-145.01 1571,-146.18"/>
<polygon fill="black" stroke="black" points="1570.51,-149.64 1580.92,-147.7 1571.57,-142.72 1570.51,-149.64"/>
</g>
<!-- node14&#45;&gt;node13 -->
<g id="edge47" class="edge">
<title>node14:p&#45;&gt;node13</title>
<path fill="none" stroke="black" d="M1581,-121.23C1572.07,-121.23 1563.06,-123.36 1554.57,-126.57"/>
<polygon fill="black" stroke="black" points="1553.02,-123.43 1545.23,-130.61 1555.8,-129.86 1553.02,-123.43"/>
</g>
<!-- node15 -->
<g id="node22" class="node">
<title>node15</title>
<path fill="#ffb2d0" stroke="black" d="M1706,-110.23C1706,-110.23 1759,-110.23 1759,-110.23 1765,-110.23 1771,-116.23 1771,-122.23 1771,-122.23 1771,-190.23 1771,-190.23 1771,-196.23 1765,-202.23 1759,-202.23 1759,-202.23 1706,-202.23 1706,-202.23 1700,-202.23 1694,-196.23 1694,-190.23 1694,-190.23 1694,-122.23 1694,-122.23 1694,-116.23 1700,-110.23 1706,-110.23"/>
<text text-anchor="middle" x="1732.5" y="-187.03" font-family="Times,serif" font-size="14.00">Node 15</text>
<polyline fill="none" stroke="black" points="1694,-179.23 1771,-179.23 "/>
<text text-anchor="middle" x="1732.5" y="-164.03" font-family="Times,serif" font-size="14.00">Val. 14</text>
<polyline fill="none" stroke="black" points="1694,-156.23 1771,-156.23 "/>
<text text-anchor="middle" x="1732.5" y="-141.03" font-family="Times,serif" font-size="14.00">Next 16</text>
<polyline fill="none" stroke="black" points="1694,-133.23 1771,-133.23 "/>
<text text-anchor="middle" x="1732.5" y="-118.03" font-family="Times,serif" font-size="14.00">Prev. 14</text>
</g>
<!-- node14&#45;&gt;node15 -->
<!-- node14&#45;&gt;node15 -->
<g id="edge46" class="edge">
<title>node14:n&#45;&gt;node15</title>
<path fill="none" stroke="black" d="M1658,-144.23C1666.46,-144.23 1675.39,-145.01 1684,-146.18"/>
<polygon fill="black" stroke="black" points="1683.51,-149.64 1693.92,-147.7 1684.57,-142.72 1683.51,-149.64"/>
</g>
<!-- node15&#45;&gt;node14 -->
<g id="edge49" class="edge">
<title>node15:p&#45;&gt;node14</title>
<path fill="none" stroke="black" d="M1694,-121.23C1685.07,-121.23 1676.06,-123.36 1667.57,-126.57"/>
<polygon fill="black" stroke="black" points="1666.02,-123.43 1658.23,-130.61 1668.8,-129.86 1666.02,-123.43"/>
</g>
<!-- node15&#45;&gt;node16 -->
<!-- node15&#45;&gt;node16 -->
<g id="edge48" class="edge">
<title>node15:n&#45;&gt;node16</title>
<path fill="none" stroke="black" d="M1771,-144.23C1779.46,-144.23 1788.39,-145.01 1797,-146.18"/>
<polygon fill="black" stroke="black" points="1796.51,-149.64 1806.92,-147.7 1797.57,-142.72 1796.51,-149.64"/>
</g>
<!-- node16&#45;&gt;node15 -->
<g id="edge50" class="edge">
<title>node16:p&#45;&gt;node15</title>
<path fill="none" stroke="black" d="M1807,-121.23C1798.07,-121.23 1789.06,-123.36 1780.57,-126.57"/>
<polygon fill="black" stroke="black" points="1779.02,-123.43 1771.23,-130.61 1781.8,-129.86 1779.02,-123.43"/>
</g>
<!-- node16&#45;&gt;node17 -->
<!-- node18 -->
<g id="node25" class="node">
<title>node18</title>
<path fill="#ffb2d0" stroke="black" d="M2096,-110.23C2096,-110.23 2149,-110.23 2149,-110.23 2155,-110.23 2161,-116.23 2161,-122.23 2161,-122.23 2161,-190.23 2161,-190.23 2161,-196.23 2155,-202.23 2149,-202.23 2149,-202.23 2096,-202.23 2096,-202.23 2090,-202.23 2084,-196.23 2084,-190.23 2084,-190.23 2084,-122.23 2084,-122.23 2084,-116.23 2090,-110.23 2096,-110.23"/>
<text text-anchor="middle" x="2122.5" y="-187.03" font-family="Times,serif" font-size="14.00">Node 18</text>
<polyline fill="none" stroke="black" points="2084,-179.23 2161,-179.23 "/>
<text text-anchor="middle" x="2122.5" y="-164.03" font-family="Times,serif" font-size="14.00">Val. 666</text>
<polyline fill="none" stroke="black" points="2084,-156.23 2161,-156.23 "/>
<text text-anchor="middle" x="2122.5" y="-141.03" font-family="Times,serif" font-size="14.00">Next 19</text>
<polyline fill="none" stroke="black" points="2084,-133.23 2161,-133.23 "/>
<text text-anchor="middle" x="2122.5" y="-118.03" font-family="Times,serif" font-size="14.00">Prev. 17</text>
</g>
<!-- node17&#45;&gt;node18 -->
<!-- node17&#45;&gt;node18 -->
<g id="edge51" class="edge">
<title>node17:n&#45;&gt;node18</title>
<path fill="none" stroke="black" d="M2048,-144.23C2056.46,-144.23 2065.39,-145.01 2074,-146.18"/>
<polygon fill="black" stroke="black" points="2073.51,-149.64 2083.92,-147.7 2074.57,-142.72 2073.51,-149.64"/>
</g>
<!-- node18&#45;&gt;node17 -->
<g id="edge53" class="edge">
<title>node18:p&#45;&gt;node17</title>
<path fill="none" stroke="black" d="M2084,-121.23C2075.32,-121.23 2066.45,-122.44 2057.76,-124.4"/>
<polygon fill="black" stroke="black" points="2056.84,-121.03 2048.04,-126.93 2058.6,-127.8 2056.84,-121.03"/>
</g>
<!-- node19 -->
<g id="node26" class="node">
<title>node19</title>
<path fill="#ffb2d0" stroke="black" d="M2209,-110.23C2209,-110.23 2262,-110.23 2262,-110.23 2268,-110.23 2274,-116.23 2274,-122.23 2274,-122.23 2274,-190.23 2274,-190.23 2274,-196.23 2268,-202.23 2262,-202.23 2262,-202.23 2209,-202.23 2209,-202.23 2203,-202.23 2197,-196.23 2197,-190.23 2197,-190.23 2197,-122.23 2197,-122.23 2197,-116.23 2203,-110.23 2209,-110.23"/>
<text text-anchor="middle" x="2235.5" y="-187.03" font-family="Times,serif" font-size="14.00">Node 19</text>
<polyline fill="none" stroke="black" points="2197,-179.23 2274,-179.23 "/>
<text text-anchor="middle" x="2235.5" y="-164.03" font-family="Times,serif" font-size="14.00">Val. 0</text>
<polyline fill="none" stroke="black" points="2197,-156.23 2274,-156.23 "/>
<text text-anchor="middle" x="2235.5" y="-141.03" font-family="Times,serif" font-size="14.00">Next 20</text>
<polyline fill="none" stroke="black" points="2197,-133.23 2274,-133.23 "/>
<text text-anchor="middle" x="2235.5" y="-118.03" font-family="Times,serif" font-size="14.00">Prev. 18</text>
</g>
<!-- node18&#45;&gt;node19 -->
<!-- node18&#45;&gt;node19 -->
<g id="edge52" class="edge">
<title>node18:n&#45;&gt;node19</title>
<path fill="none" stroke="black" d="M2161,-144.23C2169.46,-144.23 2178.39,-145.01 2187,-146.18"/>
<polygon fill="black" stroke="black" points="2186.51,-149.64 2196.92,-147.7 2187.57,-142.72 2186.51,-149.64"/>
</g>
<!-- node19&#45;&gt;node18 -->
<g id="edge55" class="edge">
<title>node19:p&#45;&gt;node18</title>
<path fill="none" stroke="black" d="M2197,-121.23C2188.07,-121.23 2179.06,-123.36 2170.57,-126.57"/>
<polygon fill="black" stroke="black" points="2169.02,-123.43 2161.23,-130.61 2171.8,-129.86 2169.02,-123.43"/>
</g>
<!-- node20 -->
<g id="node27" class="node">
<title>node20</title>
<path fill="#ffb2d0" stroke="black" d="M2322,-110.23C2322,-110.23 2375,-110.23 2375,-110.23 2381,-110.23 2387,-116.23 2387,-122.23 2387,-122.23 2387,-190.23 2387,-190.23 2387,-196.23 2381,-202.23 2375,-202.23 2375,-202.23 2322,-202.23 2322,-202.23 2316,-202.23 2310,-196.23 2310,-190.23 2310,-190.23 2310,-122.23 2310,-122.23 2310,-116.23 2316,-110.23 2322,-110.23"/>
<text text-anchor="middle" x="2348.5" y="-187.03" font-family="Times,serif" font-size="14.00">Node 20</text>
<polyline fill="none" stroke="black" points="2310,-179.23 2387,-179.23 "/>
<text text-anchor="middle" x="2348.5" y="-164.03" font-family="Times,serif" font-size="14.00">Val. 1</text>
<polyline fill="none" stroke="black" points="2310,-156.23 2387,-156.23 "/>
<text text-anchor="middle" x="2348.5" y="-141.03" font-family="Times,serif" font-size="14.00">Next 21</text>
<polyline fill="none" stroke="black" points="2310,-133.23 2387,-133.23 "/>
<text text-anchor="middle" x="2348.5" y="-118.03" font-family="Times,serif" font-size="14.00">Prev. 19</text>
</g>
<!-- node19&#45;&gt;node20 -->
<!-- node19&#45;&gt;node20 -->
<g id="edge54" class="edge">
<title>node19:n&#45;&gt;node20</title>
<path fill="none" stroke="black" d="M2274,-144.23C2282.46,-144.23 2291.39,-145.01 2300,-146.18"/>
<polygon fill="black" stroke="black" points="2299.51,-149.64 2309.92,-147.7 2300.57,-142.72 2299.51,-149.64"/>
</g>
<!-- node20&#45;&gt;node19 -->
<g id="edge57" class="edge">
<title>node20:p&#45;&gt;node19</title>
<path fill="none" stroke="black" d="M2310,-121.23C2301.07,-121.23 2292.06,-123.36 2283.57,-126.57"/>
<polygon fill="black" stroke="black" points="2282.02,-123.43 2274.23,-130.61 2284.8,-129.86 2282.02,-123.43"/>
</g>
<!-- node21 -->
<g id="node28" class="node">
<title>node21</title>
<path fill="black" stroke="black" d="M50,-330.23C50,-330.23 95,-330.23 95,-330.23 101,-330.23 107,-336.23 107,-342.23 107,-342.23 107,-354.23 107,-354.23 107,-360.23 101,-366.23 95,-366.23 95,-366.23 50,-366.23 50,-366.23 44,-366.23 38,-360.23 38,-354.23 38,-354.23 38,-342.23 38,-342.23 38,-336.23 44,-330.23 50,-330.23"/>
<text text-anchor="middle" x="72.5" y="-344.53" font-family="Times,serif" font-size="14.00">node21</text>
</g>
<!-- node20&#45;&gt;node21 -->
<g id="edge56" class="edge">
<title>node20:n&#45;&gt;node21</title>
<path fill="none" stroke="black" d="M2310,-144.23C2284.73,-144.23 2296.11,-112.46 2274,-100.23 2215.01,-67.59 2190.92,-81.23 2123.5,-81.23 324,-81.23 324,-81.23 324,-81.23 259.89,-81.23 227.01,-55.58 181,-100.23 109.89,-169.22 207.29,-243.18 145,-320.23 137.81,-329.12 127.42,-335.19 116.77,-339.34"/>
<polygon fill="black" stroke="black" points="115.36,-336.12 107.01,-342.64 117.6,-342.75 115.36,-336.12"/>
</g>
</g>
</svg>
