<?xml version="1.0" encoding="UTF-8" standalone="no"?>
<!DOCTYPE svg PUBLIC "-//W3C//DTD SVG 1.1//EN"
 "http://www.w3.org/Graphics/SVG/1.1/DTD/svg11.dtd">
<!-- Generated by graphviz version 2.43.0 (0)
 -->
<!-- Title: G Pages: 1 -->
<svg width="1724pt" height="448pt"
 viewBox="0.00 0.00 1724.00 447.55" xmlns="http://www.w3.org/2000/svg" xmlns:xlink="http://www.w3.org/1999/xlink">
<g id="graph0" class="graph" transform="scale(1 1) rotate(0) translate(4 443.55)">
<title>G</title>
<polygon fill="white" stroke="transparent" points="-4,4 -4,-443.55 1720,-443.55 1720,4 -4,4"/>
<!-- head -->
<g id="node1" class="node">
<title>head</title>
<path fill="#fffeb6" stroke="black" d="M101,-277.55C101,-277.55 35,-277.55 35,-277.55 29,-277.55 23,-271.55 23,-265.55 23,-265.55 23,-253.55 23,-253.55 23,-247.55 29,-241.55 35,-241.55 35,-241.55 101,-241.55 101,-241.55 107,-241.55 113,-247.55 113,-253.55 113,-253.55 113,-265.55 113,-265.55 113,-271.55 107,-277.55 101,-277.55"/>
<text text-anchor="middle" x="68" y="-255.85" font-family="Times,serif" font-size="14.00">HEAD = 1</text>
</g>
<!-- node1 -->
<g id="node8" class="node">
<title>node1</title>
<path fill="#faa76c" stroke="black" d="M184,-22.55C184,-22.55 228,-22.55 228,-22.55 234,-22.55 240,-28.55 240,-34.55 240,-34.55 240,-102.55 240,-102.55 240,-108.55 234,-114.55 228,-114.55 228,-114.55 184,-114.55 184,-114.55 178,-114.55 172,-108.55 172,-102.55 172,-102.55 172,-34.55 172,-34.55 172,-28.55 178,-22.55 184,-22.55"/>
<text text-anchor="middle" x="206" y="-99.35" font-family="Times,serif" font-size="14.00">Node 1</text>
<polyline fill="none" stroke="black" points="172,-91.55 240,-91.55 "/>
<text text-anchor="middle" x="206" y="-76.35" font-family="Times,serif" font-size="14.00">Val. 0</text>
<polyline fill="none" stroke="black" points="172,-68.55 240,-68.55 "/>
<text text-anchor="middle" x="206" y="-53.35" font-family="Times,serif" font-size="14.00">Next 0</text>
<polyline fill="none" stroke="black" points="172,-45.55 240,-45.55 "/>
<text text-anchor="middle" x="206" y="-30.35" font-family="Times,serif" font-size="14.00">Prev. 0</text>
</g>
<!-- head&#45;&gt;node1 -->
<g id="edge19" class="edge">
<title>head&#45;&gt;node1</title>
<path fill="none" stroke="black" stroke-width="2" d="M113.11,-247.58C121.45,-243.79 129.57,-238.89 136,-232.55 165.54,-203.45 183.08,-159.77 193.07,-124.8"/>
<polygon fill="black" stroke="black" stroke-width="2" points="196.57,-125.3 195.82,-114.73 189.81,-123.46 196.57,-125.3"/>
</g>
<!-- tail -->
<g id="node2" class="node">
<title>tail</title>
<path fill="#fffeb6" stroke="black" d="M95.5,-169.55C95.5,-169.55 40.5,-169.55 40.5,-169.55 34.5,-169.55 28.5,-163.55 28.5,-157.55 28.5,-157.55 28.5,-145.55 28.5,-145.55 28.5,-139.55 34.5,-133.55 40.5,-133.55 40.5,-133.55 95.5,-133.55 95.5,-133.55 101.5,-133.55 107.5,-139.55 107.5,-145.55 107.5,-145.55 107.5,-157.55 107.5,-157.55 107.5,-163.55 101.5,-169.55 95.5,-169.55"/>
<text text-anchor="middle" x="68" y="-147.85" font-family="Times,serif" font-size="14.00">TAIL = 1</text>
</g>
<!-- tail&#45;&gt;node1 -->
<g id="edge20" class="edge">
<title>tail&#45;&gt;node1</title>
<path fill="none" stroke="black" stroke-width="2" d="M107.8,-137.48C117.28,-133.46 127.21,-128.75 136,-123.55 145.49,-117.93 155.09,-111.13 164,-104.25"/>
<polygon fill="black" stroke="black" stroke-width="2" points="166.3,-106.89 171.96,-97.94 161.95,-101.41 166.3,-106.89"/>
</g>
<!-- freeHead -->
<g id="node3" class="node">
<title>freeHead</title>
<path fill="#fffeb6" stroke="black" d="M124,-223.55C124,-223.55 12,-223.55 12,-223.55 6,-223.55 0,-217.55 0,-211.55 0,-211.55 0,-199.55 0,-199.55 0,-193.55 6,-187.55 12,-187.55 12,-187.55 124,-187.55 124,-187.55 130,-187.55 136,-193.55 136,-199.55 136,-199.55 136,-211.55 136,-211.55 136,-217.55 130,-223.55 124,-223.55"/>
<text text-anchor="middle" x="68" y="-201.85" font-family="Times,serif" font-size="14.00">FREE HEAD = 2</text>
</g>
<!-- node2 -->
<g id="node9" class="node">
<title>node2</title>
<path fill="#98ff98" stroke="black" d="M288,-22.55C288,-22.55 392,-22.55 392,-22.55 398,-22.55 404,-28.55 404,-34.55 404,-34.55 404,-102.55 404,-102.55 404,-108.55 398,-114.55 392,-114.55 392,-114.55 288,-114.55 288,-114.55 282,-114.55 276,-108.55 276,-102.55 276,-102.55 276,-34.55 276,-34.55 276,-28.55 282,-22.55 288,-22.55"/>
<text text-anchor="middle" x="340" y="-99.35" font-family="Times,serif" font-size="14.00">Node 2</text>
<polyline fill="none" stroke="black" points="276,-91.55 404,-91.55 "/>
<text text-anchor="middle" x="340" y="-76.35" font-family="Times,serif" font-size="14.00">Val. 0</text>
<polyline fill="none" stroke="black" points="276,-68.55 404,-68.55 "/>
<text text-anchor="middle" x="340" y="-53.35" font-family="Times,serif" font-size="14.00">Next 3</text>
<polyline fill="none" stroke="black" points="276,-45.55 404,-45.55 "/>
<text text-anchor="middle" x="340" y="-30.35" font-family="Times,serif" font-size="14.00">Prev. Free node</text>
</g>
<!-- freeHead&#45;&gt;node2 -->
<g id="edge21" class="edge">
<title>freeHead&#45;&gt;node2</title>
<path fill="none" stroke="black" stroke-width="2" d="M126.25,-187.42C129.86,-184.84 133.17,-181.9 136,-178.55 184.43,-121.2 113.54,-60.63 172,-13.55 199.71,8.76 236.8,-0.64 268.99,-17.5"/>
<polygon fill="black" stroke="black" stroke-width="2" points="267.48,-20.67 277.92,-22.44 270.86,-14.54 267.48,-20.67"/>
</g>
<!-- capacity -->
<g id="node4" class="node">
<title>capacity</title>
<path fill="#fffeb6" stroke="black" d="M120,-331.55C120,-331.55 16,-331.55 16,-331.55 10,-331.55 4,-325.55 4,-319.55 4,-319.55 4,-307.55 4,-307.55 4,-301.55 10,-295.55 16,-295.55 16,-295.55 120,-295.55 120,-295.55 126,-295.55 132,-301.55 132,-307.55 132,-307.55 132,-319.55 132,-319.55 132,-325.55 126,-331.55 120,-331.55"/>
<text text-anchor="middle" x="68" y="-309.85" font-family="Times,serif" font-size="14.00">CAPACITY = 10</text>
</g>
<!-- size -->
<g id="node5" class="node">
<title>size</title>
<path fill="#fffeb6" stroke="black" d="M97,-385.55C97,-385.55 39,-385.55 39,-385.55 33,-385.55 27,-379.55 27,-373.55 27,-373.55 27,-361.55 27,-361.55 27,-355.55 33,-349.55 39,-349.55 39,-349.55 97,-349.55 97,-349.55 103,-349.55 109,-355.55 109,-361.55 109,-361.55 109,-373.55 109,-373.55 109,-379.55 103,-385.55 97,-385.55"/>
<text text-anchor="middle" x="68" y="-363.85" font-family="Times,serif" font-size="14.00">SIZE = 1</text>
</g>
<!-- isSorted -->
<g id="node6" class="node">
<title>isSorted</title>
<path fill="#fffeb6" stroke="black" d="M120.5,-439.55C120.5,-439.55 15.5,-439.55 15.5,-439.55 9.5,-439.55 3.5,-433.55 3.5,-427.55 3.5,-427.55 3.5,-415.55 3.5,-415.55 3.5,-409.55 9.5,-403.55 15.5,-403.55 15.5,-403.55 120.5,-403.55 120.5,-403.55 126.5,-403.55 132.5,-409.55 132.5,-415.55 132.5,-415.55 132.5,-427.55 132.5,-427.55 132.5,-433.55 126.5,-439.55 120.5,-439.55"/>
<text text-anchor="middle" x="68" y="-417.85" font-family="Times,serif" font-size="14.00">SORTED = YES</text>
</g>
<!-- node0 -->
<g id="node7" class="node">
<title>node0</title>
<path fill="#c0c0c0" stroke="black" d="M46,-22.55C46,-22.55 90,-22.55 90,-22.55 96,-22.55 102,-28.55 102,-34.55 102,-34.55 102,-102.55 102,-102.55 102,-108.55 96,-114.55 90,-114.55 90,-114.55 46,-114.55 46,-114.55 40,-114.55 34,-108.55 34,-102.55 34,-102.55 34,-34.55 34,-34.55 34,-28.55 40,-22.55 46,-22.55"/>
<text text-anchor="middle" x="68" y="-99.35" font-family="Times,serif" font-size="14.00">Node 0</text>
<polyline fill="none" stroke="black" points="34,-91.55 102,-91.55 "/>
<text text-anchor="middle" x="68" y="-76.35" font-family="Times,serif" font-size="14.00">Val. 0</text>
<polyline fill="none" stroke="black" points="34,-68.55 102,-68.55 "/>
<text text-anchor="middle" x="68" y="-53.35" font-family="Times,serif" font-size="14.00">Next 1</text>
<polyline fill="none" stroke="black" points="34,-45.55 102,-45.55 "/>
<text text-anchor="middle" x="68" y="-30.35" font-family="Times,serif" font-size="14.00">Prev. 1</text>
</g>
<!-- node0&#45;&gt;node1 -->
<!-- node1&#45;&gt;node2 -->
<!-- node3 -->
<g id="node10" class="node">
<title>node3</title>
<path fill="#98ff98" stroke="black" d="M452,-22.55C452,-22.55 556,-22.55 556,-22.55 562,-22.55 568,-28.55 568,-34.55 568,-34.55 568,-102.55 568,-102.55 568,-108.55 562,-114.55 556,-114.55 556,-114.55 452,-114.55 452,-114.55 446,-114.55 440,-108.55 440,-102.55 440,-102.55 440,-34.55 440,-34.55 440,-28.55 446,-22.55 452,-22.55"/>
<text text-anchor="middle" x="504" y="-99.35" font-family="Times,serif" font-size="14.00">Node 3</text>
<polyline fill="none" stroke="black" points="440,-91.55 568,-91.55 "/>
<text text-anchor="middle" x="504" y="-76.35" font-family="Times,serif" font-size="14.00">Val. 0</text>
<polyline fill="none" stroke="black" points="440,-68.55 568,-68.55 "/>
<text text-anchor="middle" x="504" y="-53.35" font-family="Times,serif" font-size="14.00">Next 4</text>
<polyline fill="none" stroke="black" points="440,-45.55 568,-45.55 "/>
<text text-anchor="middle" x="504" y="-30.35" font-family="Times,serif" font-size="14.00">Prev. Free node</text>
</g>
<!-- node2&#45;&gt;node3 -->
<!-- node2&#45;&gt;node3 -->
<g id="edge11" class="edge">
<title>node2:n&#45;&gt;node3</title>
<path fill="none" stroke="black" d="M404,-56.55C412.34,-56.55 421.04,-56.97 429.68,-57.66"/>
<polygon fill="black" stroke="black" points="429.48,-61.16 439.76,-58.59 430.12,-54.19 429.48,-61.16"/>
</g>
<!-- node4 -->
<g id="node11" class="node">
<title>node4</title>
<path fill="#98ff98" stroke="black" d="M616,-22.55C616,-22.55 720,-22.55 720,-22.55 726,-22.55 732,-28.55 732,-34.55 732,-34.55 732,-102.55 732,-102.55 732,-108.55 726,-114.55 720,-114.55 720,-114.55 616,-114.55 616,-114.55 610,-114.55 604,-108.55 604,-102.55 604,-102.55 604,-34.55 604,-34.55 604,-28.55 610,-22.55 616,-22.55"/>
<text text-anchor="middle" x="668" y="-99.35" font-family="Times,serif" font-size="14.00">Node 4</text>
<polyline fill="none" stroke="black" points="604,-91.55 732,-91.55 "/>
<text text-anchor="middle" x="668" y="-76.35" font-family="Times,serif" font-size="14.00">Val. 0</text>
<polyline fill="none" stroke="black" points="604,-68.55 732,-68.55 "/>
<text text-anchor="middle" x="668" y="-53.35" font-family="Times,serif" font-size="14.00">Next 5</text>
<polyline fill="none" stroke="black" points="604,-45.55 732,-45.55 "/>
<text text-anchor="middle" x="668" y="-30.35" font-family="Times,serif" font-size="14.00">Prev. Free node</text>
</g>
<!-- node3&#45;&gt;node4 -->
<!-- node3&#45;&gt;node4 -->
<g id="edge12" class="edge">
<title>node3:n&#45;&gt;node4</title>
<path fill="none" stroke="black" d="M568,-56.55C576.34,-56.55 585.04,-56.97 593.68,-57.66"/>
<polygon fill="black" stroke="black" points="593.48,-61.16 603.76,-58.59 594.12,-54.19 593.48,-61.16"/>
</g>
<!-- node5 -->
<g id="node12" class="node">
<title>node5</title>
<path fill="#98ff98" stroke="black" d="M780,-22.55C780,-22.55 884,-22.55 884,-22.55 890,-22.55 896,-28.55 896,-34.55 896,-34.55 896,-102.55 896,-102.55 896,-108.55 890,-114.55 884,-114.55 884,-114.55 780,-114.55 780,-114.55 774,-114.55 768,-108.55 768,-102.55 768,-102.55 768,-34.55 768,-34.55 768,-28.55 774,-22.55 780,-22.55"/>
<text text-anchor="middle" x="832" y="-99.35" font-family="Times,serif" font-size="14.00">Node 5</text>
<polyline fill="none" stroke="black" points="768,-91.55 896,-91.55 "/>
<text text-anchor="middle" x="832" y="-76.35" font-family="Times,serif" font-size="14.00">Val. 0</text>
<polyline fill="none" stroke="black" points="768,-68.55 896,-68.55 "/>
<text text-anchor="middle" x="832" y="-53.35" font-family="Times,serif" font-size="14.00">Next 6</text>
<polyline fill="none" stroke="black" points="768,-45.55 896,-45.55 "/>
<text text-anchor="middle" x="832" y="-30.35" font-family="Times,serif" font-size="14.00">Prev. Free node</text>
</g>
<!-- node4&#45;&gt;node5 -->
<!-- node4&#45;&gt;node5 -->
<g id="edge13" class="edge">
<title>node4:n&#45;&gt;node5</title>
<path fill="none" stroke="black" d="M732,-56.55C740.34,-56.55 749.04,-56.97 757.68,-57.66"/>
<polygon fill="black" stroke="black" points="757.48,-61.16 767.76,-58.59 758.12,-54.19 757.48,-61.16"/>
</g>
<!-- node6 -->
<g id="node13" class="node">
<title>node6</title>
<path fill="#98ff98" stroke="black" d="M944,-22.55C944,-22.55 1048,-22.55 1048,-22.55 1054,-22.55 1060,-28.55 1060,-34.55 1060,-34.55 1060,-102.55 1060,-102.55 1060,-108.55 1054,-114.55 1048,-114.55 1048,-114.55 944,-114.55 944,-114.55 938,-114.55 932,-108.55 932,-102.55 932,-102.55 932,-34.55 932,-34.55 932,-28.55 938,-22.55 944,-22.55"/>
<text text-anchor="middle" x="996" y="-99.35" font-family="Times,serif" font-size="14.00">Node 6</text>
<polyline fill="none" stroke="black" points="932,-91.55 1060,-91.55 "/>
<text text-anchor="middle" x="996" y="-76.35" font-family="Times,serif" font-size="14.00">Val. 0</text>
<polyline fill="none" stroke="black" points="932,-68.55 1060,-68.55 "/>
<text text-anchor="middle" x="996" y="-53.35" font-family="Times,serif" font-size="14.00">Next 7</text>
<polyline fill="none" stroke="black" points="932,-45.55 1060,-45.55 "/>
<text text-anchor="middle" x="996" y="-30.35" font-family="Times,serif" font-size="14.00">Prev. Free node</text>
</g>
<!-- node5&#45;&gt;node6 -->
<!-- node5&#45;&gt;node6 -->
<g id="edge14" class="edge">
<title>node5:n&#45;&gt;node6</title>
<path fill="none" stroke="black" d="M896,-56.55C904.34,-56.55 913.04,-56.97 921.68,-57.66"/>
<polygon fill="black" stroke="black" points="921.48,-61.16 931.76,-58.59 922.12,-54.19 921.48,-61.16"/>
</g>
<!-- node7 -->
<g id="node14" class="node">
<title>node7</title>
<path fill="#98ff98" stroke="black" d="M1108,-22.55C1108,-22.55 1212,-22.55 1212,-22.55 1218,-22.55 1224,-28.55 1224,-34.55 1224,-34.55 1224,-102.55 1224,-102.55 1224,-108.55 1218,-114.55 1212,-114.55 1212,-114.55 1108,-114.55 1108,-114.55 1102,-114.55 1096,-108.55 1096,-102.55 1096,-102.55 1096,-34.55 1096,-34.55 1096,-28.55 1102,-22.55 1108,-22.55"/>
<text text-anchor="middle" x="1160" y="-99.35" font-family="Times,serif" font-size="14.00">Node 7</text>
<polyline fill="none" stroke="black" points="1096,-91.55 1224,-91.55 "/>
<text text-anchor="middle" x="1160" y="-76.35" font-family="Times,serif" font-size="14.00">Val. 0</text>
<polyline fill="none" stroke="black" points="1096,-68.55 1224,-68.55 "/>
<text text-anchor="middle" x="1160" y="-53.35" font-family="Times,serif" font-size="14.00">Next 8</text>
<polyline fill="none" stroke="black" points="1096,-45.55 1224,-45.55 "/>
<text text-anchor="middle" x="1160" y="-30.35" font-family="Times,serif" font-size="14.00">Prev. Free node</text>
</g>
<!-- node6&#45;&gt;node7 -->
<!-- node6&#45;&gt;node7 -->
<g id="edge15" class="edge">
<title>node6:n&#45;&gt;node7</title>
<path fill="none" stroke="black" d="M1060,-56.55C1068.34,-56.55 1077.04,-56.97 1085.68,-57.66"/>
<polygon fill="black" stroke="black" points="1085.48,-61.16 1095.76,-58.59 1086.12,-54.19 1085.48,-61.16"/>
</g>
<!-- node8 -->
<g id="node15" class="node">
<title>node8</title>
<path fill="#98ff98" stroke="black" d="M1272,-22.55C1272,-22.55 1376,-22.55 1376,-22.55 1382,-22.55 1388,-28.55 1388,-34.55 1388,-34.55 1388,-102.55 1388,-102.55 1388,-108.55 1382,-114.55 1376,-114.55 1376,-114.55 1272,-114.55 1272,-114.55 1266,-114.55 1260,-108.55 1260,-102.55 1260,-102.55 1260,-34.55 1260,-34.55 1260,-28.55 1266,-22.55 1272,-22.55"/>
<text text-anchor="middle" x="1324" y="-99.35" font-family="Times,serif" font-size="14.00">Node 8</text>
<polyline fill="none" stroke="black" points="1260,-91.55 1388,-91.55 "/>
<text text-anchor="middle" x="1324" y="-76.35" font-family="Times,serif" font-size="14.00">Val. 0</text>
<polyline fill="none" stroke="black" points="1260,-68.55 1388,-68.55 "/>
<text text-anchor="middle" x="1324" y="-53.35" font-family="Times,serif" font-size="14.00">Next 9</text>
<polyline fill="none" stroke="black" points="1260,-45.55 1388,-45.55 "/>
<text text-anchor="middle" x="1324" y="-30.35" font-family="Times,serif" font-size="14.00">Prev. Free node</text>
</g>
<!-- node7&#45;&gt;node8 -->
<!-- node7&#45;&gt;node8 -->
<g id="edge16" class="edge">
<title>node7:n&#45;&gt;node8</title>
<path fill="none" stroke="black" d="M1224,-56.55C1232.34,-56.55 1241.04,-56.97 1249.68,-57.66"/>
<polygon fill="black" stroke="black" points="1249.48,-61.16 1259.76,-58.59 1250.12,-54.19 1249.48,-61.16"/>
</g>
<!-- node9 -->
<g id="node16" class="node">
<title>node9</title>
<path fill="#98ff98" stroke="black" d="M1436,-22.55C1436,-22.55 1540,-22.55 1540,-22.55 1546,-22.55 1552,-28.55 1552,-34.55 1552,-34.55 1552,-102.55 1552,-102.55 1552,-108.55 1546,-114.55 1540,-114.55 1540,-114.55 1436,-114.55 1436,-114.55 1430,-114.55 1424,-108.55 1424,-102.55 1424,-102.55 1424,-34.55 1424,-34.55 1424,-28.55 1430,-22.55 1436,-22.55"/>
<text text-anchor="middle" x="1488" y="-99.35" font-family="Times,serif" font-size="14.00">Node 9</text>
<polyline fill="none" stroke="black" points="1424,-91.55 1552,-91.55 "/>
<text text-anchor="middle" x="1488" y="-76.35" font-family="Times,serif" font-size="14.00">Val. 0</text>
<polyline fill="none" stroke="black" points="1424,-68.55 1552,-68.55 "/>
<text text-anchor="middle" x="1488" y="-53.35" font-family="Times,serif" font-size="14.00">Next 10</text>
<polyline fill="none" stroke="black" points="1424,-45.55 1552,-45.55 "/>
<text text-anchor="middle" x="1488" y="-30.35" font-family="Times,serif" font-size="14.00">Prev. Free node</text>
</g>
<!-- node8&#45;&gt;node9 -->
<!-- node8&#45;&gt;node9 -->
<g id="edge17" class="edge">
<title>node8:n&#45;&gt;node9</title>
<path fill="none" stroke="black" d="M1388,-56.55C1396.34,-56.55 1405.04,-56.97 1413.68,-57.66"/>
<polygon fill="black" stroke="black" points="1413.48,-61.16 1423.76,-58.59 1414.12,-54.19 1413.48,-61.16"/>
</g>
<!-- node10 -->
<g id="node17" class="node">
<title>node10</title>
<path fill="#98ff98" stroke="black" d="M1600,-22.55C1600,-22.55 1704,-22.55 1704,-22.55 1710,-22.55 1716,-28.55 1716,-34.55 1716,-34.55 1716,-102.55 1716,-102.55 1716,-108.55 1710,-114.55 1704,-114.55 1704,-114.55 1600,-114.55 1600,-114.55 1594,-114.55 1588,-108.55 1588,-102.55 1588,-102.55 1588,-34.55 1588,-34.55 1588,-28.55 1594,-22.55 1600,-22.55"/>
<text text-anchor="middle" x="1652" y="-99.35" font-family="Times,serif" font-size="14.00">Node 10</text>
<polyline fill="none" stroke="black" points="1588,-91.55 1716,-91.55 "/>
<text text-anchor="middle" x="1652" y="-76.35" font-family="Times,serif" font-size="14.00">Val. 0</text>
<polyline fill="none" stroke="black" points="1588,-68.55 1716,-68.55 "/>
<text text-anchor="middle" x="1652" y="-53.35" font-family="Times,serif" font-size="14.00">Next 0</text>
<polyline fill="none" stroke="black" points="1588,-45.55 1716,-45.55 "/>
<text text-anchor="middle" x="1652" y="-30.35" font-family="Times,serif" font-size="14.00">Prev. Free node</text>
</g>
<!-- node9&#45;&gt;node10 -->
<!-- node9&#45;&gt;node10 -->
<g id="edge18" class="edge">
<title>node9:n&#45;&gt;node10</title>
<path fill="none" stroke="black" d="M1552,-56.55C1560.34,-56.55 1569.04,-56.97 1577.68,-57.66"/>
<polygon fill="black" stroke="black" points="1577.48,-61.16 1587.76,-58.59 1578.12,-54.19 1577.48,-61.16"/>
</g>
</g>
</svg>
