<?xml version="1.0" encoding="UTF-8" standalone="no"?>
<!DOCTYPE svg PUBLIC "-//W3C//DTD SVG 1.1//EN"
 "http://www.w3.org/Graphics/SVG/1.1/DTD/svg11.dtd">
<!-- Generated by graphviz version 2.43.0 (0)
 -->
<!-- Title: G Pages: 1 -->
<svg width="1604pt" height="478pt"
 viewBox="0.00 0.00 1604.00 477.60" xmlns="http://www.w3.org/2000/svg" xmlns:xlink="http://www.w3.org/1999/xlink">
<g id="graph0" class="graph" transform="scale(1 1) rotate(0) translate(4 473.6)">
<title>G</title>
<polygon fill="white" stroke="transparent" points="-4,4 -4,-473.6 1600,-473.6 1600,4 -4,4"/>
<!-- head -->
<g id="node1" class="node">
<title>head</title>
<path fill="#fffeb6" stroke="black" d="M101,-307.6C101,-307.6 35,-307.6 35,-307.6 29,-307.6 23,-301.6 23,-295.6 23,-295.6 23,-283.6 23,-283.6 23,-277.6 29,-271.6 35,-271.6 35,-271.6 101,-271.6 101,-271.6 107,-271.6 113,-277.6 113,-283.6 113,-283.6 113,-295.6 113,-295.6 113,-301.6 107,-307.6 101,-307.6"/>
<text text-anchor="middle" x="68" y="-285.9" font-family="Times,serif" font-size="14.00">HEAD = 1</text>
</g>
<!-- node1 -->
<g id="node8" class="node">
<title>node1</title>
<path fill="#faa76c" stroke="black" d="M184,-52.6C184,-52.6 228,-52.6 228,-52.6 234,-52.6 240,-58.6 240,-64.6 240,-64.6 240,-132.6 240,-132.6 240,-138.6 234,-144.6 228,-144.6 228,-144.6 184,-144.6 184,-144.6 178,-144.6 172,-138.6 172,-132.6 172,-132.6 172,-64.6 172,-64.6 172,-58.6 178,-52.6 184,-52.6"/>
<text text-anchor="middle" x="206" y="-129.4" font-family="Times,serif" font-size="14.00">Node 1</text>
<polyline fill="none" stroke="black" points="172,-121.6 240,-121.6 "/>
<text text-anchor="middle" x="206" y="-106.4" font-family="Times,serif" font-size="14.00">Val. 0</text>
<polyline fill="none" stroke="black" points="172,-98.6 240,-98.6 "/>
<text text-anchor="middle" x="206" y="-83.4" font-family="Times,serif" font-size="14.00">Next 2</text>
<polyline fill="none" stroke="black" points="172,-75.6 240,-75.6 "/>
<text text-anchor="middle" x="206" y="-60.4" font-family="Times,serif" font-size="14.00">Prev. 0</text>
</g>
<!-- head&#45;&gt;node1 -->
<g id="edge21" class="edge">
<title>head&#45;&gt;node1</title>
<path fill="none" stroke="black" stroke-width="2" d="M113.11,-277.63C121.45,-273.84 129.57,-268.94 136,-262.6 165.54,-233.5 183.08,-189.82 193.07,-154.85"/>
<polygon fill="black" stroke="black" stroke-width="2" points="196.57,-155.35 195.82,-144.78 189.81,-153.51 196.57,-155.35"/>
</g>
<!-- tail -->
<g id="node2" class="node">
<title>tail</title>
<path fill="#fffeb6" stroke="black" d="M95.5,-199.6C95.5,-199.6 40.5,-199.6 40.5,-199.6 34.5,-199.6 28.5,-193.6 28.5,-187.6 28.5,-187.6 28.5,-175.6 28.5,-175.6 28.5,-169.6 34.5,-163.6 40.5,-163.6 40.5,-163.6 95.5,-163.6 95.5,-163.6 101.5,-163.6 107.5,-169.6 107.5,-175.6 107.5,-175.6 107.5,-187.6 107.5,-187.6 107.5,-193.6 101.5,-199.6 95.5,-199.6"/>
<text text-anchor="middle" x="68" y="-177.9" font-family="Times,serif" font-size="14.00">TAIL = 3</text>
</g>
<!-- node3 -->
<g id="node10" class="node">
<title>node3</title>
<path fill="#c1aed1" stroke="black" d="M392,-52.6C392,-52.6 436,-52.6 436,-52.6 442,-52.6 448,-58.6 448,-64.6 448,-64.6 448,-132.6 448,-132.6 448,-138.6 442,-144.6 436,-144.6 436,-144.6 392,-144.6 392,-144.6 386,-144.6 380,-138.6 380,-132.6 380,-132.6 380,-64.6 380,-64.6 380,-58.6 386,-52.6 392,-52.6"/>
<text text-anchor="middle" x="414" y="-129.4" font-family="Times,serif" font-size="14.00">Node 3</text>
<polyline fill="none" stroke="black" points="380,-121.6 448,-121.6 "/>
<text text-anchor="middle" x="414" y="-106.4" font-family="Times,serif" font-size="14.00">Val. 2</text>
<polyline fill="none" stroke="black" points="380,-98.6 448,-98.6 "/>
<text text-anchor="middle" x="414" y="-83.4" font-family="Times,serif" font-size="14.00">Next 0</text>
<polyline fill="none" stroke="black" points="380,-75.6 448,-75.6 "/>
<text text-anchor="middle" x="414" y="-60.4" font-family="Times,serif" font-size="14.00">Prev. 2</text>
</g>
<!-- tail&#45;&gt;node3 -->
<g id="edge22" class="edge">
<title>tail&#45;&gt;node3</title>
<path fill="none" stroke="black" stroke-width="2" d="M107.63,-171.94C117.99,-167.75 128.4,-161.85 136,-153.6 171.13,-115.45 130.05,-73.1 172,-42.6 233.83,2.35 271.95,-17.04 344,-42.6 353.81,-46.08 363.24,-51.61 371.8,-57.87"/>
<polygon fill="black" stroke="black" stroke-width="2" points="369.7,-60.67 379.74,-64.06 374.01,-55.15 369.7,-60.67"/>
</g>
<!-- freeHead -->
<g id="node3" class="node">
<title>freeHead</title>
<path fill="#fffeb6" stroke="black" d="M124,-253.6C124,-253.6 12,-253.6 12,-253.6 6,-253.6 0,-247.6 0,-241.6 0,-241.6 0,-229.6 0,-229.6 0,-223.6 6,-217.6 12,-217.6 12,-217.6 124,-217.6 124,-217.6 130,-217.6 136,-223.6 136,-229.6 136,-229.6 136,-241.6 136,-241.6 136,-247.6 130,-253.6 124,-253.6"/>
<text text-anchor="middle" x="68" y="-231.9" font-family="Times,serif" font-size="14.00">FREE HEAD = 4</text>
</g>
<!-- node4 -->
<g id="node11" class="node">
<title>node4</title>
<path fill="#98ff98" stroke="black" d="M496,-52.6C496,-52.6 600,-52.6 600,-52.6 606,-52.6 612,-58.6 612,-64.6 612,-64.6 612,-132.6 612,-132.6 612,-138.6 606,-144.6 600,-144.6 600,-144.6 496,-144.6 496,-144.6 490,-144.6 484,-138.6 484,-132.6 484,-132.6 484,-64.6 484,-64.6 484,-58.6 490,-52.6 496,-52.6"/>
<text text-anchor="middle" x="548" y="-129.4" font-family="Times,serif" font-size="14.00">Node 4</text>
<polyline fill="none" stroke="black" points="484,-121.6 612,-121.6 "/>
<text text-anchor="middle" x="548" y="-106.4" font-family="Times,serif" font-size="14.00">Val. 0</text>
<polyline fill="none" stroke="black" points="484,-98.6 612,-98.6 "/>
<text text-anchor="middle" x="548" y="-83.4" font-family="Times,serif" font-size="14.00">Next 5</text>
<polyline fill="none" stroke="black" points="484,-75.6 612,-75.6 "/>
<text text-anchor="middle" x="548" y="-60.4" font-family="Times,serif" font-size="14.00">Prev. Free node</text>
</g>
<!-- freeHead&#45;&gt;node4 -->
<g id="edge23" class="edge">
<title>freeHead&#45;&gt;node4</title>
<path fill="none" stroke="black" stroke-width="2" d="M126.26,-217.48C129.86,-214.9 133.17,-211.96 136,-208.6 184.67,-150.89 113.23,-89.99 172,-42.6 267.49,34.4 329.37,-11.37 448,-42.6 456.91,-44.94 465.85,-48.29 474.53,-52.2"/>
<polygon fill="black" stroke="black" stroke-width="2" points="473.29,-55.49 483.82,-56.64 476.31,-49.17 473.29,-55.49"/>
</g>
<!-- capacity -->
<g id="node4" class="node">
<title>capacity</title>
<path fill="#fffeb6" stroke="black" d="M120,-361.6C120,-361.6 16,-361.6 16,-361.6 10,-361.6 4,-355.6 4,-349.6 4,-349.6 4,-337.6 4,-337.6 4,-331.6 10,-325.6 16,-325.6 16,-325.6 120,-325.6 120,-325.6 126,-325.6 132,-331.6 132,-337.6 132,-337.6 132,-349.6 132,-349.6 132,-355.6 126,-361.6 120,-361.6"/>
<text text-anchor="middle" x="68" y="-339.9" font-family="Times,serif" font-size="14.00">CAPACITY = 10</text>
</g>
<!-- size -->
<g id="node5" class="node">
<title>size</title>
<path fill="#fffeb6" stroke="black" d="M97,-415.6C97,-415.6 39,-415.6 39,-415.6 33,-415.6 27,-409.6 27,-403.6 27,-403.6 27,-391.6 27,-391.6 27,-385.6 33,-379.6 39,-379.6 39,-379.6 97,-379.6 97,-379.6 103,-379.6 109,-385.6 109,-391.6 109,-391.6 109,-403.6 109,-403.6 109,-409.6 103,-415.6 97,-415.6"/>
<text text-anchor="middle" x="68" y="-393.9" font-family="Times,serif" font-size="14.00">SIZE = 3</text>
</g>
<!-- isSorted -->
<g id="node6" class="node">
<title>isSorted</title>
<path fill="#fffeb6" stroke="black" d="M117.5,-469.6C117.5,-469.6 18.5,-469.6 18.5,-469.6 12.5,-469.6 6.5,-463.6 6.5,-457.6 6.5,-457.6 6.5,-445.6 6.5,-445.6 6.5,-439.6 12.5,-433.6 18.5,-433.6 18.5,-433.6 117.5,-433.6 117.5,-433.6 123.5,-433.6 129.5,-439.6 129.5,-445.6 129.5,-445.6 129.5,-457.6 129.5,-457.6 129.5,-463.6 123.5,-469.6 117.5,-469.6"/>
<text text-anchor="middle" x="68" y="-447.9" font-family="Times,serif" font-size="14.00">SORTED = NO</text>
</g>
<!-- node0 -->
<g id="node7" class="node">
<title>node0</title>
<path fill="#c0c0c0" stroke="black" d="M46,-52.6C46,-52.6 90,-52.6 90,-52.6 96,-52.6 102,-58.6 102,-64.6 102,-64.6 102,-132.6 102,-132.6 102,-138.6 96,-144.6 90,-144.6 90,-144.6 46,-144.6 46,-144.6 40,-144.6 34,-138.6 34,-132.6 34,-132.6 34,-64.6 34,-64.6 34,-58.6 40,-52.6 46,-52.6"/>
<text text-anchor="middle" x="68" y="-129.4" font-family="Times,serif" font-size="14.00">Node 0</text>
<polyline fill="none" stroke="black" points="34,-121.6 102,-121.6 "/>
<text text-anchor="middle" x="68" y="-106.4" font-family="Times,serif" font-size="14.00">Val. 0</text>
<polyline fill="none" stroke="black" points="34,-98.6 102,-98.6 "/>
<text text-anchor="middle" x="68" y="-83.4" font-family="Times,serif" font-size="14.00">Next 1</text>
<polyline fill="none" stroke="black" points="34,-75.6 102,-75.6 "/>
<text text-anchor="middle" x="68" y="-60.4" font-family="Times,serif" font-size="14.00">Prev. 3</text>
</g>
<!-- node0&#45;&gt;node1 -->
<!-- node2 -->
<g id="node9" class="node">
<title>node2</title>
<path fill="#ffb2d0" stroke="black" d="M288,-52.6C288,-52.6 332,-52.6 332,-52.6 338,-52.6 344,-58.6 344,-64.6 344,-64.6 344,-132.6 344,-132.6 344,-138.6 338,-144.6 332,-144.6 332,-144.6 288,-144.6 288,-144.6 282,-144.6 276,-138.6 276,-132.6 276,-132.6 276,-64.6 276,-64.6 276,-58.6 282,-52.6 288,-52.6"/>
<text text-anchor="middle" x="310" y="-129.4" font-family="Times,serif" font-size="14.00">Node 2</text>
<polyline fill="none" stroke="black" points="276,-121.6 344,-121.6 "/>
<text text-anchor="middle" x="310" y="-106.4" font-family="Times,serif" font-size="14.00">Val. 1</text>
<polyline fill="none" stroke="black" points="276,-98.6 344,-98.6 "/>
<text text-anchor="middle" x="310" y="-83.4" font-family="Times,serif" font-size="14.00">Next 3</text>
<polyline fill="none" stroke="black" points="276,-75.6 344,-75.6 "/>
<text text-anchor="middle" x="310" y="-60.4" font-family="Times,serif" font-size="14.00">Prev. 1</text>
</g>
<!-- node1&#45;&gt;node2 -->
<!-- node1&#45;&gt;node2 -->
<g id="edge11" class="edge">
<title>node1:n&#45;&gt;node2</title>
<path fill="none" stroke="black" d="M240,-86.6C248.38,-86.6 257.26,-87.47 265.75,-88.74"/>
<polygon fill="black" stroke="black" points="265.42,-92.24 275.86,-90.46 266.59,-85.34 265.42,-92.24"/>
</g>
<!-- node2&#45;&gt;node1 -->
<g id="edge13" class="edge">
<title>node2:p&#45;&gt;node1</title>
<path fill="none" stroke="black" d="M276,-63.6C266.92,-63.6 257.83,-66.04 249.36,-69.63"/>
<polygon fill="black" stroke="black" points="247.59,-66.6 240.1,-74.1 250.63,-72.9 247.59,-66.6"/>
</g>
<!-- node2&#45;&gt;node3 -->
<!-- node2&#45;&gt;node3 -->
<g id="edge12" class="edge">
<title>node2:n&#45;&gt;node3</title>
<path fill="none" stroke="black" d="M344,-86.6C352.38,-86.6 361.26,-87.47 369.75,-88.74"/>
<polygon fill="black" stroke="black" points="369.42,-92.24 379.86,-90.46 370.59,-85.34 369.42,-92.24"/>
</g>
<!-- node3&#45;&gt;node2 -->
<g id="edge14" class="edge">
<title>node3:p&#45;&gt;node2</title>
<path fill="none" stroke="black" d="M380,-63.6C370.92,-63.6 361.83,-66.04 353.36,-69.63"/>
<polygon fill="black" stroke="black" points="351.59,-66.6 344.1,-74.1 354.63,-72.9 351.59,-66.6"/>
</g>
<!-- node3&#45;&gt;node4 -->
<!-- node5 -->
<g id="node12" class="node">
<title>node5</title>
<path fill="#98ff98" stroke="black" d="M660,-52.6C660,-52.6 764,-52.6 764,-52.6 770,-52.6 776,-58.6 776,-64.6 776,-64.6 776,-132.6 776,-132.6 776,-138.6 770,-144.6 764,-144.6 764,-144.6 660,-144.6 660,-144.6 654,-144.6 648,-138.6 648,-132.6 648,-132.6 648,-64.6 648,-64.6 648,-58.6 654,-52.6 660,-52.6"/>
<text text-anchor="middle" x="712" y="-129.4" font-family="Times,serif" font-size="14.00">Node 5</text>
<polyline fill="none" stroke="black" points="648,-121.6 776,-121.6 "/>
<text text-anchor="middle" x="712" y="-106.4" font-family="Times,serif" font-size="14.00">Val. 0</text>
<polyline fill="none" stroke="black" points="648,-98.6 776,-98.6 "/>
<text text-anchor="middle" x="712" y="-83.4" font-family="Times,serif" font-size="14.00">Next 6</text>
<polyline fill="none" stroke="black" points="648,-75.6 776,-75.6 "/>
<text text-anchor="middle" x="712" y="-60.4" font-family="Times,serif" font-size="14.00">Prev. Free node</text>
</g>
<!-- node4&#45;&gt;node5 -->
<!-- node4&#45;&gt;node5 -->
<g id="edge15" class="edge">
<title>node4:n&#45;&gt;node5</title>
<path fill="none" stroke="black" d="M612,-86.6C620.34,-86.6 629.04,-87.02 637.68,-87.71"/>
<polygon fill="black" stroke="black" points="637.48,-91.21 647.76,-88.64 638.12,-84.24 637.48,-91.21"/>
</g>
<!-- node6 -->
<g id="node13" class="node">
<title>node6</title>
<path fill="#98ff98" stroke="black" d="M824,-52.6C824,-52.6 928,-52.6 928,-52.6 934,-52.6 940,-58.6 940,-64.6 940,-64.6 940,-132.6 940,-132.6 940,-138.6 934,-144.6 928,-144.6 928,-144.6 824,-144.6 824,-144.6 818,-144.6 812,-138.6 812,-132.6 812,-132.6 812,-64.6 812,-64.6 812,-58.6 818,-52.6 824,-52.6"/>
<text text-anchor="middle" x="876" y="-129.4" font-family="Times,serif" font-size="14.00">Node 6</text>
<polyline fill="none" stroke="black" points="812,-121.6 940,-121.6 "/>
<text text-anchor="middle" x="876" y="-106.4" font-family="Times,serif" font-size="14.00">Val. 0</text>
<polyline fill="none" stroke="black" points="812,-98.6 940,-98.6 "/>
<text text-anchor="middle" x="876" y="-83.4" font-family="Times,serif" font-size="14.00">Next 7</text>
<polyline fill="none" stroke="black" points="812,-75.6 940,-75.6 "/>
<text text-anchor="middle" x="876" y="-60.4" font-family="Times,serif" font-size="14.00">Prev. Free node</text>
</g>
<!-- node5&#45;&gt;node6 -->
<!-- node5&#45;&gt;node6 -->
<g id="edge16" class="edge">
<title>node5:n&#45;&gt;node6</title>
<path fill="none" stroke="black" d="M776,-86.6C784.34,-86.6 793.04,-87.02 801.68,-87.71"/>
<polygon fill="black" stroke="black" points="801.48,-91.21 811.76,-88.64 802.12,-84.24 801.48,-91.21"/>
</g>
<!-- node7 -->
<g id="node14" class="node">
<title>node7</title>
<path fill="#98ff98" stroke="black" d="M988,-52.6C988,-52.6 1092,-52.6 1092,-52.6 1098,-52.6 1104,-58.6 1104,-64.6 1104,-64.6 1104,-132.6 1104,-132.6 1104,-138.6 1098,-144.6 1092,-144.6 1092,-144.6 988,-144.6 988,-144.6 982,-144.6 976,-138.6 976,-132.6 976,-132.6 976,-64.6 976,-64.6 976,-58.6 982,-52.6 988,-52.6"/>
<text text-anchor="middle" x="1040" y="-129.4" font-family="Times,serif" font-size="14.00">Node 7</text>
<polyline fill="none" stroke="black" points="976,-121.6 1104,-121.6 "/>
<text text-anchor="middle" x="1040" y="-106.4" font-family="Times,serif" font-size="14.00">Val. 0</text>
<polyline fill="none" stroke="black" points="976,-98.6 1104,-98.6 "/>
<text text-anchor="middle" x="1040" y="-83.4" font-family="Times,serif" font-size="14.00">Next 8</text>
<polyline fill="none" stroke="black" points="976,-75.6 1104,-75.6 "/>
<text text-anchor="middle" x="1040" y="-60.4" font-family="Times,serif" font-size="14.00">Prev. Free node</text>
</g>
<!-- node6&#45;&gt;node7 -->
<!-- node6&#45;&gt;node7 -->
<g id="edge17" class="edge">
<title>node6:n&#45;&gt;node7</title>
<path fill="none" stroke="black" d="M940,-86.6C948.34,-86.6 957.04,-87.02 965.68,-87.71"/>
<polygon fill="black" stroke="black" points="965.48,-91.21 975.76,-88.64 966.12,-84.24 965.48,-91.21"/>
</g>
<!-- node8 -->
<g id="node15" class="node">
<title>node8</title>
<path fill="#98ff98" stroke="black" d="M1152,-52.6C1152,-52.6 1256,-52.6 1256,-52.6 1262,-52.6 1268,-58.6 1268,-64.6 1268,-64.6 1268,-132.6 1268,-132.6 1268,-138.6 1262,-144.6 1256,-144.6 1256,-144.6 1152,-144.6 1152,-144.6 1146,-144.6 1140,-138.6 1140,-132.6 1140,-132.6 1140,-64.6 1140,-64.6 1140,-58.6 1146,-52.6 1152,-52.6"/>
<text text-anchor="middle" x="1204" y="-129.4" font-family="Times,serif" font-size="14.00">Node 8</text>
<polyline fill="none" stroke="black" points="1140,-121.6 1268,-121.6 "/>
<text text-anchor="middle" x="1204" y="-106.4" font-family="Times,serif" font-size="14.00">Val. 0</text>
<polyline fill="none" stroke="black" points="1140,-98.6 1268,-98.6 "/>
<text text-anchor="middle" x="1204" y="-83.4" font-family="Times,serif" font-size="14.00">Next 9</text>
<polyline fill="none" stroke="black" points="1140,-75.6 1268,-75.6 "/>
<text text-anchor="middle" x="1204" y="-60.4" font-family="Times,serif" font-size="14.00">Prev. Free node</text>
</g>
<!-- node7&#45;&gt;node8 -->
<!-- node7&#45;&gt;node8 -->
<g id="edge18" class="edge">
<title>node7:n&#45;&gt;node8</title>
<path fill="none" stroke="black" d="M1104,-86.6C1112.34,-86.6 1121.04,-87.02 1129.68,-87.71"/>
<polygon fill="black" stroke="black" points="1129.48,-91.21 1139.76,-88.64 1130.12,-84.24 1129.48,-91.21"/>
</g>
<!-- node9 -->
<g id="node16" class="node">
<title>node9</title>
<path fill="#98ff98" stroke="black" d="M1316,-52.6C1316,-52.6 1420,-52.6 1420,-52.6 1426,-52.6 1432,-58.6 1432,-64.6 1432,-64.6 1432,-132.6 1432,-132.6 1432,-138.6 1426,-144.6 1420,-144.6 1420,-144.6 1316,-144.6 1316,-144.6 1310,-144.6 1304,-138.6 1304,-132.6 1304,-132.6 1304,-64.6 1304,-64.6 1304,-58.6 1310,-52.6 1316,-52.6"/>
<text text-anchor="middle" x="1368" y="-129.4" font-family="Times,serif" font-size="14.00">Node 9</text>
<polyline fill="none" stroke="black" points="1304,-121.6 1432,-121.6 "/>
<text text-anchor="middle" x="1368" y="-106.4" font-family="Times,serif" font-size="14.00">Val. 0</text>
<polyline fill="none" stroke="black" points="1304,-98.6 1432,-98.6 "/>
<text text-anchor="middle" x="1368" y="-83.4" font-family="Times,serif" font-size="14.00">Next 10</text>
<polyline fill="none" stroke="black" points="1304,-75.6 1432,-75.6 "/>
<text text-anchor="middle" x="1368" y="-60.4" font-family="Times,serif" font-size="14.00">Prev. Free node</text>
</g>
<!-- node8&#45;&gt;node9 -->
<!-- node8&#45;&gt;node9 -->
<g id="edge19" class="edge">
<title>node8:n&#45;&gt;node9</title>
<path fill="none" stroke="black" d="M1268,-86.6C1276.34,-86.6 1285.04,-87.02 1293.68,-87.71"/>
<polygon fill="black" stroke="black" points="1293.48,-91.21 1303.76,-88.64 1294.12,-84.24 1293.48,-91.21"/>
</g>
<!-- node10 -->
<g id="node17" class="node">
<title>node10</title>
<path fill="#98ff98" stroke="black" d="M1480,-52.6C1480,-52.6 1584,-52.6 1584,-52.6 1590,-52.6 1596,-58.6 1596,-64.6 1596,-64.6 1596,-132.6 1596,-132.6 1596,-138.6 1590,-144.6 1584,-144.6 1584,-144.6 1480,-144.6 1480,-144.6 1474,-144.6 1468,-138.6 1468,-132.6 1468,-132.6 1468,-64.6 1468,-64.6 1468,-58.6 1474,-52.6 1480,-52.6"/>
<text text-anchor="middle" x="1532" y="-129.4" font-family="Times,serif" font-size="14.00">Node 10</text>
<polyline fill="none" stroke="black" points="1468,-121.6 1596,-121.6 "/>
<text text-anchor="middle" x="1532" y="-106.4" font-family="Times,serif" font-size="14.00">Val. 0</text>
<polyline fill="none" stroke="black" points="1468,-98.6 1596,-98.6 "/>
<text text-anchor="middle" x="1532" y="-83.4" font-family="Times,serif" font-size="14.00">Next 0</text>
<polyline fill="none" stroke="black" points="1468,-75.6 1596,-75.6 "/>
<text text-anchor="middle" x="1532" y="-60.4" font-family="Times,serif" font-size="14.00">Prev. Free node</text>
</g>
<!-- node9&#45;&gt;node10 -->
<!-- node9&#45;&gt;node10 -->
<g id="edge20" class="edge">
<title>node9:n&#45;&gt;node10</title>
<path fill="none" stroke="black" d="M1432,-86.6C1440.34,-86.6 1449.04,-87.02 1457.68,-87.71"/>
<polygon fill="black" stroke="black" points="1457.48,-91.21 1467.76,-88.64 1458.12,-84.24 1457.48,-91.21"/>
</g>
</g>
</svg>
