<?xml version="1.0" encoding="UTF-8" standalone="no"?>
<!DOCTYPE svg PUBLIC "-//W3C//DTD SVG 1.1//EN"
 "http://www.w3.org/Graphics/SVG/1.1/DTD/svg11.dtd">
<!-- Generated by graphviz version 2.43.0 (0)
 -->
<!-- Title: G Pages: 1 -->
<svg width="2548pt" height="497pt"
 viewBox="0.00 0.00 2548.00 496.94" xmlns="http://www.w3.org/2000/svg" xmlns:xlink="http://www.w3.org/1999/xlink">
<g id="graph0" class="graph" transform="scale(1 1) rotate(0) translate(4 492.94)">
<title>G</title>
<polygon fill="white" stroke="transparent" points="-4,4 -4,-492.94 2544,-492.94 2544,4 -4,4"/>
<!-- head -->
<g id="node1" class="node">
<title>head</title>
<path fill="#fffeb6" stroke="black" d="M105.5,-326.94C105.5,-326.94 39.5,-326.94 39.5,-326.94 33.5,-326.94 27.5,-320.94 27.5,-314.94 27.5,-314.94 27.5,-302.94 27.5,-302.94 27.5,-296.94 33.5,-290.94 39.5,-290.94 39.5,-290.94 105.5,-290.94 105.5,-290.94 111.5,-290.94 117.5,-296.94 117.5,-302.94 117.5,-302.94 117.5,-314.94 117.5,-314.94 117.5,-320.94 111.5,-326.94 105.5,-326.94"/>
<text text-anchor="middle" x="72.5" y="-305.24" font-family="Times,serif" font-size="14.00">HEAD = 1</text>
</g>
<!-- node1 -->
<g id="node8" class="node">
<title>node1</title>
<path fill="#faa76c" stroke="black" d="M193,-71.94C193,-71.94 243,-71.94 243,-71.94 249,-71.94 255,-77.94 255,-83.94 255,-83.94 255,-151.94 255,-151.94 255,-157.94 249,-163.94 243,-163.94 243,-163.94 193,-163.94 193,-163.94 187,-163.94 181,-157.94 181,-151.94 181,-151.94 181,-83.94 181,-83.94 181,-77.94 187,-71.94 193,-71.94"/>
<text text-anchor="middle" x="218" y="-148.74" font-family="Times,serif" font-size="14.00">Node 1</text>
<polyline fill="none" stroke="black" points="181,-140.94 255,-140.94 "/>
<text text-anchor="middle" x="218" y="-125.74" font-family="Times,serif" font-size="14.00">Val. 666</text>
<polyline fill="none" stroke="black" points="181,-117.94 255,-117.94 "/>
<text text-anchor="middle" x="218" y="-102.74" font-family="Times,serif" font-size="14.00">Next 2</text>
<polyline fill="none" stroke="black" points="181,-94.94 255,-94.94 "/>
<text text-anchor="middle" x="218" y="-79.74" font-family="Times,serif" font-size="14.00">Prev. 0</text>
</g>
<!-- head&#45;&gt;node1 -->
<g id="edge54" class="edge">
<title>head&#45;&gt;node1</title>
<path fill="none" stroke="black" stroke-width="2" d="M117.87,-298.41C127.68,-294.48 137.4,-289.15 145,-281.94 175.52,-252.98 193.89,-208.83 204.43,-173.63"/>
<polygon fill="black" stroke="black" stroke-width="2" points="207.81,-174.54 207.2,-163.96 201.08,-172.61 207.81,-174.54"/>
</g>
<!-- tail -->
<g id="node2" class="node">
<title>tail</title>
<path fill="#fffeb6" stroke="black" d="M104.5,-218.94C104.5,-218.94 40.5,-218.94 40.5,-218.94 34.5,-218.94 28.5,-212.94 28.5,-206.94 28.5,-206.94 28.5,-194.94 28.5,-194.94 28.5,-188.94 34.5,-182.94 40.5,-182.94 40.5,-182.94 104.5,-182.94 104.5,-182.94 110.5,-182.94 116.5,-188.94 116.5,-194.94 116.5,-194.94 116.5,-206.94 116.5,-206.94 116.5,-212.94 110.5,-218.94 104.5,-218.94"/>
<text text-anchor="middle" x="72.5" y="-197.24" font-family="Times,serif" font-size="14.00">TAIL = 16</text>
</g>
<!-- node16 -->
<g id="node23" class="node">
<title>node16</title>
<path fill="#c1aed1" stroke="black" d="M1819,-71.94C1819,-71.94 1872,-71.94 1872,-71.94 1878,-71.94 1884,-77.94 1884,-83.94 1884,-83.94 1884,-151.94 1884,-151.94 1884,-157.94 1878,-163.94 1872,-163.94 1872,-163.94 1819,-163.94 1819,-163.94 1813,-163.94 1807,-157.94 1807,-151.94 1807,-151.94 1807,-83.94 1807,-83.94 1807,-77.94 1813,-71.94 1819,-71.94"/>
<text text-anchor="middle" x="1845.5" y="-148.74" font-family="Times,serif" font-size="14.00">Node 16</text>
<polyline fill="none" stroke="black" points="1807,-140.94 1884,-140.94 "/>
<text text-anchor="middle" x="1845.5" y="-125.74" font-family="Times,serif" font-size="14.00">Val. 15</text>
<polyline fill="none" stroke="black" points="1807,-117.94 1884,-117.94 "/>
<text text-anchor="middle" x="1845.5" y="-102.74" font-family="Times,serif" font-size="14.00">Next 0</text>
<polyline fill="none" stroke="black" points="1807,-94.94 1884,-94.94 "/>
<text text-anchor="middle" x="1845.5" y="-79.74" font-family="Times,serif" font-size="14.00">Prev. 15</text>
</g>
<!-- tail&#45;&gt;node16 -->
<g id="edge55" class="edge">
<title>tail&#45;&gt;node16</title>
<path fill="none" stroke="black" stroke-width="2" d="M116.57,-191.54C127.12,-187.39 137.52,-181.44 145,-172.94 188.56,-123.39 132.55,-73.71 181,-28.94 228.33,14.81 259.56,-4.94 324,-4.94 324,-4.94 324,-4.94 1620.5,-4.94 1688.02,-4.94 1755.9,-46.37 1798.95,-79.05"/>
<polygon fill="black" stroke="black" stroke-width="2" points="1796.9,-81.9 1806.95,-85.25 1801.19,-76.36 1796.9,-81.9"/>
</g>
<!-- freeHead -->
<g id="node3" class="node">
<title>freeHead</title>
<path fill="#fffeb6" stroke="black" d="M133,-272.94C133,-272.94 12,-272.94 12,-272.94 6,-272.94 0,-266.94 0,-260.94 0,-260.94 0,-248.94 0,-248.94 0,-242.94 6,-236.94 12,-236.94 12,-236.94 133,-236.94 133,-236.94 139,-236.94 145,-242.94 145,-248.94 145,-248.94 145,-260.94 145,-260.94 145,-266.94 139,-272.94 133,-272.94"/>
<text text-anchor="middle" x="72.5" y="-251.24" font-family="Times,serif" font-size="14.00">FREE HEAD = 17</text>
</g>
<!-- node17 -->
<g id="node24" class="node">
<title>node17</title>
<path fill="#98ff98" stroke="black" d="M1932,-71.94C1932,-71.94 2036,-71.94 2036,-71.94 2042,-71.94 2048,-77.94 2048,-83.94 2048,-83.94 2048,-151.94 2048,-151.94 2048,-157.94 2042,-163.94 2036,-163.94 2036,-163.94 1932,-163.94 1932,-163.94 1926,-163.94 1920,-157.94 1920,-151.94 1920,-151.94 1920,-83.94 1920,-83.94 1920,-77.94 1926,-71.94 1932,-71.94"/>
<text text-anchor="middle" x="1984" y="-148.74" font-family="Times,serif" font-size="14.00">Node 17</text>
<polyline fill="none" stroke="black" points="1920,-140.94 2048,-140.94 "/>
<text text-anchor="middle" x="1984" y="-125.74" font-family="Times,serif" font-size="14.00">Val. 0</text>
<polyline fill="none" stroke="black" points="1920,-117.94 2048,-117.94 "/>
<text text-anchor="middle" x="1984" y="-102.74" font-family="Times,serif" font-size="14.00">Next 18</text>
<polyline fill="none" stroke="black" points="1920,-94.94 2048,-94.94 "/>
<text text-anchor="middle" x="1984" y="-79.74" font-family="Times,serif" font-size="14.00">Prev. Free node</text>
</g>
<!-- freeHead&#45;&gt;node17 -->
<g id="edge56" class="edge">
<title>freeHead&#45;&gt;node17</title>
<path fill="none" stroke="black" stroke-width="2" d="M135.23,-236.71C138.83,-234.16 142.14,-231.25 145,-227.94 194.3,-170.77 125.49,-113.1 181,-61.94 228.14,-18.48 259.89,-42.94 324,-42.94 324,-42.94 324,-42.94 1733.5,-42.94 1800.92,-42.94 1820.01,-40.72 1884,-61.94 1892.97,-64.91 1902.05,-68.73 1910.88,-72.98"/>
<polygon fill="black" stroke="black" stroke-width="2" points="1909.47,-76.19 1919.98,-77.54 1912.61,-69.93 1909.47,-76.19"/>
</g>
<!-- capacity -->
<g id="node4" class="node">
<title>capacity</title>
<path fill="#fffeb6" stroke="black" d="M124.5,-380.94C124.5,-380.94 20.5,-380.94 20.5,-380.94 14.5,-380.94 8.5,-374.94 8.5,-368.94 8.5,-368.94 8.5,-356.94 8.5,-356.94 8.5,-350.94 14.5,-344.94 20.5,-344.94 20.5,-344.94 124.5,-344.94 124.5,-344.94 130.5,-344.94 136.5,-350.94 136.5,-356.94 136.5,-356.94 136.5,-368.94 136.5,-368.94 136.5,-374.94 130.5,-380.94 124.5,-380.94"/>
<text text-anchor="middle" x="72.5" y="-359.24" font-family="Times,serif" font-size="14.00">CAPACITY = 20</text>
</g>
<!-- size -->
<g id="node5" class="node">
<title>size</title>
<path fill="#fffeb6" stroke="black" d="M106,-434.94C106,-434.94 39,-434.94 39,-434.94 33,-434.94 27,-428.94 27,-422.94 27,-422.94 27,-410.94 27,-410.94 27,-404.94 33,-398.94 39,-398.94 39,-398.94 106,-398.94 106,-398.94 112,-398.94 118,-404.94 118,-410.94 118,-410.94 118,-422.94 118,-422.94 118,-428.94 112,-434.94 106,-434.94"/>
<text text-anchor="middle" x="72.5" y="-413.24" font-family="Times,serif" font-size="14.00">SIZE = 16</text>
</g>
<!-- isSorted -->
<g id="node6" class="node">
<title>isSorted</title>
<path fill="#fffeb6" stroke="black" d="M125,-488.94C125,-488.94 20,-488.94 20,-488.94 14,-488.94 8,-482.94 8,-476.94 8,-476.94 8,-464.94 8,-464.94 8,-458.94 14,-452.94 20,-452.94 20,-452.94 125,-452.94 125,-452.94 131,-452.94 137,-458.94 137,-464.94 137,-464.94 137,-476.94 137,-476.94 137,-482.94 131,-488.94 125,-488.94"/>
<text text-anchor="middle" x="72.5" y="-467.24" font-family="Times,serif" font-size="14.00">SORTED = YES</text>
</g>
<!-- node0 -->
<g id="node7" class="node">
<title>node0</title>
<path fill="#c0c0c0" stroke="black" d="M47.5,-71.94C47.5,-71.94 97.5,-71.94 97.5,-71.94 103.5,-71.94 109.5,-77.94 109.5,-83.94 109.5,-83.94 109.5,-151.94 109.5,-151.94 109.5,-157.94 103.5,-163.94 97.5,-163.94 97.5,-163.94 47.5,-163.94 47.5,-163.94 41.5,-163.94 35.5,-157.94 35.5,-151.94 35.5,-151.94 35.5,-83.94 35.5,-83.94 35.5,-77.94 41.5,-71.94 47.5,-71.94"/>
<text text-anchor="middle" x="72.5" y="-148.74" font-family="Times,serif" font-size="14.00">Node 0</text>
<polyline fill="none" stroke="black" points="35.5,-140.94 109.5,-140.94 "/>
<text text-anchor="middle" x="72.5" y="-125.74" font-family="Times,serif" font-size="14.00">Val. 0</text>
<polyline fill="none" stroke="black" points="35.5,-117.94 109.5,-117.94 "/>
<text text-anchor="middle" x="72.5" y="-102.74" font-family="Times,serif" font-size="14.00">Next 1</text>
<polyline fill="none" stroke="black" points="35.5,-94.94 109.5,-94.94 "/>
<text text-anchor="middle" x="72.5" y="-79.74" font-family="Times,serif" font-size="14.00">Prev. 16</text>
</g>
<!-- node0&#45;&gt;node1 -->
<!-- node2 -->
<g id="node9" class="node">
<title>node2</title>
<path fill="#ffb2d0" stroke="black" d="M303,-71.94C303,-71.94 347,-71.94 347,-71.94 353,-71.94 359,-77.94 359,-83.94 359,-83.94 359,-151.94 359,-151.94 359,-157.94 353,-163.94 347,-163.94 347,-163.94 303,-163.94 303,-163.94 297,-163.94 291,-157.94 291,-151.94 291,-151.94 291,-83.94 291,-83.94 291,-77.94 297,-71.94 303,-71.94"/>
<text text-anchor="middle" x="325" y="-148.74" font-family="Times,serif" font-size="14.00">Node 2</text>
<polyline fill="none" stroke="black" points="291,-140.94 359,-140.94 "/>
<text text-anchor="middle" x="325" y="-125.74" font-family="Times,serif" font-size="14.00">Val. 0</text>
<polyline fill="none" stroke="black" points="291,-117.94 359,-117.94 "/>
<text text-anchor="middle" x="325" y="-102.74" font-family="Times,serif" font-size="14.00">Next 3</text>
<polyline fill="none" stroke="black" points="291,-94.94 359,-94.94 "/>
<text text-anchor="middle" x="325" y="-79.74" font-family="Times,serif" font-size="14.00">Prev. 1</text>
</g>
<!-- node1&#45;&gt;node2 -->
<!-- node1&#45;&gt;node2 -->
<g id="edge21" class="edge">
<title>node1:n&#45;&gt;node2</title>
<path fill="none" stroke="black" d="M255,-105.94C263.38,-105.94 272.26,-106.81 280.75,-108.08"/>
<polygon fill="black" stroke="black" points="280.42,-111.57 290.86,-109.8 281.59,-104.67 280.42,-111.57"/>
</g>
<!-- node2&#45;&gt;node1 -->
<g id="edge23" class="edge">
<title>node2:p&#45;&gt;node1</title>
<path fill="none" stroke="black" d="M291,-82.94C282.01,-82.94 272.97,-85.17 264.48,-88.51"/>
<polygon fill="black" stroke="black" points="262.85,-85.4 255.15,-92.68 265.71,-91.79 262.85,-85.4"/>
</g>
<!-- node3 -->
<g id="node10" class="node">
<title>node3</title>
<path fill="#ffb2d0" stroke="black" d="M407,-71.94C407,-71.94 451,-71.94 451,-71.94 457,-71.94 463,-77.94 463,-83.94 463,-83.94 463,-151.94 463,-151.94 463,-157.94 457,-163.94 451,-163.94 451,-163.94 407,-163.94 407,-163.94 401,-163.94 395,-157.94 395,-151.94 395,-151.94 395,-83.94 395,-83.94 395,-77.94 401,-71.94 407,-71.94"/>
<text text-anchor="middle" x="429" y="-148.74" font-family="Times,serif" font-size="14.00">Node 3</text>
<polyline fill="none" stroke="black" points="395,-140.94 463,-140.94 "/>
<text text-anchor="middle" x="429" y="-125.74" font-family="Times,serif" font-size="14.00">Val. 1</text>
<polyline fill="none" stroke="black" points="395,-117.94 463,-117.94 "/>
<text text-anchor="middle" x="429" y="-102.74" font-family="Times,serif" font-size="14.00">Next 4</text>
<polyline fill="none" stroke="black" points="395,-94.94 463,-94.94 "/>
<text text-anchor="middle" x="429" y="-79.74" font-family="Times,serif" font-size="14.00">Prev. 2</text>
</g>
<!-- node2&#45;&gt;node3 -->
<!-- node2&#45;&gt;node3 -->
<g id="edge22" class="edge">
<title>node2:n&#45;&gt;node3</title>
<path fill="none" stroke="black" d="M359,-105.94C367.38,-105.94 376.26,-106.81 384.75,-108.08"/>
<polygon fill="black" stroke="black" points="384.42,-111.57 394.86,-109.8 385.59,-104.67 384.42,-111.57"/>
</g>
<!-- node3&#45;&gt;node2 -->
<g id="edge25" class="edge">
<title>node3:p&#45;&gt;node2</title>
<path fill="none" stroke="black" d="M395,-82.94C385.92,-82.94 376.83,-85.37 368.36,-88.96"/>
<polygon fill="black" stroke="black" points="366.59,-85.94 359.1,-93.44 369.63,-92.24 366.59,-85.94"/>
</g>
<!-- node4 -->
<g id="node11" class="node">
<title>node4</title>
<path fill="#ffb2d0" stroke="black" d="M511,-71.94C511,-71.94 555,-71.94 555,-71.94 561,-71.94 567,-77.94 567,-83.94 567,-83.94 567,-151.94 567,-151.94 567,-157.94 561,-163.94 555,-163.94 555,-163.94 511,-163.94 511,-163.94 505,-163.94 499,-157.94 499,-151.94 499,-151.94 499,-83.94 499,-83.94 499,-77.94 505,-71.94 511,-71.94"/>
<text text-anchor="middle" x="533" y="-148.74" font-family="Times,serif" font-size="14.00">Node 4</text>
<polyline fill="none" stroke="black" points="499,-140.94 567,-140.94 "/>
<text text-anchor="middle" x="533" y="-125.74" font-family="Times,serif" font-size="14.00">Val. 2</text>
<polyline fill="none" stroke="black" points="499,-117.94 567,-117.94 "/>
<text text-anchor="middle" x="533" y="-102.74" font-family="Times,serif" font-size="14.00">Next 5</text>
<polyline fill="none" stroke="black" points="499,-94.94 567,-94.94 "/>
<text text-anchor="middle" x="533" y="-79.74" font-family="Times,serif" font-size="14.00">Prev. 3</text>
</g>
<!-- node3&#45;&gt;node4 -->
<!-- node3&#45;&gt;node4 -->
<g id="edge24" class="edge">
<title>node3:n&#45;&gt;node4</title>
<path fill="none" stroke="black" d="M463,-105.94C471.38,-105.94 480.26,-106.81 488.75,-108.08"/>
<polygon fill="black" stroke="black" points="488.42,-111.57 498.86,-109.8 489.59,-104.67 488.42,-111.57"/>
</g>
<!-- node4&#45;&gt;node3 -->
<g id="edge27" class="edge">
<title>node4:p&#45;&gt;node3</title>
<path fill="none" stroke="black" d="M499,-82.94C489.92,-82.94 480.83,-85.37 472.36,-88.96"/>
<polygon fill="black" stroke="black" points="470.59,-85.94 463.1,-93.44 473.63,-92.24 470.59,-85.94"/>
</g>
<!-- node5 -->
<g id="node12" class="node">
<title>node5</title>
<path fill="#ffb2d0" stroke="black" d="M615,-71.94C615,-71.94 659,-71.94 659,-71.94 665,-71.94 671,-77.94 671,-83.94 671,-83.94 671,-151.94 671,-151.94 671,-157.94 665,-163.94 659,-163.94 659,-163.94 615,-163.94 615,-163.94 609,-163.94 603,-157.94 603,-151.94 603,-151.94 603,-83.94 603,-83.94 603,-77.94 609,-71.94 615,-71.94"/>
<text text-anchor="middle" x="637" y="-148.74" font-family="Times,serif" font-size="14.00">Node 5</text>
<polyline fill="none" stroke="black" points="603,-140.94 671,-140.94 "/>
<text text-anchor="middle" x="637" y="-125.74" font-family="Times,serif" font-size="14.00">Val. 3</text>
<polyline fill="none" stroke="black" points="603,-117.94 671,-117.94 "/>
<text text-anchor="middle" x="637" y="-102.74" font-family="Times,serif" font-size="14.00">Next 6</text>
<polyline fill="none" stroke="black" points="603,-94.94 671,-94.94 "/>
<text text-anchor="middle" x="637" y="-79.74" font-family="Times,serif" font-size="14.00">Prev. 4</text>
</g>
<!-- node4&#45;&gt;node5 -->
<!-- node4&#45;&gt;node5 -->
<g id="edge26" class="edge">
<title>node4:n&#45;&gt;node5</title>
<path fill="none" stroke="black" d="M567,-105.94C575.38,-105.94 584.26,-106.81 592.75,-108.08"/>
<polygon fill="black" stroke="black" points="592.42,-111.57 602.86,-109.8 593.59,-104.67 592.42,-111.57"/>
</g>
<!-- node5&#45;&gt;node4 -->
<g id="edge29" class="edge">
<title>node5:p&#45;&gt;node4</title>
<path fill="none" stroke="black" d="M603,-82.94C593.92,-82.94 584.83,-85.37 576.36,-88.96"/>
<polygon fill="black" stroke="black" points="574.59,-85.94 567.1,-93.44 577.63,-92.24 574.59,-85.94"/>
</g>
<!-- node6 -->
<g id="node13" class="node">
<title>node6</title>
<path fill="#ffb2d0" stroke="black" d="M719,-71.94C719,-71.94 763,-71.94 763,-71.94 769,-71.94 775,-77.94 775,-83.94 775,-83.94 775,-151.94 775,-151.94 775,-157.94 769,-163.94 763,-163.94 763,-163.94 719,-163.94 719,-163.94 713,-163.94 707,-157.94 707,-151.94 707,-151.94 707,-83.94 707,-83.94 707,-77.94 713,-71.94 719,-71.94"/>
<text text-anchor="middle" x="741" y="-148.74" font-family="Times,serif" font-size="14.00">Node 6</text>
<polyline fill="none" stroke="black" points="707,-140.94 775,-140.94 "/>
<text text-anchor="middle" x="741" y="-125.74" font-family="Times,serif" font-size="14.00">Val. 5</text>
<polyline fill="none" stroke="black" points="707,-117.94 775,-117.94 "/>
<text text-anchor="middle" x="741" y="-102.74" font-family="Times,serif" font-size="14.00">Next 7</text>
<polyline fill="none" stroke="black" points="707,-94.94 775,-94.94 "/>
<text text-anchor="middle" x="741" y="-79.74" font-family="Times,serif" font-size="14.00">Prev. 5</text>
</g>
<!-- node5&#45;&gt;node6 -->
<!-- node5&#45;&gt;node6 -->
<g id="edge28" class="edge">
<title>node5:n&#45;&gt;node6</title>
<path fill="none" stroke="black" d="M671,-105.94C679.38,-105.94 688.26,-106.81 696.75,-108.08"/>
<polygon fill="black" stroke="black" points="696.42,-111.57 706.86,-109.8 697.59,-104.67 696.42,-111.57"/>
</g>
<!-- node6&#45;&gt;node5 -->
<g id="edge31" class="edge">
<title>node6:p&#45;&gt;node5</title>
<path fill="none" stroke="black" d="M707,-82.94C697.92,-82.94 688.83,-85.37 680.36,-88.96"/>
<polygon fill="black" stroke="black" points="678.59,-85.94 671.1,-93.44 681.63,-92.24 678.59,-85.94"/>
</g>
<!-- node7 -->
<g id="node14" class="node">
<title>node7</title>
<path fill="#ffb2d0" stroke="black" d="M823,-71.94C823,-71.94 867,-71.94 867,-71.94 873,-71.94 879,-77.94 879,-83.94 879,-83.94 879,-151.94 879,-151.94 879,-157.94 873,-163.94 867,-163.94 867,-163.94 823,-163.94 823,-163.94 817,-163.94 811,-157.94 811,-151.94 811,-151.94 811,-83.94 811,-83.94 811,-77.94 817,-71.94 823,-71.94"/>
<text text-anchor="middle" x="845" y="-148.74" font-family="Times,serif" font-size="14.00">Node 7</text>
<polyline fill="none" stroke="black" points="811,-140.94 879,-140.94 "/>
<text text-anchor="middle" x="845" y="-125.74" font-family="Times,serif" font-size="14.00">Val. 6</text>
<polyline fill="none" stroke="black" points="811,-117.94 879,-117.94 "/>
<text text-anchor="middle" x="845" y="-102.74" font-family="Times,serif" font-size="14.00">Next 8</text>
<polyline fill="none" stroke="black" points="811,-94.94 879,-94.94 "/>
<text text-anchor="middle" x="845" y="-79.74" font-family="Times,serif" font-size="14.00">Prev. 6</text>
</g>
<!-- node6&#45;&gt;node7 -->
<!-- node6&#45;&gt;node7 -->
<g id="edge30" class="edge">
<title>node6:n&#45;&gt;node7</title>
<path fill="none" stroke="black" d="M775,-105.94C783.38,-105.94 792.26,-106.81 800.75,-108.08"/>
<polygon fill="black" stroke="black" points="800.42,-111.57 810.86,-109.8 801.59,-104.67 800.42,-111.57"/>
</g>
<!-- node7&#45;&gt;node6 -->
<g id="edge33" class="edge">
<title>node7:p&#45;&gt;node6</title>
<path fill="none" stroke="black" d="M811,-82.94C801.92,-82.94 792.83,-85.37 784.36,-88.96"/>
<polygon fill="black" stroke="black" points="782.59,-85.94 775.1,-93.44 785.63,-92.24 782.59,-85.94"/>
</g>
<!-- node8 -->
<g id="node15" class="node">
<title>node8</title>
<path fill="#ffb2d0" stroke="black" d="M927,-71.94C927,-71.94 971,-71.94 971,-71.94 977,-71.94 983,-77.94 983,-83.94 983,-83.94 983,-151.94 983,-151.94 983,-157.94 977,-163.94 971,-163.94 971,-163.94 927,-163.94 927,-163.94 921,-163.94 915,-157.94 915,-151.94 915,-151.94 915,-83.94 915,-83.94 915,-77.94 921,-71.94 927,-71.94"/>
<text text-anchor="middle" x="949" y="-148.74" font-family="Times,serif" font-size="14.00">Node 8</text>
<polyline fill="none" stroke="black" points="915,-140.94 983,-140.94 "/>
<text text-anchor="middle" x="949" y="-125.74" font-family="Times,serif" font-size="14.00">Val. 7</text>
<polyline fill="none" stroke="black" points="915,-117.94 983,-117.94 "/>
<text text-anchor="middle" x="949" y="-102.74" font-family="Times,serif" font-size="14.00">Next 9</text>
<polyline fill="none" stroke="black" points="915,-94.94 983,-94.94 "/>
<text text-anchor="middle" x="949" y="-79.74" font-family="Times,serif" font-size="14.00">Prev. 7</text>
</g>
<!-- node7&#45;&gt;node8 -->
<!-- node7&#45;&gt;node8 -->
<g id="edge32" class="edge">
<title>node7:n&#45;&gt;node8</title>
<path fill="none" stroke="black" d="M879,-105.94C887.38,-105.94 896.26,-106.81 904.75,-108.08"/>
<polygon fill="black" stroke="black" points="904.42,-111.57 914.86,-109.8 905.59,-104.67 904.42,-111.57"/>
</g>
<!-- node8&#45;&gt;node7 -->
<g id="edge35" class="edge">
<title>node8:p&#45;&gt;node7</title>
<path fill="none" stroke="black" d="M915,-82.94C905.92,-82.94 896.83,-85.37 888.36,-88.96"/>
<polygon fill="black" stroke="black" points="886.59,-85.94 879.1,-93.44 889.63,-92.24 886.59,-85.94"/>
</g>
<!-- node9 -->
<g id="node16" class="node">
<title>node9</title>
<path fill="#ffb2d0" stroke="black" d="M1031,-71.94C1031,-71.94 1081,-71.94 1081,-71.94 1087,-71.94 1093,-77.94 1093,-83.94 1093,-83.94 1093,-151.94 1093,-151.94 1093,-157.94 1087,-163.94 1081,-163.94 1081,-163.94 1031,-163.94 1031,-163.94 1025,-163.94 1019,-157.94 1019,-151.94 1019,-151.94 1019,-83.94 1019,-83.94 1019,-77.94 1025,-71.94 1031,-71.94"/>
<text text-anchor="middle" x="1056" y="-148.74" font-family="Times,serif" font-size="14.00">Node 9</text>
<polyline fill="none" stroke="black" points="1019,-140.94 1093,-140.94 "/>
<text text-anchor="middle" x="1056" y="-125.74" font-family="Times,serif" font-size="14.00">Val. 8</text>
<polyline fill="none" stroke="black" points="1019,-117.94 1093,-117.94 "/>
<text text-anchor="middle" x="1056" y="-102.74" font-family="Times,serif" font-size="14.00">Next 10</text>
<polyline fill="none" stroke="black" points="1019,-94.94 1093,-94.94 "/>
<text text-anchor="middle" x="1056" y="-79.74" font-family="Times,serif" font-size="14.00">Prev. 8</text>
</g>
<!-- node8&#45;&gt;node9 -->
<!-- node8&#45;&gt;node9 -->
<g id="edge34" class="edge">
<title>node8:n&#45;&gt;node9</title>
<path fill="none" stroke="black" d="M983,-105.94C991.47,-105.94 1000.43,-106.75 1009.04,-107.96"/>
<polygon fill="black" stroke="black" points="1008.51,-111.42 1018.94,-109.54 1009.61,-104.51 1008.51,-111.42"/>
</g>
<!-- node9&#45;&gt;node8 -->
<g id="edge37" class="edge">
<title>node9:p&#45;&gt;node8</title>
<path fill="none" stroke="black" d="M1019,-82.94C1009.92,-82.94 1000.83,-85.37 992.36,-88.96"/>
<polygon fill="black" stroke="black" points="990.59,-85.94 983.1,-93.44 993.63,-92.24 990.59,-85.94"/>
</g>
<!-- node10 -->
<g id="node17" class="node">
<title>node10</title>
<path fill="#ffb2d0" stroke="black" d="M1141,-71.94C1141,-71.94 1194,-71.94 1194,-71.94 1200,-71.94 1206,-77.94 1206,-83.94 1206,-83.94 1206,-151.94 1206,-151.94 1206,-157.94 1200,-163.94 1194,-163.94 1194,-163.94 1141,-163.94 1141,-163.94 1135,-163.94 1129,-157.94 1129,-151.94 1129,-151.94 1129,-83.94 1129,-83.94 1129,-77.94 1135,-71.94 1141,-71.94"/>
<text text-anchor="middle" x="1167.5" y="-148.74" font-family="Times,serif" font-size="14.00">Node 10</text>
<polyline fill="none" stroke="black" points="1129,-140.94 1206,-140.94 "/>
<text text-anchor="middle" x="1167.5" y="-125.74" font-family="Times,serif" font-size="14.00">Val. 9</text>
<polyline fill="none" stroke="black" points="1129,-117.94 1206,-117.94 "/>
<text text-anchor="middle" x="1167.5" y="-102.74" font-family="Times,serif" font-size="14.00">Next 11</text>
<polyline fill="none" stroke="black" points="1129,-94.94 1206,-94.94 "/>
<text text-anchor="middle" x="1167.5" y="-79.74" font-family="Times,serif" font-size="14.00">Prev. 9</text>
</g>
<!-- node9&#45;&gt;node10 -->
<!-- node9&#45;&gt;node10 -->
<g id="edge36" class="edge">
<title>node9:n&#45;&gt;node10</title>
<path fill="none" stroke="black" d="M1093,-105.94C1101.46,-105.94 1110.39,-106.72 1119,-107.89"/>
<polygon fill="black" stroke="black" points="1118.51,-111.35 1128.92,-109.41 1119.57,-104.43 1118.51,-111.35"/>
</g>
<!-- node10&#45;&gt;node9 -->
<g id="edge39" class="edge">
<title>node10:p&#45;&gt;node9</title>
<path fill="none" stroke="black" d="M1129,-82.94C1120.01,-82.94 1110.97,-85.17 1102.48,-88.51"/>
<polygon fill="black" stroke="black" points="1100.85,-85.4 1093.15,-92.68 1103.71,-91.79 1100.85,-85.4"/>
</g>
<!-- node11 -->
<g id="node18" class="node">
<title>node11</title>
<path fill="#ffb2d0" stroke="black" d="M1254,-71.94C1254,-71.94 1307,-71.94 1307,-71.94 1313,-71.94 1319,-77.94 1319,-83.94 1319,-83.94 1319,-151.94 1319,-151.94 1319,-157.94 1313,-163.94 1307,-163.94 1307,-163.94 1254,-163.94 1254,-163.94 1248,-163.94 1242,-157.94 1242,-151.94 1242,-151.94 1242,-83.94 1242,-83.94 1242,-77.94 1248,-71.94 1254,-71.94"/>
<text text-anchor="middle" x="1280.5" y="-148.74" font-family="Times,serif" font-size="14.00">Node 11</text>
<polyline fill="none" stroke="black" points="1242,-140.94 1319,-140.94 "/>
<text text-anchor="middle" x="1280.5" y="-125.74" font-family="Times,serif" font-size="14.00">Val. 10</text>
<polyline fill="none" stroke="black" points="1242,-117.94 1319,-117.94 "/>
<text text-anchor="middle" x="1280.5" y="-102.74" font-family="Times,serif" font-size="14.00">Next 12</text>
<polyline fill="none" stroke="black" points="1242,-94.94 1319,-94.94 "/>
<text text-anchor="middle" x="1280.5" y="-79.74" font-family="Times,serif" font-size="14.00">Prev. 10</text>
</g>
<!-- node10&#45;&gt;node11 -->
<!-- node10&#45;&gt;node11 -->
<g id="edge38" class="edge">
<title>node10:n&#45;&gt;node11</title>
<path fill="none" stroke="black" d="M1206,-105.94C1214.46,-105.94 1223.39,-106.72 1232,-107.89"/>
<polygon fill="black" stroke="black" points="1231.51,-111.35 1241.92,-109.41 1232.57,-104.43 1231.51,-111.35"/>
</g>
<!-- node11&#45;&gt;node10 -->
<g id="edge41" class="edge">
<title>node11:p&#45;&gt;node10</title>
<path fill="none" stroke="black" d="M1242,-82.94C1233.07,-82.94 1224.06,-85.07 1215.57,-88.28"/>
<polygon fill="black" stroke="black" points="1214.02,-85.14 1206.23,-92.31 1216.8,-91.57 1214.02,-85.14"/>
</g>
<!-- node12 -->
<g id="node19" class="node">
<title>node12</title>
<path fill="#ffb2d0" stroke="black" d="M1367,-71.94C1367,-71.94 1420,-71.94 1420,-71.94 1426,-71.94 1432,-77.94 1432,-83.94 1432,-83.94 1432,-151.94 1432,-151.94 1432,-157.94 1426,-163.94 1420,-163.94 1420,-163.94 1367,-163.94 1367,-163.94 1361,-163.94 1355,-157.94 1355,-151.94 1355,-151.94 1355,-83.94 1355,-83.94 1355,-77.94 1361,-71.94 1367,-71.94"/>
<text text-anchor="middle" x="1393.5" y="-148.74" font-family="Times,serif" font-size="14.00">Node 12</text>
<polyline fill="none" stroke="black" points="1355,-140.94 1432,-140.94 "/>
<text text-anchor="middle" x="1393.5" y="-125.74" font-family="Times,serif" font-size="14.00">Val. 11</text>
<polyline fill="none" stroke="black" points="1355,-117.94 1432,-117.94 "/>
<text text-anchor="middle" x="1393.5" y="-102.74" font-family="Times,serif" font-size="14.00">Next 13</text>
<polyline fill="none" stroke="black" points="1355,-94.94 1432,-94.94 "/>
<text text-anchor="middle" x="1393.5" y="-79.74" font-family="Times,serif" font-size="14.00">Prev. 11</text>
</g>
<!-- node11&#45;&gt;node12 -->
<!-- node11&#45;&gt;node12 -->
<g id="edge40" class="edge">
<title>node11:n&#45;&gt;node12</title>
<path fill="none" stroke="black" d="M1319,-105.94C1327.46,-105.94 1336.39,-106.72 1345,-107.89"/>
<polygon fill="black" stroke="black" points="1344.51,-111.35 1354.92,-109.41 1345.57,-104.43 1344.51,-111.35"/>
</g>
<!-- node12&#45;&gt;node11 -->
<g id="edge43" class="edge">
<title>node12:p&#45;&gt;node11</title>
<path fill="none" stroke="black" d="M1355,-82.94C1346.07,-82.94 1337.06,-85.07 1328.57,-88.28"/>
<polygon fill="black" stroke="black" points="1327.02,-85.14 1319.23,-92.31 1329.8,-91.57 1327.02,-85.14"/>
</g>
<!-- node13 -->
<g id="node20" class="node">
<title>node13</title>
<path fill="#ffb2d0" stroke="black" d="M1480,-71.94C1480,-71.94 1533,-71.94 1533,-71.94 1539,-71.94 1545,-77.94 1545,-83.94 1545,-83.94 1545,-151.94 1545,-151.94 1545,-157.94 1539,-163.94 1533,-163.94 1533,-163.94 1480,-163.94 1480,-163.94 1474,-163.94 1468,-157.94 1468,-151.94 1468,-151.94 1468,-83.94 1468,-83.94 1468,-77.94 1474,-71.94 1480,-71.94"/>
<text text-anchor="middle" x="1506.5" y="-148.74" font-family="Times,serif" font-size="14.00">Node 13</text>
<polyline fill="none" stroke="black" points="1468,-140.94 1545,-140.94 "/>
<text text-anchor="middle" x="1506.5" y="-125.74" font-family="Times,serif" font-size="14.00">Val. 12</text>
<polyline fill="none" stroke="black" points="1468,-117.94 1545,-117.94 "/>
<text text-anchor="middle" x="1506.5" y="-102.74" font-family="Times,serif" font-size="14.00">Next 14</text>
<polyline fill="none" stroke="black" points="1468,-94.94 1545,-94.94 "/>
<text text-anchor="middle" x="1506.5" y="-79.74" font-family="Times,serif" font-size="14.00">Prev. 12</text>
</g>
<!-- node12&#45;&gt;node13 -->
<!-- node12&#45;&gt;node13 -->
<g id="edge42" class="edge">
<title>node12:n&#45;&gt;node13</title>
<path fill="none" stroke="black" d="M1432,-105.94C1440.46,-105.94 1449.39,-106.72 1458,-107.89"/>
<polygon fill="black" stroke="black" points="1457.51,-111.35 1467.92,-109.41 1458.57,-104.43 1457.51,-111.35"/>
</g>
<!-- node13&#45;&gt;node12 -->
<g id="edge45" class="edge">
<title>node13:p&#45;&gt;node12</title>
<path fill="none" stroke="black" d="M1468,-82.94C1459.07,-82.94 1450.06,-85.07 1441.57,-88.28"/>
<polygon fill="black" stroke="black" points="1440.02,-85.14 1432.23,-92.31 1442.8,-91.57 1440.02,-85.14"/>
</g>
<!-- node14 -->
<g id="node21" class="node">
<title>node14</title>
<path fill="#ffb2d0" stroke="black" d="M1593,-71.94C1593,-71.94 1646,-71.94 1646,-71.94 1652,-71.94 1658,-77.94 1658,-83.94 1658,-83.94 1658,-151.94 1658,-151.94 1658,-157.94 1652,-163.94 1646,-163.94 1646,-163.94 1593,-163.94 1593,-163.94 1587,-163.94 1581,-157.94 1581,-151.94 1581,-151.94 1581,-83.94 1581,-83.94 1581,-77.94 1587,-71.94 1593,-71.94"/>
<text text-anchor="middle" x="1619.5" y="-148.74" font-family="Times,serif" font-size="14.00">Node 14</text>
<polyline fill="none" stroke="black" points="1581,-140.94 1658,-140.94 "/>
<text text-anchor="middle" x="1619.5" y="-125.74" font-family="Times,serif" font-size="14.00">Val. 13</text>
<polyline fill="none" stroke="black" points="1581,-117.94 1658,-117.94 "/>
<text text-anchor="middle" x="1619.5" y="-102.74" font-family="Times,serif" font-size="14.00">Next 15</text>
<polyline fill="none" stroke="black" points="1581,-94.94 1658,-94.94 "/>
<text text-anchor="middle" x="1619.5" y="-79.74" font-family="Times,serif" font-size="14.00">Prev. 13</text>
</g>
<!-- node13&#45;&gt;node14 -->
<!-- node13&#45;&gt;node14 -->
<g id="edge44" class="edge">
<title>node13:n&#45;&gt;node14</title>
<path fill="none" stroke="black" d="M1545,-105.94C1553.46,-105.94 1562.39,-106.72 1571,-107.89"/>
<polygon fill="black" stroke="black" points="1570.51,-111.35 1580.92,-109.41 1571.57,-104.43 1570.51,-111.35"/>
</g>
<!-- node14&#45;&gt;node13 -->
<g id="edge47" class="edge">
<title>node14:p&#45;&gt;node13</title>
<path fill="none" stroke="black" d="M1581,-82.94C1572.07,-82.94 1563.06,-85.07 1554.57,-88.28"/>
<polygon fill="black" stroke="black" points="1553.02,-85.14 1545.23,-92.31 1555.8,-91.57 1553.02,-85.14"/>
</g>
<!-- node15 -->
<g id="node22" class="node">
<title>node15</title>
<path fill="#ffb2d0" stroke="black" d="M1706,-71.94C1706,-71.94 1759,-71.94 1759,-71.94 1765,-71.94 1771,-77.94 1771,-83.94 1771,-83.94 1771,-151.94 1771,-151.94 1771,-157.94 1765,-163.94 1759,-163.94 1759,-163.94 1706,-163.94 1706,-163.94 1700,-163.94 1694,-157.94 1694,-151.94 1694,-151.94 1694,-83.94 1694,-83.94 1694,-77.94 1700,-71.94 1706,-71.94"/>
<text text-anchor="middle" x="1732.5" y="-148.74" font-family="Times,serif" font-size="14.00">Node 15</text>
<polyline fill="none" stroke="black" points="1694,-140.94 1771,-140.94 "/>
<text text-anchor="middle" x="1732.5" y="-125.74" font-family="Times,serif" font-size="14.00">Val. 14</text>
<polyline fill="none" stroke="black" points="1694,-117.94 1771,-117.94 "/>
<text text-anchor="middle" x="1732.5" y="-102.74" font-family="Times,serif" font-size="14.00">Next 16</text>
<polyline fill="none" stroke="black" points="1694,-94.94 1771,-94.94 "/>
<text text-anchor="middle" x="1732.5" y="-79.74" font-family="Times,serif" font-size="14.00">Prev. 14</text>
</g>
<!-- node14&#45;&gt;node15 -->
<!-- node14&#45;&gt;node15 -->
<g id="edge46" class="edge">
<title>node14:n&#45;&gt;node15</title>
<path fill="none" stroke="black" d="M1658,-105.94C1666.46,-105.94 1675.39,-106.72 1684,-107.89"/>
<polygon fill="black" stroke="black" points="1683.51,-111.35 1693.92,-109.41 1684.57,-104.43 1683.51,-111.35"/>
</g>
<!-- node15&#45;&gt;node14 -->
<g id="edge49" class="edge">
<title>node15:p&#45;&gt;node14</title>
<path fill="none" stroke="black" d="M1694,-82.94C1685.07,-82.94 1676.06,-85.07 1667.57,-88.28"/>
<polygon fill="black" stroke="black" points="1666.02,-85.14 1658.23,-92.31 1668.8,-91.57 1666.02,-85.14"/>
</g>
<!-- node15&#45;&gt;node16 -->
<!-- node15&#45;&gt;node16 -->
<g id="edge48" class="edge">
<title>node15:n&#45;&gt;node16</title>
<path fill="none" stroke="black" d="M1771,-105.94C1779.46,-105.94 1788.39,-106.72 1797,-107.89"/>
<polygon fill="black" stroke="black" points="1796.51,-111.35 1806.92,-109.41 1797.57,-104.43 1796.51,-111.35"/>
</g>
<!-- node16&#45;&gt;node15 -->
<g id="edge50" class="edge">
<title>node16:p&#45;&gt;node15</title>
<path fill="none" stroke="black" d="M1807,-82.94C1798.07,-82.94 1789.06,-85.07 1780.57,-88.28"/>
<polygon fill="black" stroke="black" points="1779.02,-85.14 1771.23,-92.31 1781.8,-91.57 1779.02,-85.14"/>
</g>
<!-- node16&#45;&gt;node17 -->
<!-- node18 -->
<g id="node25" class="node">
<title>node18</title>
<path fill="#98ff98" stroke="black" d="M2096,-71.94C2096,-71.94 2200,-71.94 2200,-71.94 2206,-71.94 2212,-77.94 2212,-83.94 2212,-83.94 2212,-151.94 2212,-151.94 2212,-157.94 2206,-163.94 2200,-163.94 2200,-163.94 2096,-163.94 2096,-163.94 2090,-163.94 2084,-157.94 2084,-151.94 2084,-151.94 2084,-83.94 2084,-83.94 2084,-77.94 2090,-71.94 2096,-71.94"/>
<text text-anchor="middle" x="2148" y="-148.74" font-family="Times,serif" font-size="14.00">Node 18</text>
<polyline fill="none" stroke="black" points="2084,-140.94 2212,-140.94 "/>
<text text-anchor="middle" x="2148" y="-125.74" font-family="Times,serif" font-size="14.00">Val. 0</text>
<polyline fill="none" stroke="black" points="2084,-117.94 2212,-117.94 "/>
<text text-anchor="middle" x="2148" y="-102.74" font-family="Times,serif" font-size="14.00">Next 19</text>
<polyline fill="none" stroke="black" points="2084,-94.94 2212,-94.94 "/>
<text text-anchor="middle" x="2148" y="-79.74" font-family="Times,serif" font-size="14.00">Prev. Free node</text>
</g>
<!-- node17&#45;&gt;node18 -->
<!-- node17&#45;&gt;node18 -->
<g id="edge51" class="edge">
<title>node17:n&#45;&gt;node18</title>
<path fill="none" stroke="black" d="M2048,-105.94C2056.34,-105.94 2065.04,-106.36 2073.68,-107.05"/>
<polygon fill="black" stroke="black" points="2073.48,-110.55 2083.76,-107.97 2074.12,-103.58 2073.48,-110.55"/>
</g>
<!-- node19 -->
<g id="node26" class="node">
<title>node19</title>
<path fill="#98ff98" stroke="black" d="M2260,-71.94C2260,-71.94 2364,-71.94 2364,-71.94 2370,-71.94 2376,-77.94 2376,-83.94 2376,-83.94 2376,-151.94 2376,-151.94 2376,-157.94 2370,-163.94 2364,-163.94 2364,-163.94 2260,-163.94 2260,-163.94 2254,-163.94 2248,-157.94 2248,-151.94 2248,-151.94 2248,-83.94 2248,-83.94 2248,-77.94 2254,-71.94 2260,-71.94"/>
<text text-anchor="middle" x="2312" y="-148.74" font-family="Times,serif" font-size="14.00">Node 19</text>
<polyline fill="none" stroke="black" points="2248,-140.94 2376,-140.94 "/>
<text text-anchor="middle" x="2312" y="-125.74" font-family="Times,serif" font-size="14.00">Val. 0</text>
<polyline fill="none" stroke="black" points="2248,-117.94 2376,-117.94 "/>
<text text-anchor="middle" x="2312" y="-102.74" font-family="Times,serif" font-size="14.00">Next 20</text>
<polyline fill="none" stroke="black" points="2248,-94.94 2376,-94.94 "/>
<text text-anchor="middle" x="2312" y="-79.74" font-family="Times,serif" font-size="14.00">Prev. Free node</text>
</g>
<!-- node18&#45;&gt;node19 -->
<!-- node18&#45;&gt;node19 -->
<g id="edge52" class="edge">
<title>node18:n&#45;&gt;node19</title>
<path fill="none" stroke="black" d="M2212,-105.94C2220.34,-105.94 2229.04,-106.36 2237.68,-107.05"/>
<polygon fill="black" stroke="black" points="2237.48,-110.55 2247.76,-107.97 2238.12,-103.58 2237.48,-110.55"/>
</g>
<!-- node20 -->
<g id="node27" class="node">
<title>node20</title>
<path fill="#98ff98" stroke="black" d="M2424,-71.94C2424,-71.94 2528,-71.94 2528,-71.94 2534,-71.94 2540,-77.94 2540,-83.94 2540,-83.94 2540,-151.94 2540,-151.94 2540,-157.94 2534,-163.94 2528,-163.94 2528,-163.94 2424,-163.94 2424,-163.94 2418,-163.94 2412,-157.94 2412,-151.94 2412,-151.94 2412,-83.94 2412,-83.94 2412,-77.94 2418,-71.94 2424,-71.94"/>
<text text-anchor="middle" x="2476" y="-148.74" font-family="Times,serif" font-size="14.00">Node 20</text>
<polyline fill="none" stroke="black" points="2412,-140.94 2540,-140.94 "/>
<text text-anchor="middle" x="2476" y="-125.74" font-family="Times,serif" font-size="14.00">Val. 0</text>
<polyline fill="none" stroke="black" points="2412,-117.94 2540,-117.94 "/>
<text text-anchor="middle" x="2476" y="-102.74" font-family="Times,serif" font-size="14.00">Next 0</text>
<polyline fill="none" stroke="black" points="2412,-94.94 2540,-94.94 "/>
<text text-anchor="middle" x="2476" y="-79.74" font-family="Times,serif" font-size="14.00">Prev. Free node</text>
</g>
<!-- node19&#45;&gt;node20 -->
<!-- node19&#45;&gt;node20 -->
<g id="edge53" class="edge">
<title>node19:n&#45;&gt;node20</title>
<path fill="none" stroke="black" d="M2376,-105.94C2384.34,-105.94 2393.04,-106.36 2401.68,-107.05"/>
<polygon fill="black" stroke="black" points="2401.48,-110.55 2411.76,-107.97 2402.12,-103.58 2401.48,-110.55"/>
</g>
</g>
</svg>
