<?xml version="1.0" encoding="UTF-8" standalone="no"?>
<!DOCTYPE svg PUBLIC "-//W3C//DTD SVG 1.1//EN"
 "http://www.w3.org/Graphics/SVG/1.1/DTD/svg11.dtd">
<!-- Generated by graphviz version 2.43.0 (0)
 -->
<!-- Title: G Pages: 1 -->
<svg width="1664pt" height="459pt"
 viewBox="0.00 0.00 1664.00 459.16" xmlns="http://www.w3.org/2000/svg" xmlns:xlink="http://www.w3.org/1999/xlink">
<g id="graph0" class="graph" transform="scale(1 1) rotate(0) translate(4 455.16)">
<title>G</title>
<polygon fill="white" stroke="transparent" points="-4,4 -4,-455.16 1660,-455.16 1660,4 -4,4"/>
<!-- head -->
<g id="node1" class="node">
<title>head</title>
<path fill="#fffeb6" stroke="black" d="M101,-289.16C101,-289.16 35,-289.16 35,-289.16 29,-289.16 23,-283.16 23,-277.16 23,-277.16 23,-265.16 23,-265.16 23,-259.16 29,-253.16 35,-253.16 35,-253.16 101,-253.16 101,-253.16 107,-253.16 113,-259.16 113,-265.16 113,-265.16 113,-277.16 113,-277.16 113,-283.16 107,-289.16 101,-289.16"/>
<text text-anchor="middle" x="68" y="-267.46" font-family="Times,serif" font-size="14.00">HEAD = 1</text>
</g>
<!-- node1 -->
<g id="node8" class="node">
<title>node1</title>
<path fill="#faa76c" stroke="black" d="M184,-34.16C184,-34.16 228,-34.16 228,-34.16 234,-34.16 240,-40.16 240,-46.16 240,-46.16 240,-114.16 240,-114.16 240,-120.16 234,-126.16 228,-126.16 228,-126.16 184,-126.16 184,-126.16 178,-126.16 172,-120.16 172,-114.16 172,-114.16 172,-46.16 172,-46.16 172,-40.16 178,-34.16 184,-34.16"/>
<text text-anchor="middle" x="206" y="-110.96" font-family="Times,serif" font-size="14.00">Node 1</text>
<polyline fill="none" stroke="black" points="172,-103.16 240,-103.16 "/>
<text text-anchor="middle" x="206" y="-87.96" font-family="Times,serif" font-size="14.00">Val. 0</text>
<polyline fill="none" stroke="black" points="172,-80.16 240,-80.16 "/>
<text text-anchor="middle" x="206" y="-64.96" font-family="Times,serif" font-size="14.00">Next 2</text>
<polyline fill="none" stroke="black" points="172,-57.16 240,-57.16 "/>
<text text-anchor="middle" x="206" y="-41.96" font-family="Times,serif" font-size="14.00">Prev. 0</text>
</g>
<!-- head&#45;&gt;node1 -->
<g id="edge20" class="edge">
<title>head&#45;&gt;node1</title>
<path fill="none" stroke="black" stroke-width="2" d="M113.11,-259.18C121.45,-255.4 129.57,-250.49 136,-244.16 165.54,-215.06 183.08,-171.38 193.07,-136.41"/>
<polygon fill="black" stroke="black" stroke-width="2" points="196.57,-136.9 195.82,-126.33 189.81,-135.06 196.57,-136.9"/>
</g>
<!-- tail -->
<g id="node2" class="node">
<title>tail</title>
<path fill="#fffeb6" stroke="black" d="M95.5,-181.16C95.5,-181.16 40.5,-181.16 40.5,-181.16 34.5,-181.16 28.5,-175.16 28.5,-169.16 28.5,-169.16 28.5,-157.16 28.5,-157.16 28.5,-151.16 34.5,-145.16 40.5,-145.16 40.5,-145.16 95.5,-145.16 95.5,-145.16 101.5,-145.16 107.5,-151.16 107.5,-157.16 107.5,-157.16 107.5,-169.16 107.5,-169.16 107.5,-175.16 101.5,-181.16 95.5,-181.16"/>
<text text-anchor="middle" x="68" y="-159.46" font-family="Times,serif" font-size="14.00">TAIL = 2</text>
</g>
<!-- node2 -->
<g id="node9" class="node">
<title>node2</title>
<path fill="#c1aed1" stroke="black" d="M288,-34.16C288,-34.16 332,-34.16 332,-34.16 338,-34.16 344,-40.16 344,-46.16 344,-46.16 344,-114.16 344,-114.16 344,-120.16 338,-126.16 332,-126.16 332,-126.16 288,-126.16 288,-126.16 282,-126.16 276,-120.16 276,-114.16 276,-114.16 276,-46.16 276,-46.16 276,-40.16 282,-34.16 288,-34.16"/>
<text text-anchor="middle" x="310" y="-110.96" font-family="Times,serif" font-size="14.00">Node 2</text>
<polyline fill="none" stroke="black" points="276,-103.16 344,-103.16 "/>
<text text-anchor="middle" x="310" y="-87.96" font-family="Times,serif" font-size="14.00">Val. 1</text>
<polyline fill="none" stroke="black" points="276,-80.16 344,-80.16 "/>
<text text-anchor="middle" x="310" y="-64.96" font-family="Times,serif" font-size="14.00">Next 0</text>
<polyline fill="none" stroke="black" points="276,-57.16 344,-57.16 "/>
<text text-anchor="middle" x="310" y="-41.96" font-family="Times,serif" font-size="14.00">Prev. 1</text>
</g>
<!-- tail&#45;&gt;node2 -->
<g id="edge21" class="edge">
<title>tail&#45;&gt;node2</title>
<path fill="none" stroke="black" stroke-width="2" d="M107.63,-153.49C117.99,-149.31 128.4,-143.41 136,-135.16 171.13,-97.01 130.05,-54.65 172,-24.16 196.45,-6.39 211.52,-14.05 240,-24.16 249.81,-27.64 259.24,-33.17 267.8,-39.43"/>
<polygon fill="black" stroke="black" stroke-width="2" points="265.7,-42.23 275.74,-45.62 270.01,-36.71 265.7,-42.23"/>
</g>
<!-- freeHead -->
<g id="node3" class="node">
<title>freeHead</title>
<path fill="#fffeb6" stroke="black" d="M124,-235.16C124,-235.16 12,-235.16 12,-235.16 6,-235.16 0,-229.16 0,-223.16 0,-223.16 0,-211.16 0,-211.16 0,-205.16 6,-199.16 12,-199.16 12,-199.16 124,-199.16 124,-199.16 130,-199.16 136,-205.16 136,-211.16 136,-211.16 136,-223.16 136,-223.16 136,-229.16 130,-235.16 124,-235.16"/>
<text text-anchor="middle" x="68" y="-213.46" font-family="Times,serif" font-size="14.00">FREE HEAD = 3</text>
</g>
<!-- node3 -->
<g id="node10" class="node">
<title>node3</title>
<path fill="#98ff98" stroke="black" d="M392,-34.16C392,-34.16 496,-34.16 496,-34.16 502,-34.16 508,-40.16 508,-46.16 508,-46.16 508,-114.16 508,-114.16 508,-120.16 502,-126.16 496,-126.16 496,-126.16 392,-126.16 392,-126.16 386,-126.16 380,-120.16 380,-114.16 380,-114.16 380,-46.16 380,-46.16 380,-40.16 386,-34.16 392,-34.16"/>
<text text-anchor="middle" x="444" y="-110.96" font-family="Times,serif" font-size="14.00">Node 3</text>
<polyline fill="none" stroke="black" points="380,-103.16 508,-103.16 "/>
<text text-anchor="middle" x="444" y="-87.96" font-family="Times,serif" font-size="14.00">Val. 0</text>
<polyline fill="none" stroke="black" points="380,-80.16 508,-80.16 "/>
<text text-anchor="middle" x="444" y="-64.96" font-family="Times,serif" font-size="14.00">Next 4</text>
<polyline fill="none" stroke="black" points="380,-57.16 508,-57.16 "/>
<text text-anchor="middle" x="444" y="-41.96" font-family="Times,serif" font-size="14.00">Prev. Free node</text>
</g>
<!-- freeHead&#45;&gt;node3 -->
<g id="edge22" class="edge">
<title>freeHead&#45;&gt;node3</title>
<path fill="none" stroke="black" stroke-width="2" d="M126.26,-199.03C129.86,-196.45 133.17,-193.51 136,-190.16 184.67,-132.45 113.23,-71.54 172,-24.16 228.12,21.09 311.55,-5.94 371,-36.07"/>
<polygon fill="black" stroke="black" stroke-width="2" points="369.47,-39.22 379.96,-40.72 372.7,-33 369.47,-39.22"/>
</g>
<!-- capacity -->
<g id="node4" class="node">
<title>capacity</title>
<path fill="#fffeb6" stroke="black" d="M120,-343.16C120,-343.16 16,-343.16 16,-343.16 10,-343.16 4,-337.16 4,-331.16 4,-331.16 4,-319.16 4,-319.16 4,-313.16 10,-307.16 16,-307.16 16,-307.16 120,-307.16 120,-307.16 126,-307.16 132,-313.16 132,-319.16 132,-319.16 132,-331.16 132,-331.16 132,-337.16 126,-343.16 120,-343.16"/>
<text text-anchor="middle" x="68" y="-321.46" font-family="Times,serif" font-size="14.00">CAPACITY = 10</text>
</g>
<!-- size -->
<g id="node5" class="node">
<title>size</title>
<path fill="#fffeb6" stroke="black" d="M97,-397.16C97,-397.16 39,-397.16 39,-397.16 33,-397.16 27,-391.16 27,-385.16 27,-385.16 27,-373.16 27,-373.16 27,-367.16 33,-361.16 39,-361.16 39,-361.16 97,-361.16 97,-361.16 103,-361.16 109,-367.16 109,-373.16 109,-373.16 109,-385.16 109,-385.16 109,-391.16 103,-397.16 97,-397.16"/>
<text text-anchor="middle" x="68" y="-375.46" font-family="Times,serif" font-size="14.00">SIZE = 2</text>
</g>
<!-- isSorted -->
<g id="node6" class="node">
<title>isSorted</title>
<path fill="#fffeb6" stroke="black" d="M117.5,-451.16C117.5,-451.16 18.5,-451.16 18.5,-451.16 12.5,-451.16 6.5,-445.16 6.5,-439.16 6.5,-439.16 6.5,-427.16 6.5,-427.16 6.5,-421.16 12.5,-415.16 18.5,-415.16 18.5,-415.16 117.5,-415.16 117.5,-415.16 123.5,-415.16 129.5,-421.16 129.5,-427.16 129.5,-427.16 129.5,-439.16 129.5,-439.16 129.5,-445.16 123.5,-451.16 117.5,-451.16"/>
<text text-anchor="middle" x="68" y="-429.46" font-family="Times,serif" font-size="14.00">SORTED = NO</text>
</g>
<!-- node0 -->
<g id="node7" class="node">
<title>node0</title>
<path fill="#c0c0c0" stroke="black" d="M46,-34.16C46,-34.16 90,-34.16 90,-34.16 96,-34.16 102,-40.16 102,-46.16 102,-46.16 102,-114.16 102,-114.16 102,-120.16 96,-126.16 90,-126.16 90,-126.16 46,-126.16 46,-126.16 40,-126.16 34,-120.16 34,-114.16 34,-114.16 34,-46.16 34,-46.16 34,-40.16 40,-34.16 46,-34.16"/>
<text text-anchor="middle" x="68" y="-110.96" font-family="Times,serif" font-size="14.00">Node 0</text>
<polyline fill="none" stroke="black" points="34,-103.16 102,-103.16 "/>
<text text-anchor="middle" x="68" y="-87.96" font-family="Times,serif" font-size="14.00">Val. 0</text>
<polyline fill="none" stroke="black" points="34,-80.16 102,-80.16 "/>
<text text-anchor="middle" x="68" y="-64.96" font-family="Times,serif" font-size="14.00">Next 1</text>
<polyline fill="none" stroke="black" points="34,-57.16 102,-57.16 "/>
<text text-anchor="middle" x="68" y="-41.96" font-family="Times,serif" font-size="14.00">Prev. 2</text>
</g>
<!-- node0&#45;&gt;node1 -->
<!-- node1&#45;&gt;node2 -->
<!-- node1&#45;&gt;node2 -->
<g id="edge11" class="edge">
<title>node1:n&#45;&gt;node2</title>
<path fill="none" stroke="black" d="M240,-68.16C248.38,-68.16 257.26,-69.03 265.75,-70.3"/>
<polygon fill="black" stroke="black" points="265.42,-73.79 275.86,-72.02 266.59,-66.89 265.42,-73.79"/>
</g>
<!-- node2&#45;&gt;node1 -->
<g id="edge12" class="edge">
<title>node2:p&#45;&gt;node1</title>
<path fill="none" stroke="black" d="M276,-45.16C266.92,-45.16 257.83,-47.6 249.36,-51.18"/>
<polygon fill="black" stroke="black" points="247.59,-48.16 240.1,-55.66 250.63,-54.46 247.59,-48.16"/>
</g>
<!-- node2&#45;&gt;node3 -->
<!-- node4 -->
<g id="node11" class="node">
<title>node4</title>
<path fill="#98ff98" stroke="black" d="M556,-34.16C556,-34.16 660,-34.16 660,-34.16 666,-34.16 672,-40.16 672,-46.16 672,-46.16 672,-114.16 672,-114.16 672,-120.16 666,-126.16 660,-126.16 660,-126.16 556,-126.16 556,-126.16 550,-126.16 544,-120.16 544,-114.16 544,-114.16 544,-46.16 544,-46.16 544,-40.16 550,-34.16 556,-34.16"/>
<text text-anchor="middle" x="608" y="-110.96" font-family="Times,serif" font-size="14.00">Node 4</text>
<polyline fill="none" stroke="black" points="544,-103.16 672,-103.16 "/>
<text text-anchor="middle" x="608" y="-87.96" font-family="Times,serif" font-size="14.00">Val. 0</text>
<polyline fill="none" stroke="black" points="544,-80.16 672,-80.16 "/>
<text text-anchor="middle" x="608" y="-64.96" font-family="Times,serif" font-size="14.00">Next 5</text>
<polyline fill="none" stroke="black" points="544,-57.16 672,-57.16 "/>
<text text-anchor="middle" x="608" y="-41.96" font-family="Times,serif" font-size="14.00">Prev. Free node</text>
</g>
<!-- node3&#45;&gt;node4 -->
<!-- node3&#45;&gt;node4 -->
<g id="edge13" class="edge">
<title>node3:n&#45;&gt;node4</title>
<path fill="none" stroke="black" d="M508,-68.16C516.34,-68.16 525.04,-68.58 533.68,-69.27"/>
<polygon fill="black" stroke="black" points="533.48,-72.77 543.76,-70.19 534.12,-65.8 533.48,-72.77"/>
</g>
<!-- node5 -->
<g id="node12" class="node">
<title>node5</title>
<path fill="#98ff98" stroke="black" d="M720,-34.16C720,-34.16 824,-34.16 824,-34.16 830,-34.16 836,-40.16 836,-46.16 836,-46.16 836,-114.16 836,-114.16 836,-120.16 830,-126.16 824,-126.16 824,-126.16 720,-126.16 720,-126.16 714,-126.16 708,-120.16 708,-114.16 708,-114.16 708,-46.16 708,-46.16 708,-40.16 714,-34.16 720,-34.16"/>
<text text-anchor="middle" x="772" y="-110.96" font-family="Times,serif" font-size="14.00">Node 5</text>
<polyline fill="none" stroke="black" points="708,-103.16 836,-103.16 "/>
<text text-anchor="middle" x="772" y="-87.96" font-family="Times,serif" font-size="14.00">Val. 0</text>
<polyline fill="none" stroke="black" points="708,-80.16 836,-80.16 "/>
<text text-anchor="middle" x="772" y="-64.96" font-family="Times,serif" font-size="14.00">Next 6</text>
<polyline fill="none" stroke="black" points="708,-57.16 836,-57.16 "/>
<text text-anchor="middle" x="772" y="-41.96" font-family="Times,serif" font-size="14.00">Prev. Free node</text>
</g>
<!-- node4&#45;&gt;node5 -->
<!-- node4&#45;&gt;node5 -->
<g id="edge14" class="edge">
<title>node4:n&#45;&gt;node5</title>
<path fill="none" stroke="black" d="M672,-68.16C680.34,-68.16 689.04,-68.58 697.68,-69.27"/>
<polygon fill="black" stroke="black" points="697.48,-72.77 707.76,-70.19 698.12,-65.8 697.48,-72.77"/>
</g>
<!-- node6 -->
<g id="node13" class="node">
<title>node6</title>
<path fill="#98ff98" stroke="black" d="M884,-34.16C884,-34.16 988,-34.16 988,-34.16 994,-34.16 1000,-40.16 1000,-46.16 1000,-46.16 1000,-114.16 1000,-114.16 1000,-120.16 994,-126.16 988,-126.16 988,-126.16 884,-126.16 884,-126.16 878,-126.16 872,-120.16 872,-114.16 872,-114.16 872,-46.16 872,-46.16 872,-40.16 878,-34.16 884,-34.16"/>
<text text-anchor="middle" x="936" y="-110.96" font-family="Times,serif" font-size="14.00">Node 6</text>
<polyline fill="none" stroke="black" points="872,-103.16 1000,-103.16 "/>
<text text-anchor="middle" x="936" y="-87.96" font-family="Times,serif" font-size="14.00">Val. 0</text>
<polyline fill="none" stroke="black" points="872,-80.16 1000,-80.16 "/>
<text text-anchor="middle" x="936" y="-64.96" font-family="Times,serif" font-size="14.00">Next 7</text>
<polyline fill="none" stroke="black" points="872,-57.16 1000,-57.16 "/>
<text text-anchor="middle" x="936" y="-41.96" font-family="Times,serif" font-size="14.00">Prev. Free node</text>
</g>
<!-- node5&#45;&gt;node6 -->
<!-- node5&#45;&gt;node6 -->
<g id="edge15" class="edge">
<title>node5:n&#45;&gt;node6</title>
<path fill="none" stroke="black" d="M836,-68.16C844.34,-68.16 853.04,-68.58 861.68,-69.27"/>
<polygon fill="black" stroke="black" points="861.48,-72.77 871.76,-70.19 862.12,-65.8 861.48,-72.77"/>
</g>
<!-- node7 -->
<g id="node14" class="node">
<title>node7</title>
<path fill="#98ff98" stroke="black" d="M1048,-34.16C1048,-34.16 1152,-34.16 1152,-34.16 1158,-34.16 1164,-40.16 1164,-46.16 1164,-46.16 1164,-114.16 1164,-114.16 1164,-120.16 1158,-126.16 1152,-126.16 1152,-126.16 1048,-126.16 1048,-126.16 1042,-126.16 1036,-120.16 1036,-114.16 1036,-114.16 1036,-46.16 1036,-46.16 1036,-40.16 1042,-34.16 1048,-34.16"/>
<text text-anchor="middle" x="1100" y="-110.96" font-family="Times,serif" font-size="14.00">Node 7</text>
<polyline fill="none" stroke="black" points="1036,-103.16 1164,-103.16 "/>
<text text-anchor="middle" x="1100" y="-87.96" font-family="Times,serif" font-size="14.00">Val. 0</text>
<polyline fill="none" stroke="black" points="1036,-80.16 1164,-80.16 "/>
<text text-anchor="middle" x="1100" y="-64.96" font-family="Times,serif" font-size="14.00">Next 8</text>
<polyline fill="none" stroke="black" points="1036,-57.16 1164,-57.16 "/>
<text text-anchor="middle" x="1100" y="-41.96" font-family="Times,serif" font-size="14.00">Prev. Free node</text>
</g>
<!-- node6&#45;&gt;node7 -->
<!-- node6&#45;&gt;node7 -->
<g id="edge16" class="edge">
<title>node6:n&#45;&gt;node7</title>
<path fill="none" stroke="black" d="M1000,-68.16C1008.34,-68.16 1017.04,-68.58 1025.68,-69.27"/>
<polygon fill="black" stroke="black" points="1025.48,-72.77 1035.76,-70.19 1026.12,-65.8 1025.48,-72.77"/>
</g>
<!-- node8 -->
<g id="node15" class="node">
<title>node8</title>
<path fill="#98ff98" stroke="black" d="M1212,-34.16C1212,-34.16 1316,-34.16 1316,-34.16 1322,-34.16 1328,-40.16 1328,-46.16 1328,-46.16 1328,-114.16 1328,-114.16 1328,-120.16 1322,-126.16 1316,-126.16 1316,-126.16 1212,-126.16 1212,-126.16 1206,-126.16 1200,-120.16 1200,-114.16 1200,-114.16 1200,-46.16 1200,-46.16 1200,-40.16 1206,-34.16 1212,-34.16"/>
<text text-anchor="middle" x="1264" y="-110.96" font-family="Times,serif" font-size="14.00">Node 8</text>
<polyline fill="none" stroke="black" points="1200,-103.16 1328,-103.16 "/>
<text text-anchor="middle" x="1264" y="-87.96" font-family="Times,serif" font-size="14.00">Val. 0</text>
<polyline fill="none" stroke="black" points="1200,-80.16 1328,-80.16 "/>
<text text-anchor="middle" x="1264" y="-64.96" font-family="Times,serif" font-size="14.00">Next 9</text>
<polyline fill="none" stroke="black" points="1200,-57.16 1328,-57.16 "/>
<text text-anchor="middle" x="1264" y="-41.96" font-family="Times,serif" font-size="14.00">Prev. Free node</text>
</g>
<!-- node7&#45;&gt;node8 -->
<!-- node7&#45;&gt;node8 -->
<g id="edge17" class="edge">
<title>node7:n&#45;&gt;node8</title>
<path fill="none" stroke="black" d="M1164,-68.16C1172.34,-68.16 1181.04,-68.58 1189.68,-69.27"/>
<polygon fill="black" stroke="black" points="1189.48,-72.77 1199.76,-70.19 1190.12,-65.8 1189.48,-72.77"/>
</g>
<!-- node9 -->
<g id="node16" class="node">
<title>node9</title>
<path fill="#98ff98" stroke="black" d="M1376,-34.16C1376,-34.16 1480,-34.16 1480,-34.16 1486,-34.16 1492,-40.16 1492,-46.16 1492,-46.16 1492,-114.16 1492,-114.16 1492,-120.16 1486,-126.16 1480,-126.16 1480,-126.16 1376,-126.16 1376,-126.16 1370,-126.16 1364,-120.16 1364,-114.16 1364,-114.16 1364,-46.16 1364,-46.16 1364,-40.16 1370,-34.16 1376,-34.16"/>
<text text-anchor="middle" x="1428" y="-110.96" font-family="Times,serif" font-size="14.00">Node 9</text>
<polyline fill="none" stroke="black" points="1364,-103.16 1492,-103.16 "/>
<text text-anchor="middle" x="1428" y="-87.96" font-family="Times,serif" font-size="14.00">Val. 0</text>
<polyline fill="none" stroke="black" points="1364,-80.16 1492,-80.16 "/>
<text text-anchor="middle" x="1428" y="-64.96" font-family="Times,serif" font-size="14.00">Next 10</text>
<polyline fill="none" stroke="black" points="1364,-57.16 1492,-57.16 "/>
<text text-anchor="middle" x="1428" y="-41.96" font-family="Times,serif" font-size="14.00">Prev. Free node</text>
</g>
<!-- node8&#45;&gt;node9 -->
<!-- node8&#45;&gt;node9 -->
<g id="edge18" class="edge">
<title>node8:n&#45;&gt;node9</title>
<path fill="none" stroke="black" d="M1328,-68.16C1336.34,-68.16 1345.04,-68.58 1353.68,-69.27"/>
<polygon fill="black" stroke="black" points="1353.48,-72.77 1363.76,-70.19 1354.12,-65.8 1353.48,-72.77"/>
</g>
<!-- node10 -->
<g id="node17" class="node">
<title>node10</title>
<path fill="#98ff98" stroke="black" d="M1540,-34.16C1540,-34.16 1644,-34.16 1644,-34.16 1650,-34.16 1656,-40.16 1656,-46.16 1656,-46.16 1656,-114.16 1656,-114.16 1656,-120.16 1650,-126.16 1644,-126.16 1644,-126.16 1540,-126.16 1540,-126.16 1534,-126.16 1528,-120.16 1528,-114.16 1528,-114.16 1528,-46.16 1528,-46.16 1528,-40.16 1534,-34.16 1540,-34.16"/>
<text text-anchor="middle" x="1592" y="-110.96" font-family="Times,serif" font-size="14.00">Node 10</text>
<polyline fill="none" stroke="black" points="1528,-103.16 1656,-103.16 "/>
<text text-anchor="middle" x="1592" y="-87.96" font-family="Times,serif" font-size="14.00">Val. 0</text>
<polyline fill="none" stroke="black" points="1528,-80.16 1656,-80.16 "/>
<text text-anchor="middle" x="1592" y="-64.96" font-family="Times,serif" font-size="14.00">Next 0</text>
<polyline fill="none" stroke="black" points="1528,-57.16 1656,-57.16 "/>
<text text-anchor="middle" x="1592" y="-41.96" font-family="Times,serif" font-size="14.00">Prev. Free node</text>
</g>
<!-- node9&#45;&gt;node10 -->
<!-- node9&#45;&gt;node10 -->
<g id="edge19" class="edge">
<title>node9:n&#45;&gt;node10</title>
<path fill="none" stroke="black" d="M1492,-68.16C1500.34,-68.16 1509.04,-68.58 1517.68,-69.27"/>
<polygon fill="black" stroke="black" points="1517.48,-72.77 1527.76,-70.19 1518.12,-65.8 1517.48,-72.77"/>
</g>
</g>
</svg>
