<?xml version="1.0" encoding="UTF-8" standalone="no"?>
<!DOCTYPE svg PUBLIC "-//W3C//DTD SVG 1.1//EN"
 "http://www.w3.org/Graphics/SVG/1.1/DTD/svg11.dtd">
<!-- Generated by graphviz version 2.43.0 (0)
 -->
<!-- Title: G Pages: 1 -->
<svg width="2542pt" height="497pt"
 viewBox="0.00 0.00 2542.00 496.53" xmlns="http://www.w3.org/2000/svg" xmlns:xlink="http://www.w3.org/1999/xlink">
<g id="graph0" class="graph" transform="scale(1 1) rotate(0) translate(4 492.53)">
<title>G</title>
<polygon fill="white" stroke="transparent" points="-4,4 -4,-492.53 2538,-492.53 2538,4 -4,4"/>
<!-- head -->
<g id="node1" class="node">
<title>head</title>
<path fill="#fffeb6" stroke="black" d="M105.5,-326.53C105.5,-326.53 39.5,-326.53 39.5,-326.53 33.5,-326.53 27.5,-320.53 27.5,-314.53 27.5,-314.53 27.5,-302.53 27.5,-302.53 27.5,-296.53 33.5,-290.53 39.5,-290.53 39.5,-290.53 105.5,-290.53 105.5,-290.53 111.5,-290.53 117.5,-296.53 117.5,-302.53 117.5,-302.53 117.5,-314.53 117.5,-314.53 117.5,-320.53 111.5,-326.53 105.5,-326.53"/>
<text text-anchor="middle" x="72.5" y="-304.83" font-family="Times,serif" font-size="14.00">HEAD = 1</text>
</g>
<!-- node1 -->
<g id="node8" class="node">
<title>node1</title>
<path fill="#faa76c" stroke="black" d="M193,-71.53C193,-71.53 237,-71.53 237,-71.53 243,-71.53 249,-77.53 249,-83.53 249,-83.53 249,-151.53 249,-151.53 249,-157.53 243,-163.53 237,-163.53 237,-163.53 193,-163.53 193,-163.53 187,-163.53 181,-157.53 181,-151.53 181,-151.53 181,-83.53 181,-83.53 181,-77.53 187,-71.53 193,-71.53"/>
<text text-anchor="middle" x="215" y="-148.33" font-family="Times,serif" font-size="14.00">Node 1</text>
<polyline fill="none" stroke="black" points="181,-140.53 249,-140.53 "/>
<text text-anchor="middle" x="215" y="-125.33" font-family="Times,serif" font-size="14.00">Val. 0</text>
<polyline fill="none" stroke="black" points="181,-117.53 249,-117.53 "/>
<text text-anchor="middle" x="215" y="-102.33" font-family="Times,serif" font-size="14.00">Next 2</text>
<polyline fill="none" stroke="black" points="181,-94.53 249,-94.53 "/>
<text text-anchor="middle" x="215" y="-79.33" font-family="Times,serif" font-size="14.00">Prev. 0</text>
</g>
<!-- head&#45;&gt;node1 -->
<g id="edge54" class="edge">
<title>head&#45;&gt;node1</title>
<path fill="none" stroke="black" stroke-width="2" d="M117.58,-298.24C127.51,-294.29 137.36,-288.89 145,-281.53 175.09,-252.54 192.65,-208.39 202.52,-173.2"/>
<polygon fill="black" stroke="black" stroke-width="2" points="205.9,-174.1 205.1,-163.53 199.14,-172.29 205.9,-174.1"/>
</g>
<!-- tail -->
<g id="node2" class="node">
<title>tail</title>
<path fill="#fffeb6" stroke="black" d="M104.5,-218.53C104.5,-218.53 40.5,-218.53 40.5,-218.53 34.5,-218.53 28.5,-212.53 28.5,-206.53 28.5,-206.53 28.5,-194.53 28.5,-194.53 28.5,-188.53 34.5,-182.53 40.5,-182.53 40.5,-182.53 104.5,-182.53 104.5,-182.53 110.5,-182.53 116.5,-188.53 116.5,-194.53 116.5,-194.53 116.5,-206.53 116.5,-206.53 116.5,-212.53 110.5,-218.53 104.5,-218.53"/>
<text text-anchor="middle" x="72.5" y="-196.83" font-family="Times,serif" font-size="14.00">TAIL = 16</text>
</g>
<!-- node16 -->
<g id="node23" class="node">
<title>node16</title>
<path fill="#c1aed1" stroke="black" d="M1813,-71.53C1813,-71.53 1866,-71.53 1866,-71.53 1872,-71.53 1878,-77.53 1878,-83.53 1878,-83.53 1878,-151.53 1878,-151.53 1878,-157.53 1872,-163.53 1866,-163.53 1866,-163.53 1813,-163.53 1813,-163.53 1807,-163.53 1801,-157.53 1801,-151.53 1801,-151.53 1801,-83.53 1801,-83.53 1801,-77.53 1807,-71.53 1813,-71.53"/>
<text text-anchor="middle" x="1839.5" y="-148.33" font-family="Times,serif" font-size="14.00">Node 16</text>
<polyline fill="none" stroke="black" points="1801,-140.53 1878,-140.53 "/>
<text text-anchor="middle" x="1839.5" y="-125.33" font-family="Times,serif" font-size="14.00">Val. 15</text>
<polyline fill="none" stroke="black" points="1801,-117.53 1878,-117.53 "/>
<text text-anchor="middle" x="1839.5" y="-102.33" font-family="Times,serif" font-size="14.00">Next 0</text>
<polyline fill="none" stroke="black" points="1801,-94.53 1878,-94.53 "/>
<text text-anchor="middle" x="1839.5" y="-79.33" font-family="Times,serif" font-size="14.00">Prev. 15</text>
</g>
<!-- tail&#45;&gt;node16 -->
<g id="edge55" class="edge">
<title>tail&#45;&gt;node16</title>
<path fill="none" stroke="black" stroke-width="2" d="M116.57,-191.13C127.12,-186.98 137.52,-181.04 145,-172.53 188.56,-122.99 132.71,-73.48 181,-28.53 226.25,13.59 256.18,-4.53 318,-4.53 318,-4.53 318,-4.53 1614.5,-4.53 1682.02,-4.53 1749.9,-45.96 1792.95,-78.65"/>
<polygon fill="black" stroke="black" stroke-width="2" points="1790.9,-81.49 1800.95,-84.85 1795.19,-75.96 1790.9,-81.49"/>
</g>
<!-- freeHead -->
<g id="node3" class="node">
<title>freeHead</title>
<path fill="#fffeb6" stroke="black" d="M133,-272.53C133,-272.53 12,-272.53 12,-272.53 6,-272.53 0,-266.53 0,-260.53 0,-260.53 0,-248.53 0,-248.53 0,-242.53 6,-236.53 12,-236.53 12,-236.53 133,-236.53 133,-236.53 139,-236.53 145,-242.53 145,-248.53 145,-248.53 145,-260.53 145,-260.53 145,-266.53 139,-272.53 133,-272.53"/>
<text text-anchor="middle" x="72.5" y="-250.83" font-family="Times,serif" font-size="14.00">FREE HEAD = 17</text>
</g>
<!-- node17 -->
<g id="node24" class="node">
<title>node17</title>
<path fill="#98ff98" stroke="black" d="M1926,-71.53C1926,-71.53 2030,-71.53 2030,-71.53 2036,-71.53 2042,-77.53 2042,-83.53 2042,-83.53 2042,-151.53 2042,-151.53 2042,-157.53 2036,-163.53 2030,-163.53 2030,-163.53 1926,-163.53 1926,-163.53 1920,-163.53 1914,-157.53 1914,-151.53 1914,-151.53 1914,-83.53 1914,-83.53 1914,-77.53 1920,-71.53 1926,-71.53"/>
<text text-anchor="middle" x="1978" y="-148.33" font-family="Times,serif" font-size="14.00">Node 17</text>
<polyline fill="none" stroke="black" points="1914,-140.53 2042,-140.53 "/>
<text text-anchor="middle" x="1978" y="-125.33" font-family="Times,serif" font-size="14.00">Val. 0</text>
<polyline fill="none" stroke="black" points="1914,-117.53 2042,-117.53 "/>
<text text-anchor="middle" x="1978" y="-102.33" font-family="Times,serif" font-size="14.00">Next 18</text>
<polyline fill="none" stroke="black" points="1914,-94.53 2042,-94.53 "/>
<text text-anchor="middle" x="1978" y="-79.33" font-family="Times,serif" font-size="14.00">Prev. Free node</text>
</g>
<!-- freeHead&#45;&gt;node17 -->
<g id="edge56" class="edge">
<title>freeHead&#45;&gt;node17</title>
<path fill="none" stroke="black" stroke-width="2" d="M135.23,-236.31C138.83,-233.76 142.14,-230.85 145,-227.53 194.3,-170.36 125.64,-112.85 181,-61.53 226.08,-19.74 256.53,-42.53 318,-42.53 318,-42.53 318,-42.53 1727.5,-42.53 1794.92,-42.53 1814.01,-40.31 1878,-61.53 1886.97,-64.5 1896.05,-68.33 1904.88,-72.57"/>
<polygon fill="black" stroke="black" stroke-width="2" points="1903.47,-75.78 1913.98,-77.13 1906.61,-69.52 1903.47,-75.78"/>
</g>
<!-- capacity -->
<g id="node4" class="node">
<title>capacity</title>
<path fill="#fffeb6" stroke="black" d="M124.5,-380.53C124.5,-380.53 20.5,-380.53 20.5,-380.53 14.5,-380.53 8.5,-374.53 8.5,-368.53 8.5,-368.53 8.5,-356.53 8.5,-356.53 8.5,-350.53 14.5,-344.53 20.5,-344.53 20.5,-344.53 124.5,-344.53 124.5,-344.53 130.5,-344.53 136.5,-350.53 136.5,-356.53 136.5,-356.53 136.5,-368.53 136.5,-368.53 136.5,-374.53 130.5,-380.53 124.5,-380.53"/>
<text text-anchor="middle" x="72.5" y="-358.83" font-family="Times,serif" font-size="14.00">CAPACITY = 20</text>
</g>
<!-- size -->
<g id="node5" class="node">
<title>size</title>
<path fill="#fffeb6" stroke="black" d="M106,-434.53C106,-434.53 39,-434.53 39,-434.53 33,-434.53 27,-428.53 27,-422.53 27,-422.53 27,-410.53 27,-410.53 27,-404.53 33,-398.53 39,-398.53 39,-398.53 106,-398.53 106,-398.53 112,-398.53 118,-404.53 118,-410.53 118,-410.53 118,-422.53 118,-422.53 118,-428.53 112,-434.53 106,-434.53"/>
<text text-anchor="middle" x="72.5" y="-412.83" font-family="Times,serif" font-size="14.00">SIZE = 16</text>
</g>
<!-- isSorted -->
<g id="node6" class="node">
<title>isSorted</title>
<path fill="#fffeb6" stroke="black" d="M122,-488.53C122,-488.53 23,-488.53 23,-488.53 17,-488.53 11,-482.53 11,-476.53 11,-476.53 11,-464.53 11,-464.53 11,-458.53 17,-452.53 23,-452.53 23,-452.53 122,-452.53 122,-452.53 128,-452.53 134,-458.53 134,-464.53 134,-464.53 134,-476.53 134,-476.53 134,-482.53 128,-488.53 122,-488.53"/>
<text text-anchor="middle" x="72.5" y="-466.83" font-family="Times,serif" font-size="14.00">SORTED = NO</text>
</g>
<!-- node0 -->
<g id="node7" class="node">
<title>node0</title>
<path fill="#c0c0c0" stroke="black" d="M47.5,-71.53C47.5,-71.53 97.5,-71.53 97.5,-71.53 103.5,-71.53 109.5,-77.53 109.5,-83.53 109.5,-83.53 109.5,-151.53 109.5,-151.53 109.5,-157.53 103.5,-163.53 97.5,-163.53 97.5,-163.53 47.5,-163.53 47.5,-163.53 41.5,-163.53 35.5,-157.53 35.5,-151.53 35.5,-151.53 35.5,-83.53 35.5,-83.53 35.5,-77.53 41.5,-71.53 47.5,-71.53"/>
<text text-anchor="middle" x="72.5" y="-148.33" font-family="Times,serif" font-size="14.00">Node 0</text>
<polyline fill="none" stroke="black" points="35.5,-140.53 109.5,-140.53 "/>
<text text-anchor="middle" x="72.5" y="-125.33" font-family="Times,serif" font-size="14.00">Val. 0</text>
<polyline fill="none" stroke="black" points="35.5,-117.53 109.5,-117.53 "/>
<text text-anchor="middle" x="72.5" y="-102.33" font-family="Times,serif" font-size="14.00">Next 1</text>
<polyline fill="none" stroke="black" points="35.5,-94.53 109.5,-94.53 "/>
<text text-anchor="middle" x="72.5" y="-79.33" font-family="Times,serif" font-size="14.00">Prev. 16</text>
</g>
<!-- node0&#45;&gt;node1 -->
<!-- node2 -->
<g id="node9" class="node">
<title>node2</title>
<path fill="#ffb2d0" stroke="black" d="M297,-71.53C297,-71.53 341,-71.53 341,-71.53 347,-71.53 353,-77.53 353,-83.53 353,-83.53 353,-151.53 353,-151.53 353,-157.53 347,-163.53 341,-163.53 341,-163.53 297,-163.53 297,-163.53 291,-163.53 285,-157.53 285,-151.53 285,-151.53 285,-83.53 285,-83.53 285,-77.53 291,-71.53 297,-71.53"/>
<text text-anchor="middle" x="319" y="-148.33" font-family="Times,serif" font-size="14.00">Node 2</text>
<polyline fill="none" stroke="black" points="285,-140.53 353,-140.53 "/>
<text text-anchor="middle" x="319" y="-125.33" font-family="Times,serif" font-size="14.00">Val. 1</text>
<polyline fill="none" stroke="black" points="285,-117.53 353,-117.53 "/>
<text text-anchor="middle" x="319" y="-102.33" font-family="Times,serif" font-size="14.00">Next 3</text>
<polyline fill="none" stroke="black" points="285,-94.53 353,-94.53 "/>
<text text-anchor="middle" x="319" y="-79.33" font-family="Times,serif" font-size="14.00">Prev. 1</text>
</g>
<!-- node1&#45;&gt;node2 -->
<!-- node1&#45;&gt;node2 -->
<g id="edge21" class="edge">
<title>node1:n&#45;&gt;node2</title>
<path fill="none" stroke="black" d="M249,-105.53C257.38,-105.53 266.26,-106.4 274.75,-107.67"/>
<polygon fill="black" stroke="black" points="274.42,-111.17 284.86,-109.39 275.59,-104.27 274.42,-111.17"/>
</g>
<!-- node2&#45;&gt;node1 -->
<g id="edge23" class="edge">
<title>node2:p&#45;&gt;node1</title>
<path fill="none" stroke="black" d="M285,-82.53C275.92,-82.53 266.83,-84.97 258.36,-88.56"/>
<polygon fill="black" stroke="black" points="256.59,-85.53 249.1,-93.03 259.63,-91.83 256.59,-85.53"/>
</g>
<!-- node3 -->
<g id="node10" class="node">
<title>node3</title>
<path fill="#ffb2d0" stroke="black" d="M401,-71.53C401,-71.53 445,-71.53 445,-71.53 451,-71.53 457,-77.53 457,-83.53 457,-83.53 457,-151.53 457,-151.53 457,-157.53 451,-163.53 445,-163.53 445,-163.53 401,-163.53 401,-163.53 395,-163.53 389,-157.53 389,-151.53 389,-151.53 389,-83.53 389,-83.53 389,-77.53 395,-71.53 401,-71.53"/>
<text text-anchor="middle" x="423" y="-148.33" font-family="Times,serif" font-size="14.00">Node 3</text>
<polyline fill="none" stroke="black" points="389,-140.53 457,-140.53 "/>
<text text-anchor="middle" x="423" y="-125.33" font-family="Times,serif" font-size="14.00">Val. 2</text>
<polyline fill="none" stroke="black" points="389,-117.53 457,-117.53 "/>
<text text-anchor="middle" x="423" y="-102.33" font-family="Times,serif" font-size="14.00">Next 4</text>
<polyline fill="none" stroke="black" points="389,-94.53 457,-94.53 "/>
<text text-anchor="middle" x="423" y="-79.33" font-family="Times,serif" font-size="14.00">Prev. 2</text>
</g>
<!-- node2&#45;&gt;node3 -->
<!-- node2&#45;&gt;node3 -->
<g id="edge22" class="edge">
<title>node2:n&#45;&gt;node3</title>
<path fill="none" stroke="black" d="M353,-105.53C361.38,-105.53 370.26,-106.4 378.75,-107.67"/>
<polygon fill="black" stroke="black" points="378.42,-111.17 388.86,-109.39 379.59,-104.27 378.42,-111.17"/>
</g>
<!-- node3&#45;&gt;node2 -->
<g id="edge25" class="edge">
<title>node3:p&#45;&gt;node2</title>
<path fill="none" stroke="black" d="M389,-82.53C379.92,-82.53 370.83,-84.97 362.36,-88.56"/>
<polygon fill="black" stroke="black" points="360.59,-85.53 353.1,-93.03 363.63,-91.83 360.59,-85.53"/>
</g>
<!-- node4 -->
<g id="node11" class="node">
<title>node4</title>
<path fill="#ffb2d0" stroke="black" d="M505,-71.53C505,-71.53 549,-71.53 549,-71.53 555,-71.53 561,-77.53 561,-83.53 561,-83.53 561,-151.53 561,-151.53 561,-157.53 555,-163.53 549,-163.53 549,-163.53 505,-163.53 505,-163.53 499,-163.53 493,-157.53 493,-151.53 493,-151.53 493,-83.53 493,-83.53 493,-77.53 499,-71.53 505,-71.53"/>
<text text-anchor="middle" x="527" y="-148.33" font-family="Times,serif" font-size="14.00">Node 4</text>
<polyline fill="none" stroke="black" points="493,-140.53 561,-140.53 "/>
<text text-anchor="middle" x="527" y="-125.33" font-family="Times,serif" font-size="14.00">Val. 3</text>
<polyline fill="none" stroke="black" points="493,-117.53 561,-117.53 "/>
<text text-anchor="middle" x="527" y="-102.33" font-family="Times,serif" font-size="14.00">Next 5</text>
<polyline fill="none" stroke="black" points="493,-94.53 561,-94.53 "/>
<text text-anchor="middle" x="527" y="-79.33" font-family="Times,serif" font-size="14.00">Prev. 3</text>
</g>
<!-- node3&#45;&gt;node4 -->
<!-- node3&#45;&gt;node4 -->
<g id="edge24" class="edge">
<title>node3:n&#45;&gt;node4</title>
<path fill="none" stroke="black" d="M457,-105.53C465.38,-105.53 474.26,-106.4 482.75,-107.67"/>
<polygon fill="black" stroke="black" points="482.42,-111.17 492.86,-109.39 483.59,-104.27 482.42,-111.17"/>
</g>
<!-- node4&#45;&gt;node3 -->
<g id="edge27" class="edge">
<title>node4:p&#45;&gt;node3</title>
<path fill="none" stroke="black" d="M493,-82.53C483.92,-82.53 474.83,-84.97 466.36,-88.56"/>
<polygon fill="black" stroke="black" points="464.59,-85.53 457.1,-93.03 467.63,-91.83 464.59,-85.53"/>
</g>
<!-- node5 -->
<g id="node12" class="node">
<title>node5</title>
<path fill="#ffb2d0" stroke="black" d="M609,-71.53C609,-71.53 653,-71.53 653,-71.53 659,-71.53 665,-77.53 665,-83.53 665,-83.53 665,-151.53 665,-151.53 665,-157.53 659,-163.53 653,-163.53 653,-163.53 609,-163.53 609,-163.53 603,-163.53 597,-157.53 597,-151.53 597,-151.53 597,-83.53 597,-83.53 597,-77.53 603,-71.53 609,-71.53"/>
<text text-anchor="middle" x="631" y="-148.33" font-family="Times,serif" font-size="14.00">Node 5</text>
<polyline fill="none" stroke="black" points="597,-140.53 665,-140.53 "/>
<text text-anchor="middle" x="631" y="-125.33" font-family="Times,serif" font-size="14.00">Val. 4</text>
<polyline fill="none" stroke="black" points="597,-117.53 665,-117.53 "/>
<text text-anchor="middle" x="631" y="-102.33" font-family="Times,serif" font-size="14.00">Next 6</text>
<polyline fill="none" stroke="black" points="597,-94.53 665,-94.53 "/>
<text text-anchor="middle" x="631" y="-79.33" font-family="Times,serif" font-size="14.00">Prev. 4</text>
</g>
<!-- node4&#45;&gt;node5 -->
<!-- node4&#45;&gt;node5 -->
<g id="edge26" class="edge">
<title>node4:n&#45;&gt;node5</title>
<path fill="none" stroke="black" d="M561,-105.53C569.38,-105.53 578.26,-106.4 586.75,-107.67"/>
<polygon fill="black" stroke="black" points="586.42,-111.17 596.86,-109.39 587.59,-104.27 586.42,-111.17"/>
</g>
<!-- node5&#45;&gt;node4 -->
<g id="edge29" class="edge">
<title>node5:p&#45;&gt;node4</title>
<path fill="none" stroke="black" d="M597,-82.53C587.92,-82.53 578.83,-84.97 570.36,-88.56"/>
<polygon fill="black" stroke="black" points="568.59,-85.53 561.1,-93.03 571.63,-91.83 568.59,-85.53"/>
</g>
<!-- node6 -->
<g id="node13" class="node">
<title>node6</title>
<path fill="#ffb2d0" stroke="black" d="M713,-71.53C713,-71.53 757,-71.53 757,-71.53 763,-71.53 769,-77.53 769,-83.53 769,-83.53 769,-151.53 769,-151.53 769,-157.53 763,-163.53 757,-163.53 757,-163.53 713,-163.53 713,-163.53 707,-163.53 701,-157.53 701,-151.53 701,-151.53 701,-83.53 701,-83.53 701,-77.53 707,-71.53 713,-71.53"/>
<text text-anchor="middle" x="735" y="-148.33" font-family="Times,serif" font-size="14.00">Node 6</text>
<polyline fill="none" stroke="black" points="701,-140.53 769,-140.53 "/>
<text text-anchor="middle" x="735" y="-125.33" font-family="Times,serif" font-size="14.00">Val. 5</text>
<polyline fill="none" stroke="black" points="701,-117.53 769,-117.53 "/>
<text text-anchor="middle" x="735" y="-102.33" font-family="Times,serif" font-size="14.00">Next 7</text>
<polyline fill="none" stroke="black" points="701,-94.53 769,-94.53 "/>
<text text-anchor="middle" x="735" y="-79.33" font-family="Times,serif" font-size="14.00">Prev. 5</text>
</g>
<!-- node5&#45;&gt;node6 -->
<!-- node5&#45;&gt;node6 -->
<g id="edge28" class="edge">
<title>node5:n&#45;&gt;node6</title>
<path fill="none" stroke="black" d="M665,-105.53C673.38,-105.53 682.26,-106.4 690.75,-107.67"/>
<polygon fill="black" stroke="black" points="690.42,-111.17 700.86,-109.39 691.59,-104.27 690.42,-111.17"/>
</g>
<!-- node6&#45;&gt;node5 -->
<g id="edge31" class="edge">
<title>node6:p&#45;&gt;node5</title>
<path fill="none" stroke="black" d="M701,-82.53C691.92,-82.53 682.83,-84.97 674.36,-88.56"/>
<polygon fill="black" stroke="black" points="672.59,-85.53 665.1,-93.03 675.63,-91.83 672.59,-85.53"/>
</g>
<!-- node7 -->
<g id="node14" class="node">
<title>node7</title>
<path fill="#ffb2d0" stroke="black" d="M817,-71.53C817,-71.53 861,-71.53 861,-71.53 867,-71.53 873,-77.53 873,-83.53 873,-83.53 873,-151.53 873,-151.53 873,-157.53 867,-163.53 861,-163.53 861,-163.53 817,-163.53 817,-163.53 811,-163.53 805,-157.53 805,-151.53 805,-151.53 805,-83.53 805,-83.53 805,-77.53 811,-71.53 817,-71.53"/>
<text text-anchor="middle" x="839" y="-148.33" font-family="Times,serif" font-size="14.00">Node 7</text>
<polyline fill="none" stroke="black" points="805,-140.53 873,-140.53 "/>
<text text-anchor="middle" x="839" y="-125.33" font-family="Times,serif" font-size="14.00">Val. 6</text>
<polyline fill="none" stroke="black" points="805,-117.53 873,-117.53 "/>
<text text-anchor="middle" x="839" y="-102.33" font-family="Times,serif" font-size="14.00">Next 8</text>
<polyline fill="none" stroke="black" points="805,-94.53 873,-94.53 "/>
<text text-anchor="middle" x="839" y="-79.33" font-family="Times,serif" font-size="14.00">Prev. 6</text>
</g>
<!-- node6&#45;&gt;node7 -->
<!-- node6&#45;&gt;node7 -->
<g id="edge30" class="edge">
<title>node6:n&#45;&gt;node7</title>
<path fill="none" stroke="black" d="M769,-105.53C777.38,-105.53 786.26,-106.4 794.75,-107.67"/>
<polygon fill="black" stroke="black" points="794.42,-111.17 804.86,-109.39 795.59,-104.27 794.42,-111.17"/>
</g>
<!-- node7&#45;&gt;node6 -->
<g id="edge33" class="edge">
<title>node7:p&#45;&gt;node6</title>
<path fill="none" stroke="black" d="M805,-82.53C795.92,-82.53 786.83,-84.97 778.36,-88.56"/>
<polygon fill="black" stroke="black" points="776.59,-85.53 769.1,-93.03 779.63,-91.83 776.59,-85.53"/>
</g>
<!-- node8 -->
<g id="node15" class="node">
<title>node8</title>
<path fill="#ffb2d0" stroke="black" d="M921,-71.53C921,-71.53 965,-71.53 965,-71.53 971,-71.53 977,-77.53 977,-83.53 977,-83.53 977,-151.53 977,-151.53 977,-157.53 971,-163.53 965,-163.53 965,-163.53 921,-163.53 921,-163.53 915,-163.53 909,-157.53 909,-151.53 909,-151.53 909,-83.53 909,-83.53 909,-77.53 915,-71.53 921,-71.53"/>
<text text-anchor="middle" x="943" y="-148.33" font-family="Times,serif" font-size="14.00">Node 8</text>
<polyline fill="none" stroke="black" points="909,-140.53 977,-140.53 "/>
<text text-anchor="middle" x="943" y="-125.33" font-family="Times,serif" font-size="14.00">Val. 7</text>
<polyline fill="none" stroke="black" points="909,-117.53 977,-117.53 "/>
<text text-anchor="middle" x="943" y="-102.33" font-family="Times,serif" font-size="14.00">Next 9</text>
<polyline fill="none" stroke="black" points="909,-94.53 977,-94.53 "/>
<text text-anchor="middle" x="943" y="-79.33" font-family="Times,serif" font-size="14.00">Prev. 7</text>
</g>
<!-- node7&#45;&gt;node8 -->
<!-- node7&#45;&gt;node8 -->
<g id="edge32" class="edge">
<title>node7:n&#45;&gt;node8</title>
<path fill="none" stroke="black" d="M873,-105.53C881.38,-105.53 890.26,-106.4 898.75,-107.67"/>
<polygon fill="black" stroke="black" points="898.42,-111.17 908.86,-109.39 899.59,-104.27 898.42,-111.17"/>
</g>
<!-- node8&#45;&gt;node7 -->
<g id="edge35" class="edge">
<title>node8:p&#45;&gt;node7</title>
<path fill="none" stroke="black" d="M909,-82.53C899.92,-82.53 890.83,-84.97 882.36,-88.56"/>
<polygon fill="black" stroke="black" points="880.59,-85.53 873.1,-93.03 883.63,-91.83 880.59,-85.53"/>
</g>
<!-- node9 -->
<g id="node16" class="node">
<title>node9</title>
<path fill="#ffb2d0" stroke="black" d="M1025,-71.53C1025,-71.53 1075,-71.53 1075,-71.53 1081,-71.53 1087,-77.53 1087,-83.53 1087,-83.53 1087,-151.53 1087,-151.53 1087,-157.53 1081,-163.53 1075,-163.53 1075,-163.53 1025,-163.53 1025,-163.53 1019,-163.53 1013,-157.53 1013,-151.53 1013,-151.53 1013,-83.53 1013,-83.53 1013,-77.53 1019,-71.53 1025,-71.53"/>
<text text-anchor="middle" x="1050" y="-148.33" font-family="Times,serif" font-size="14.00">Node 9</text>
<polyline fill="none" stroke="black" points="1013,-140.53 1087,-140.53 "/>
<text text-anchor="middle" x="1050" y="-125.33" font-family="Times,serif" font-size="14.00">Val. 8</text>
<polyline fill="none" stroke="black" points="1013,-117.53 1087,-117.53 "/>
<text text-anchor="middle" x="1050" y="-102.33" font-family="Times,serif" font-size="14.00">Next 10</text>
<polyline fill="none" stroke="black" points="1013,-94.53 1087,-94.53 "/>
<text text-anchor="middle" x="1050" y="-79.33" font-family="Times,serif" font-size="14.00">Prev. 8</text>
</g>
<!-- node8&#45;&gt;node9 -->
<!-- node8&#45;&gt;node9 -->
<g id="edge34" class="edge">
<title>node8:n&#45;&gt;node9</title>
<path fill="none" stroke="black" d="M977,-105.53C985.47,-105.53 994.43,-106.35 1003.04,-107.56"/>
<polygon fill="black" stroke="black" points="1002.51,-111.02 1012.94,-109.13 1003.61,-104.1 1002.51,-111.02"/>
</g>
<!-- node9&#45;&gt;node8 -->
<g id="edge37" class="edge">
<title>node9:p&#45;&gt;node8</title>
<path fill="none" stroke="black" d="M1013,-82.53C1003.92,-82.53 994.83,-84.97 986.36,-88.56"/>
<polygon fill="black" stroke="black" points="984.59,-85.53 977.1,-93.03 987.63,-91.83 984.59,-85.53"/>
</g>
<!-- node10 -->
<g id="node17" class="node">
<title>node10</title>
<path fill="#ffb2d0" stroke="black" d="M1135,-71.53C1135,-71.53 1188,-71.53 1188,-71.53 1194,-71.53 1200,-77.53 1200,-83.53 1200,-83.53 1200,-151.53 1200,-151.53 1200,-157.53 1194,-163.53 1188,-163.53 1188,-163.53 1135,-163.53 1135,-163.53 1129,-163.53 1123,-157.53 1123,-151.53 1123,-151.53 1123,-83.53 1123,-83.53 1123,-77.53 1129,-71.53 1135,-71.53"/>
<text text-anchor="middle" x="1161.5" y="-148.33" font-family="Times,serif" font-size="14.00">Node 10</text>
<polyline fill="none" stroke="black" points="1123,-140.53 1200,-140.53 "/>
<text text-anchor="middle" x="1161.5" y="-125.33" font-family="Times,serif" font-size="14.00">Val. 9</text>
<polyline fill="none" stroke="black" points="1123,-117.53 1200,-117.53 "/>
<text text-anchor="middle" x="1161.5" y="-102.33" font-family="Times,serif" font-size="14.00">Next 11</text>
<polyline fill="none" stroke="black" points="1123,-94.53 1200,-94.53 "/>
<text text-anchor="middle" x="1161.5" y="-79.33" font-family="Times,serif" font-size="14.00">Prev. 9</text>
</g>
<!-- node9&#45;&gt;node10 -->
<!-- node9&#45;&gt;node10 -->
<g id="edge36" class="edge">
<title>node9:n&#45;&gt;node10</title>
<path fill="none" stroke="black" d="M1087,-105.53C1095.46,-105.53 1104.39,-106.31 1113,-107.48"/>
<polygon fill="black" stroke="black" points="1112.51,-110.94 1122.92,-109 1113.57,-104.03 1112.51,-110.94"/>
</g>
<!-- node10&#45;&gt;node9 -->
<g id="edge39" class="edge">
<title>node10:p&#45;&gt;node9</title>
<path fill="none" stroke="black" d="M1123,-82.53C1114.01,-82.53 1104.97,-84.76 1096.48,-88.1"/>
<polygon fill="black" stroke="black" points="1094.85,-85 1087.15,-92.28 1097.71,-91.38 1094.85,-85"/>
</g>
<!-- node11 -->
<g id="node18" class="node">
<title>node11</title>
<path fill="#ffb2d0" stroke="black" d="M1248,-71.53C1248,-71.53 1301,-71.53 1301,-71.53 1307,-71.53 1313,-77.53 1313,-83.53 1313,-83.53 1313,-151.53 1313,-151.53 1313,-157.53 1307,-163.53 1301,-163.53 1301,-163.53 1248,-163.53 1248,-163.53 1242,-163.53 1236,-157.53 1236,-151.53 1236,-151.53 1236,-83.53 1236,-83.53 1236,-77.53 1242,-71.53 1248,-71.53"/>
<text text-anchor="middle" x="1274.5" y="-148.33" font-family="Times,serif" font-size="14.00">Node 11</text>
<polyline fill="none" stroke="black" points="1236,-140.53 1313,-140.53 "/>
<text text-anchor="middle" x="1274.5" y="-125.33" font-family="Times,serif" font-size="14.00">Val. 10</text>
<polyline fill="none" stroke="black" points="1236,-117.53 1313,-117.53 "/>
<text text-anchor="middle" x="1274.5" y="-102.33" font-family="Times,serif" font-size="14.00">Next 12</text>
<polyline fill="none" stroke="black" points="1236,-94.53 1313,-94.53 "/>
<text text-anchor="middle" x="1274.5" y="-79.33" font-family="Times,serif" font-size="14.00">Prev. 10</text>
</g>
<!-- node10&#45;&gt;node11 -->
<!-- node10&#45;&gt;node11 -->
<g id="edge38" class="edge">
<title>node10:n&#45;&gt;node11</title>
<path fill="none" stroke="black" d="M1200,-105.53C1208.46,-105.53 1217.39,-106.31 1226,-107.48"/>
<polygon fill="black" stroke="black" points="1225.51,-110.94 1235.92,-109 1226.57,-104.03 1225.51,-110.94"/>
</g>
<!-- node11&#45;&gt;node10 -->
<g id="edge41" class="edge">
<title>node11:p&#45;&gt;node10</title>
<path fill="none" stroke="black" d="M1236,-82.53C1227.07,-82.53 1218.06,-84.66 1209.57,-87.88"/>
<polygon fill="black" stroke="black" points="1208.02,-84.73 1200.23,-91.91 1210.8,-91.16 1208.02,-84.73"/>
</g>
<!-- node12 -->
<g id="node19" class="node">
<title>node12</title>
<path fill="#ffb2d0" stroke="black" d="M1361,-71.53C1361,-71.53 1414,-71.53 1414,-71.53 1420,-71.53 1426,-77.53 1426,-83.53 1426,-83.53 1426,-151.53 1426,-151.53 1426,-157.53 1420,-163.53 1414,-163.53 1414,-163.53 1361,-163.53 1361,-163.53 1355,-163.53 1349,-157.53 1349,-151.53 1349,-151.53 1349,-83.53 1349,-83.53 1349,-77.53 1355,-71.53 1361,-71.53"/>
<text text-anchor="middle" x="1387.5" y="-148.33" font-family="Times,serif" font-size="14.00">Node 12</text>
<polyline fill="none" stroke="black" points="1349,-140.53 1426,-140.53 "/>
<text text-anchor="middle" x="1387.5" y="-125.33" font-family="Times,serif" font-size="14.00">Val. 11</text>
<polyline fill="none" stroke="black" points="1349,-117.53 1426,-117.53 "/>
<text text-anchor="middle" x="1387.5" y="-102.33" font-family="Times,serif" font-size="14.00">Next 13</text>
<polyline fill="none" stroke="black" points="1349,-94.53 1426,-94.53 "/>
<text text-anchor="middle" x="1387.5" y="-79.33" font-family="Times,serif" font-size="14.00">Prev. 11</text>
</g>
<!-- node11&#45;&gt;node12 -->
<!-- node11&#45;&gt;node12 -->
<g id="edge40" class="edge">
<title>node11:n&#45;&gt;node12</title>
<path fill="none" stroke="black" d="M1313,-105.53C1321.46,-105.53 1330.39,-106.31 1339,-107.48"/>
<polygon fill="black" stroke="black" points="1338.51,-110.94 1348.92,-109 1339.57,-104.03 1338.51,-110.94"/>
</g>
<!-- node12&#45;&gt;node11 -->
<g id="edge43" class="edge">
<title>node12:p&#45;&gt;node11</title>
<path fill="none" stroke="black" d="M1349,-82.53C1340.07,-82.53 1331.06,-84.66 1322.57,-87.88"/>
<polygon fill="black" stroke="black" points="1321.02,-84.73 1313.23,-91.91 1323.8,-91.16 1321.02,-84.73"/>
</g>
<!-- node13 -->
<g id="node20" class="node">
<title>node13</title>
<path fill="#ffb2d0" stroke="black" d="M1474,-71.53C1474,-71.53 1527,-71.53 1527,-71.53 1533,-71.53 1539,-77.53 1539,-83.53 1539,-83.53 1539,-151.53 1539,-151.53 1539,-157.53 1533,-163.53 1527,-163.53 1527,-163.53 1474,-163.53 1474,-163.53 1468,-163.53 1462,-157.53 1462,-151.53 1462,-151.53 1462,-83.53 1462,-83.53 1462,-77.53 1468,-71.53 1474,-71.53"/>
<text text-anchor="middle" x="1500.5" y="-148.33" font-family="Times,serif" font-size="14.00">Node 13</text>
<polyline fill="none" stroke="black" points="1462,-140.53 1539,-140.53 "/>
<text text-anchor="middle" x="1500.5" y="-125.33" font-family="Times,serif" font-size="14.00">Val. 12</text>
<polyline fill="none" stroke="black" points="1462,-117.53 1539,-117.53 "/>
<text text-anchor="middle" x="1500.5" y="-102.33" font-family="Times,serif" font-size="14.00">Next 14</text>
<polyline fill="none" stroke="black" points="1462,-94.53 1539,-94.53 "/>
<text text-anchor="middle" x="1500.5" y="-79.33" font-family="Times,serif" font-size="14.00">Prev. 12</text>
</g>
<!-- node12&#45;&gt;node13 -->
<!-- node12&#45;&gt;node13 -->
<g id="edge42" class="edge">
<title>node12:n&#45;&gt;node13</title>
<path fill="none" stroke="black" d="M1426,-105.53C1434.46,-105.53 1443.39,-106.31 1452,-107.48"/>
<polygon fill="black" stroke="black" points="1451.51,-110.94 1461.92,-109 1452.57,-104.03 1451.51,-110.94"/>
</g>
<!-- node13&#45;&gt;node12 -->
<g id="edge45" class="edge">
<title>node13:p&#45;&gt;node12</title>
<path fill="none" stroke="black" d="M1462,-82.53C1453.07,-82.53 1444.06,-84.66 1435.57,-87.88"/>
<polygon fill="black" stroke="black" points="1434.02,-84.73 1426.23,-91.91 1436.8,-91.16 1434.02,-84.73"/>
</g>
<!-- node14 -->
<g id="node21" class="node">
<title>node14</title>
<path fill="#ffb2d0" stroke="black" d="M1587,-71.53C1587,-71.53 1640,-71.53 1640,-71.53 1646,-71.53 1652,-77.53 1652,-83.53 1652,-83.53 1652,-151.53 1652,-151.53 1652,-157.53 1646,-163.53 1640,-163.53 1640,-163.53 1587,-163.53 1587,-163.53 1581,-163.53 1575,-157.53 1575,-151.53 1575,-151.53 1575,-83.53 1575,-83.53 1575,-77.53 1581,-71.53 1587,-71.53"/>
<text text-anchor="middle" x="1613.5" y="-148.33" font-family="Times,serif" font-size="14.00">Node 14</text>
<polyline fill="none" stroke="black" points="1575,-140.53 1652,-140.53 "/>
<text text-anchor="middle" x="1613.5" y="-125.33" font-family="Times,serif" font-size="14.00">Val. 13</text>
<polyline fill="none" stroke="black" points="1575,-117.53 1652,-117.53 "/>
<text text-anchor="middle" x="1613.5" y="-102.33" font-family="Times,serif" font-size="14.00">Next 15</text>
<polyline fill="none" stroke="black" points="1575,-94.53 1652,-94.53 "/>
<text text-anchor="middle" x="1613.5" y="-79.33" font-family="Times,serif" font-size="14.00">Prev. 13</text>
</g>
<!-- node13&#45;&gt;node14 -->
<!-- node13&#45;&gt;node14 -->
<g id="edge44" class="edge">
<title>node13:n&#45;&gt;node14</title>
<path fill="none" stroke="black" d="M1539,-105.53C1547.46,-105.53 1556.39,-106.31 1565,-107.48"/>
<polygon fill="black" stroke="black" points="1564.51,-110.94 1574.92,-109 1565.57,-104.03 1564.51,-110.94"/>
</g>
<!-- node14&#45;&gt;node13 -->
<g id="edge47" class="edge">
<title>node14:p&#45;&gt;node13</title>
<path fill="none" stroke="black" d="M1575,-82.53C1566.07,-82.53 1557.06,-84.66 1548.57,-87.88"/>
<polygon fill="black" stroke="black" points="1547.02,-84.73 1539.23,-91.91 1549.8,-91.16 1547.02,-84.73"/>
</g>
<!-- node15 -->
<g id="node22" class="node">
<title>node15</title>
<path fill="#ffb2d0" stroke="black" d="M1700,-71.53C1700,-71.53 1753,-71.53 1753,-71.53 1759,-71.53 1765,-77.53 1765,-83.53 1765,-83.53 1765,-151.53 1765,-151.53 1765,-157.53 1759,-163.53 1753,-163.53 1753,-163.53 1700,-163.53 1700,-163.53 1694,-163.53 1688,-157.53 1688,-151.53 1688,-151.53 1688,-83.53 1688,-83.53 1688,-77.53 1694,-71.53 1700,-71.53"/>
<text text-anchor="middle" x="1726.5" y="-148.33" font-family="Times,serif" font-size="14.00">Node 15</text>
<polyline fill="none" stroke="black" points="1688,-140.53 1765,-140.53 "/>
<text text-anchor="middle" x="1726.5" y="-125.33" font-family="Times,serif" font-size="14.00">Val. 14</text>
<polyline fill="none" stroke="black" points="1688,-117.53 1765,-117.53 "/>
<text text-anchor="middle" x="1726.5" y="-102.33" font-family="Times,serif" font-size="14.00">Next 16</text>
<polyline fill="none" stroke="black" points="1688,-94.53 1765,-94.53 "/>
<text text-anchor="middle" x="1726.5" y="-79.33" font-family="Times,serif" font-size="14.00">Prev. 14</text>
</g>
<!-- node14&#45;&gt;node15 -->
<!-- node14&#45;&gt;node15 -->
<g id="edge46" class="edge">
<title>node14:n&#45;&gt;node15</title>
<path fill="none" stroke="black" d="M1652,-105.53C1660.46,-105.53 1669.39,-106.31 1678,-107.48"/>
<polygon fill="black" stroke="black" points="1677.51,-110.94 1687.92,-109 1678.57,-104.03 1677.51,-110.94"/>
</g>
<!-- node15&#45;&gt;node14 -->
<g id="edge49" class="edge">
<title>node15:p&#45;&gt;node14</title>
<path fill="none" stroke="black" d="M1688,-82.53C1679.07,-82.53 1670.06,-84.66 1661.57,-87.88"/>
<polygon fill="black" stroke="black" points="1660.02,-84.73 1652.23,-91.91 1662.8,-91.16 1660.02,-84.73"/>
</g>
<!-- node15&#45;&gt;node16 -->
<!-- node15&#45;&gt;node16 -->
<g id="edge48" class="edge">
<title>node15:n&#45;&gt;node16</title>
<path fill="none" stroke="black" d="M1765,-105.53C1773.46,-105.53 1782.39,-106.31 1791,-107.48"/>
<polygon fill="black" stroke="black" points="1790.51,-110.94 1800.92,-109 1791.57,-104.03 1790.51,-110.94"/>
</g>
<!-- node16&#45;&gt;node15 -->
<g id="edge50" class="edge">
<title>node16:p&#45;&gt;node15</title>
<path fill="none" stroke="black" d="M1801,-82.53C1792.07,-82.53 1783.06,-84.66 1774.57,-87.88"/>
<polygon fill="black" stroke="black" points="1773.02,-84.73 1765.23,-91.91 1775.8,-91.16 1773.02,-84.73"/>
</g>
<!-- node16&#45;&gt;node17 -->
<!-- node18 -->
<g id="node25" class="node">
<title>node18</title>
<path fill="#98ff98" stroke="black" d="M2090,-71.53C2090,-71.53 2194,-71.53 2194,-71.53 2200,-71.53 2206,-77.53 2206,-83.53 2206,-83.53 2206,-151.53 2206,-151.53 2206,-157.53 2200,-163.53 2194,-163.53 2194,-163.53 2090,-163.53 2090,-163.53 2084,-163.53 2078,-157.53 2078,-151.53 2078,-151.53 2078,-83.53 2078,-83.53 2078,-77.53 2084,-71.53 2090,-71.53"/>
<text text-anchor="middle" x="2142" y="-148.33" font-family="Times,serif" font-size="14.00">Node 18</text>
<polyline fill="none" stroke="black" points="2078,-140.53 2206,-140.53 "/>
<text text-anchor="middle" x="2142" y="-125.33" font-family="Times,serif" font-size="14.00">Val. 0</text>
<polyline fill="none" stroke="black" points="2078,-117.53 2206,-117.53 "/>
<text text-anchor="middle" x="2142" y="-102.33" font-family="Times,serif" font-size="14.00">Next 19</text>
<polyline fill="none" stroke="black" points="2078,-94.53 2206,-94.53 "/>
<text text-anchor="middle" x="2142" y="-79.33" font-family="Times,serif" font-size="14.00">Prev. Free node</text>
</g>
<!-- node17&#45;&gt;node18 -->
<!-- node17&#45;&gt;node18 -->
<g id="edge51" class="edge">
<title>node17:n&#45;&gt;node18</title>
<path fill="none" stroke="black" d="M2042,-105.53C2050.34,-105.53 2059.04,-105.95 2067.68,-106.64"/>
<polygon fill="black" stroke="black" points="2067.48,-110.14 2077.76,-107.57 2068.12,-103.17 2067.48,-110.14"/>
</g>
<!-- node19 -->
<g id="node26" class="node">
<title>node19</title>
<path fill="#98ff98" stroke="black" d="M2254,-71.53C2254,-71.53 2358,-71.53 2358,-71.53 2364,-71.53 2370,-77.53 2370,-83.53 2370,-83.53 2370,-151.53 2370,-151.53 2370,-157.53 2364,-163.53 2358,-163.53 2358,-163.53 2254,-163.53 2254,-163.53 2248,-163.53 2242,-157.53 2242,-151.53 2242,-151.53 2242,-83.53 2242,-83.53 2242,-77.53 2248,-71.53 2254,-71.53"/>
<text text-anchor="middle" x="2306" y="-148.33" font-family="Times,serif" font-size="14.00">Node 19</text>
<polyline fill="none" stroke="black" points="2242,-140.53 2370,-140.53 "/>
<text text-anchor="middle" x="2306" y="-125.33" font-family="Times,serif" font-size="14.00">Val. 0</text>
<polyline fill="none" stroke="black" points="2242,-117.53 2370,-117.53 "/>
<text text-anchor="middle" x="2306" y="-102.33" font-family="Times,serif" font-size="14.00">Next 20</text>
<polyline fill="none" stroke="black" points="2242,-94.53 2370,-94.53 "/>
<text text-anchor="middle" x="2306" y="-79.33" font-family="Times,serif" font-size="14.00">Prev. Free node</text>
</g>
<!-- node18&#45;&gt;node19 -->
<!-- node18&#45;&gt;node19 -->
<g id="edge52" class="edge">
<title>node18:n&#45;&gt;node19</title>
<path fill="none" stroke="black" d="M2206,-105.53C2214.34,-105.53 2223.04,-105.95 2231.68,-106.64"/>
<polygon fill="black" stroke="black" points="2231.48,-110.14 2241.76,-107.57 2232.12,-103.17 2231.48,-110.14"/>
</g>
<!-- node20 -->
<g id="node27" class="node">
<title>node20</title>
<path fill="#98ff98" stroke="black" d="M2418,-71.53C2418,-71.53 2522,-71.53 2522,-71.53 2528,-71.53 2534,-77.53 2534,-83.53 2534,-83.53 2534,-151.53 2534,-151.53 2534,-157.53 2528,-163.53 2522,-163.53 2522,-163.53 2418,-163.53 2418,-163.53 2412,-163.53 2406,-157.53 2406,-151.53 2406,-151.53 2406,-83.53 2406,-83.53 2406,-77.53 2412,-71.53 2418,-71.53"/>
<text text-anchor="middle" x="2470" y="-148.33" font-family="Times,serif" font-size="14.00">Node 20</text>
<polyline fill="none" stroke="black" points="2406,-140.53 2534,-140.53 "/>
<text text-anchor="middle" x="2470" y="-125.33" font-family="Times,serif" font-size="14.00">Val. 0</text>
<polyline fill="none" stroke="black" points="2406,-117.53 2534,-117.53 "/>
<text text-anchor="middle" x="2470" y="-102.33" font-family="Times,serif" font-size="14.00">Next 0</text>
<polyline fill="none" stroke="black" points="2406,-94.53 2534,-94.53 "/>
<text text-anchor="middle" x="2470" y="-79.33" font-family="Times,serif" font-size="14.00">Prev. Free node</text>
</g>
<!-- node19&#45;&gt;node20 -->
<!-- node19&#45;&gt;node20 -->
<g id="edge53" class="edge">
<title>node19:n&#45;&gt;node20</title>
<path fill="none" stroke="black" d="M2370,-105.53C2378.34,-105.53 2387.04,-105.95 2395.68,-106.64"/>
<polygon fill="black" stroke="black" points="2395.48,-110.14 2405.76,-107.57 2396.12,-103.17 2395.48,-110.14"/>
</g>
</g>
</svg>
