<?xml version="1.0" encoding="UTF-8" standalone="no"?>
<!DOCTYPE svg PUBLIC "-//W3C//DTD SVG 1.1//EN"
 "http://www.w3.org/Graphics/SVG/1.1/DTD/svg11.dtd">
<!-- Generated by graphviz version 2.43.0 (0)
 -->
<!-- Title: G Pages: 1 -->
<svg width="1253pt" height="497pt"
 viewBox="0.00 0.00 1253.00 496.53" xmlns="http://www.w3.org/2000/svg" xmlns:xlink="http://www.w3.org/1999/xlink">
<g id="graph0" class="graph" transform="scale(1 1) rotate(0) translate(4 492.53)">
<title>G</title>
<polygon fill="white" stroke="transparent" points="-4,4 -4,-492.53 1249,-492.53 1249,4 -4,4"/>
<!-- head -->
<g id="node1" class="node">
<title>head</title>
<path fill="#fffeb6" stroke="black" d="M105.5,-326.53C105.5,-326.53 39.5,-326.53 39.5,-326.53 33.5,-326.53 27.5,-320.53 27.5,-314.53 27.5,-314.53 27.5,-302.53 27.5,-302.53 27.5,-296.53 33.5,-290.53 39.5,-290.53 39.5,-290.53 105.5,-290.53 105.5,-290.53 111.5,-290.53 117.5,-296.53 117.5,-302.53 117.5,-302.53 117.5,-314.53 117.5,-314.53 117.5,-320.53 111.5,-326.53 105.5,-326.53"/>
<text text-anchor="middle" x="72.5" y="-304.83" font-family="Times,serif" font-size="14.00">HEAD = 1</text>
</g>
<!-- node1 -->
<g id="node8" class="node">
<title>node1</title>
<path fill="#faa76c" stroke="black" d="M193,-71.53C193,-71.53 237,-71.53 237,-71.53 243,-71.53 249,-77.53 249,-83.53 249,-83.53 249,-151.53 249,-151.53 249,-157.53 243,-163.53 237,-163.53 237,-163.53 193,-163.53 193,-163.53 187,-163.53 181,-157.53 181,-151.53 181,-151.53 181,-83.53 181,-83.53 181,-77.53 187,-71.53 193,-71.53"/>
<text text-anchor="middle" x="215" y="-148.33" font-family="Times,serif" font-size="14.00">Node 1</text>
<polyline fill="none" stroke="black" points="181,-140.53 249,-140.53 "/>
<text text-anchor="middle" x="215" y="-125.33" font-family="Times,serif" font-size="14.00">Val. 0</text>
<polyline fill="none" stroke="black" points="181,-117.53 249,-117.53 "/>
<text text-anchor="middle" x="215" y="-102.33" font-family="Times,serif" font-size="14.00">Next 2</text>
<polyline fill="none" stroke="black" points="181,-94.53 249,-94.53 "/>
<text text-anchor="middle" x="215" y="-79.33" font-family="Times,serif" font-size="14.00">Prev. 0</text>
</g>
<!-- head&#45;&gt;node1 -->
<g id="edge27" class="edge">
<title>head&#45;&gt;node1</title>
<path fill="none" stroke="black" stroke-width="2" d="M117.58,-298.24C127.51,-294.29 137.36,-288.89 145,-281.53 175.09,-252.54 192.65,-208.39 202.52,-173.2"/>
<polygon fill="black" stroke="black" stroke-width="2" points="205.9,-174.1 205.1,-163.53 199.14,-172.29 205.9,-174.1"/>
</g>
<!-- tail -->
<g id="node2" class="node">
<title>tail</title>
<path fill="#fffeb6" stroke="black" d="M100,-218.53C100,-218.53 45,-218.53 45,-218.53 39,-218.53 33,-212.53 33,-206.53 33,-206.53 33,-194.53 33,-194.53 33,-188.53 39,-182.53 45,-182.53 45,-182.53 100,-182.53 100,-182.53 106,-182.53 112,-188.53 112,-194.53 112,-194.53 112,-206.53 112,-206.53 112,-212.53 106,-218.53 100,-218.53"/>
<text text-anchor="middle" x="72.5" y="-196.83" font-family="Times,serif" font-size="14.00">TAIL = 9</text>
</g>
<!-- node9 -->
<g id="node16" class="node">
<title>node9</title>
<path fill="#c1aed1" stroke="black" d="M1025,-71.53C1025,-71.53 1069,-71.53 1069,-71.53 1075,-71.53 1081,-77.53 1081,-83.53 1081,-83.53 1081,-151.53 1081,-151.53 1081,-157.53 1075,-163.53 1069,-163.53 1069,-163.53 1025,-163.53 1025,-163.53 1019,-163.53 1013,-157.53 1013,-151.53 1013,-151.53 1013,-83.53 1013,-83.53 1013,-77.53 1019,-71.53 1025,-71.53"/>
<text text-anchor="middle" x="1047" y="-148.33" font-family="Times,serif" font-size="14.00">Node 9</text>
<polyline fill="none" stroke="black" points="1013,-140.53 1081,-140.53 "/>
<text text-anchor="middle" x="1047" y="-125.33" font-family="Times,serif" font-size="14.00">Val. 8</text>
<polyline fill="none" stroke="black" points="1013,-117.53 1081,-117.53 "/>
<text text-anchor="middle" x="1047" y="-102.33" font-family="Times,serif" font-size="14.00">Next 0</text>
<polyline fill="none" stroke="black" points="1013,-94.53 1081,-94.53 "/>
<text text-anchor="middle" x="1047" y="-79.33" font-family="Times,serif" font-size="14.00">Prev. 8</text>
</g>
<!-- tail&#45;&gt;node9 -->
<g id="edge28" class="edge">
<title>tail&#45;&gt;node9</title>
<path fill="none" stroke="black" stroke-width="2" d="M112.1,-192.78C124.13,-188.61 136.46,-182.24 145,-172.53 188.56,-122.99 132.71,-73.48 181,-28.53 226.25,13.59 256.18,-4.53 318,-4.53 318,-4.53 318,-4.53 840,-4.53 903.41,-4.53 965.76,-46.19 1004.97,-78.92"/>
<polygon fill="black" stroke="black" stroke-width="2" points="1003.09,-81.92 1012.97,-85.75 1007.64,-76.6 1003.09,-81.92"/>
</g>
<!-- freeHead -->
<g id="node3" class="node">
<title>freeHead</title>
<path fill="#fffeb6" stroke="black" d="M133,-272.53C133,-272.53 12,-272.53 12,-272.53 6,-272.53 0,-266.53 0,-260.53 0,-260.53 0,-248.53 0,-248.53 0,-242.53 6,-236.53 12,-236.53 12,-236.53 133,-236.53 133,-236.53 139,-236.53 145,-242.53 145,-248.53 145,-248.53 145,-260.53 145,-260.53 145,-266.53 139,-272.53 133,-272.53"/>
<text text-anchor="middle" x="72.5" y="-250.83" font-family="Times,serif" font-size="14.00">FREE HEAD = 10</text>
</g>
<!-- node10 -->
<g id="node17" class="node">
<title>node10</title>
<path fill="#98ff98" stroke="black" d="M1129,-71.53C1129,-71.53 1233,-71.53 1233,-71.53 1239,-71.53 1245,-77.53 1245,-83.53 1245,-83.53 1245,-151.53 1245,-151.53 1245,-157.53 1239,-163.53 1233,-163.53 1233,-163.53 1129,-163.53 1129,-163.53 1123,-163.53 1117,-157.53 1117,-151.53 1117,-151.53 1117,-83.53 1117,-83.53 1117,-77.53 1123,-71.53 1129,-71.53"/>
<text text-anchor="middle" x="1181" y="-148.33" font-family="Times,serif" font-size="14.00">Node 10</text>
<polyline fill="none" stroke="black" points="1117,-140.53 1245,-140.53 "/>
<text text-anchor="middle" x="1181" y="-125.33" font-family="Times,serif" font-size="14.00">Val. 0</text>
<polyline fill="none" stroke="black" points="1117,-117.53 1245,-117.53 "/>
<text text-anchor="middle" x="1181" y="-102.33" font-family="Times,serif" font-size="14.00">Next 0</text>
<polyline fill="none" stroke="black" points="1117,-94.53 1245,-94.53 "/>
<text text-anchor="middle" x="1181" y="-79.33" font-family="Times,serif" font-size="14.00">Prev. Free node</text>
</g>
<!-- freeHead&#45;&gt;node10 -->
<g id="edge29" class="edge">
<title>freeHead&#45;&gt;node10</title>
<path fill="none" stroke="black" stroke-width="2" d="M135.23,-236.31C138.83,-233.76 142.14,-230.85 145,-227.53 194.3,-170.36 125.64,-112.85 181,-61.53 226.08,-19.74 256.53,-42.53 318,-42.53 318,-42.53 318,-42.53 944,-42.53 1005.47,-42.53 1022.77,-41.83 1081,-61.53 1089.95,-64.56 1099.02,-68.41 1107.85,-72.68"/>
<polygon fill="black" stroke="black" stroke-width="2" points="1106.43,-75.89 1116.94,-77.26 1109.58,-69.63 1106.43,-75.89"/>
</g>
<!-- capacity -->
<g id="node4" class="node">
<title>capacity</title>
<path fill="#fffeb6" stroke="black" d="M124.5,-380.53C124.5,-380.53 20.5,-380.53 20.5,-380.53 14.5,-380.53 8.5,-374.53 8.5,-368.53 8.5,-368.53 8.5,-356.53 8.5,-356.53 8.5,-350.53 14.5,-344.53 20.5,-344.53 20.5,-344.53 124.5,-344.53 124.5,-344.53 130.5,-344.53 136.5,-350.53 136.5,-356.53 136.5,-356.53 136.5,-368.53 136.5,-368.53 136.5,-374.53 130.5,-380.53 124.5,-380.53"/>
<text text-anchor="middle" x="72.5" y="-358.83" font-family="Times,serif" font-size="14.00">CAPACITY = 10</text>
</g>
<!-- size -->
<g id="node5" class="node">
<title>size</title>
<path fill="#fffeb6" stroke="black" d="M101.5,-434.53C101.5,-434.53 43.5,-434.53 43.5,-434.53 37.5,-434.53 31.5,-428.53 31.5,-422.53 31.5,-422.53 31.5,-410.53 31.5,-410.53 31.5,-404.53 37.5,-398.53 43.5,-398.53 43.5,-398.53 101.5,-398.53 101.5,-398.53 107.5,-398.53 113.5,-404.53 113.5,-410.53 113.5,-410.53 113.5,-422.53 113.5,-422.53 113.5,-428.53 107.5,-434.53 101.5,-434.53"/>
<text text-anchor="middle" x="72.5" y="-412.83" font-family="Times,serif" font-size="14.00">SIZE = 9</text>
</g>
<!-- isSorted -->
<g id="node6" class="node">
<title>isSorted</title>
<path fill="#fffeb6" stroke="black" d="M122,-488.53C122,-488.53 23,-488.53 23,-488.53 17,-488.53 11,-482.53 11,-476.53 11,-476.53 11,-464.53 11,-464.53 11,-458.53 17,-452.53 23,-452.53 23,-452.53 122,-452.53 122,-452.53 128,-452.53 134,-458.53 134,-464.53 134,-464.53 134,-476.53 134,-476.53 134,-482.53 128,-488.53 122,-488.53"/>
<text text-anchor="middle" x="72.5" y="-466.83" font-family="Times,serif" font-size="14.00">SORTED = NO</text>
</g>
<!-- node0 -->
<g id="node7" class="node">
<title>node0</title>
<path fill="#c0c0c0" stroke="black" d="M50.5,-71.53C50.5,-71.53 94.5,-71.53 94.5,-71.53 100.5,-71.53 106.5,-77.53 106.5,-83.53 106.5,-83.53 106.5,-151.53 106.5,-151.53 106.5,-157.53 100.5,-163.53 94.5,-163.53 94.5,-163.53 50.5,-163.53 50.5,-163.53 44.5,-163.53 38.5,-157.53 38.5,-151.53 38.5,-151.53 38.5,-83.53 38.5,-83.53 38.5,-77.53 44.5,-71.53 50.5,-71.53"/>
<text text-anchor="middle" x="72.5" y="-148.33" font-family="Times,serif" font-size="14.00">Node 0</text>
<polyline fill="none" stroke="black" points="38.5,-140.53 106.5,-140.53 "/>
<text text-anchor="middle" x="72.5" y="-125.33" font-family="Times,serif" font-size="14.00">Val. 0</text>
<polyline fill="none" stroke="black" points="38.5,-117.53 106.5,-117.53 "/>
<text text-anchor="middle" x="72.5" y="-102.33" font-family="Times,serif" font-size="14.00">Next 1</text>
<polyline fill="none" stroke="black" points="38.5,-94.53 106.5,-94.53 "/>
<text text-anchor="middle" x="72.5" y="-79.33" font-family="Times,serif" font-size="14.00">Prev. 9</text>
</g>
<!-- node0&#45;&gt;node1 -->
<!-- node2 -->
<g id="node9" class="node">
<title>node2</title>
<path fill="#ffb2d0" stroke="black" d="M297,-71.53C297,-71.53 341,-71.53 341,-71.53 347,-71.53 353,-77.53 353,-83.53 353,-83.53 353,-151.53 353,-151.53 353,-157.53 347,-163.53 341,-163.53 341,-163.53 297,-163.53 297,-163.53 291,-163.53 285,-157.53 285,-151.53 285,-151.53 285,-83.53 285,-83.53 285,-77.53 291,-71.53 297,-71.53"/>
<text text-anchor="middle" x="319" y="-148.33" font-family="Times,serif" font-size="14.00">Node 2</text>
<polyline fill="none" stroke="black" points="285,-140.53 353,-140.53 "/>
<text text-anchor="middle" x="319" y="-125.33" font-family="Times,serif" font-size="14.00">Val. 1</text>
<polyline fill="none" stroke="black" points="285,-117.53 353,-117.53 "/>
<text text-anchor="middle" x="319" y="-102.33" font-family="Times,serif" font-size="14.00">Next 3</text>
<polyline fill="none" stroke="black" points="285,-94.53 353,-94.53 "/>
<text text-anchor="middle" x="319" y="-79.33" font-family="Times,serif" font-size="14.00">Prev. 1</text>
</g>
<!-- node1&#45;&gt;node2 -->
<!-- node1&#45;&gt;node2 -->
<g id="edge11" class="edge">
<title>node1:n&#45;&gt;node2</title>
<path fill="none" stroke="black" d="M249,-105.53C257.38,-105.53 266.26,-106.4 274.75,-107.67"/>
<polygon fill="black" stroke="black" points="274.42,-111.17 284.86,-109.39 275.59,-104.27 274.42,-111.17"/>
</g>
<!-- node2&#45;&gt;node1 -->
<g id="edge13" class="edge">
<title>node2:p&#45;&gt;node1</title>
<path fill="none" stroke="black" d="M285,-82.53C275.92,-82.53 266.83,-84.97 258.36,-88.56"/>
<polygon fill="black" stroke="black" points="256.59,-85.53 249.1,-93.03 259.63,-91.83 256.59,-85.53"/>
</g>
<!-- node3 -->
<g id="node10" class="node">
<title>node3</title>
<path fill="#ffb2d0" stroke="black" d="M401,-71.53C401,-71.53 445,-71.53 445,-71.53 451,-71.53 457,-77.53 457,-83.53 457,-83.53 457,-151.53 457,-151.53 457,-157.53 451,-163.53 445,-163.53 445,-163.53 401,-163.53 401,-163.53 395,-163.53 389,-157.53 389,-151.53 389,-151.53 389,-83.53 389,-83.53 389,-77.53 395,-71.53 401,-71.53"/>
<text text-anchor="middle" x="423" y="-148.33" font-family="Times,serif" font-size="14.00">Node 3</text>
<polyline fill="none" stroke="black" points="389,-140.53 457,-140.53 "/>
<text text-anchor="middle" x="423" y="-125.33" font-family="Times,serif" font-size="14.00">Val. 2</text>
<polyline fill="none" stroke="black" points="389,-117.53 457,-117.53 "/>
<text text-anchor="middle" x="423" y="-102.33" font-family="Times,serif" font-size="14.00">Next 4</text>
<polyline fill="none" stroke="black" points="389,-94.53 457,-94.53 "/>
<text text-anchor="middle" x="423" y="-79.33" font-family="Times,serif" font-size="14.00">Prev. 2</text>
</g>
<!-- node2&#45;&gt;node3 -->
<!-- node2&#45;&gt;node3 -->
<g id="edge12" class="edge">
<title>node2:n&#45;&gt;node3</title>
<path fill="none" stroke="black" d="M353,-105.53C361.38,-105.53 370.26,-106.4 378.75,-107.67"/>
<polygon fill="black" stroke="black" points="378.42,-111.17 388.86,-109.39 379.59,-104.27 378.42,-111.17"/>
</g>
<!-- node3&#45;&gt;node2 -->
<g id="edge15" class="edge">
<title>node3:p&#45;&gt;node2</title>
<path fill="none" stroke="black" d="M389,-82.53C379.92,-82.53 370.83,-84.97 362.36,-88.56"/>
<polygon fill="black" stroke="black" points="360.59,-85.53 353.1,-93.03 363.63,-91.83 360.59,-85.53"/>
</g>
<!-- node4 -->
<g id="node11" class="node">
<title>node4</title>
<path fill="#ffb2d0" stroke="black" d="M505,-71.53C505,-71.53 549,-71.53 549,-71.53 555,-71.53 561,-77.53 561,-83.53 561,-83.53 561,-151.53 561,-151.53 561,-157.53 555,-163.53 549,-163.53 549,-163.53 505,-163.53 505,-163.53 499,-163.53 493,-157.53 493,-151.53 493,-151.53 493,-83.53 493,-83.53 493,-77.53 499,-71.53 505,-71.53"/>
<text text-anchor="middle" x="527" y="-148.33" font-family="Times,serif" font-size="14.00">Node 4</text>
<polyline fill="none" stroke="black" points="493,-140.53 561,-140.53 "/>
<text text-anchor="middle" x="527" y="-125.33" font-family="Times,serif" font-size="14.00">Val. 3</text>
<polyline fill="none" stroke="black" points="493,-117.53 561,-117.53 "/>
<text text-anchor="middle" x="527" y="-102.33" font-family="Times,serif" font-size="14.00">Next 5</text>
<polyline fill="none" stroke="black" points="493,-94.53 561,-94.53 "/>
<text text-anchor="middle" x="527" y="-79.33" font-family="Times,serif" font-size="14.00">Prev. 3</text>
</g>
<!-- node3&#45;&gt;node4 -->
<!-- node3&#45;&gt;node4 -->
<g id="edge14" class="edge">
<title>node3:n&#45;&gt;node4</title>
<path fill="none" stroke="black" d="M457,-105.53C465.38,-105.53 474.26,-106.4 482.75,-107.67"/>
<polygon fill="black" stroke="black" points="482.42,-111.17 492.86,-109.39 483.59,-104.27 482.42,-111.17"/>
</g>
<!-- node4&#45;&gt;node3 -->
<g id="edge17" class="edge">
<title>node4:p&#45;&gt;node3</title>
<path fill="none" stroke="black" d="M493,-82.53C483.92,-82.53 474.83,-84.97 466.36,-88.56"/>
<polygon fill="black" stroke="black" points="464.59,-85.53 457.1,-93.03 467.63,-91.83 464.59,-85.53"/>
</g>
<!-- node5 -->
<g id="node12" class="node">
<title>node5</title>
<path fill="#ffb2d0" stroke="black" d="M609,-71.53C609,-71.53 653,-71.53 653,-71.53 659,-71.53 665,-77.53 665,-83.53 665,-83.53 665,-151.53 665,-151.53 665,-157.53 659,-163.53 653,-163.53 653,-163.53 609,-163.53 609,-163.53 603,-163.53 597,-157.53 597,-151.53 597,-151.53 597,-83.53 597,-83.53 597,-77.53 603,-71.53 609,-71.53"/>
<text text-anchor="middle" x="631" y="-148.33" font-family="Times,serif" font-size="14.00">Node 5</text>
<polyline fill="none" stroke="black" points="597,-140.53 665,-140.53 "/>
<text text-anchor="middle" x="631" y="-125.33" font-family="Times,serif" font-size="14.00">Val. 4</text>
<polyline fill="none" stroke="black" points="597,-117.53 665,-117.53 "/>
<text text-anchor="middle" x="631" y="-102.33" font-family="Times,serif" font-size="14.00">Next 6</text>
<polyline fill="none" stroke="black" points="597,-94.53 665,-94.53 "/>
<text text-anchor="middle" x="631" y="-79.33" font-family="Times,serif" font-size="14.00">Prev. 4</text>
</g>
<!-- node4&#45;&gt;node5 -->
<!-- node4&#45;&gt;node5 -->
<g id="edge16" class="edge">
<title>node4:n&#45;&gt;node5</title>
<path fill="none" stroke="black" d="M561,-105.53C569.38,-105.53 578.26,-106.4 586.75,-107.67"/>
<polygon fill="black" stroke="black" points="586.42,-111.17 596.86,-109.39 587.59,-104.27 586.42,-111.17"/>
</g>
<!-- node5&#45;&gt;node4 -->
<g id="edge19" class="edge">
<title>node5:p&#45;&gt;node4</title>
<path fill="none" stroke="black" d="M597,-82.53C587.92,-82.53 578.83,-84.97 570.36,-88.56"/>
<polygon fill="black" stroke="black" points="568.59,-85.53 561.1,-93.03 571.63,-91.83 568.59,-85.53"/>
</g>
<!-- node6 -->
<g id="node13" class="node">
<title>node6</title>
<path fill="#ffb2d0" stroke="black" d="M713,-71.53C713,-71.53 757,-71.53 757,-71.53 763,-71.53 769,-77.53 769,-83.53 769,-83.53 769,-151.53 769,-151.53 769,-157.53 763,-163.53 757,-163.53 757,-163.53 713,-163.53 713,-163.53 707,-163.53 701,-157.53 701,-151.53 701,-151.53 701,-83.53 701,-83.53 701,-77.53 707,-71.53 713,-71.53"/>
<text text-anchor="middle" x="735" y="-148.33" font-family="Times,serif" font-size="14.00">Node 6</text>
<polyline fill="none" stroke="black" points="701,-140.53 769,-140.53 "/>
<text text-anchor="middle" x="735" y="-125.33" font-family="Times,serif" font-size="14.00">Val. 5</text>
<polyline fill="none" stroke="black" points="701,-117.53 769,-117.53 "/>
<text text-anchor="middle" x="735" y="-102.33" font-family="Times,serif" font-size="14.00">Next 7</text>
<polyline fill="none" stroke="black" points="701,-94.53 769,-94.53 "/>
<text text-anchor="middle" x="735" y="-79.33" font-family="Times,serif" font-size="14.00">Prev. 5</text>
</g>
<!-- node5&#45;&gt;node6 -->
<!-- node5&#45;&gt;node6 -->
<g id="edge18" class="edge">
<title>node5:n&#45;&gt;node6</title>
<path fill="none" stroke="black" d="M665,-105.53C673.38,-105.53 682.26,-106.4 690.75,-107.67"/>
<polygon fill="black" stroke="black" points="690.42,-111.17 700.86,-109.39 691.59,-104.27 690.42,-111.17"/>
</g>
<!-- node6&#45;&gt;node5 -->
<g id="edge21" class="edge">
<title>node6:p&#45;&gt;node5</title>
<path fill="none" stroke="black" d="M701,-82.53C691.92,-82.53 682.83,-84.97 674.36,-88.56"/>
<polygon fill="black" stroke="black" points="672.59,-85.53 665.1,-93.03 675.63,-91.83 672.59,-85.53"/>
</g>
<!-- node7 -->
<g id="node14" class="node">
<title>node7</title>
<path fill="#ffb2d0" stroke="black" d="M817,-71.53C817,-71.53 861,-71.53 861,-71.53 867,-71.53 873,-77.53 873,-83.53 873,-83.53 873,-151.53 873,-151.53 873,-157.53 867,-163.53 861,-163.53 861,-163.53 817,-163.53 817,-163.53 811,-163.53 805,-157.53 805,-151.53 805,-151.53 805,-83.53 805,-83.53 805,-77.53 811,-71.53 817,-71.53"/>
<text text-anchor="middle" x="839" y="-148.33" font-family="Times,serif" font-size="14.00">Node 7</text>
<polyline fill="none" stroke="black" points="805,-140.53 873,-140.53 "/>
<text text-anchor="middle" x="839" y="-125.33" font-family="Times,serif" font-size="14.00">Val. 6</text>
<polyline fill="none" stroke="black" points="805,-117.53 873,-117.53 "/>
<text text-anchor="middle" x="839" y="-102.33" font-family="Times,serif" font-size="14.00">Next 8</text>
<polyline fill="none" stroke="black" points="805,-94.53 873,-94.53 "/>
<text text-anchor="middle" x="839" y="-79.33" font-family="Times,serif" font-size="14.00">Prev. 6</text>
</g>
<!-- node6&#45;&gt;node7 -->
<!-- node6&#45;&gt;node7 -->
<g id="edge20" class="edge">
<title>node6:n&#45;&gt;node7</title>
<path fill="none" stroke="black" d="M769,-105.53C777.38,-105.53 786.26,-106.4 794.75,-107.67"/>
<polygon fill="black" stroke="black" points="794.42,-111.17 804.86,-109.39 795.59,-104.27 794.42,-111.17"/>
</g>
<!-- node7&#45;&gt;node6 -->
<g id="edge23" class="edge">
<title>node7:p&#45;&gt;node6</title>
<path fill="none" stroke="black" d="M805,-82.53C795.92,-82.53 786.83,-84.97 778.36,-88.56"/>
<polygon fill="black" stroke="black" points="776.59,-85.53 769.1,-93.03 779.63,-91.83 776.59,-85.53"/>
</g>
<!-- node8 -->
<g id="node15" class="node">
<title>node8</title>
<path fill="#ffb2d0" stroke="black" d="M921,-71.53C921,-71.53 965,-71.53 965,-71.53 971,-71.53 977,-77.53 977,-83.53 977,-83.53 977,-151.53 977,-151.53 977,-157.53 971,-163.53 965,-163.53 965,-163.53 921,-163.53 921,-163.53 915,-163.53 909,-157.53 909,-151.53 909,-151.53 909,-83.53 909,-83.53 909,-77.53 915,-71.53 921,-71.53"/>
<text text-anchor="middle" x="943" y="-148.33" font-family="Times,serif" font-size="14.00">Node 8</text>
<polyline fill="none" stroke="black" points="909,-140.53 977,-140.53 "/>
<text text-anchor="middle" x="943" y="-125.33" font-family="Times,serif" font-size="14.00">Val. 7</text>
<polyline fill="none" stroke="black" points="909,-117.53 977,-117.53 "/>
<text text-anchor="middle" x="943" y="-102.33" font-family="Times,serif" font-size="14.00">Next 9</text>
<polyline fill="none" stroke="black" points="909,-94.53 977,-94.53 "/>
<text text-anchor="middle" x="943" y="-79.33" font-family="Times,serif" font-size="14.00">Prev. 7</text>
</g>
<!-- node7&#45;&gt;node8 -->
<!-- node7&#45;&gt;node8 -->
<g id="edge22" class="edge">
<title>node7:n&#45;&gt;node8</title>
<path fill="none" stroke="black" d="M873,-105.53C881.38,-105.53 890.26,-106.4 898.75,-107.67"/>
<polygon fill="black" stroke="black" points="898.42,-111.17 908.86,-109.39 899.59,-104.27 898.42,-111.17"/>
</g>
<!-- node8&#45;&gt;node7 -->
<g id="edge25" class="edge">
<title>node8:p&#45;&gt;node7</title>
<path fill="none" stroke="black" d="M909,-82.53C899.92,-82.53 890.83,-84.97 882.36,-88.56"/>
<polygon fill="black" stroke="black" points="880.59,-85.53 873.1,-93.03 883.63,-91.83 880.59,-85.53"/>
</g>
<!-- node8&#45;&gt;node9 -->
<!-- node8&#45;&gt;node9 -->
<g id="edge24" class="edge">
<title>node8:n&#45;&gt;node9</title>
<path fill="none" stroke="black" d="M977,-105.53C985.38,-105.53 994.26,-106.4 1002.75,-107.67"/>
<polygon fill="black" stroke="black" points="1002.42,-111.17 1012.86,-109.39 1003.59,-104.27 1002.42,-111.17"/>
</g>
<!-- node9&#45;&gt;node8 -->
<g id="edge26" class="edge">
<title>node9:p&#45;&gt;node8</title>
<path fill="none" stroke="black" d="M1013,-82.53C1003.92,-82.53 994.83,-84.97 986.36,-88.56"/>
<polygon fill="black" stroke="black" points="984.59,-85.53 977.1,-93.03 987.63,-91.83 984.59,-85.53"/>
</g>
<!-- node9&#45;&gt;node10 -->
</g>
</svg>
