<?xml version="1.0" encoding="UTF-8" standalone="no"?>
<!DOCTYPE svg PUBLIC "-//W3C//DTD SVG 1.1//EN"
 "http://www.w3.org/Graphics/SVG/1.1/DTD/svg11.dtd">
<!-- Generated by graphviz version 2.43.0 (0)
 -->
<!-- Title: G Pages: 1 -->
<svg width="1484pt" height="497pt"
 viewBox="0.00 0.00 1484.00 496.53" xmlns="http://www.w3.org/2000/svg" xmlns:xlink="http://www.w3.org/1999/xlink">
<g id="graph0" class="graph" transform="scale(1 1) rotate(0) translate(4 492.53)">
<title>G</title>
<polygon fill="white" stroke="transparent" points="-4,4 -4,-492.53 1480,-492.53 1480,4 -4,4"/>
<!-- head -->
<g id="node1" class="node">
<title>head</title>
<path fill="#fffeb6" stroke="black" d="M101,-326.53C101,-326.53 35,-326.53 35,-326.53 29,-326.53 23,-320.53 23,-314.53 23,-314.53 23,-302.53 23,-302.53 23,-296.53 29,-290.53 35,-290.53 35,-290.53 101,-290.53 101,-290.53 107,-290.53 113,-296.53 113,-302.53 113,-302.53 113,-314.53 113,-314.53 113,-320.53 107,-326.53 101,-326.53"/>
<text text-anchor="middle" x="68" y="-304.83" font-family="Times,serif" font-size="14.00">HEAD = 1</text>
</g>
<!-- node1 -->
<g id="node8" class="node">
<title>node1</title>
<path fill="#faa76c" stroke="black" d="M184,-71.53C184,-71.53 228,-71.53 228,-71.53 234,-71.53 240,-77.53 240,-83.53 240,-83.53 240,-151.53 240,-151.53 240,-157.53 234,-163.53 228,-163.53 228,-163.53 184,-163.53 184,-163.53 178,-163.53 172,-157.53 172,-151.53 172,-151.53 172,-83.53 172,-83.53 172,-77.53 178,-71.53 184,-71.53"/>
<text text-anchor="middle" x="206" y="-148.33" font-family="Times,serif" font-size="14.00">Node 1</text>
<polyline fill="none" stroke="black" points="172,-140.53 240,-140.53 "/>
<text text-anchor="middle" x="206" y="-125.33" font-family="Times,serif" font-size="14.00">Val. 0</text>
<polyline fill="none" stroke="black" points="172,-117.53 240,-117.53 "/>
<text text-anchor="middle" x="206" y="-102.33" font-family="Times,serif" font-size="14.00">Next 2</text>
<polyline fill="none" stroke="black" points="172,-94.53 240,-94.53 "/>
<text text-anchor="middle" x="206" y="-79.33" font-family="Times,serif" font-size="14.00">Prev. 0</text>
</g>
<!-- head&#45;&gt;node1 -->
<g id="edge23" class="edge">
<title>head&#45;&gt;node1</title>
<path fill="none" stroke="black" stroke-width="2" d="M113.11,-296.56C121.45,-292.77 129.57,-287.87 136,-281.53 165.54,-252.43 183.08,-208.75 193.07,-173.78"/>
<polygon fill="black" stroke="black" stroke-width="2" points="196.57,-174.28 195.82,-163.71 189.81,-172.44 196.57,-174.28"/>
</g>
<!-- tail -->
<g id="node2" class="node">
<title>tail</title>
<path fill="#fffeb6" stroke="black" d="M95.5,-218.53C95.5,-218.53 40.5,-218.53 40.5,-218.53 34.5,-218.53 28.5,-212.53 28.5,-206.53 28.5,-206.53 28.5,-194.53 28.5,-194.53 28.5,-188.53 34.5,-182.53 40.5,-182.53 40.5,-182.53 95.5,-182.53 95.5,-182.53 101.5,-182.53 107.5,-188.53 107.5,-194.53 107.5,-194.53 107.5,-206.53 107.5,-206.53 107.5,-212.53 101.5,-218.53 95.5,-218.53"/>
<text text-anchor="middle" x="68" y="-196.83" font-family="Times,serif" font-size="14.00">TAIL = 5</text>
</g>
<!-- node5 -->
<g id="node12" class="node">
<title>node5</title>
<path fill="#c1aed1" stroke="black" d="M600,-71.53C600,-71.53 644,-71.53 644,-71.53 650,-71.53 656,-77.53 656,-83.53 656,-83.53 656,-151.53 656,-151.53 656,-157.53 650,-163.53 644,-163.53 644,-163.53 600,-163.53 600,-163.53 594,-163.53 588,-157.53 588,-151.53 588,-151.53 588,-83.53 588,-83.53 588,-77.53 594,-71.53 600,-71.53"/>
<text text-anchor="middle" x="622" y="-148.33" font-family="Times,serif" font-size="14.00">Node 5</text>
<polyline fill="none" stroke="black" points="588,-140.53 656,-140.53 "/>
<text text-anchor="middle" x="622" y="-125.33" font-family="Times,serif" font-size="14.00">Val. 4</text>
<polyline fill="none" stroke="black" points="588,-117.53 656,-117.53 "/>
<text text-anchor="middle" x="622" y="-102.33" font-family="Times,serif" font-size="14.00">Next 0</text>
<polyline fill="none" stroke="black" points="588,-94.53 656,-94.53 "/>
<text text-anchor="middle" x="622" y="-79.33" font-family="Times,serif" font-size="14.00">Prev. 4</text>
</g>
<!-- tail&#45;&gt;node5 -->
<g id="edge24" class="edge">
<title>tail&#45;&gt;node5</title>
<path fill="none" stroke="black" stroke-width="2" d="M107.65,-191.33C118.13,-187.15 128.6,-181.13 136,-172.53 179,-122.5 123.71,-73.48 172,-28.53 217.25,13.59 247.18,-4.53 309,-4.53 309,-4.53 309,-4.53 415,-4.53 478.41,-4.53 540.76,-46.19 579.97,-78.92"/>
<polygon fill="black" stroke="black" stroke-width="2" points="578.09,-81.92 587.97,-85.75 582.64,-76.6 578.09,-81.92"/>
</g>
<!-- freeHead -->
<g id="node3" class="node">
<title>freeHead</title>
<path fill="#fffeb6" stroke="black" d="M124,-272.53C124,-272.53 12,-272.53 12,-272.53 6,-272.53 0,-266.53 0,-260.53 0,-260.53 0,-248.53 0,-248.53 0,-242.53 6,-236.53 12,-236.53 12,-236.53 124,-236.53 124,-236.53 130,-236.53 136,-242.53 136,-248.53 136,-248.53 136,-260.53 136,-260.53 136,-266.53 130,-272.53 124,-272.53"/>
<text text-anchor="middle" x="68" y="-250.83" font-family="Times,serif" font-size="14.00">FREE HEAD = 6</text>
</g>
<!-- node6 -->
<g id="node13" class="node">
<title>node6</title>
<path fill="#98ff98" stroke="black" d="M704,-71.53C704,-71.53 808,-71.53 808,-71.53 814,-71.53 820,-77.53 820,-83.53 820,-83.53 820,-151.53 820,-151.53 820,-157.53 814,-163.53 808,-163.53 808,-163.53 704,-163.53 704,-163.53 698,-163.53 692,-157.53 692,-151.53 692,-151.53 692,-83.53 692,-83.53 692,-77.53 698,-71.53 704,-71.53"/>
<text text-anchor="middle" x="756" y="-148.33" font-family="Times,serif" font-size="14.00">Node 6</text>
<polyline fill="none" stroke="black" points="692,-140.53 820,-140.53 "/>
<text text-anchor="middle" x="756" y="-125.33" font-family="Times,serif" font-size="14.00">Val. 0</text>
<polyline fill="none" stroke="black" points="692,-117.53 820,-117.53 "/>
<text text-anchor="middle" x="756" y="-102.33" font-family="Times,serif" font-size="14.00">Next 7</text>
<polyline fill="none" stroke="black" points="692,-94.53 820,-94.53 "/>
<text text-anchor="middle" x="756" y="-79.33" font-family="Times,serif" font-size="14.00">Prev. Free node</text>
</g>
<!-- freeHead&#45;&gt;node6 -->
<g id="edge25" class="edge">
<title>freeHead&#45;&gt;node6</title>
<path fill="none" stroke="black" stroke-width="2" d="M126.26,-236.41C129.86,-233.83 133.17,-230.89 136,-227.53 184.67,-169.82 116.64,-112.85 172,-61.53 217.08,-19.74 247.53,-42.53 309,-42.53 309,-42.53 309,-42.53 519,-42.53 580.47,-42.53 597.77,-41.83 656,-61.53 664.95,-64.56 674.02,-68.41 682.85,-72.68"/>
<polygon fill="black" stroke="black" stroke-width="2" points="681.43,-75.89 691.94,-77.26 684.58,-69.63 681.43,-75.89"/>
</g>
<!-- capacity -->
<g id="node4" class="node">
<title>capacity</title>
<path fill="#fffeb6" stroke="black" d="M120,-380.53C120,-380.53 16,-380.53 16,-380.53 10,-380.53 4,-374.53 4,-368.53 4,-368.53 4,-356.53 4,-356.53 4,-350.53 10,-344.53 16,-344.53 16,-344.53 120,-344.53 120,-344.53 126,-344.53 132,-350.53 132,-356.53 132,-356.53 132,-368.53 132,-368.53 132,-374.53 126,-380.53 120,-380.53"/>
<text text-anchor="middle" x="68" y="-358.83" font-family="Times,serif" font-size="14.00">CAPACITY = 10</text>
</g>
<!-- size -->
<g id="node5" class="node">
<title>size</title>
<path fill="#fffeb6" stroke="black" d="M97,-434.53C97,-434.53 39,-434.53 39,-434.53 33,-434.53 27,-428.53 27,-422.53 27,-422.53 27,-410.53 27,-410.53 27,-404.53 33,-398.53 39,-398.53 39,-398.53 97,-398.53 97,-398.53 103,-398.53 109,-404.53 109,-410.53 109,-410.53 109,-422.53 109,-422.53 109,-428.53 103,-434.53 97,-434.53"/>
<text text-anchor="middle" x="68" y="-412.83" font-family="Times,serif" font-size="14.00">SIZE = 5</text>
</g>
<!-- isSorted -->
<g id="node6" class="node">
<title>isSorted</title>
<path fill="#fffeb6" stroke="black" d="M117.5,-488.53C117.5,-488.53 18.5,-488.53 18.5,-488.53 12.5,-488.53 6.5,-482.53 6.5,-476.53 6.5,-476.53 6.5,-464.53 6.5,-464.53 6.5,-458.53 12.5,-452.53 18.5,-452.53 18.5,-452.53 117.5,-452.53 117.5,-452.53 123.5,-452.53 129.5,-458.53 129.5,-464.53 129.5,-464.53 129.5,-476.53 129.5,-476.53 129.5,-482.53 123.5,-488.53 117.5,-488.53"/>
<text text-anchor="middle" x="68" y="-466.83" font-family="Times,serif" font-size="14.00">SORTED = NO</text>
</g>
<!-- node0 -->
<g id="node7" class="node">
<title>node0</title>
<path fill="#c0c0c0" stroke="black" d="M46,-71.53C46,-71.53 90,-71.53 90,-71.53 96,-71.53 102,-77.53 102,-83.53 102,-83.53 102,-151.53 102,-151.53 102,-157.53 96,-163.53 90,-163.53 90,-163.53 46,-163.53 46,-163.53 40,-163.53 34,-157.53 34,-151.53 34,-151.53 34,-83.53 34,-83.53 34,-77.53 40,-71.53 46,-71.53"/>
<text text-anchor="middle" x="68" y="-148.33" font-family="Times,serif" font-size="14.00">Node 0</text>
<polyline fill="none" stroke="black" points="34,-140.53 102,-140.53 "/>
<text text-anchor="middle" x="68" y="-125.33" font-family="Times,serif" font-size="14.00">Val. 0</text>
<polyline fill="none" stroke="black" points="34,-117.53 102,-117.53 "/>
<text text-anchor="middle" x="68" y="-102.33" font-family="Times,serif" font-size="14.00">Next 1</text>
<polyline fill="none" stroke="black" points="34,-94.53 102,-94.53 "/>
<text text-anchor="middle" x="68" y="-79.33" font-family="Times,serif" font-size="14.00">Prev. 5</text>
</g>
<!-- node0&#45;&gt;node1 -->
<!-- node2 -->
<g id="node9" class="node">
<title>node2</title>
<path fill="#ffb2d0" stroke="black" d="M288,-71.53C288,-71.53 332,-71.53 332,-71.53 338,-71.53 344,-77.53 344,-83.53 344,-83.53 344,-151.53 344,-151.53 344,-157.53 338,-163.53 332,-163.53 332,-163.53 288,-163.53 288,-163.53 282,-163.53 276,-157.53 276,-151.53 276,-151.53 276,-83.53 276,-83.53 276,-77.53 282,-71.53 288,-71.53"/>
<text text-anchor="middle" x="310" y="-148.33" font-family="Times,serif" font-size="14.00">Node 2</text>
<polyline fill="none" stroke="black" points="276,-140.53 344,-140.53 "/>
<text text-anchor="middle" x="310" y="-125.33" font-family="Times,serif" font-size="14.00">Val. 1</text>
<polyline fill="none" stroke="black" points="276,-117.53 344,-117.53 "/>
<text text-anchor="middle" x="310" y="-102.33" font-family="Times,serif" font-size="14.00">Next 3</text>
<polyline fill="none" stroke="black" points="276,-94.53 344,-94.53 "/>
<text text-anchor="middle" x="310" y="-79.33" font-family="Times,serif" font-size="14.00">Prev. 1</text>
</g>
<!-- node1&#45;&gt;node2 -->
<!-- node1&#45;&gt;node2 -->
<g id="edge11" class="edge">
<title>node1:n&#45;&gt;node2</title>
<path fill="none" stroke="black" d="M240,-105.53C248.38,-105.53 257.26,-106.4 265.75,-107.67"/>
<polygon fill="black" stroke="black" points="265.42,-111.17 275.86,-109.39 266.59,-104.27 265.42,-111.17"/>
</g>
<!-- node2&#45;&gt;node1 -->
<g id="edge13" class="edge">
<title>node2:p&#45;&gt;node1</title>
<path fill="none" stroke="black" d="M276,-82.53C266.92,-82.53 257.83,-84.97 249.36,-88.56"/>
<polygon fill="black" stroke="black" points="247.59,-85.53 240.1,-93.03 250.63,-91.83 247.59,-85.53"/>
</g>
<!-- node3 -->
<g id="node10" class="node">
<title>node3</title>
<path fill="#ffb2d0" stroke="black" d="M392,-71.53C392,-71.53 436,-71.53 436,-71.53 442,-71.53 448,-77.53 448,-83.53 448,-83.53 448,-151.53 448,-151.53 448,-157.53 442,-163.53 436,-163.53 436,-163.53 392,-163.53 392,-163.53 386,-163.53 380,-157.53 380,-151.53 380,-151.53 380,-83.53 380,-83.53 380,-77.53 386,-71.53 392,-71.53"/>
<text text-anchor="middle" x="414" y="-148.33" font-family="Times,serif" font-size="14.00">Node 3</text>
<polyline fill="none" stroke="black" points="380,-140.53 448,-140.53 "/>
<text text-anchor="middle" x="414" y="-125.33" font-family="Times,serif" font-size="14.00">Val. 2</text>
<polyline fill="none" stroke="black" points="380,-117.53 448,-117.53 "/>
<text text-anchor="middle" x="414" y="-102.33" font-family="Times,serif" font-size="14.00">Next 4</text>
<polyline fill="none" stroke="black" points="380,-94.53 448,-94.53 "/>
<text text-anchor="middle" x="414" y="-79.33" font-family="Times,serif" font-size="14.00">Prev. 2</text>
</g>
<!-- node2&#45;&gt;node3 -->
<!-- node2&#45;&gt;node3 -->
<g id="edge12" class="edge">
<title>node2:n&#45;&gt;node3</title>
<path fill="none" stroke="black" d="M344,-105.53C352.38,-105.53 361.26,-106.4 369.75,-107.67"/>
<polygon fill="black" stroke="black" points="369.42,-111.17 379.86,-109.39 370.59,-104.27 369.42,-111.17"/>
</g>
<!-- node3&#45;&gt;node2 -->
<g id="edge15" class="edge">
<title>node3:p&#45;&gt;node2</title>
<path fill="none" stroke="black" d="M380,-82.53C370.92,-82.53 361.83,-84.97 353.36,-88.56"/>
<polygon fill="black" stroke="black" points="351.59,-85.53 344.1,-93.03 354.63,-91.83 351.59,-85.53"/>
</g>
<!-- node4 -->
<g id="node11" class="node">
<title>node4</title>
<path fill="#ffb2d0" stroke="black" d="M496,-71.53C496,-71.53 540,-71.53 540,-71.53 546,-71.53 552,-77.53 552,-83.53 552,-83.53 552,-151.53 552,-151.53 552,-157.53 546,-163.53 540,-163.53 540,-163.53 496,-163.53 496,-163.53 490,-163.53 484,-157.53 484,-151.53 484,-151.53 484,-83.53 484,-83.53 484,-77.53 490,-71.53 496,-71.53"/>
<text text-anchor="middle" x="518" y="-148.33" font-family="Times,serif" font-size="14.00">Node 4</text>
<polyline fill="none" stroke="black" points="484,-140.53 552,-140.53 "/>
<text text-anchor="middle" x="518" y="-125.33" font-family="Times,serif" font-size="14.00">Val. 3</text>
<polyline fill="none" stroke="black" points="484,-117.53 552,-117.53 "/>
<text text-anchor="middle" x="518" y="-102.33" font-family="Times,serif" font-size="14.00">Next 5</text>
<polyline fill="none" stroke="black" points="484,-94.53 552,-94.53 "/>
<text text-anchor="middle" x="518" y="-79.33" font-family="Times,serif" font-size="14.00">Prev. 3</text>
</g>
<!-- node3&#45;&gt;node4 -->
<!-- node3&#45;&gt;node4 -->
<g id="edge14" class="edge">
<title>node3:n&#45;&gt;node4</title>
<path fill="none" stroke="black" d="M448,-105.53C456.38,-105.53 465.26,-106.4 473.75,-107.67"/>
<polygon fill="black" stroke="black" points="473.42,-111.17 483.86,-109.39 474.59,-104.27 473.42,-111.17"/>
</g>
<!-- node4&#45;&gt;node3 -->
<g id="edge17" class="edge">
<title>node4:p&#45;&gt;node3</title>
<path fill="none" stroke="black" d="M484,-82.53C474.92,-82.53 465.83,-84.97 457.36,-88.56"/>
<polygon fill="black" stroke="black" points="455.59,-85.53 448.1,-93.03 458.63,-91.83 455.59,-85.53"/>
</g>
<!-- node4&#45;&gt;node5 -->
<!-- node4&#45;&gt;node5 -->
<g id="edge16" class="edge">
<title>node4:n&#45;&gt;node5</title>
<path fill="none" stroke="black" d="M552,-105.53C560.38,-105.53 569.26,-106.4 577.75,-107.67"/>
<polygon fill="black" stroke="black" points="577.42,-111.17 587.86,-109.39 578.59,-104.27 577.42,-111.17"/>
</g>
<!-- node5&#45;&gt;node4 -->
<g id="edge18" class="edge">
<title>node5:p&#45;&gt;node4</title>
<path fill="none" stroke="black" d="M588,-82.53C578.92,-82.53 569.83,-84.97 561.36,-88.56"/>
<polygon fill="black" stroke="black" points="559.59,-85.53 552.1,-93.03 562.63,-91.83 559.59,-85.53"/>
</g>
<!-- node5&#45;&gt;node6 -->
<!-- node7 -->
<g id="node14" class="node">
<title>node7</title>
<path fill="#98ff98" stroke="black" d="M868,-71.53C868,-71.53 972,-71.53 972,-71.53 978,-71.53 984,-77.53 984,-83.53 984,-83.53 984,-151.53 984,-151.53 984,-157.53 978,-163.53 972,-163.53 972,-163.53 868,-163.53 868,-163.53 862,-163.53 856,-157.53 856,-151.53 856,-151.53 856,-83.53 856,-83.53 856,-77.53 862,-71.53 868,-71.53"/>
<text text-anchor="middle" x="920" y="-148.33" font-family="Times,serif" font-size="14.00">Node 7</text>
<polyline fill="none" stroke="black" points="856,-140.53 984,-140.53 "/>
<text text-anchor="middle" x="920" y="-125.33" font-family="Times,serif" font-size="14.00">Val. 0</text>
<polyline fill="none" stroke="black" points="856,-117.53 984,-117.53 "/>
<text text-anchor="middle" x="920" y="-102.33" font-family="Times,serif" font-size="14.00">Next 8</text>
<polyline fill="none" stroke="black" points="856,-94.53 984,-94.53 "/>
<text text-anchor="middle" x="920" y="-79.33" font-family="Times,serif" font-size="14.00">Prev. Free node</text>
</g>
<!-- node6&#45;&gt;node7 -->
<!-- node6&#45;&gt;node7 -->
<g id="edge19" class="edge">
<title>node6:n&#45;&gt;node7</title>
<path fill="none" stroke="black" d="M820,-105.53C828.34,-105.53 837.04,-105.95 845.68,-106.64"/>
<polygon fill="black" stroke="black" points="845.48,-110.14 855.76,-107.57 846.12,-103.17 845.48,-110.14"/>
</g>
<!-- node8 -->
<g id="node15" class="node">
<title>node8</title>
<path fill="#98ff98" stroke="black" d="M1032,-71.53C1032,-71.53 1136,-71.53 1136,-71.53 1142,-71.53 1148,-77.53 1148,-83.53 1148,-83.53 1148,-151.53 1148,-151.53 1148,-157.53 1142,-163.53 1136,-163.53 1136,-163.53 1032,-163.53 1032,-163.53 1026,-163.53 1020,-157.53 1020,-151.53 1020,-151.53 1020,-83.53 1020,-83.53 1020,-77.53 1026,-71.53 1032,-71.53"/>
<text text-anchor="middle" x="1084" y="-148.33" font-family="Times,serif" font-size="14.00">Node 8</text>
<polyline fill="none" stroke="black" points="1020,-140.53 1148,-140.53 "/>
<text text-anchor="middle" x="1084" y="-125.33" font-family="Times,serif" font-size="14.00">Val. 0</text>
<polyline fill="none" stroke="black" points="1020,-117.53 1148,-117.53 "/>
<text text-anchor="middle" x="1084" y="-102.33" font-family="Times,serif" font-size="14.00">Next 9</text>
<polyline fill="none" stroke="black" points="1020,-94.53 1148,-94.53 "/>
<text text-anchor="middle" x="1084" y="-79.33" font-family="Times,serif" font-size="14.00">Prev. Free node</text>
</g>
<!-- node7&#45;&gt;node8 -->
<!-- node7&#45;&gt;node8 -->
<g id="edge20" class="edge">
<title>node7:n&#45;&gt;node8</title>
<path fill="none" stroke="black" d="M984,-105.53C992.34,-105.53 1001.04,-105.95 1009.68,-106.64"/>
<polygon fill="black" stroke="black" points="1009.48,-110.14 1019.76,-107.57 1010.12,-103.17 1009.48,-110.14"/>
</g>
<!-- node9 -->
<g id="node16" class="node">
<title>node9</title>
<path fill="#98ff98" stroke="black" d="M1196,-71.53C1196,-71.53 1300,-71.53 1300,-71.53 1306,-71.53 1312,-77.53 1312,-83.53 1312,-83.53 1312,-151.53 1312,-151.53 1312,-157.53 1306,-163.53 1300,-163.53 1300,-163.53 1196,-163.53 1196,-163.53 1190,-163.53 1184,-157.53 1184,-151.53 1184,-151.53 1184,-83.53 1184,-83.53 1184,-77.53 1190,-71.53 1196,-71.53"/>
<text text-anchor="middle" x="1248" y="-148.33" font-family="Times,serif" font-size="14.00">Node 9</text>
<polyline fill="none" stroke="black" points="1184,-140.53 1312,-140.53 "/>
<text text-anchor="middle" x="1248" y="-125.33" font-family="Times,serif" font-size="14.00">Val. 0</text>
<polyline fill="none" stroke="black" points="1184,-117.53 1312,-117.53 "/>
<text text-anchor="middle" x="1248" y="-102.33" font-family="Times,serif" font-size="14.00">Next 10</text>
<polyline fill="none" stroke="black" points="1184,-94.53 1312,-94.53 "/>
<text text-anchor="middle" x="1248" y="-79.33" font-family="Times,serif" font-size="14.00">Prev. Free node</text>
</g>
<!-- node8&#45;&gt;node9 -->
<!-- node8&#45;&gt;node9 -->
<g id="edge21" class="edge">
<title>node8:n&#45;&gt;node9</title>
<path fill="none" stroke="black" d="M1148,-105.53C1156.34,-105.53 1165.04,-105.95 1173.68,-106.64"/>
<polygon fill="black" stroke="black" points="1173.48,-110.14 1183.76,-107.57 1174.12,-103.17 1173.48,-110.14"/>
</g>
<!-- node10 -->
<g id="node17" class="node">
<title>node10</title>
<path fill="#98ff98" stroke="black" d="M1360,-71.53C1360,-71.53 1464,-71.53 1464,-71.53 1470,-71.53 1476,-77.53 1476,-83.53 1476,-83.53 1476,-151.53 1476,-151.53 1476,-157.53 1470,-163.53 1464,-163.53 1464,-163.53 1360,-163.53 1360,-163.53 1354,-163.53 1348,-157.53 1348,-151.53 1348,-151.53 1348,-83.53 1348,-83.53 1348,-77.53 1354,-71.53 1360,-71.53"/>
<text text-anchor="middle" x="1412" y="-148.33" font-family="Times,serif" font-size="14.00">Node 10</text>
<polyline fill="none" stroke="black" points="1348,-140.53 1476,-140.53 "/>
<text text-anchor="middle" x="1412" y="-125.33" font-family="Times,serif" font-size="14.00">Val. 0</text>
<polyline fill="none" stroke="black" points="1348,-117.53 1476,-117.53 "/>
<text text-anchor="middle" x="1412" y="-102.33" font-family="Times,serif" font-size="14.00">Next 0</text>
<polyline fill="none" stroke="black" points="1348,-94.53 1476,-94.53 "/>
<text text-anchor="middle" x="1412" y="-79.33" font-family="Times,serif" font-size="14.00">Prev. Free node</text>
</g>
<!-- node9&#45;&gt;node10 -->
<!-- node9&#45;&gt;node10 -->
<g id="edge22" class="edge">
<title>node9:n&#45;&gt;node10</title>
<path fill="none" stroke="black" d="M1312,-105.53C1320.34,-105.53 1329.04,-105.95 1337.68,-106.64"/>
<polygon fill="black" stroke="black" points="1337.48,-110.14 1347.76,-107.57 1338.12,-103.17 1337.48,-110.14"/>
</g>
</g>
</svg>
