<?xml version="1.0" encoding="UTF-8" standalone="no"?>
<!DOCTYPE svg PUBLIC "-//W3C//DTD SVG 1.1//EN"
 "http://www.w3.org/Graphics/SVG/1.1/DTD/svg11.dtd">
<!-- Generated by graphviz version 2.43.0 (0)
 -->
<!-- Title: G Pages: 1 -->
<svg width="1199pt" height="426pt"
 viewBox="0.00 0.00 1199.00 426.00" xmlns="http://www.w3.org/2000/svg" xmlns:xlink="http://www.w3.org/1999/xlink">
<g id="graph0" class="graph" transform="scale(1 1) rotate(0) translate(4 422)">
<title>G</title>
<polygon fill="white" stroke="transparent" points="-4,4 -4,-422 1195,-422 1195,4 -4,4"/>
<!-- head -->
<g id="node1" class="node">
<title>head</title>
<path fill="#fffeb6" stroke="black" d="M101,-256C101,-256 35,-256 35,-256 29,-256 23,-250 23,-244 23,-244 23,-232 23,-232 23,-226 29,-220 35,-220 35,-220 101,-220 101,-220 107,-220 113,-226 113,-232 113,-232 113,-244 113,-244 113,-250 107,-256 101,-256"/>
<text text-anchor="middle" x="68" y="-234.3" font-family="Times,serif" font-size="14.00">HEAD = 1</text>
</g>
<!-- node1 -->
<g id="node8" class="node">
<title>node1</title>
<path fill="#faa76c" stroke="black" d="M184,-55C184,-55 228,-55 228,-55 234,-55 240,-61 240,-67 240,-67 240,-135 240,-135 240,-141 234,-147 228,-147 228,-147 184,-147 184,-147 178,-147 172,-141 172,-135 172,-135 172,-67 172,-67 172,-61 178,-55 184,-55"/>
<text text-anchor="middle" x="206" y="-131.8" font-family="Times,serif" font-size="14.00">Node 1</text>
<polyline fill="none" stroke="black" points="172,-124 240,-124 "/>
<text text-anchor="middle" x="206" y="-108.8" font-family="Times,serif" font-size="14.00">Val. 0</text>
<polyline fill="none" stroke="black" points="172,-101 240,-101 "/>
<text text-anchor="middle" x="206" y="-85.8" font-family="Times,serif" font-size="14.00">Next 2</text>
<polyline fill="none" stroke="black" points="172,-78 240,-78 "/>
<text text-anchor="middle" x="206" y="-62.8" font-family="Times,serif" font-size="14.00">Prev. 0</text>
</g>
<!-- head&#45;&gt;node1 -->
<g id="edge29" class="edge">
<title>head&#45;&gt;node1</title>
<path fill="none" stroke="black" stroke-width="2" d="M113.05,-224.87C121.21,-221.21 129.27,-216.63 136,-211 153.77,-196.13 168.39,-175.48 179.53,-156.07"/>
<polygon fill="black" stroke="black" stroke-width="2" points="182.62,-157.72 184.4,-147.27 176.49,-154.33 182.62,-157.72"/>
</g>
<!-- tail -->
<g id="node2" class="node">
<title>tail</title>
<path fill="#fffeb6" stroke="black" d="M100,-202C100,-202 36,-202 36,-202 30,-202 24,-196 24,-190 24,-190 24,-178 24,-178 24,-172 30,-166 36,-166 36,-166 100,-166 100,-166 106,-166 112,-172 112,-178 112,-178 112,-190 112,-190 112,-196 106,-202 100,-202"/>
<text text-anchor="middle" x="68" y="-180.3" font-family="Times,serif" font-size="14.00">TAIL = 10</text>
</g>
<!-- node10 -->
<g id="node17" class="node">
<title>node10</title>
<path fill="#c1aed1" stroke="black" d="M1126,-55C1126,-55 1179,-55 1179,-55 1185,-55 1191,-61 1191,-67 1191,-67 1191,-135 1191,-135 1191,-141 1185,-147 1179,-147 1179,-147 1126,-147 1126,-147 1120,-147 1114,-141 1114,-135 1114,-135 1114,-67 1114,-67 1114,-61 1120,-55 1126,-55"/>
<text text-anchor="middle" x="1152.5" y="-131.8" font-family="Times,serif" font-size="14.00">Node 10</text>
<polyline fill="none" stroke="black" points="1114,-124 1191,-124 "/>
<text text-anchor="middle" x="1152.5" y="-108.8" font-family="Times,serif" font-size="14.00">Val. 9</text>
<polyline fill="none" stroke="black" points="1114,-101 1191,-101 "/>
<text text-anchor="middle" x="1152.5" y="-85.8" font-family="Times,serif" font-size="14.00">Next 0</text>
<polyline fill="none" stroke="black" points="1114,-78 1191,-78 "/>
<text text-anchor="middle" x="1152.5" y="-62.8" font-family="Times,serif" font-size="14.00">Prev. 9</text>
</g>
<!-- tail&#45;&gt;node10 -->
<g id="edge30" class="edge">
<title>tail&#45;&gt;node10</title>
<path fill="none" stroke="black" stroke-width="2" d="M112.15,-173.06C120.95,-169.18 129.5,-163.97 136,-157 171.38,-119.08 132.37,-79.45 172,-46 219.02,-6.31 247.47,-26 309,-26 309,-26 309,-26 935,-26 999.17,-26 1018.66,-21.56 1078,-46 1087.39,-49.87 1096.67,-55.22 1105.3,-61.08"/>
<polygon fill="black" stroke="black" stroke-width="2" points="1103.52,-64.11 1113.69,-67.07 1107.59,-58.41 1103.52,-64.11"/>
</g>
<!-- freeHead -->
<g id="node3" class="node">
<title>freeHead</title>
<path fill="#fffeb6" stroke="black" d="M124,-36C124,-36 12,-36 12,-36 6,-36 0,-30 0,-24 0,-24 0,-12 0,-12 0,-6 6,0 12,0 12,0 124,0 124,0 130,0 136,-6 136,-12 136,-12 136,-24 136,-24 136,-30 130,-36 124,-36"/>
<text text-anchor="middle" x="68" y="-14.3" font-family="Times,serif" font-size="14.00">FREE HEAD = 0</text>
</g>
<!-- node0 -->
<g id="node7" class="node">
<title>node0</title>
<path fill="#c0c0c0" stroke="black" d="M43,-55C43,-55 93,-55 93,-55 99,-55 105,-61 105,-67 105,-67 105,-135 105,-135 105,-141 99,-147 93,-147 93,-147 43,-147 43,-147 37,-147 31,-141 31,-135 31,-135 31,-67 31,-67 31,-61 37,-55 43,-55"/>
<text text-anchor="middle" x="68" y="-131.8" font-family="Times,serif" font-size="14.00">Node 0</text>
<polyline fill="none" stroke="black" points="31,-124 105,-124 "/>
<text text-anchor="middle" x="68" y="-108.8" font-family="Times,serif" font-size="14.00">Val. 0</text>
<polyline fill="none" stroke="black" points="31,-101 105,-101 "/>
<text text-anchor="middle" x="68" y="-85.8" font-family="Times,serif" font-size="14.00">Next 1</text>
<polyline fill="none" stroke="black" points="31,-78 105,-78 "/>
<text text-anchor="middle" x="68" y="-62.8" font-family="Times,serif" font-size="14.00">Prev. 10</text>
</g>
<!-- capacity -->
<g id="node4" class="node">
<title>capacity</title>
<path fill="#fffeb6" stroke="black" d="M120,-310C120,-310 16,-310 16,-310 10,-310 4,-304 4,-298 4,-298 4,-286 4,-286 4,-280 10,-274 16,-274 16,-274 120,-274 120,-274 126,-274 132,-280 132,-286 132,-286 132,-298 132,-298 132,-304 126,-310 120,-310"/>
<text text-anchor="middle" x="68" y="-288.3" font-family="Times,serif" font-size="14.00">CAPACITY = 10</text>
</g>
<!-- size -->
<g id="node5" class="node">
<title>size</title>
<path fill="#fffeb6" stroke="black" d="M101.5,-364C101.5,-364 34.5,-364 34.5,-364 28.5,-364 22.5,-358 22.5,-352 22.5,-352 22.5,-340 22.5,-340 22.5,-334 28.5,-328 34.5,-328 34.5,-328 101.5,-328 101.5,-328 107.5,-328 113.5,-334 113.5,-340 113.5,-340 113.5,-352 113.5,-352 113.5,-358 107.5,-364 101.5,-364"/>
<text text-anchor="middle" x="68" y="-342.3" font-family="Times,serif" font-size="14.00">SIZE = 10</text>
</g>
<!-- isSorted -->
<g id="node6" class="node">
<title>isSorted</title>
<path fill="#fffeb6" stroke="black" d="M117.5,-418C117.5,-418 18.5,-418 18.5,-418 12.5,-418 6.5,-412 6.5,-406 6.5,-406 6.5,-394 6.5,-394 6.5,-388 12.5,-382 18.5,-382 18.5,-382 117.5,-382 117.5,-382 123.5,-382 129.5,-388 129.5,-394 129.5,-394 129.5,-406 129.5,-406 129.5,-412 123.5,-418 117.5,-418"/>
<text text-anchor="middle" x="68" y="-396.3" font-family="Times,serif" font-size="14.00">SORTED = NO</text>
</g>
<!-- node0&#45;&gt;node1 -->
<!-- node2 -->
<g id="node9" class="node">
<title>node2</title>
<path fill="#ffb2d0" stroke="black" d="M288,-55C288,-55 332,-55 332,-55 338,-55 344,-61 344,-67 344,-67 344,-135 344,-135 344,-141 338,-147 332,-147 332,-147 288,-147 288,-147 282,-147 276,-141 276,-135 276,-135 276,-67 276,-67 276,-61 282,-55 288,-55"/>
<text text-anchor="middle" x="310" y="-131.8" font-family="Times,serif" font-size="14.00">Node 2</text>
<polyline fill="none" stroke="black" points="276,-124 344,-124 "/>
<text text-anchor="middle" x="310" y="-108.8" font-family="Times,serif" font-size="14.00">Val. 1</text>
<polyline fill="none" stroke="black" points="276,-101 344,-101 "/>
<text text-anchor="middle" x="310" y="-85.8" font-family="Times,serif" font-size="14.00">Next 3</text>
<polyline fill="none" stroke="black" points="276,-78 344,-78 "/>
<text text-anchor="middle" x="310" y="-62.8" font-family="Times,serif" font-size="14.00">Prev. 1</text>
</g>
<!-- node1&#45;&gt;node2 -->
<!-- node1&#45;&gt;node2 -->
<g id="edge11" class="edge">
<title>node1:n&#45;&gt;node2</title>
<path fill="none" stroke="black" d="M240,-89C248.38,-89 257.26,-89.87 265.75,-91.14"/>
<polygon fill="black" stroke="black" points="265.42,-94.64 275.86,-92.86 266.59,-87.74 265.42,-94.64"/>
</g>
<!-- node2&#45;&gt;node1 -->
<g id="edge13" class="edge">
<title>node2:p&#45;&gt;node1</title>
<path fill="none" stroke="black" d="M276,-66C266.92,-66 257.83,-68.44 249.36,-72.03"/>
<polygon fill="black" stroke="black" points="247.59,-69 240.1,-76.5 250.63,-75.3 247.59,-69"/>
</g>
<!-- node3 -->
<g id="node10" class="node">
<title>node3</title>
<path fill="#ffb2d0" stroke="black" d="M392,-55C392,-55 436,-55 436,-55 442,-55 448,-61 448,-67 448,-67 448,-135 448,-135 448,-141 442,-147 436,-147 436,-147 392,-147 392,-147 386,-147 380,-141 380,-135 380,-135 380,-67 380,-67 380,-61 386,-55 392,-55"/>
<text text-anchor="middle" x="414" y="-131.8" font-family="Times,serif" font-size="14.00">Node 3</text>
<polyline fill="none" stroke="black" points="380,-124 448,-124 "/>
<text text-anchor="middle" x="414" y="-108.8" font-family="Times,serif" font-size="14.00">Val. 2</text>
<polyline fill="none" stroke="black" points="380,-101 448,-101 "/>
<text text-anchor="middle" x="414" y="-85.8" font-family="Times,serif" font-size="14.00">Next 4</text>
<polyline fill="none" stroke="black" points="380,-78 448,-78 "/>
<text text-anchor="middle" x="414" y="-62.8" font-family="Times,serif" font-size="14.00">Prev. 2</text>
</g>
<!-- node2&#45;&gt;node3 -->
<!-- node2&#45;&gt;node3 -->
<g id="edge12" class="edge">
<title>node2:n&#45;&gt;node3</title>
<path fill="none" stroke="black" d="M344,-89C352.38,-89 361.26,-89.87 369.75,-91.14"/>
<polygon fill="black" stroke="black" points="369.42,-94.64 379.86,-92.86 370.59,-87.74 369.42,-94.64"/>
</g>
<!-- node3&#45;&gt;node2 -->
<g id="edge15" class="edge">
<title>node3:p&#45;&gt;node2</title>
<path fill="none" stroke="black" d="M380,-66C370.92,-66 361.83,-68.44 353.36,-72.03"/>
<polygon fill="black" stroke="black" points="351.59,-69 344.1,-76.5 354.63,-75.3 351.59,-69"/>
</g>
<!-- node4 -->
<g id="node11" class="node">
<title>node4</title>
<path fill="#ffb2d0" stroke="black" d="M496,-55C496,-55 540,-55 540,-55 546,-55 552,-61 552,-67 552,-67 552,-135 552,-135 552,-141 546,-147 540,-147 540,-147 496,-147 496,-147 490,-147 484,-141 484,-135 484,-135 484,-67 484,-67 484,-61 490,-55 496,-55"/>
<text text-anchor="middle" x="518" y="-131.8" font-family="Times,serif" font-size="14.00">Node 4</text>
<polyline fill="none" stroke="black" points="484,-124 552,-124 "/>
<text text-anchor="middle" x="518" y="-108.8" font-family="Times,serif" font-size="14.00">Val. 3</text>
<polyline fill="none" stroke="black" points="484,-101 552,-101 "/>
<text text-anchor="middle" x="518" y="-85.8" font-family="Times,serif" font-size="14.00">Next 5</text>
<polyline fill="none" stroke="black" points="484,-78 552,-78 "/>
<text text-anchor="middle" x="518" y="-62.8" font-family="Times,serif" font-size="14.00">Prev. 3</text>
</g>
<!-- node3&#45;&gt;node4 -->
<!-- node3&#45;&gt;node4 -->
<g id="edge14" class="edge">
<title>node3:n&#45;&gt;node4</title>
<path fill="none" stroke="black" d="M448,-89C456.38,-89 465.26,-89.87 473.75,-91.14"/>
<polygon fill="black" stroke="black" points="473.42,-94.64 483.86,-92.86 474.59,-87.74 473.42,-94.64"/>
</g>
<!-- node4&#45;&gt;node3 -->
<g id="edge17" class="edge">
<title>node4:p&#45;&gt;node3</title>
<path fill="none" stroke="black" d="M484,-66C474.92,-66 465.83,-68.44 457.36,-72.03"/>
<polygon fill="black" stroke="black" points="455.59,-69 448.1,-76.5 458.63,-75.3 455.59,-69"/>
</g>
<!-- node5 -->
<g id="node12" class="node">
<title>node5</title>
<path fill="#ffb2d0" stroke="black" d="M600,-55C600,-55 644,-55 644,-55 650,-55 656,-61 656,-67 656,-67 656,-135 656,-135 656,-141 650,-147 644,-147 644,-147 600,-147 600,-147 594,-147 588,-141 588,-135 588,-135 588,-67 588,-67 588,-61 594,-55 600,-55"/>
<text text-anchor="middle" x="622" y="-131.8" font-family="Times,serif" font-size="14.00">Node 5</text>
<polyline fill="none" stroke="black" points="588,-124 656,-124 "/>
<text text-anchor="middle" x="622" y="-108.8" font-family="Times,serif" font-size="14.00">Val. 4</text>
<polyline fill="none" stroke="black" points="588,-101 656,-101 "/>
<text text-anchor="middle" x="622" y="-85.8" font-family="Times,serif" font-size="14.00">Next 6</text>
<polyline fill="none" stroke="black" points="588,-78 656,-78 "/>
<text text-anchor="middle" x="622" y="-62.8" font-family="Times,serif" font-size="14.00">Prev. 4</text>
</g>
<!-- node4&#45;&gt;node5 -->
<!-- node4&#45;&gt;node5 -->
<g id="edge16" class="edge">
<title>node4:n&#45;&gt;node5</title>
<path fill="none" stroke="black" d="M552,-89C560.38,-89 569.26,-89.87 577.75,-91.14"/>
<polygon fill="black" stroke="black" points="577.42,-94.64 587.86,-92.86 578.59,-87.74 577.42,-94.64"/>
</g>
<!-- node5&#45;&gt;node4 -->
<g id="edge19" class="edge">
<title>node5:p&#45;&gt;node4</title>
<path fill="none" stroke="black" d="M588,-66C578.92,-66 569.83,-68.44 561.36,-72.03"/>
<polygon fill="black" stroke="black" points="559.59,-69 552.1,-76.5 562.63,-75.3 559.59,-69"/>
</g>
<!-- node6 -->
<g id="node13" class="node">
<title>node6</title>
<path fill="#ffb2d0" stroke="black" d="M704,-55C704,-55 748,-55 748,-55 754,-55 760,-61 760,-67 760,-67 760,-135 760,-135 760,-141 754,-147 748,-147 748,-147 704,-147 704,-147 698,-147 692,-141 692,-135 692,-135 692,-67 692,-67 692,-61 698,-55 704,-55"/>
<text text-anchor="middle" x="726" y="-131.8" font-family="Times,serif" font-size="14.00">Node 6</text>
<polyline fill="none" stroke="black" points="692,-124 760,-124 "/>
<text text-anchor="middle" x="726" y="-108.8" font-family="Times,serif" font-size="14.00">Val. 5</text>
<polyline fill="none" stroke="black" points="692,-101 760,-101 "/>
<text text-anchor="middle" x="726" y="-85.8" font-family="Times,serif" font-size="14.00">Next 7</text>
<polyline fill="none" stroke="black" points="692,-78 760,-78 "/>
<text text-anchor="middle" x="726" y="-62.8" font-family="Times,serif" font-size="14.00">Prev. 5</text>
</g>
<!-- node5&#45;&gt;node6 -->
<!-- node5&#45;&gt;node6 -->
<g id="edge18" class="edge">
<title>node5:n&#45;&gt;node6</title>
<path fill="none" stroke="black" d="M656,-89C664.38,-89 673.26,-89.87 681.75,-91.14"/>
<polygon fill="black" stroke="black" points="681.42,-94.64 691.86,-92.86 682.59,-87.74 681.42,-94.64"/>
</g>
<!-- node6&#45;&gt;node5 -->
<g id="edge21" class="edge">
<title>node6:p&#45;&gt;node5</title>
<path fill="none" stroke="black" d="M692,-66C682.92,-66 673.83,-68.44 665.36,-72.03"/>
<polygon fill="black" stroke="black" points="663.59,-69 656.1,-76.5 666.63,-75.3 663.59,-69"/>
</g>
<!-- node7 -->
<g id="node14" class="node">
<title>node7</title>
<path fill="#ffb2d0" stroke="black" d="M808,-55C808,-55 852,-55 852,-55 858,-55 864,-61 864,-67 864,-67 864,-135 864,-135 864,-141 858,-147 852,-147 852,-147 808,-147 808,-147 802,-147 796,-141 796,-135 796,-135 796,-67 796,-67 796,-61 802,-55 808,-55"/>
<text text-anchor="middle" x="830" y="-131.8" font-family="Times,serif" font-size="14.00">Node 7</text>
<polyline fill="none" stroke="black" points="796,-124 864,-124 "/>
<text text-anchor="middle" x="830" y="-108.8" font-family="Times,serif" font-size="14.00">Val. 6</text>
<polyline fill="none" stroke="black" points="796,-101 864,-101 "/>
<text text-anchor="middle" x="830" y="-85.8" font-family="Times,serif" font-size="14.00">Next 8</text>
<polyline fill="none" stroke="black" points="796,-78 864,-78 "/>
<text text-anchor="middle" x="830" y="-62.8" font-family="Times,serif" font-size="14.00">Prev. 6</text>
</g>
<!-- node6&#45;&gt;node7 -->
<!-- node6&#45;&gt;node7 -->
<g id="edge20" class="edge">
<title>node6:n&#45;&gt;node7</title>
<path fill="none" stroke="black" d="M760,-89C768.38,-89 777.26,-89.87 785.75,-91.14"/>
<polygon fill="black" stroke="black" points="785.42,-94.64 795.86,-92.86 786.59,-87.74 785.42,-94.64"/>
</g>
<!-- node7&#45;&gt;node6 -->
<g id="edge23" class="edge">
<title>node7:p&#45;&gt;node6</title>
<path fill="none" stroke="black" d="M796,-66C786.92,-66 777.83,-68.44 769.36,-72.03"/>
<polygon fill="black" stroke="black" points="767.59,-69 760.1,-76.5 770.63,-75.3 767.59,-69"/>
</g>
<!-- node8 -->
<g id="node15" class="node">
<title>node8</title>
<path fill="#ffb2d0" stroke="black" d="M912,-55C912,-55 956,-55 956,-55 962,-55 968,-61 968,-67 968,-67 968,-135 968,-135 968,-141 962,-147 956,-147 956,-147 912,-147 912,-147 906,-147 900,-141 900,-135 900,-135 900,-67 900,-67 900,-61 906,-55 912,-55"/>
<text text-anchor="middle" x="934" y="-131.8" font-family="Times,serif" font-size="14.00">Node 8</text>
<polyline fill="none" stroke="black" points="900,-124 968,-124 "/>
<text text-anchor="middle" x="934" y="-108.8" font-family="Times,serif" font-size="14.00">Val. 7</text>
<polyline fill="none" stroke="black" points="900,-101 968,-101 "/>
<text text-anchor="middle" x="934" y="-85.8" font-family="Times,serif" font-size="14.00">Next 9</text>
<polyline fill="none" stroke="black" points="900,-78 968,-78 "/>
<text text-anchor="middle" x="934" y="-62.8" font-family="Times,serif" font-size="14.00">Prev. 7</text>
</g>
<!-- node7&#45;&gt;node8 -->
<!-- node7&#45;&gt;node8 -->
<g id="edge22" class="edge">
<title>node7:n&#45;&gt;node8</title>
<path fill="none" stroke="black" d="M864,-89C872.38,-89 881.26,-89.87 889.75,-91.14"/>
<polygon fill="black" stroke="black" points="889.42,-94.64 899.86,-92.86 890.59,-87.74 889.42,-94.64"/>
</g>
<!-- node8&#45;&gt;node7 -->
<g id="edge25" class="edge">
<title>node8:p&#45;&gt;node7</title>
<path fill="none" stroke="black" d="M900,-66C890.92,-66 881.83,-68.44 873.36,-72.03"/>
<polygon fill="black" stroke="black" points="871.59,-69 864.1,-76.5 874.63,-75.3 871.59,-69"/>
</g>
<!-- node9 -->
<g id="node16" class="node">
<title>node9</title>
<path fill="#ffb2d0" stroke="black" d="M1016,-55C1016,-55 1066,-55 1066,-55 1072,-55 1078,-61 1078,-67 1078,-67 1078,-135 1078,-135 1078,-141 1072,-147 1066,-147 1066,-147 1016,-147 1016,-147 1010,-147 1004,-141 1004,-135 1004,-135 1004,-67 1004,-67 1004,-61 1010,-55 1016,-55"/>
<text text-anchor="middle" x="1041" y="-131.8" font-family="Times,serif" font-size="14.00">Node 9</text>
<polyline fill="none" stroke="black" points="1004,-124 1078,-124 "/>
<text text-anchor="middle" x="1041" y="-108.8" font-family="Times,serif" font-size="14.00">Val. 8</text>
<polyline fill="none" stroke="black" points="1004,-101 1078,-101 "/>
<text text-anchor="middle" x="1041" y="-85.8" font-family="Times,serif" font-size="14.00">Next 10</text>
<polyline fill="none" stroke="black" points="1004,-78 1078,-78 "/>
<text text-anchor="middle" x="1041" y="-62.8" font-family="Times,serif" font-size="14.00">Prev. 8</text>
</g>
<!-- node8&#45;&gt;node9 -->
<!-- node8&#45;&gt;node9 -->
<g id="edge24" class="edge">
<title>node8:n&#45;&gt;node9</title>
<path fill="none" stroke="black" d="M968,-89C976.47,-89 985.43,-89.82 994.04,-91.03"/>
<polygon fill="black" stroke="black" points="993.51,-94.49 1003.94,-92.6 994.61,-87.57 993.51,-94.49"/>
</g>
<!-- node9&#45;&gt;node8 -->
<g id="edge27" class="edge">
<title>node9:p&#45;&gt;node8</title>
<path fill="none" stroke="black" d="M1004,-66C994.92,-66 985.83,-68.44 977.36,-72.03"/>
<polygon fill="black" stroke="black" points="975.59,-69 968.1,-76.5 978.63,-75.3 975.59,-69"/>
</g>
<!-- node9&#45;&gt;node10 -->
<!-- node9&#45;&gt;node10 -->
<g id="edge26" class="edge">
<title>node9:n&#45;&gt;node10</title>
<path fill="none" stroke="black" d="M1078,-89C1086.46,-89 1095.39,-89.78 1104,-90.95"/>
<polygon fill="black" stroke="black" points="1103.51,-94.41 1113.92,-92.47 1104.57,-87.5 1103.51,-94.41"/>
</g>
<!-- node10&#45;&gt;node9 -->
<g id="edge28" class="edge">
<title>node10:p&#45;&gt;node9</title>
<path fill="none" stroke="black" d="M1114,-66C1105.01,-66 1095.97,-68.23 1087.48,-71.57"/>
<polygon fill="black" stroke="black" points="1085.85,-68.47 1078.15,-75.75 1088.71,-74.85 1085.85,-68.47"/>
</g>
</g>
</svg>
