<?xml version="1.0" encoding="UTF-8" standalone="no"?>
<!DOCTYPE svg PUBLIC "-//W3C//DTD SVG 1.1//EN"
 "http://www.w3.org/Graphics/SVG/1.1/DTD/svg11.dtd">
<!-- Generated by graphviz version 2.43.0 (0)
 -->
<!-- Title: G Pages: 1 -->
<svg width="1544pt" height="488pt"
 viewBox="0.00 0.00 1544.00 487.70" xmlns="http://www.w3.org/2000/svg" xmlns:xlink="http://www.w3.org/1999/xlink">
<g id="graph0" class="graph" transform="scale(1 1) rotate(0) translate(4 483.7)">
<title>G</title>
<polygon fill="white" stroke="transparent" points="-4,4 -4,-483.7 1540,-483.7 1540,4 -4,4"/>
<!-- head -->
<g id="node1" class="node">
<title>head</title>
<path fill="#fffeb6" stroke="black" d="M101,-317.7C101,-317.7 35,-317.7 35,-317.7 29,-317.7 23,-311.7 23,-305.7 23,-305.7 23,-293.7 23,-293.7 23,-287.7 29,-281.7 35,-281.7 35,-281.7 101,-281.7 101,-281.7 107,-281.7 113,-287.7 113,-293.7 113,-293.7 113,-305.7 113,-305.7 113,-311.7 107,-317.7 101,-317.7"/>
<text text-anchor="middle" x="68" y="-296" font-family="Times,serif" font-size="14.00">HEAD = 1</text>
</g>
<!-- node1 -->
<g id="node8" class="node">
<title>node1</title>
<path fill="#faa76c" stroke="black" d="M184,-62.7C184,-62.7 228,-62.7 228,-62.7 234,-62.7 240,-68.7 240,-74.7 240,-74.7 240,-142.7 240,-142.7 240,-148.7 234,-154.7 228,-154.7 228,-154.7 184,-154.7 184,-154.7 178,-154.7 172,-148.7 172,-142.7 172,-142.7 172,-74.7 172,-74.7 172,-68.7 178,-62.7 184,-62.7"/>
<text text-anchor="middle" x="206" y="-139.5" font-family="Times,serif" font-size="14.00">Node 1</text>
<polyline fill="none" stroke="black" points="172,-131.7 240,-131.7 "/>
<text text-anchor="middle" x="206" y="-116.5" font-family="Times,serif" font-size="14.00">Val. 0</text>
<polyline fill="none" stroke="black" points="172,-108.7 240,-108.7 "/>
<text text-anchor="middle" x="206" y="-93.5" font-family="Times,serif" font-size="14.00">Next 2</text>
<polyline fill="none" stroke="black" points="172,-85.7 240,-85.7 "/>
<text text-anchor="middle" x="206" y="-70.5" font-family="Times,serif" font-size="14.00">Prev. 0</text>
</g>
<!-- head&#45;&gt;node1 -->
<g id="edge22" class="edge">
<title>head&#45;&gt;node1</title>
<path fill="none" stroke="black" stroke-width="2" d="M113.11,-287.72C121.45,-283.94 129.57,-279.04 136,-272.7 165.54,-243.6 183.08,-199.92 193.07,-164.95"/>
<polygon fill="black" stroke="black" stroke-width="2" points="196.57,-165.44 195.82,-154.88 189.81,-163.61 196.57,-165.44"/>
</g>
<!-- tail -->
<g id="node2" class="node">
<title>tail</title>
<path fill="#fffeb6" stroke="black" d="M95.5,-209.7C95.5,-209.7 40.5,-209.7 40.5,-209.7 34.5,-209.7 28.5,-203.7 28.5,-197.7 28.5,-197.7 28.5,-185.7 28.5,-185.7 28.5,-179.7 34.5,-173.7 40.5,-173.7 40.5,-173.7 95.5,-173.7 95.5,-173.7 101.5,-173.7 107.5,-179.7 107.5,-185.7 107.5,-185.7 107.5,-197.7 107.5,-197.7 107.5,-203.7 101.5,-209.7 95.5,-209.7"/>
<text text-anchor="middle" x="68" y="-188" font-family="Times,serif" font-size="14.00">TAIL = 4</text>
</g>
<!-- node4 -->
<g id="node11" class="node">
<title>node4</title>
<path fill="#c1aed1" stroke="black" d="M496,-62.7C496,-62.7 540,-62.7 540,-62.7 546,-62.7 552,-68.7 552,-74.7 552,-74.7 552,-142.7 552,-142.7 552,-148.7 546,-154.7 540,-154.7 540,-154.7 496,-154.7 496,-154.7 490,-154.7 484,-148.7 484,-142.7 484,-142.7 484,-74.7 484,-74.7 484,-68.7 490,-62.7 496,-62.7"/>
<text text-anchor="middle" x="518" y="-139.5" font-family="Times,serif" font-size="14.00">Node 4</text>
<polyline fill="none" stroke="black" points="484,-131.7 552,-131.7 "/>
<text text-anchor="middle" x="518" y="-116.5" font-family="Times,serif" font-size="14.00">Val. 3</text>
<polyline fill="none" stroke="black" points="484,-108.7 552,-108.7 "/>
<text text-anchor="middle" x="518" y="-93.5" font-family="Times,serif" font-size="14.00">Next 0</text>
<polyline fill="none" stroke="black" points="484,-85.7 552,-85.7 "/>
<text text-anchor="middle" x="518" y="-70.5" font-family="Times,serif" font-size="14.00">Prev. 3</text>
</g>
<!-- tail&#45;&gt;node4 -->
<g id="edge23" class="edge">
<title>tail&#45;&gt;node4</title>
<path fill="none" stroke="black" stroke-width="2" d="M107.65,-182.5C118.13,-178.32 128.6,-172.3 136,-163.7 179,-113.67 120,-60.3 172,-19.7 215.76,14.47 320.02,4.38 448,-52.7 457.72,-57.03 467.21,-63.1 475.88,-69.64"/>
<polygon fill="black" stroke="black" stroke-width="2" points="473.93,-72.56 483.94,-76.02 478.27,-67.07 473.93,-72.56"/>
</g>
<!-- freeHead -->
<g id="node3" class="node">
<title>freeHead</title>
<path fill="#fffeb6" stroke="black" d="M124,-263.7C124,-263.7 12,-263.7 12,-263.7 6,-263.7 0,-257.7 0,-251.7 0,-251.7 0,-239.7 0,-239.7 0,-233.7 6,-227.7 12,-227.7 12,-227.7 124,-227.7 124,-227.7 130,-227.7 136,-233.7 136,-239.7 136,-239.7 136,-251.7 136,-251.7 136,-257.7 130,-263.7 124,-263.7"/>
<text text-anchor="middle" x="68" y="-242" font-family="Times,serif" font-size="14.00">FREE HEAD = 5</text>
</g>
<!-- node5 -->
<g id="node12" class="node">
<title>node5</title>
<path fill="#98ff98" stroke="black" d="M600,-62.7C600,-62.7 704,-62.7 704,-62.7 710,-62.7 716,-68.7 716,-74.7 716,-74.7 716,-142.7 716,-142.7 716,-148.7 710,-154.7 704,-154.7 704,-154.7 600,-154.7 600,-154.7 594,-154.7 588,-148.7 588,-142.7 588,-142.7 588,-74.7 588,-74.7 588,-68.7 594,-62.7 600,-62.7"/>
<text text-anchor="middle" x="652" y="-139.5" font-family="Times,serif" font-size="14.00">Node 5</text>
<polyline fill="none" stroke="black" points="588,-131.7 716,-131.7 "/>
<text text-anchor="middle" x="652" y="-116.5" font-family="Times,serif" font-size="14.00">Val. 0</text>
<polyline fill="none" stroke="black" points="588,-108.7 716,-108.7 "/>
<text text-anchor="middle" x="652" y="-93.5" font-family="Times,serif" font-size="14.00">Next 6</text>
<polyline fill="none" stroke="black" points="588,-85.7 716,-85.7 "/>
<text text-anchor="middle" x="652" y="-70.5" font-family="Times,serif" font-size="14.00">Prev. Free node</text>
</g>
<!-- freeHead&#45;&gt;node5 -->
<g id="edge24" class="edge">
<title>freeHead&#45;&gt;node5</title>
<path fill="none" stroke="black" stroke-width="2" d="M126.26,-227.58C129.86,-225 133.17,-222.05 136,-218.7 184.67,-160.99 116.64,-104.02 172,-52.7 217.08,-10.91 247.53,-33.7 309,-33.7 309,-33.7 309,-33.7 415,-33.7 476.47,-33.7 493.77,-33 552,-52.7 560.95,-55.73 570.02,-59.58 578.85,-63.85"/>
<polygon fill="black" stroke="black" stroke-width="2" points="577.43,-67.06 587.94,-68.43 580.58,-60.8 577.43,-67.06"/>
</g>
<!-- capacity -->
<g id="node4" class="node">
<title>capacity</title>
<path fill="#fffeb6" stroke="black" d="M120,-371.7C120,-371.7 16,-371.7 16,-371.7 10,-371.7 4,-365.7 4,-359.7 4,-359.7 4,-347.7 4,-347.7 4,-341.7 10,-335.7 16,-335.7 16,-335.7 120,-335.7 120,-335.7 126,-335.7 132,-341.7 132,-347.7 132,-347.7 132,-359.7 132,-359.7 132,-365.7 126,-371.7 120,-371.7"/>
<text text-anchor="middle" x="68" y="-350" font-family="Times,serif" font-size="14.00">CAPACITY = 10</text>
</g>
<!-- size -->
<g id="node5" class="node">
<title>size</title>
<path fill="#fffeb6" stroke="black" d="M97,-425.7C97,-425.7 39,-425.7 39,-425.7 33,-425.7 27,-419.7 27,-413.7 27,-413.7 27,-401.7 27,-401.7 27,-395.7 33,-389.7 39,-389.7 39,-389.7 97,-389.7 97,-389.7 103,-389.7 109,-395.7 109,-401.7 109,-401.7 109,-413.7 109,-413.7 109,-419.7 103,-425.7 97,-425.7"/>
<text text-anchor="middle" x="68" y="-404" font-family="Times,serif" font-size="14.00">SIZE = 4</text>
</g>
<!-- isSorted -->
<g id="node6" class="node">
<title>isSorted</title>
<path fill="#fffeb6" stroke="black" d="M117.5,-479.7C117.5,-479.7 18.5,-479.7 18.5,-479.7 12.5,-479.7 6.5,-473.7 6.5,-467.7 6.5,-467.7 6.5,-455.7 6.5,-455.7 6.5,-449.7 12.5,-443.7 18.5,-443.7 18.5,-443.7 117.5,-443.7 117.5,-443.7 123.5,-443.7 129.5,-449.7 129.5,-455.7 129.5,-455.7 129.5,-467.7 129.5,-467.7 129.5,-473.7 123.5,-479.7 117.5,-479.7"/>
<text text-anchor="middle" x="68" y="-458" font-family="Times,serif" font-size="14.00">SORTED = NO</text>
</g>
<!-- node0 -->
<g id="node7" class="node">
<title>node0</title>
<path fill="#c0c0c0" stroke="black" d="M46,-62.7C46,-62.7 90,-62.7 90,-62.7 96,-62.7 102,-68.7 102,-74.7 102,-74.7 102,-142.7 102,-142.7 102,-148.7 96,-154.7 90,-154.7 90,-154.7 46,-154.7 46,-154.7 40,-154.7 34,-148.7 34,-142.7 34,-142.7 34,-74.7 34,-74.7 34,-68.7 40,-62.7 46,-62.7"/>
<text text-anchor="middle" x="68" y="-139.5" font-family="Times,serif" font-size="14.00">Node 0</text>
<polyline fill="none" stroke="black" points="34,-131.7 102,-131.7 "/>
<text text-anchor="middle" x="68" y="-116.5" font-family="Times,serif" font-size="14.00">Val. 0</text>
<polyline fill="none" stroke="black" points="34,-108.7 102,-108.7 "/>
<text text-anchor="middle" x="68" y="-93.5" font-family="Times,serif" font-size="14.00">Next 1</text>
<polyline fill="none" stroke="black" points="34,-85.7 102,-85.7 "/>
<text text-anchor="middle" x="68" y="-70.5" font-family="Times,serif" font-size="14.00">Prev. 4</text>
</g>
<!-- node0&#45;&gt;node1 -->
<!-- node2 -->
<g id="node9" class="node">
<title>node2</title>
<path fill="#ffb2d0" stroke="black" d="M288,-62.7C288,-62.7 332,-62.7 332,-62.7 338,-62.7 344,-68.7 344,-74.7 344,-74.7 344,-142.7 344,-142.7 344,-148.7 338,-154.7 332,-154.7 332,-154.7 288,-154.7 288,-154.7 282,-154.7 276,-148.7 276,-142.7 276,-142.7 276,-74.7 276,-74.7 276,-68.7 282,-62.7 288,-62.7"/>
<text text-anchor="middle" x="310" y="-139.5" font-family="Times,serif" font-size="14.00">Node 2</text>
<polyline fill="none" stroke="black" points="276,-131.7 344,-131.7 "/>
<text text-anchor="middle" x="310" y="-116.5" font-family="Times,serif" font-size="14.00">Val. 1</text>
<polyline fill="none" stroke="black" points="276,-108.7 344,-108.7 "/>
<text text-anchor="middle" x="310" y="-93.5" font-family="Times,serif" font-size="14.00">Next 3</text>
<polyline fill="none" stroke="black" points="276,-85.7 344,-85.7 "/>
<text text-anchor="middle" x="310" y="-70.5" font-family="Times,serif" font-size="14.00">Prev. 1</text>
</g>
<!-- node1&#45;&gt;node2 -->
<!-- node1&#45;&gt;node2 -->
<g id="edge11" class="edge">
<title>node1:n&#45;&gt;node2</title>
<path fill="none" stroke="black" d="M240,-96.7C248.38,-96.7 257.26,-97.57 265.75,-98.84"/>
<polygon fill="black" stroke="black" points="265.42,-102.34 275.86,-100.56 266.59,-95.43 265.42,-102.34"/>
</g>
<!-- node2&#45;&gt;node1 -->
<g id="edge13" class="edge">
<title>node2:p&#45;&gt;node1</title>
<path fill="none" stroke="black" d="M276,-73.7C266.92,-73.7 257.83,-76.14 249.36,-79.73"/>
<polygon fill="black" stroke="black" points="247.59,-76.7 240.1,-84.2 250.63,-83 247.59,-76.7"/>
</g>
<!-- node3 -->
<g id="node10" class="node">
<title>node3</title>
<path fill="#ffb2d0" stroke="black" d="M392,-62.7C392,-62.7 436,-62.7 436,-62.7 442,-62.7 448,-68.7 448,-74.7 448,-74.7 448,-142.7 448,-142.7 448,-148.7 442,-154.7 436,-154.7 436,-154.7 392,-154.7 392,-154.7 386,-154.7 380,-148.7 380,-142.7 380,-142.7 380,-74.7 380,-74.7 380,-68.7 386,-62.7 392,-62.7"/>
<text text-anchor="middle" x="414" y="-139.5" font-family="Times,serif" font-size="14.00">Node 3</text>
<polyline fill="none" stroke="black" points="380,-131.7 448,-131.7 "/>
<text text-anchor="middle" x="414" y="-116.5" font-family="Times,serif" font-size="14.00">Val. 2</text>
<polyline fill="none" stroke="black" points="380,-108.7 448,-108.7 "/>
<text text-anchor="middle" x="414" y="-93.5" font-family="Times,serif" font-size="14.00">Next 4</text>
<polyline fill="none" stroke="black" points="380,-85.7 448,-85.7 "/>
<text text-anchor="middle" x="414" y="-70.5" font-family="Times,serif" font-size="14.00">Prev. 2</text>
</g>
<!-- node2&#45;&gt;node3 -->
<!-- node2&#45;&gt;node3 -->
<g id="edge12" class="edge">
<title>node2:n&#45;&gt;node3</title>
<path fill="none" stroke="black" d="M344,-96.7C352.38,-96.7 361.26,-97.57 369.75,-98.84"/>
<polygon fill="black" stroke="black" points="369.42,-102.34 379.86,-100.56 370.59,-95.43 369.42,-102.34"/>
</g>
<!-- node3&#45;&gt;node2 -->
<g id="edge15" class="edge">
<title>node3:p&#45;&gt;node2</title>
<path fill="none" stroke="black" d="M380,-73.7C370.92,-73.7 361.83,-76.14 353.36,-79.73"/>
<polygon fill="black" stroke="black" points="351.59,-76.7 344.1,-84.2 354.63,-83 351.59,-76.7"/>
</g>
<!-- node3&#45;&gt;node4 -->
<!-- node3&#45;&gt;node4 -->
<g id="edge14" class="edge">
<title>node3:n&#45;&gt;node4</title>
<path fill="none" stroke="black" d="M448,-96.7C456.38,-96.7 465.26,-97.57 473.75,-98.84"/>
<polygon fill="black" stroke="black" points="473.42,-102.34 483.86,-100.56 474.59,-95.43 473.42,-102.34"/>
</g>
<!-- node4&#45;&gt;node3 -->
<g id="edge16" class="edge">
<title>node4:p&#45;&gt;node3</title>
<path fill="none" stroke="black" d="M484,-73.7C474.92,-73.7 465.83,-76.14 457.36,-79.73"/>
<polygon fill="black" stroke="black" points="455.59,-76.7 448.1,-84.2 458.63,-83 455.59,-76.7"/>
</g>
<!-- node4&#45;&gt;node5 -->
<!-- node6 -->
<g id="node13" class="node">
<title>node6</title>
<path fill="#98ff98" stroke="black" d="M764,-62.7C764,-62.7 868,-62.7 868,-62.7 874,-62.7 880,-68.7 880,-74.7 880,-74.7 880,-142.7 880,-142.7 880,-148.7 874,-154.7 868,-154.7 868,-154.7 764,-154.7 764,-154.7 758,-154.7 752,-148.7 752,-142.7 752,-142.7 752,-74.7 752,-74.7 752,-68.7 758,-62.7 764,-62.7"/>
<text text-anchor="middle" x="816" y="-139.5" font-family="Times,serif" font-size="14.00">Node 6</text>
<polyline fill="none" stroke="black" points="752,-131.7 880,-131.7 "/>
<text text-anchor="middle" x="816" y="-116.5" font-family="Times,serif" font-size="14.00">Val. 0</text>
<polyline fill="none" stroke="black" points="752,-108.7 880,-108.7 "/>
<text text-anchor="middle" x="816" y="-93.5" font-family="Times,serif" font-size="14.00">Next 7</text>
<polyline fill="none" stroke="black" points="752,-85.7 880,-85.7 "/>
<text text-anchor="middle" x="816" y="-70.5" font-family="Times,serif" font-size="14.00">Prev. Free node</text>
</g>
<!-- node5&#45;&gt;node6 -->
<!-- node5&#45;&gt;node6 -->
<g id="edge17" class="edge">
<title>node5:n&#45;&gt;node6</title>
<path fill="none" stroke="black" d="M716,-96.7C724.34,-96.7 733.04,-97.12 741.68,-97.81"/>
<polygon fill="black" stroke="black" points="741.48,-101.31 751.76,-98.73 742.12,-94.34 741.48,-101.31"/>
</g>
<!-- node7 -->
<g id="node14" class="node">
<title>node7</title>
<path fill="#98ff98" stroke="black" d="M928,-62.7C928,-62.7 1032,-62.7 1032,-62.7 1038,-62.7 1044,-68.7 1044,-74.7 1044,-74.7 1044,-142.7 1044,-142.7 1044,-148.7 1038,-154.7 1032,-154.7 1032,-154.7 928,-154.7 928,-154.7 922,-154.7 916,-148.7 916,-142.7 916,-142.7 916,-74.7 916,-74.7 916,-68.7 922,-62.7 928,-62.7"/>
<text text-anchor="middle" x="980" y="-139.5" font-family="Times,serif" font-size="14.00">Node 7</text>
<polyline fill="none" stroke="black" points="916,-131.7 1044,-131.7 "/>
<text text-anchor="middle" x="980" y="-116.5" font-family="Times,serif" font-size="14.00">Val. 0</text>
<polyline fill="none" stroke="black" points="916,-108.7 1044,-108.7 "/>
<text text-anchor="middle" x="980" y="-93.5" font-family="Times,serif" font-size="14.00">Next 8</text>
<polyline fill="none" stroke="black" points="916,-85.7 1044,-85.7 "/>
<text text-anchor="middle" x="980" y="-70.5" font-family="Times,serif" font-size="14.00">Prev. Free node</text>
</g>
<!-- node6&#45;&gt;node7 -->
<!-- node6&#45;&gt;node7 -->
<g id="edge18" class="edge">
<title>node6:n&#45;&gt;node7</title>
<path fill="none" stroke="black" d="M880,-96.7C888.34,-96.7 897.04,-97.12 905.68,-97.81"/>
<polygon fill="black" stroke="black" points="905.48,-101.31 915.76,-98.73 906.12,-94.34 905.48,-101.31"/>
</g>
<!-- node8 -->
<g id="node15" class="node">
<title>node8</title>
<path fill="#98ff98" stroke="black" d="M1092,-62.7C1092,-62.7 1196,-62.7 1196,-62.7 1202,-62.7 1208,-68.7 1208,-74.7 1208,-74.7 1208,-142.7 1208,-142.7 1208,-148.7 1202,-154.7 1196,-154.7 1196,-154.7 1092,-154.7 1092,-154.7 1086,-154.7 1080,-148.7 1080,-142.7 1080,-142.7 1080,-74.7 1080,-74.7 1080,-68.7 1086,-62.7 1092,-62.7"/>
<text text-anchor="middle" x="1144" y="-139.5" font-family="Times,serif" font-size="14.00">Node 8</text>
<polyline fill="none" stroke="black" points="1080,-131.7 1208,-131.7 "/>
<text text-anchor="middle" x="1144" y="-116.5" font-family="Times,serif" font-size="14.00">Val. 0</text>
<polyline fill="none" stroke="black" points="1080,-108.7 1208,-108.7 "/>
<text text-anchor="middle" x="1144" y="-93.5" font-family="Times,serif" font-size="14.00">Next 9</text>
<polyline fill="none" stroke="black" points="1080,-85.7 1208,-85.7 "/>
<text text-anchor="middle" x="1144" y="-70.5" font-family="Times,serif" font-size="14.00">Prev. Free node</text>
</g>
<!-- node7&#45;&gt;node8 -->
<!-- node7&#45;&gt;node8 -->
<g id="edge19" class="edge">
<title>node7:n&#45;&gt;node8</title>
<path fill="none" stroke="black" d="M1044,-96.7C1052.34,-96.7 1061.04,-97.12 1069.68,-97.81"/>
<polygon fill="black" stroke="black" points="1069.48,-101.31 1079.76,-98.73 1070.12,-94.34 1069.48,-101.31"/>
</g>
<!-- node9 -->
<g id="node16" class="node">
<title>node9</title>
<path fill="#98ff98" stroke="black" d="M1256,-62.7C1256,-62.7 1360,-62.7 1360,-62.7 1366,-62.7 1372,-68.7 1372,-74.7 1372,-74.7 1372,-142.7 1372,-142.7 1372,-148.7 1366,-154.7 1360,-154.7 1360,-154.7 1256,-154.7 1256,-154.7 1250,-154.7 1244,-148.7 1244,-142.7 1244,-142.7 1244,-74.7 1244,-74.7 1244,-68.7 1250,-62.7 1256,-62.7"/>
<text text-anchor="middle" x="1308" y="-139.5" font-family="Times,serif" font-size="14.00">Node 9</text>
<polyline fill="none" stroke="black" points="1244,-131.7 1372,-131.7 "/>
<text text-anchor="middle" x="1308" y="-116.5" font-family="Times,serif" font-size="14.00">Val. 0</text>
<polyline fill="none" stroke="black" points="1244,-108.7 1372,-108.7 "/>
<text text-anchor="middle" x="1308" y="-93.5" font-family="Times,serif" font-size="14.00">Next 10</text>
<polyline fill="none" stroke="black" points="1244,-85.7 1372,-85.7 "/>
<text text-anchor="middle" x="1308" y="-70.5" font-family="Times,serif" font-size="14.00">Prev. Free node</text>
</g>
<!-- node8&#45;&gt;node9 -->
<!-- node8&#45;&gt;node9 -->
<g id="edge20" class="edge">
<title>node8:n&#45;&gt;node9</title>
<path fill="none" stroke="black" d="M1208,-96.7C1216.34,-96.7 1225.04,-97.12 1233.68,-97.81"/>
<polygon fill="black" stroke="black" points="1233.48,-101.31 1243.76,-98.73 1234.12,-94.34 1233.48,-101.31"/>
</g>
<!-- node10 -->
<g id="node17" class="node">
<title>node10</title>
<path fill="#98ff98" stroke="black" d="M1420,-62.7C1420,-62.7 1524,-62.7 1524,-62.7 1530,-62.7 1536,-68.7 1536,-74.7 1536,-74.7 1536,-142.7 1536,-142.7 1536,-148.7 1530,-154.7 1524,-154.7 1524,-154.7 1420,-154.7 1420,-154.7 1414,-154.7 1408,-148.7 1408,-142.7 1408,-142.7 1408,-74.7 1408,-74.7 1408,-68.7 1414,-62.7 1420,-62.7"/>
<text text-anchor="middle" x="1472" y="-139.5" font-family="Times,serif" font-size="14.00">Node 10</text>
<polyline fill="none" stroke="black" points="1408,-131.7 1536,-131.7 "/>
<text text-anchor="middle" x="1472" y="-116.5" font-family="Times,serif" font-size="14.00">Val. 0</text>
<polyline fill="none" stroke="black" points="1408,-108.7 1536,-108.7 "/>
<text text-anchor="middle" x="1472" y="-93.5" font-family="Times,serif" font-size="14.00">Next 0</text>
<polyline fill="none" stroke="black" points="1408,-85.7 1536,-85.7 "/>
<text text-anchor="middle" x="1472" y="-70.5" font-family="Times,serif" font-size="14.00">Prev. Free node</text>
</g>
<!-- node9&#45;&gt;node10 -->
<!-- node9&#45;&gt;node10 -->
<g id="edge21" class="edge">
<title>node9:n&#45;&gt;node10</title>
<path fill="none" stroke="black" d="M1372,-96.7C1380.34,-96.7 1389.04,-97.12 1397.68,-97.81"/>
<polygon fill="black" stroke="black" points="1397.48,-101.31 1407.76,-98.73 1398.12,-94.34 1397.48,-101.31"/>
</g>
</g>
</svg>
